<?xml version="1.0" encoding="us-ascii" standalone="no"?><svg xmlns="http://www.w3.org/2000/svg" xmlns:xlink="http://www.w3.org/1999/xlink" contentStyleType="text/css" height="375px" preserveAspectRatio="none" style="width:382px;height:375px;background:#FFFFFF;" version="1.1" viewBox="0 0 382 375" width="382px" zoomAndPan="magnify"><defs/><g><ellipse cx="201.5" cy="20" fill="#222222" rx="10" ry="10" style="stroke:#222222;stroke-width:1.0;"/><rect fill="#F1F1F1" height="34.1328" rx="12.5" ry="12.5" style="stroke:#181818;stroke-width:0.5;" width="123" x="140" y="50"/><text fill="#000000" font-family="sans-serif" font-size="12" lengthAdjust="spacing" textLength="103" x="150" y="71.6016">Incoming Identifer</text><polygon fill="#F1F1F1" points="71,104.1328,108,104.1328,120,116.1328,108,128.1328,71,128.1328,59,116.1328,71,104.1328" style="stroke:#181818;stroke-width:0.5;"/><text fill="#000000" font-family="sans-serif" font-size="11" lengthAdjust="spacing" textLength="19" x="93.5" y="138.7676">Yes</text><text fill="#000000" font-family="sans-serif" font-size="11" lengthAdjust="spacing" textLength="37" x="71" y="120.29">isEmail</text><rect fill="#F1F1F1" height="34.1328" rx="12.5" ry="12.5" style="stroke:#181818;stroke-width:0.5;" width="83" x="48" y="160.2676"/><text fill="#000000" font-family="sans-serif" font-size="12" lengthAdjust="spacing" textLength="63" x="58" y="181.8691">Send Email</text><rect fill="#F1F1F1" height="34.1328" rx="12.5" ry="12.5" style="stroke:#181818;stroke-width:0.5;" width="157" x="11" y="214.4004"/><text fill="#000000" font-family="sans-serif" font-size="12" lengthAdjust="spacing" textLength="137" x="21" y="236.002">Display Email Sent Page</text><rect fill="#F1F1F1" height="34.1328" rx="12.5" ry="12.5" style="stroke:#181818;stroke-width:0.5;" width="145" x="17" y="268.5332"/><text fill="#000000" font-family="sans-serif" font-size="12" lengthAdjust="spacing" textLength="125" x="27" y="290.1348">User Clicks Email Link</text><polygon fill="#F1F1F1" points="249.5,104.1328,280.5,104.1328,292.5,116.1328,280.5,128.1328,249.5,128.1328,237.5,116.1328,249.5,104.1328" style="stroke:#181818;stroke-width:0.5;"/><text fill="#000000" font-family="sans-serif" font-size="11" lengthAdjust="spacing" textLength="19" x="269" y="138.7676">Yes</text><text fill="#000000" font-family="sans-serif" font-size="11" lengthAdjust="spacing" textLength="31" x="249.5" y="120.29">isSms</text><rect fill="#F1F1F1" height="34.1328" rx="12.5" ry="12.5" style="stroke:#181818;stroke-width:0.5;" width="75" x="227.5" y="160.2676"/><text fill="#000000" font-family="sans-serif" font-size="12" lengthAdjust="spacing" textLength="55" x="237.5" y="181.8691">Send Sms</text><rect fill="#F1F1F1" height="34.1328" rx="12.5" ry="12.5" style="stroke:#181818;stroke-width:0.5;" width="121" x="204.5" y="214.4004"/><text fill="#000000" font-family="sans-serif" font-size="12" lengthAdjust="spacing" textLength="101" x="214.5" y="236.002">Display SMS Form</text><rect fill="#F1F1F1" height="34.1328" rx="12.5" ry="12.5" style="stroke:#181818;stroke-width:0.5;" width="154" x="188" y="268.5332"/><text fill="#000000" font-family="sans-serif" font-size="12" lengthAdjust="spacing" textLength="134" x="198" y="290.1348">User Submits SMS Form</text><ellipse cx="201.5" cy="353.666" fill="none" rx="11" ry="11" style="stroke:#222222;stroke-width:1.0;"/><ellipse cx="201.5" cy="353.666" fill="#222222" rx="6" ry="6" style="stroke:#222222;stroke-width:1.0;"/><line style="stroke:#181818;stroke-width:1.0;" x1="201.5" x2="201.5" y1="30" y2="50"/><polygon fill="#181818" points="197.5,40,201.5,50,205.5,40,201.5,44" style="stroke:#181818;stroke-width:1.0;"/><line style="stroke:#181818;stroke-width:1.0;" x1="89.5" x2="89.5" y1="194.4004" y2="214.4004"/><polygon fill="#181818" points="85.5,204.4004,89.5,214.4004,93.5,204.4004,89.5,208.4004" style="stroke:#181818;stroke-width:1.0;"/><line style="stroke:#181818;stroke-width:1.0;" x1="89.5" x2="89.5" y1="248.5332" y2="268.5332"/><polygon fill="#181818" points="85.5,258.5332,89.5,268.5332,93.5,258.5332,89.5,262.5332" style="stroke:#181818;stroke-width:1.0;"/><line style="stroke:#181818;stroke-width:1.0;" x1="265" x2="265" y1="194.4004" y2="214.4004"/><polygon fill="#181818" points="261,204.4004,265,214.4004,269,204.4004,265,208.4004" style="stroke:#181818;stroke-width:1.0;"/><line style="stroke:#181818;stroke-width:1.0;" x1="265" x2="265" y1="248.5332" y2="268.5332"/><polygon fill="#181818" points="261,258.5332,265,268.5332,269,258.5332,265,262.5332" style="stroke:#181818;stroke-width:1.0;"/><line style="stroke:#181818;stroke-width:1.0;" x1="89.5" x2="89.5" y1="128.1328" y2="160.2676"/><polygon fill="#181818" points="85.5,150.2676,89.5,160.2676,93.5,150.2676,89.5,154.2676" style="stroke:#181818;stroke-width:1.0;"/><line style="stroke:#181818;stroke-width:1.0;" x1="89.5" x2="89.5" y1="302.666" y2="322.666"/><polygon fill="#181818" points="85.5,312.666,89.5,322.666,93.5,312.666,89.5,316.666" style="stroke:#181818;stroke-width:1.0;"/><line style="stroke:#181818;stroke-width:1.0;" x1="265" x2="265" y1="128.1328" y2="160.2676"/><polygon fill="#181818" points="261,150.2676,265,160.2676,269,150.2676,265,154.2676" style="stroke:#181818;stroke-width:1.0;"/><line style="stroke:#181818;stroke-width:1.0;" x1="265" x2="265" y1="302.666" y2="322.666"/><polygon fill="#181818" points="261,312.666,265,322.666,269,312.666,265,316.666" style="stroke:#181818;stroke-width:1.0;"/><line style="stroke:#181818;stroke-width:1.0;" x1="120" x2="237.5" y1="116.1328" y2="116.1328"/><polygon fill="#181818" points="227.5,112.1328,237.5,116.1328,227.5,120.1328,231.5,116.1328" style="stroke:#181818;stroke-width:1.0;"/><line style="stroke:#181818;stroke-width:1.0;" x1="201.5" x2="201.5" y1="84.1328" y2="89.1328"/><line style="stroke:#181818;stroke-width:1.0;" x1="201.5" x2="89.5" y1="89.1328" y2="89.1328"/><line style="stroke:#181818;stroke-width:1.0;" x1="89.5" x2="89.5" y1="89.1328" y2="104.1328"/><polygon fill="#181818" points="85.5,94.1328,89.5,104.1328,93.5,94.1328,89.5,98.1328" style="stroke:#181818;stroke-width:1.0;"/><line style="stroke:#181818;stroke-width:1.0;" x1="292.5" x2="356" y1="116.1328" y2="116.1328"/><line style="stroke:#181818;stroke-width:1.0;" x1="356" x2="356" y1="116.1328" y2="322.666"/><polygon fill="#181818" points="352,312.666,356,322.666,360,312.666,356,316.666" style="stroke:#181818;stroke-width:1.0;"/><line style="stroke:#181818;stroke-width:1.0;" x1="89.5" x2="356" y1="322.666" y2="322.666"/><line style="stroke:#181818;stroke-width:1.0;" x1="201.5" x2="201.5" y1="322.666" y2="342.666"/><polygon fill="#181818" points="197.5,332.666,201.5,342.666,205.5,332.666,201.5,336.666" style="stroke:#181818;stroke-width:1.0;"/><!--SRC=[ROsx3eCm34NtV8L7-0KozY4XjLAbg4F751ngaHWKkqF_lX4meAftlCU-HzHdDKtBtPI81sXxPAM0sHeA5SafUOerw0kvUg3K1aeQXzp3WknQ74dcw3zh1mKhtFo06xqBPZX4waRPBYx4epKO1HUBI_BVKS2FmLqTdAUSzjFk_KoaicFbbu8HdUOl]--></g></svg>