<?xml version="1.0" encoding="us-ascii" standalone="no"?><svg xmlns="http://www.w3.org/2000/svg" xmlns:xlink="http://www.w3.org/1999/xlink" contentStyleType="text/css" height="429px" preserveAspectRatio="none" style="width:382px;height:429px;background:#FFFFFF;" version="1.1" viewBox="0 0 382 429" width="382px" zoomAndPan="magnify"><defs/><g><ellipse cx="201.5" cy="20" fill="#222222" rx="10" ry="10" style="stroke:#222222;stroke-width:1.0;"/><rect fill="#F1F1F1" height="34.1328" rx="12.5" ry="12.5" style="stroke:#181818;stroke-width:0.5;" width="123" x="140" y="50"/><text fill="#000000" font-family="sans-serif" font-size="12" lengthAdjust="spacing" textLength="103" x="150" y="71.6016">Incoming Identifer</text><rect fill="#F1F1F1" height="34.1328" rx="12.5" ry="12.5" style="stroke:#181818;stroke-width:0.5;" width="167" x="118" y="104.1328"/><text fill="#000000" font-family="sans-serif" font-size="12" lengthAdjust="spacing" textLength="147" x="128" y="125.7344">Choose identifier to verify</text><polygon fill="#F1F1F1" points="71,158.2656,108,158.2656,120,170.2656,108,182.2656,71,182.2656,59,170.2656,71,158.2656" style="stroke:#181818;stroke-width:0.5;"/><text fill="#000000" font-family="sans-serif" font-size="11" lengthAdjust="spacing" textLength="19" x="93.5" y="192.9004">Yes</text><text fill="#000000" font-family="sans-serif" font-size="11" lengthAdjust="spacing" textLength="37" x="71" y="174.4229">isEmail</text><rect fill="#F1F1F1" height="34.1328" rx="12.5" ry="12.5" style="stroke:#181818;stroke-width:0.5;" width="83" x="48" y="214.4004"/><text fill="#000000" font-family="sans-serif" font-size="12" lengthAdjust="spacing" textLength="63" x="58" y="236.002">Send Email</text><rect fill="#F1F1F1" height="34.1328" rx="12.5" ry="12.5" style="stroke:#181818;stroke-width:0.5;" width="157" x="11" y="268.5332"/><text fill="#000000" font-family="sans-serif" font-size="12" lengthAdjust="spacing" textLength="137" x="21" y="290.1348">Display Email Sent Page</text><rect fill="#F1F1F1" height="34.1328" rx="12.5" ry="12.5" style="stroke:#181818;stroke-width:0.5;" width="145" x="17" y="322.666"/><text fill="#000000" font-family="sans-serif" font-size="12" lengthAdjust="spacing" textLength="125" x="27" y="344.2676">User Clicks Email Link</text><polygon fill="#F1F1F1" points="249.5,158.2656,280.5,158.2656,292.5,170.2656,280.5,182.2656,249.5,182.2656,237.5,170.2656,249.5,158.2656" style="stroke:#181818;stroke-width:0.5;"/><text fill="#000000" font-family="sans-serif" font-size="11" lengthAdjust="spacing" textLength="19" x="269" y="192.9004">Yes</text><text fill="#000000" font-family="sans-serif" font-size="11" lengthAdjust="spacing" textLength="31" x="249.5" y="174.4229">isSms</text><rect fill="#F1F1F1" height="34.1328" rx="12.5" ry="12.5" style="stroke:#181818;stroke-width:0.5;" width="75" x="227.5" y="214.4004"/><text fill="#000000" font-family="sans-serif" font-size="12" lengthAdjust="spacing" textLength="55" x="237.5" y="236.002">Send Sms</text><rect fill="#F1F1F1" height="34.1328" rx="12.5" ry="12.5" style="stroke:#181818;stroke-width:0.5;" width="121" x="204.5" y="268.5332"/><text fill="#000000" font-family="sans-serif" font-size="12" lengthAdjust="spacing" textLength="101" x="214.5" y="290.1348">Display SMS Form</text><rect fill="#F1F1F1" height="34.1328" rx="12.5" ry="12.5" style="stroke:#181818;stroke-width:0.5;" width="154" x="188" y="322.666"/><text fill="#000000" font-family="sans-serif" font-size="12" lengthAdjust="spacing" textLength="134" x="198" y="344.2676">User Submits SMS Form</text><ellipse cx="201.5" cy="407.7988" fill="none" rx="11" ry="11" style="stroke:#222222;stroke-width:1.0;"/><ellipse cx="201.5" cy="407.7988" fill="#222222" rx="6" ry="6" style="stroke:#222222;stroke-width:1.0;"/><line style="stroke:#181818;stroke-width:1.0;" x1="201.5" x2="201.5" y1="30" y2="50"/><polygon fill="#181818" points="197.5,40,201.5,50,205.5,40,201.5,44" style="stroke:#181818;stroke-width:1.0;"/><line style="stroke:#181818;stroke-width:1.0;" x1="201.5" x2="201.5" y1="84.1328" y2="104.1328"/><polygon fill="#181818" points="197.5,94.1328,201.5,104.1328,205.5,94.1328,201.5,98.1328" style="stroke:#181818;stroke-width:1.0;"/><line style="stroke:#181818;stroke-width:1.0;" x1="89.5" x2="89.5" y1="248.5332" y2="268.5332"/><polygon fill="#181818" points="85.5,258.5332,89.5,268.5332,93.5,258.5332,89.5,262.5332" style="stroke:#181818;stroke-width:1.0;"/><line style="stroke:#181818;stroke-width:1.0;" x1="89.5" x2="89.5" y1="302.666" y2="322.666"/><polygon fill="#181818" points="85.5,312.666,89.5,322.666,93.5,312.666,89.5,316.666" style="stroke:#181818;stroke-width:1.0;"/><line style="stroke:#181818;stroke-width:1.0;" x1="265" x2="265" y1="248.5332" y2="268.5332"/><polygon fill="#181818" points="261,258.5332,265,268.5332,269,258.5332,265,262.5332" style="stroke:#181818;stroke-width:1.0;"/><line style="stroke:#181818;stroke-width:1.0;" x1="265" x2="265" y1="302.666" y2="322.666"/><polygon fill="#181818" points="261,312.666,265,322.666,269,312.666,265,316.666" style="stroke:#181818;stroke-width:1.0;"/><line style="stroke:#181818;stroke-width:1.0;" x1="89.5" x2="89.5" y1="182.2656" y2="214.4004"/><polygon fill="#181818" points="85.5,204.4004,89.5,214.4004,93.5,204.4004,89.5,208.4004" style="stroke:#181818;stroke-width:1.0;"/><line style="stroke:#181818;stroke-width:1.0;" x1="89.5" x2="89.5" y1="356.7988" y2="376.7988"/><polygon fill="#181818" points="85.5,366.7988,89.5,376.7988,93.5,366.7988,89.5,370.7988" style="stroke:#181818;stroke-width:1.0;"/><line style="stroke:#181818;stroke-width:1.0;" x1="265" x2="265" y1="182.2656" y2="214.4004"/><polygon fill="#181818" points="261,204.4004,265,214.4004,269,204.4004,265,208.4004" style="stroke:#181818;stroke-width:1.0;"/><line style="stroke:#181818;stroke-width:1.0;" x1="265" x2="265" y1="356.7988" y2="376.7988"/><polygon fill="#181818" points="261,366.7988,265,376.7988,269,366.7988,265,370.7988" style="stroke:#181818;stroke-width:1.0;"/><line style="stroke:#181818;stroke-width:1.0;" x1="120" x2="237.5" y1="170.2656" y2="170.2656"/><polygon fill="#181818" points="227.5,166.2656,237.5,170.2656,227.5,174.2656,231.5,170.2656" style="stroke:#181818;stroke-width:1.0;"/><line style="stroke:#181818;stroke-width:1.0;" x1="201.5" x2="201.5" y1="138.2656" y2="143.2656"/><line style="stroke:#181818;stroke-width:1.0;" x1="201.5" x2="89.5" y1="143.2656" y2="143.2656"/><line style="stroke:#181818;stroke-width:1.0;" x1="89.5" x2="89.5" y1="143.2656" y2="158.2656"/><polygon fill="#181818" points="85.5,148.2656,89.5,158.2656,93.5,148.2656,89.5,152.2656" style="stroke:#181818;stroke-width:1.0;"/><line style="stroke:#181818;stroke-width:1.0;" x1="292.5" x2="356" y1="170.2656" y2="170.2656"/><line style="stroke:#181818;stroke-width:1.0;" x1="356" x2="356" y1="170.2656" y2="376.7988"/><polygon fill="#181818" points="352,366.7988,356,376.7988,360,366.7988,356,370.7988" style="stroke:#181818;stroke-width:1.0;"/><line style="stroke:#181818;stroke-width:1.0;" x1="89.5" x2="356" y1="376.7988" y2="376.7988"/><line style="stroke:#181818;stroke-width:1.0;" x1="201.5" x2="201.5" y1="376.7988" y2="396.7988"/><polygon fill="#181818" points="197.5,386.7988,201.5,396.7988,205.5,386.7988,201.5,390.7988" style="stroke:#181818;stroke-width:1.0;"/><!--SRC=[ROr12eCm44NtESKizGfcQLiGMYY4BhfCTQA39f7CjE3j6zI5bCxolp__iTWagcf26ps57feEWv33f5LL3p4o0cqHOGA9yC54Rj6AN45yzfQc4cJ0K3oHImNvAeEXWnNfBJWHpvDTjWmo5hZR7dVwuBnSJzIEl3Uk54QjS69SBSRpVqS6FmPpCt29oH-dpVlbIVZ0yYyvnHBdBm00]--></g></svg>