<?xml version="1.0" encoding="us-ascii" standalone="no"?><svg xmlns="http://www.w3.org/2000/svg" xmlns:xlink="http://www.w3.org/1999/xlink" contentStyleType="text/css" height="257px" preserveAspectRatio="none" style="width:360px;height:257px;background:#FFFFFF;" version="1.1" viewBox="0 0 360 257" width="360px" zoomAndPan="magnify"><defs/><g><ellipse cx="180" cy="20" fill="#222222" rx="10" ry="10" style="stroke:#222222;stroke-width:1.0;"/><rect fill="#F1F1F1" height="34.1328" rx="12.5" ry="12.5" style="stroke:#181818;stroke-width:0.5;" width="246" x="57" y="50"/><text fill="#000000" font-family="sans-serif" font-size="12" lengthAdjust="spacing" textLength="226" x="67" y="71.6016">Display Permissions Acceptance Screen</text><rect fill="#F1F1F1" height="34.1328" rx="12.5" ry="12.5" style="stroke:#181818;stroke-width:0.5;" width="291" x="34.5" y="104.1328"/><text fill="#000000" font-family="sans-serif" font-size="12" lengthAdjust="spacing" textLength="271" x="44.5" y="125.7344">Display Selection of Data to be sent to Provider</text><rect fill="#F1F1F1" height="48.2656" rx="12.5" ry="12.5" style="stroke:#181818;stroke-width:0.5;" width="338" x="11" y="158.2656"/><text fill="#000000" font-family="sans-serif" font-size="12" lengthAdjust="spacing" textLength="318" x="21" y="179.8672">Redirect to Provider callbackUrl with authorizationCode</text><text fill="#000000" font-family="sans-serif" font-size="12" lengthAdjust="spacing" textLength="251" x="25" y="194">that will resolve the addPermissionsPayload</text><ellipse cx="180" cy="236.5313" fill="none" rx="10" ry="10" style="stroke:#222222;stroke-width:1.5;"/><line style="stroke:#222222;stroke-width:2.5;" x1="173.8128" x2="186.1872" y1="230.3441" y2="242.7184"/><line style="stroke:#222222;stroke-width:2.5;" x1="186.1872" x2="173.8128" y1="230.3441" y2="242.7184"/><line style="stroke:#181818;stroke-width:1.0;" x1="180" x2="180" y1="30" y2="50"/><polygon fill="#181818" points="176,40,180,50,184,40,180,44" style="stroke:#181818;stroke-width:1.0;"/><line style="stroke:#181818;stroke-width:1.0;" x1="180" x2="180" y1="84.1328" y2="104.1328"/><polygon fill="#181818" points="176,94.1328,180,104.1328,184,94.1328,180,98.1328" style="stroke:#181818;stroke-width:1.0;"/><line style="stroke:#181818;stroke-width:1.0;" x1="180" x2="180" y1="138.2656" y2="158.2656"/><polygon fill="#181818" points="176,148.2656,180,158.2656,184,148.2656,180,152.2656" style="stroke:#181818;stroke-width:1.0;"/><line style="stroke:#181818;stroke-width:1.0;" x1="180" x2="180" y1="206.5313" y2="226.5313"/><polygon fill="#181818" points="176,216.5313,180,226.5313,184,216.5313,180,220.5313" style="stroke:#181818;stroke-width:1.0;"/><!--SRC=[JOwn3i8m44FtViLz1vqG_O28YetbcXWruiXLbwEeV3tfH3VBVhPSdSsxqv3h8hnHWBrohLbBfNECM9nB18tHWDB_kH62w0qZVT30pkHA4wYY-2w3wPeJh5MkIDaQVBGfiiZ4yNapeK_scVZjirh-yZvwqOHx8P_PMof2XggoeZaWJkdmCl0cogdlKD8F]--></g></svg>