<svg width="51" height="45" viewBox="0 0 51 45" fill="none" xmlns="http://www.w3.org/2000/svg">
<path d="M50.9269 2.16562C50.6247 0.896875 49.485 0 48.169 0H2.83347C1.26877 0 0 1.25938 0 2.8125V42.1875C0 43.1625 0.510025 44.0687 1.34432 44.5812C1.80083 44.8594 2.31715 45 2.83347 45C3.26794 45 3.69925 44.9031 4.10224 44.7031L38.1039 27.8281C39.2782 27.2437 39.8953 25.9344 39.593 24.6656C39.2908 23.3969 38.1511 22.5 36.8351 22.5H14.8348L49.4346 5.32812C50.609 4.74375 51.226 3.43437 50.9238 2.16562H50.9269Z" fill="url(#paint0_linear_1662_102)"/>
<defs>
<linearGradient id="paint0_linear_1662_102" x1="25.5" y1="0" x2="25.5" y2="45" gradientUnits="userSpaceOnUse">
<stop stop-color="#311E48"/>
<stop offset="0.5" stop-color="#790E70"/>
<stop offset="1" stop-color="#AA40A1"/>
</linearGradient>
</defs>
</svg>
