<?xml version="1.0" encoding="us-ascii" standalone="no"?><svg xmlns="http://www.w3.org/2000/svg" xmlns:xlink="http://www.w3.org/1999/xlink" contentStyleType="text/css" height="1518px" preserveAspectRatio="none" style="width:1592px;height:1518px;background:#FFFFFF;" version="1.1" viewBox="0 0 1592 1518" width="1592px" zoomAndPan="magnify"><defs/><g><text fill="#000000" font-family="sans-serif" font-size="14" font-weight="bold" lengthAdjust="spacing" textLength="412" x="586" y="28.5352">Adding a new Email or Phone Number - Non Overt Login</text><rect fill="none" height="208.1289" style="stroke:#000000;stroke-width:1.5;" width="1023.5" x="10" y="636.9453"/><rect fill="none" height="178.8184" style="stroke:#000000;stroke-width:1.5;" width="1023.5" x="10" y="1047.9375"/><rect fill="none" height="46.6211" style="stroke:#000000;stroke-width:1.5;" width="580.5" x="453" y="1328.6875"/><line style="stroke:#181818;stroke-width:0.5;stroke-dasharray:5.0,5.0;" x1="97" x2="97" y1="118.9766" y2="1437.9297"/><line style="stroke:#181818;stroke-width:0.5;stroke-dasharray:5.0,5.0;" x1="340.5" x2="340.5" y1="118.9766" y2="1437.9297"/><line style="stroke:#181818;stroke-width:0.5;stroke-dasharray:5.0,5.0;" x1="523" x2="523" y1="118.9766" y2="1437.9297"/><line style="stroke:#181818;stroke-width:0.5;stroke-dasharray:5.0,5.0;" x1="932.5" x2="932.5" y1="118.9766" y2="1437.9297"/><line style="stroke:#181818;stroke-width:0.5;stroke-dasharray:5.0,5.0;" x1="1152" x2="1152" y1="118.9766" y2="1437.9297"/><line style="stroke:#181818;stroke-width:0.5;stroke-dasharray:5.0,5.0;" x1="1400" x2="1400" y1="118.9766" y2="1437.9297"/><line style="stroke:#181818;stroke-width:0.5;stroke-dasharray:5.0,5.0;" x1="1457" x2="1457" y1="118.9766" y2="1437.9297"/><line style="stroke:#181818;stroke-width:0.5;stroke-dasharray:5.0,5.0;" x1="1525" x2="1525" y1="118.9766" y2="1437.9297"/><text fill="#000000" font-family="sans-serif" font-size="14" lengthAdjust="spacing" textLength="149" x="20" y="116.0234">ResourceOwner(User)</text><ellipse cx="97.5" cy="50.9883" fill="#E2E2F0" rx="8" ry="8" style="stroke:#181818;stroke-width:0.5;"/><path d="M97.5,58.9883 L97.5,85.9883 M84.5,66.9883 L110.5,66.9883 M97.5,85.9883 L84.5,100.9883 M97.5,85.9883 L110.5,100.9883 " fill="none" style="stroke:#181818;stroke-width:0.5;"/><text fill="#000000" font-family="sans-serif" font-size="14" lengthAdjust="spacing" textLength="149" x="20" y="1450.4648">ResourceOwner(User)</text><ellipse cx="97.5" cy="1461.918" fill="#E2E2F0" rx="8" ry="8" style="stroke:#181818;stroke-width:0.5;"/><path d="M97.5,1469.918 L97.5,1496.918 M84.5,1477.918 L110.5,1477.918 M97.5,1496.918 L84.5,1511.918 M97.5,1496.918 L110.5,1511.918 " fill="none" style="stroke:#181818;stroke-width:0.5;"/><rect fill="#E2E2F0" height="30.4883" rx="2.5" ry="2.5" style="stroke:#181818;stroke-width:0.5;" width="128" x="276.5" y="87.4883"/><text fill="#000000" font-family="sans-serif" font-size="14" lengthAdjust="spacing" textLength="114" x="283.5" y="108.0234">Client Useragent</text><rect fill="#E2E2F0" height="30.4883" rx="2.5" ry="2.5" style="stroke:#181818;stroke-width:0.5;" width="128" x="276.5" y="1436.9297"/><text fill="#000000" font-family="sans-serif" font-size="14" lengthAdjust="spacing" textLength="114" x="283.5" y="1457.4648">Client Useragent</text><rect fill="#E2E2F0" height="30.4883" rx="2.5" ry="2.5" style="stroke:#181818;stroke-width:0.5;" width="121" x="463" y="87.4883"/><text fill="#000000" font-family="sans-serif" font-size="14" lengthAdjust="spacing" textLength="107" x="470" y="108.0234">Client(Provider)</text><rect fill="#E2E2F0" height="30.4883" rx="2.5" ry="2.5" style="stroke:#181818;stroke-width:0.5;" width="121" x="463" y="1436.9297"/><text fill="#000000" font-family="sans-serif" font-size="14" lengthAdjust="spacing" textLength="107" x="470" y="1457.4648">Client(Provider)</text><rect fill="#E2E2F0" height="30.4883" rx="2.5" ry="2.5" style="stroke:#181818;stroke-width:0.5;" width="182" x="841.5" y="87.4883"/><text fill="#000000" font-family="sans-serif" font-size="14" lengthAdjust="spacing" textLength="168" x="848.5" y="108.0234">AuthorizationServer(AA)</text><rect fill="#E2E2F0" height="30.4883" rx="2.5" ry="2.5" style="stroke:#181818;stroke-width:0.5;" width="182" x="841.5" y="1436.9297"/><text fill="#000000" font-family="sans-serif" font-size="14" lengthAdjust="spacing" textLength="168" x="848.5" y="1457.4648">AuthorizationServer(AA)</text><rect fill="#E2E2F0" height="30.4883" rx="2.5" ry="2.5" style="stroke:#181818;stroke-width:0.5;" width="203" x="1051" y="87.4883"/><text fill="#000000" font-family="sans-serif" font-size="14" lengthAdjust="spacing" textLength="189" x="1058" y="108.0234">ResourceServer(Blockchain)</text><rect fill="#E2E2F0" height="30.4883" rx="2.5" ry="2.5" style="stroke:#181818;stroke-width:0.5;" width="203" x="1051" y="1436.9297"/><text fill="#000000" font-family="sans-serif" font-size="14" lengthAdjust="spacing" textLength="189" x="1058" y="1457.4648">ResourceServer(Blockchain)</text><rect fill="#E2E2F0" height="30.4883" rx="2.5" ry="2.5" style="stroke:#181818;stroke-width:0.5;" width="51" x="1375" y="87.4883"/><text fill="#000000" font-family="sans-serif" font-size="14" lengthAdjust="spacing" textLength="37" x="1382" y="108.0234">Redis</text><rect fill="#E2E2F0" height="30.4883" rx="2.5" ry="2.5" style="stroke:#181818;stroke-width:0.5;" width="51" x="1375" y="1436.9297"/><text fill="#000000" font-family="sans-serif" font-size="14" lengthAdjust="spacing" textLength="37" x="1382" y="1457.4648">Redis</text><rect fill="#E2E2F0" height="30.4883" rx="2.5" ry="2.5" style="stroke:#181818;stroke-width:0.5;" width="43" x="1436" y="87.4883"/><text fill="#000000" font-family="sans-serif" font-size="14" lengthAdjust="spacing" textLength="29" x="1443" y="108.0234">KMS</text><rect fill="#E2E2F0" height="30.4883" rx="2.5" ry="2.5" style="stroke:#181818;stroke-width:0.5;" width="43" x="1436" y="1436.9297"/><text fill="#000000" font-family="sans-serif" font-size="14" lengthAdjust="spacing" textLength="29" x="1443" y="1457.4648">KMS</text><rect fill="#E2E2F0" height="30.4883" rx="2.5" ry="2.5" style="stroke:#181818;stroke-width:0.5;" width="73" x="1489" y="87.4883"/><text fill="#000000" font-family="sans-serif" font-size="14" lengthAdjust="spacing" textLength="59" x="1496" y="108.0234">Postgres</text><rect fill="#E2E2F0" height="30.4883" rx="2.5" ry="2.5" style="stroke:#181818;stroke-width:0.5;" width="73" x="1489" y="1436.9297"/><text fill="#000000" font-family="sans-serif" font-size="14" lengthAdjust="spacing" textLength="59" x="1496" y="1457.4648">Postgres</text><path d="M43,133.9766 L43,158.9766 L1580,158.9766 L1580,143.9766 L1570,133.9766 L43,133.9766 " fill="#FEFFDD" style="stroke:#181818;stroke-width:0.5;"/><path d="M1570,133.9766 L1570,143.9766 L1580,143.9766 L1570,133.9766 " fill="#FEFFDD" style="stroke:#181818;stroke-width:0.5;"/><text fill="#000000" font-family="sans-serif" font-size="13" lengthAdjust="spacing" textLength="459" x="577.5" y="151.5449">It is assumed that provider payloads are signed and have nonce handling</text><polygon fill="#181818" points="511.5,181.5977,521.5,185.5977,511.5,189.5977,515.5,185.5977" style="stroke:#181818;stroke-width:1.0;"/><line style="stroke:#181818;stroke-width:1.0;" x1="97.5" x2="517.5" y1="185.5977" y2="185.5977"/><text fill="#000000" font-family="sans-serif" font-size="13" font-weight="bold" lengthAdjust="spacing" textLength="9" x="104.5" y="180.8555">1</text><text fill="#000000" font-family="sans-serif" font-size="13" lengthAdjust="spacing" textLength="206" x="117.5" y="180.8555">Wants to add a new email or SMS</text><polygon fill="#181818" points="920.5,210.9082,930.5,214.9082,920.5,218.9082,924.5,214.9082" style="stroke:#181818;stroke-width:1.0;"/><line style="stroke:#181818;stroke-width:1.0;" x1="523.5" x2="926.5" y1="214.9082" y2="214.9082"/><text fill="#000000" font-family="sans-serif" font-size="13" font-weight="bold" lengthAdjust="spacing" textLength="9" x="530.5" y="210.166">2</text><text fill="#000000" font-family="sans-serif" font-size="13" lengthAdjust="spacing" textLength="282" x="543.5" y="210.166">Signed AddUserIdentifier payload w/callback</text><line style="stroke:#181818;stroke-width:1.0;" x1="932.5" x2="974.5" y1="244.2188" y2="244.2188"/><line style="stroke:#181818;stroke-width:1.0;" x1="974.5" x2="974.5" y1="244.2188" y2="257.2188"/><line style="stroke:#181818;stroke-width:1.0;" x1="933.5" x2="974.5" y1="257.2188" y2="257.2188"/><polygon fill="#181818" points="943.5,253.2188,933.5,257.2188,943.5,261.2188,939.5,257.2188" style="stroke:#181818;stroke-width:1.0;"/><text fill="#000000" font-family="sans-serif" font-size="13" font-weight="bold" lengthAdjust="spacing" textLength="9" x="939.5" y="239.4766">3</text><text fill="#000000" font-family="sans-serif" font-size="13" lengthAdjust="spacing" textLength="112" x="952.5" y="239.4766">validate signature</text><polygon fill="#181818" points="1140.5,282.5293,1150.5,286.5293,1140.5,290.5293,1144.5,286.5293" style="stroke:#181818;stroke-width:1.0;"/><line style="stroke:#181818;stroke-width:1.0;" x1="932.5" x2="1146.5" y1="286.5293" y2="286.5293"/><text fill="#000000" font-family="sans-serif" font-size="13" font-weight="bold" lengthAdjust="spacing" textLength="9" x="939.5" y="281.7871">4</text><text fill="#000000" font-family="sans-serif" font-size="13" lengthAdjust="spacing" textLength="162" x="952.5" y="281.7871">fetch msaId by public key</text><polygon fill="#181818" points="943.5,311.8398,933.5,315.8398,943.5,319.8398,939.5,315.8398" style="stroke:#181818;stroke-width:1.0;"/><line style="stroke:#181818;stroke-width:1.0;stroke-dasharray:2.0,2.0;" x1="937.5" x2="1151.5" y1="315.8398" y2="315.8398"/><text fill="#000000" font-family="sans-serif" font-size="13" font-weight="bold" lengthAdjust="spacing" textLength="9" x="949.5" y="311.0977">5</text><text fill="#000000" font-family="sans-serif" font-size="13" lengthAdjust="spacing" textLength="38" x="962.5" y="311.0977">msaId</text><polygon fill="#181818" points="1513.5,341.1504,1523.5,345.1504,1513.5,349.1504,1517.5,345.1504" style="stroke:#181818;stroke-width:1.0;"/><line style="stroke:#181818;stroke-width:1.0;" x1="932.5" x2="1519.5" y1="345.1504" y2="345.1504"/><text fill="#000000" font-family="sans-serif" font-size="13" font-weight="bold" lengthAdjust="spacing" textLength="9" x="939.5" y="340.4082">6</text><text fill="#000000" font-family="sans-serif" font-size="13" lengthAdjust="spacing" textLength="442" x="952.5" y="340.4082">fetch ProviderExternalUserDetail by user public key and providerMsaId</text><polygon fill="#181818" points="943.5,370.4609,933.5,374.4609,943.5,378.4609,939.5,374.4609" style="stroke:#181818;stroke-width:1.0;"/><line style="stroke:#181818;stroke-width:1.0;stroke-dasharray:2.0,2.0;" x1="937.5" x2="1524.5" y1="374.4609" y2="374.4609"/><text fill="#000000" font-family="sans-serif" font-size="13" font-weight="bold" lengthAdjust="spacing" textLength="9" x="949.5" y="369.7188">7</text><text fill="#000000" font-family="sans-serif" font-size="13" lengthAdjust="spacing" textLength="167" x="962.5" y="369.7188">ProviderExternalUserDetail</text><polygon fill="#181818" points="1388.5,399.7715,1398.5,403.7715,1388.5,407.7715,1392.5,403.7715" style="stroke:#181818;stroke-width:1.0;"/><line style="stroke:#181818;stroke-width:1.0;" x1="932.5" x2="1394.5" y1="403.7715" y2="403.7715"/><text fill="#000000" font-family="sans-serif" font-size="13" font-weight="bold" lengthAdjust="spacing" textLength="9" x="939.5" y="399.0293">8</text><text fill="#000000" font-family="sans-serif" font-size="13" lengthAdjust="spacing" textLength="291" x="952.5" y="399.0293">Persist payload w/associated SessionId (UUID)</text><polygon fill="#181818" points="534.5,429.082,524.5,433.082,534.5,437.082,530.5,433.082" style="stroke:#181818;stroke-width:1.0;"/><line style="stroke:#181818;stroke-width:1.0;" x1="528.5" x2="931.5" y1="433.082" y2="433.082"/><text fill="#000000" font-family="sans-serif" font-size="13" font-weight="bold" lengthAdjust="spacing" textLength="9" x="540.5" y="428.3398">9</text><text fill="#000000" font-family="sans-serif" font-size="13" lengthAdjust="spacing" textLength="370" x="553.5" y="428.3398">sessionId associated with request (202 w/Location header)</text><polygon fill="#181818" points="351.5,458.3926,341.5,462.3926,351.5,466.3926,347.5,462.3926" style="stroke:#181818;stroke-width:1.0;"/><line style="stroke:#181818;stroke-width:1.0;" x1="345.5" x2="522.5" y1="462.3926" y2="462.3926"/><text fill="#000000" font-family="sans-serif" font-size="13" font-weight="bold" lengthAdjust="spacing" textLength="18" x="357.5" y="457.6504">10</text><text fill="#000000" font-family="sans-serif" font-size="13" lengthAdjust="spacing" textLength="137" x="379.5" y="457.6504">Location header value</text><polygon fill="#181818" points="920.5,487.7031,930.5,491.7031,920.5,495.7031,924.5,491.7031" style="stroke:#181818;stroke-width:1.0;"/><line style="stroke:#181818;stroke-width:1.0;" x1="340.5" x2="926.5" y1="491.7031" y2="491.7031"/><text fill="#000000" font-family="sans-serif" font-size="13" font-weight="bold" lengthAdjust="spacing" textLength="18" x="347.5" y="486.9609">11</text><text fill="#000000" font-family="sans-serif" font-size="13" lengthAdjust="spacing" textLength="99" x="369.5" y="486.9609">GET to Location</text><polygon fill="#181818" points="1388.5,517.0137,1398.5,521.0137,1388.5,525.0137,1392.5,521.0137" style="stroke:#181818;stroke-width:1.0;"/><line style="stroke:#181818;stroke-width:1.0;" x1="932.5" x2="1394.5" y1="521.0137" y2="521.0137"/><text fill="#000000" font-family="sans-serif" font-size="13" font-weight="bold" lengthAdjust="spacing" textLength="18" x="939.5" y="516.2715">12</text><text fill="#000000" font-family="sans-serif" font-size="13" lengthAdjust="spacing" textLength="223" x="961.5" y="516.2715">retrieve initial payload by sessionId</text><polygon fill="#181818" points="943.5,546.3242,933.5,550.3242,943.5,554.3242,939.5,550.3242" style="stroke:#181818;stroke-width:1.0;"/><line style="stroke:#181818;stroke-width:1.0;stroke-dasharray:2.0,2.0;" x1="937.5" x2="1399.5" y1="550.3242" y2="550.3242"/><text fill="#000000" font-family="sans-serif" font-size="13" font-weight="bold" lengthAdjust="spacing" textLength="18" x="949.5" y="545.582">13</text><text fill="#000000" font-family="sans-serif" font-size="13" lengthAdjust="spacing" textLength="48" x="971.5" y="545.582">Payload</text><line style="stroke:#181818;stroke-width:1.0;" x1="932.5" x2="974.5" y1="579.6348" y2="579.6348"/><line style="stroke:#181818;stroke-width:1.0;" x1="974.5" x2="974.5" y1="579.6348" y2="592.6348"/><line style="stroke:#181818;stroke-width:1.0;" x1="933.5" x2="974.5" y1="592.6348" y2="592.6348"/><polygon fill="#181818" points="943.5,588.6348,933.5,592.6348,943.5,596.6348,939.5,592.6348" style="stroke:#181818;stroke-width:1.0;"/><text fill="#000000" font-family="sans-serif" font-size="13" font-weight="bold" lengthAdjust="spacing" textLength="18" x="939.5" y="574.8926">14</text><text fill="#000000" font-family="sans-serif" font-size="13" lengthAdjust="spacing" textLength="184" x="961.5" y="574.8926">Generate authentication code</text><polygon fill="#181818" points="1388.5,617.9453,1398.5,621.9453,1388.5,625.9453,1392.5,621.9453" style="stroke:#181818;stroke-width:1.0;"/><line style="stroke:#181818;stroke-width:1.0;" x1="932.5" x2="1394.5" y1="621.9453" y2="621.9453"/><text fill="#000000" font-family="sans-serif" font-size="13" font-weight="bold" lengthAdjust="spacing" textLength="18" x="939.5" y="617.2031">15</text><text fill="#000000" font-family="sans-serif" font-size="13" lengthAdjust="spacing" textLength="403" x="961.5" y="617.2031">Persist payload w/associated authentication code and sessionId</text><path d="M10,636.9453 L72,636.9453 L72,644.2559 L62,654.2559 L10,654.2559 L10,636.9453 " fill="#EEEEEE" style="stroke:#000000;stroke-width:1.5;"/><rect fill="none" height="208.1289" style="stroke:#000000;stroke-width:1.5;" width="1023.5" x="10" y="636.9453"/><text fill="#000000" font-family="sans-serif" font-size="13" font-weight="bold" lengthAdjust="spacing" textLength="17" x="25" y="650.5137">alt</text><text fill="#000000" font-family="sans-serif" font-size="11" font-weight="bold" lengthAdjust="spacing" textLength="88" x="87" y="649.5801">[Sending Email]</text><polygon fill="#181818" points="108.5,671.5664,98.5,675.5664,108.5,679.5664,104.5,675.5664" style="stroke:#181818;stroke-width:1.0;"/><line style="stroke:#181818;stroke-width:1.0;" x1="102.5" x2="931.5" y1="675.5664" y2="675.5664"/><text fill="#000000" font-family="sans-serif" font-size="13" font-weight="bold" lengthAdjust="spacing" textLength="26" x="114.5" y="670.8242">16a</text><text fill="#000000" font-family="sans-serif" font-size="13" lengthAdjust="spacing" textLength="163" x="144.5" y="670.8242">Email authentication code</text><polygon fill="#181818" points="108.5,700.877,98.5,704.877,108.5,708.877,104.5,704.877" style="stroke:#181818;stroke-width:1.0;"/><line style="stroke:#181818;stroke-width:1.0;" x1="102.5" x2="931.5" y1="704.877" y2="704.877"/><text fill="#000000" font-family="sans-serif" font-size="13" font-weight="bold" lengthAdjust="spacing" textLength="27" x="114.5" y="700.1348">16b</text><text fill="#000000" font-family="sans-serif" font-size="13" lengthAdjust="spacing" textLength="112" x="145.5" y="700.1348">Show check email</text><polygon fill="#181818" points="920.5,730.1875,930.5,734.1875,920.5,738.1875,924.5,734.1875" style="stroke:#181818;stroke-width:1.0;"/><line style="stroke:#181818;stroke-width:1.0;" x1="97.5" x2="926.5" y1="734.1875" y2="734.1875"/><text fill="#000000" font-family="sans-serif" font-size="13" font-weight="bold" lengthAdjust="spacing" textLength="25" x="104.5" y="729.4453">16c</text><text fill="#000000" font-family="sans-serif" font-size="13" lengthAdjust="spacing" textLength="304" x="133.5" y="729.4453">Clicks link w/authentication code and sessionId</text><line style="stroke:#000000;stroke-width:1.0;stroke-dasharray:2.0,2.0;" x1="10" x2="1033.5" y1="743.1875" y2="743.1875"/><text fill="#000000" font-family="sans-serif" font-size="11" font-weight="bold" lengthAdjust="spacing" textLength="78" x="15" y="753.8223">[Sending SMS]</text><polygon fill="#181818" points="108.5,774.4531,98.5,778.4531,108.5,782.4531,104.5,778.4531" style="stroke:#181818;stroke-width:1.0;"/><line style="stroke:#181818;stroke-width:1.0;" x1="102.5" x2="931.5" y1="778.4531" y2="778.4531"/><text fill="#000000" font-family="sans-serif" font-size="13" font-weight="bold" lengthAdjust="spacing" textLength="26" x="114.5" y="773.7109">16a</text><text fill="#000000" font-family="sans-serif" font-size="13" lengthAdjust="spacing" textLength="390" x="144.5" y="773.7109">Send SMS authentication code (how does sessionId work here)</text><polygon fill="#181818" points="108.5,803.7637,98.5,807.7637,108.5,811.7637,104.5,807.7637" style="stroke:#181818;stroke-width:1.0;"/><line style="stroke:#181818;stroke-width:1.0;" x1="102.5" x2="931.5" y1="807.7637" y2="807.7637"/><text fill="#000000" font-family="sans-serif" font-size="13" font-weight="bold" lengthAdjust="spacing" textLength="27" x="114.5" y="803.0215">16b</text><text fill="#000000" font-family="sans-serif" font-size="13" lengthAdjust="spacing" textLength="149" x="145.5" y="803.0215">Display SMS Code input</text><polygon fill="#181818" points="920.5,833.0742,930.5,837.0742,920.5,841.0742,924.5,837.0742" style="stroke:#181818;stroke-width:1.0;"/><line style="stroke:#181818;stroke-width:1.0;" x1="97.5" x2="926.5" y1="837.0742" y2="837.0742"/><text fill="#000000" font-family="sans-serif" font-size="13" font-weight="bold" lengthAdjust="spacing" textLength="25" x="104.5" y="832.332">16c</text><text fill="#000000" font-family="sans-serif" font-size="13" lengthAdjust="spacing" textLength="168" x="133.5" y="832.332">Enters authentication code</text><polygon fill="#181818" points="1388.5,869.3848,1398.5,873.3848,1388.5,877.3848,1392.5,873.3848" style="stroke:#181818;stroke-width:1.0;"/><line style="stroke:#181818;stroke-width:1.0;" x1="932.5" x2="1394.5" y1="873.3848" y2="873.3848"/><text fill="#000000" font-family="sans-serif" font-size="13" font-weight="bold" lengthAdjust="spacing" textLength="18" x="939.5" y="868.6426">17</text><text fill="#000000" font-family="sans-serif" font-size="13" lengthAdjust="spacing" textLength="326" x="961.5" y="868.6426">Fetch payload by authentication code and sessionId</text><polygon fill="#181818" points="943.5,898.6953,933.5,902.6953,943.5,906.6953,939.5,902.6953" style="stroke:#181818;stroke-width:1.0;"/><line style="stroke:#181818;stroke-width:1.0;stroke-dasharray:2.0,2.0;" x1="937.5" x2="1399.5" y1="902.6953" y2="902.6953"/><text fill="#000000" font-family="sans-serif" font-size="13" font-weight="bold" lengthAdjust="spacing" textLength="18" x="949.5" y="897.9531">18</text><text fill="#000000" font-family="sans-serif" font-size="13" lengthAdjust="spacing" textLength="48" x="971.5" y="897.9531">Payload</text><polygon fill="#181818" points="108.5,928.0059,98.5,932.0059,108.5,936.0059,104.5,932.0059" style="stroke:#181818;stroke-width:1.0;"/><line style="stroke:#181818;stroke-width:1.0;" x1="102.5" x2="931.5" y1="932.0059" y2="932.0059"/><text fill="#000000" font-family="sans-serif" font-size="13" font-weight="bold" lengthAdjust="spacing" textLength="18" x="114.5" y="927.2637">19</text><text fill="#000000" font-family="sans-serif" font-size="13" lengthAdjust="spacing" textLength="358" x="136.5" y="927.2637">display add email or SMS form (or autofill from Provider?)</text><polygon fill="#181818" points="920.5,957.3164,930.5,961.3164,920.5,965.3164,924.5,961.3164" style="stroke:#181818;stroke-width:1.0;"/><line style="stroke:#181818;stroke-width:1.0;" x1="97.5" x2="926.5" y1="961.3164" y2="961.3164"/><text fill="#000000" font-family="sans-serif" font-size="13" font-weight="bold" lengthAdjust="spacing" textLength="18" x="104.5" y="956.5742">20</text><text fill="#000000" font-family="sans-serif" font-size="13" lengthAdjust="spacing" textLength="196" x="126.5" y="956.5742">Submits add email or SMS form</text><line style="stroke:#181818;stroke-width:1.0;" x1="932.5" x2="974.5" y1="990.627" y2="990.627"/><line style="stroke:#181818;stroke-width:1.0;" x1="974.5" x2="974.5" y1="990.627" y2="1003.627"/><line style="stroke:#181818;stroke-width:1.0;" x1="933.5" x2="974.5" y1="1003.627" y2="1003.627"/><polygon fill="#181818" points="943.5,999.627,933.5,1003.627,943.5,1007.627,939.5,1003.627" style="stroke:#181818;stroke-width:1.0;"/><text fill="#000000" font-family="sans-serif" font-size="13" font-weight="bold" lengthAdjust="spacing" textLength="18" x="939.5" y="985.8848">21</text><text fill="#000000" font-family="sans-serif" font-size="13" lengthAdjust="spacing" textLength="167" x="961.5" y="985.8848">Generate Verification Code</text><polygon fill="#181818" points="1388.5,1028.9375,1398.5,1032.9375,1388.5,1036.9375,1392.5,1032.9375" style="stroke:#181818;stroke-width:1.0;"/><line style="stroke:#181818;stroke-width:1.0;" x1="932.5" x2="1394.5" y1="1032.9375" y2="1032.9375"/><text fill="#000000" font-family="sans-serif" font-size="13" font-weight="bold" lengthAdjust="spacing" textLength="18" x="939.5" y="1028.1953">22</text><text fill="#000000" font-family="sans-serif" font-size="13" lengthAdjust="spacing" textLength="383" x="961.5" y="1028.1953">Persist payload w/associated verification code and sessionId</text><path d="M10,1047.9375 L72,1047.9375 L72,1055.248 L62,1065.248 L10,1065.248 L10,1047.9375 " fill="#EEEEEE" style="stroke:#000000;stroke-width:1.5;"/><rect fill="none" height="178.8184" style="stroke:#000000;stroke-width:1.5;" width="1023.5" x="10" y="1047.9375"/><text fill="#000000" font-family="sans-serif" font-size="13" font-weight="bold" lengthAdjust="spacing" textLength="17" x="25" y="1061.5059">alt</text><text fill="#000000" font-family="sans-serif" font-size="11" font-weight="bold" lengthAdjust="spacing" textLength="79" x="87" y="1060.5723">[Email Added]</text><polygon fill="#181818" points="108.5,1082.5586,98.5,1086.5586,108.5,1090.5586,104.5,1086.5586" style="stroke:#181818;stroke-width:1.0;"/><line style="stroke:#181818;stroke-width:1.0;" x1="102.5" x2="931.5" y1="1086.5586" y2="1086.5586"/><text fill="#000000" font-family="sans-serif" font-size="13" font-weight="bold" lengthAdjust="spacing" textLength="26" x="114.5" y="1081.8164">22a</text><text fill="#000000" font-family="sans-serif" font-size="13" lengthAdjust="spacing" textLength="234" x="144.5" y="1081.8164">Email verification code and sessionId</text><polygon fill="#181818" points="920.5,1111.8691,930.5,1115.8691,920.5,1119.8691,924.5,1115.8691" style="stroke:#181818;stroke-width:1.0;"/><line style="stroke:#181818;stroke-width:1.0;" x1="97.5" x2="926.5" y1="1115.8691" y2="1115.8691"/><text fill="#000000" font-family="sans-serif" font-size="13" font-weight="bold" lengthAdjust="spacing" textLength="27" x="104.5" y="1111.127">22b</text><text fill="#000000" font-family="sans-serif" font-size="13" lengthAdjust="spacing" textLength="284" x="135.5" y="1111.127">Clicks link w/verification code and sessionId</text><line style="stroke:#000000;stroke-width:1.0;stroke-dasharray:2.0,2.0;" x1="10" x2="1033.5" y1="1124.8691" y2="1124.8691"/><text fill="#000000" font-family="sans-serif" font-size="11" font-weight="bold" lengthAdjust="spacing" textLength="81" x="15" y="1135.5039">[Phone Added]</text><polygon fill="#181818" points="108.5,1156.1348,98.5,1160.1348,108.5,1164.1348,104.5,1160.1348" style="stroke:#181818;stroke-width:1.0;"/><line style="stroke:#181818;stroke-width:1.0;" x1="102.5" x2="931.5" y1="1160.1348" y2="1160.1348"/><text fill="#000000" font-family="sans-serif" font-size="13" font-weight="bold" lengthAdjust="spacing" textLength="26" x="114.5" y="1155.3926">22a</text><text fill="#000000" font-family="sans-serif" font-size="13" lengthAdjust="spacing" textLength="370" x="144.5" y="1155.3926">Send SMS verification code (how does sessionId work here)</text><polygon fill="#181818" points="108.5,1185.4453,98.5,1189.4453,108.5,1193.4453,104.5,1189.4453" style="stroke:#181818;stroke-width:1.0;"/><line style="stroke:#181818;stroke-width:1.0;" x1="102.5" x2="931.5" y1="1189.4453" y2="1189.4453"/><text fill="#000000" font-family="sans-serif" font-size="13" font-weight="bold" lengthAdjust="spacing" textLength="27" x="114.5" y="1184.7031">22b</text><text fill="#000000" font-family="sans-serif" font-size="13" lengthAdjust="spacing" textLength="149" x="145.5" y="1184.7031">Display SMS Code input</text><polygon fill="#181818" points="920.5,1214.7559,930.5,1218.7559,920.5,1222.7559,924.5,1218.7559" style="stroke:#181818;stroke-width:1.0;"/><line style="stroke:#181818;stroke-width:1.0;" x1="97.5" x2="926.5" y1="1218.7559" y2="1218.7559"/><text fill="#000000" font-family="sans-serif" font-size="13" font-weight="bold" lengthAdjust="spacing" textLength="25" x="104.5" y="1214.0137">22c</text><text fill="#000000" font-family="sans-serif" font-size="13" lengthAdjust="spacing" textLength="168" x="133.5" y="1214.0137">Enters authentication code</text><polygon fill="#181818" points="1388.5,1251.0664,1398.5,1255.0664,1388.5,1259.0664,1392.5,1255.0664" style="stroke:#181818;stroke-width:1.0;"/><line style="stroke:#181818;stroke-width:1.0;" x1="932.5" x2="1394.5" y1="1255.0664" y2="1255.0664"/><text fill="#000000" font-family="sans-serif" font-size="13" font-weight="bold" lengthAdjust="spacing" textLength="18" x="939.5" y="1250.3242">23</text><text fill="#000000" font-family="sans-serif" font-size="13" lengthAdjust="spacing" textLength="319" x="961.5" y="1250.3242">Fetch payload by verification code and sessionId(?)</text><polygon fill="#181818" points="943.5,1280.377,933.5,1284.377,943.5,1288.377,939.5,1284.377" style="stroke:#181818;stroke-width:1.0;"/><line style="stroke:#181818;stroke-width:1.0;stroke-dasharray:2.0,2.0;" x1="937.5" x2="1399.5" y1="1284.377" y2="1284.377"/><text fill="#000000" font-family="sans-serif" font-size="13" font-weight="bold" lengthAdjust="spacing" textLength="18" x="949.5" y="1279.6348">24</text><text fill="#000000" font-family="sans-serif" font-size="13" lengthAdjust="spacing" textLength="48" x="971.5" y="1279.6348">Payload</text><polygon fill="#181818" points="1513.5,1309.6875,1523.5,1313.6875,1513.5,1317.6875,1517.5,1313.6875" style="stroke:#181818;stroke-width:1.0;"/><line style="stroke:#181818;stroke-width:1.0;" x1="932.5" x2="1519.5" y1="1313.6875" y2="1313.6875"/><text fill="#000000" font-family="sans-serif" font-size="13" font-weight="bold" lengthAdjust="spacing" textLength="18" x="939.5" y="1308.9453">25</text><text fill="#000000" font-family="sans-serif" font-size="13" lengthAdjust="spacing" textLength="386" x="961.5" y="1308.9453">Persist new ProviderExternalUserDetail with new Email or SMS</text><path d="M453,1328.6875 L515,1328.6875 L515,1335.998 L505,1345.998 L453,1345.998 L453,1328.6875 " fill="#EEEEEE" style="stroke:#000000;stroke-width:1.5;"/><rect fill="none" height="46.6211" style="stroke:#000000;stroke-width:1.5;" width="580.5" x="453" y="1328.6875"/><text fill="#000000" font-family="sans-serif" font-size="13" font-weight="bold" lengthAdjust="spacing" textLength="17" x="468" y="1342.2559">alt</text><text fill="#000000" font-family="sans-serif" font-size="11" font-weight="bold" lengthAdjust="spacing" textLength="165" x="530" y="1341.3223">[Async Call of the new email]</text><polygon fill="#181818" points="534.5,1363.3086,524.5,1367.3086,534.5,1371.3086,530.5,1367.3086" style="stroke:#181818;stroke-width:1.0;"/><line style="stroke:#181818;stroke-width:1.0;" x1="528.5" x2="931.5" y1="1367.3086" y2="1367.3086"/><text fill="#000000" font-family="sans-serif" font-size="13" font-weight="bold" lengthAdjust="spacing" textLength="18" x="540.5" y="1362.5664">26</text><text fill="#000000" font-family="sans-serif" font-size="13" lengthAdjust="spacing" textLength="180" x="562.5" y="1362.5664">Email or SMS added Callback</text><polygon fill="#181818" points="351.5,1414.9297,341.5,1418.9297,351.5,1422.9297,347.5,1418.9297" style="stroke:#181818;stroke-width:1.0;"/><line style="stroke:#181818;stroke-width:1.0;" x1="345.5" x2="931.5" y1="1418.9297" y2="1418.9297"/><text fill="#000000" font-family="sans-serif" font-size="13" font-weight="bold" lengthAdjust="spacing" textLength="18" x="357.5" y="1406.5322">27</text><text fill="#000000" font-family="sans-serif" font-size="13" lengthAdjust="spacing" textLength="145" x="379.5" y="1398.877">Redirect to callback url</text><text fill="#000000" font-family="sans-serif" font-size="13" lengthAdjust="spacing" textLength="190" x="383.5" y="1414.1875">(app link deep link or website)</text><line style="stroke:#000000;stroke-width:1.0;stroke-dasharray:2.0,2.0;" x1="0" x2="1585" y1="1426.9297" y2="1426.9297"/><!--SRC=[xLTDRnit4BtlhnZuKic0uqG5MaY718hi1aRjnAZgzD8BHOwqXBZabXzMrL_VuNxBMbiIwY2N-kBLSZXyC_CuRzPBhn2cGaYz0WOQDt2TCQd0MBXFZKRu7B85MhY0pqR3bqUq7cxDIkhaXzJxt4qkBtF5j0-PUiDDTkdmhu2QuuMGR6LPbYICUt9szXiw4op7BnkDTl3Wq0xFW3cm9icPzPBBdDp0sKn9fF_HWAtegJ3YeSzeS6_DenIr9xvhCmq-DLR-mxmqUewMe0-cqzAKiLtR6bnbzb4PlkOfaxh2w9wQ2-dAbTs5N-_cnUlrxkjxu_pAOhabfvG4RtIHrqGRZy2uDSvDuCQ3973EXGm5-9HvoAiG8MTRPPYWPOlWv4gJ1TC2KlQ8e0sbd1wrK5J8n1guU0zy0d_GyGwy0IP4LLwiopk_coSysZ4sWNdfa8WG4tyZABjoATjZONF9cL8BnjS9O_MkHwQaOBx4mtomM2rQ2cQ9dgUGENOZOB65F2oKvB36RMAHJ7MvL6t8Q_kwfDT_UxIQgGZd2dt4J4w2Yv0QJqK2wWpT5Uugty-xgH5Eu1wjayvtGgJC6ouf805pT8vuGzW73mytLyDg6-NKDIiTyutqATZ8VN8u6BqTaRTRmmlkGOeiahJCDWyJUB8IynWmuQ7EwwVhtsFHQhCMCaLd9LB1fPPUCjLWfzmqk9eSb6kTUdr2kdknNaJ0D9QuWi6Dm2FpqhEpg49xUajkSDxa2LEUigcB3bFqbWJehphDJE3y_DrFxFoywZjzoFRj5sG_Jyq6U8fyNNAwC2kP7sEDPfpCg5NmjGEw5-iOoK7ug1msUECTwKSRBU9oRq864Pemw3fasHYxfdfR73uJpvLqr4ctXTDPz29r7lmpKLrhuhNhpHO1wzRWtSzjPNyfhbY7CuVJqSkb25jKS6DdwVOKM1gRmO1-H11BgHGihScQ6_bXcBJXpCCYazIXUftq4VShMkfB5TpPyRHzxEuxahGb8QabejWhsMZKKlQGxwSL78qMUxmyvADWPId8Bm5gMBdlxqHEbY2FvEHeT1edHp- -mCa3gHX40lMHCcyf47Nk1I4fclNEg1FlUIpvr6qrXnaf7PWb2J2sajd948b0TsTaBr5iLkjZ4IohUtsS5Ino7njwBQ4GhFfJmu3bUKa0WLWzaSiDBfpqL9E43izf23fkFklEPfq1eve5mX73GAC_jonewgmEFbgpYP9B5bybsHUPgr_obEurba95Xr8v2EhUd13frAxltNt8YoZeW18BULDb2BjpGIpVb7CJQEnpmsOMs9rMZbR_qyMmujyLysnNR5-q_ERIEJvDEST72UVuc-Zc-BLbStn2XngVA9fl_nVDrnVDxfntgcYMCz8hY-QJKUu_Y-Rt6-I-csWsqSy3vtGSvAKAB88dv52e7VNq-YFjmwl9BAbd_FYZpsSTluJK5WmvYamaxbAuCNkjzXN4ELs2_mK0]--></g></svg>