<?xml version="1.0" encoding="us-ascii" standalone="no"?><svg xmlns="http://www.w3.org/2000/svg" xmlns:xlink="http://www.w3.org/1999/xlink" contentStyleType="text/css" height="1325px" preserveAspectRatio="none" style="width:1592px;height:1325px;background:#FFFFFF;" version="1.1" viewBox="0 0 1592 1325" width="1592px" zoomAndPan="magnify"><defs/><g><text fill="#000000" font-family="sans-serif" font-size="14" font-weight="bold" lengthAdjust="spacing" textLength="378" x="603" y="28.5352">Adding a new Email or Phone Number - Overt Login</text><rect fill="none" height="208.1289" style="stroke:#000000;stroke-width:1.5;" width="1023.5" x="10" y="414.7715"/><rect fill="none" height="178.8184" style="stroke:#000000;stroke-width:1.5;" width="1023.5" x="10" y="825.7637"/><rect fill="none" height="46.6211" style="stroke:#000000;stroke-width:1.5;" width="580.5" x="453" y="1135.8242"/><line style="stroke:#181818;stroke-width:0.5;stroke-dasharray:5.0,5.0;" x1="97" x2="97" y1="118.9766" y2="1244.0664"/><line style="stroke:#181818;stroke-width:0.5;stroke-dasharray:5.0,5.0;" x1="340.5" x2="340.5" y1="118.9766" y2="1244.0664"/><line style="stroke:#181818;stroke-width:0.5;stroke-dasharray:5.0,5.0;" x1="523" x2="523" y1="118.9766" y2="1244.0664"/><line style="stroke:#181818;stroke-width:0.5;stroke-dasharray:5.0,5.0;" x1="932.5" x2="932.5" y1="118.9766" y2="1244.0664"/><line style="stroke:#181818;stroke-width:0.5;stroke-dasharray:5.0,5.0;" x1="1152" x2="1152" y1="118.9766" y2="1244.0664"/><line style="stroke:#181818;stroke-width:0.5;stroke-dasharray:5.0,5.0;" x1="1400" x2="1400" y1="118.9766" y2="1244.0664"/><line style="stroke:#181818;stroke-width:0.5;stroke-dasharray:5.0,5.0;" x1="1457" x2="1457" y1="118.9766" y2="1244.0664"/><line style="stroke:#181818;stroke-width:0.5;stroke-dasharray:5.0,5.0;" x1="1525" x2="1525" y1="118.9766" y2="1244.0664"/><text fill="#000000" font-family="sans-serif" font-size="14" lengthAdjust="spacing" textLength="149" x="20" y="116.0234">ResourceOwner(User)</text><ellipse cx="97.5" cy="50.9883" fill="#E2E2F0" rx="8" ry="8" style="stroke:#181818;stroke-width:0.5;"/><path d="M97.5,58.9883 L97.5,85.9883 M84.5,66.9883 L110.5,66.9883 M97.5,85.9883 L84.5,100.9883 M97.5,85.9883 L110.5,100.9883 " fill="none" style="stroke:#181818;stroke-width:0.5;"/><text fill="#000000" font-family="sans-serif" font-size="14" lengthAdjust="spacing" textLength="149" x="20" y="1256.6016">ResourceOwner(User)</text><ellipse cx="97.5" cy="1268.0547" fill="#E2E2F0" rx="8" ry="8" style="stroke:#181818;stroke-width:0.5;"/><path d="M97.5,1276.0547 L97.5,1303.0547 M84.5,1284.0547 L110.5,1284.0547 M97.5,1303.0547 L84.5,1318.0547 M97.5,1303.0547 L110.5,1318.0547 " fill="none" style="stroke:#181818;stroke-width:0.5;"/><rect fill="#E2E2F0" height="30.4883" rx="2.5" ry="2.5" style="stroke:#181818;stroke-width:0.5;" width="128" x="276.5" y="87.4883"/><text fill="#000000" font-family="sans-serif" font-size="14" lengthAdjust="spacing" textLength="114" x="283.5" y="108.0234">Client Useragent</text><rect fill="#E2E2F0" height="30.4883" rx="2.5" ry="2.5" style="stroke:#181818;stroke-width:0.5;" width="128" x="276.5" y="1243.0664"/><text fill="#000000" font-family="sans-serif" font-size="14" lengthAdjust="spacing" textLength="114" x="283.5" y="1263.6016">Client Useragent</text><rect fill="#E2E2F0" height="30.4883" rx="2.5" ry="2.5" style="stroke:#181818;stroke-width:0.5;" width="121" x="463" y="87.4883"/><text fill="#000000" font-family="sans-serif" font-size="14" lengthAdjust="spacing" textLength="107" x="470" y="108.0234">Client(Provider)</text><rect fill="#E2E2F0" height="30.4883" rx="2.5" ry="2.5" style="stroke:#181818;stroke-width:0.5;" width="121" x="463" y="1243.0664"/><text fill="#000000" font-family="sans-serif" font-size="14" lengthAdjust="spacing" textLength="107" x="470" y="1263.6016">Client(Provider)</text><rect fill="#E2E2F0" height="30.4883" rx="2.5" ry="2.5" style="stroke:#181818;stroke-width:0.5;" width="182" x="841.5" y="87.4883"/><text fill="#000000" font-family="sans-serif" font-size="14" lengthAdjust="spacing" textLength="168" x="848.5" y="108.0234">AuthorizationServer(AA)</text><rect fill="#E2E2F0" height="30.4883" rx="2.5" ry="2.5" style="stroke:#181818;stroke-width:0.5;" width="182" x="841.5" y="1243.0664"/><text fill="#000000" font-family="sans-serif" font-size="14" lengthAdjust="spacing" textLength="168" x="848.5" y="1263.6016">AuthorizationServer(AA)</text><rect fill="#E2E2F0" height="30.4883" rx="2.5" ry="2.5" style="stroke:#181818;stroke-width:0.5;" width="203" x="1051" y="87.4883"/><text fill="#000000" font-family="sans-serif" font-size="14" lengthAdjust="spacing" textLength="189" x="1058" y="108.0234">ResourceServer(Blockchain)</text><rect fill="#E2E2F0" height="30.4883" rx="2.5" ry="2.5" style="stroke:#181818;stroke-width:0.5;" width="203" x="1051" y="1243.0664"/><text fill="#000000" font-family="sans-serif" font-size="14" lengthAdjust="spacing" textLength="189" x="1058" y="1263.6016">ResourceServer(Blockchain)</text><rect fill="#E2E2F0" height="30.4883" rx="2.5" ry="2.5" style="stroke:#181818;stroke-width:0.5;" width="51" x="1375" y="87.4883"/><text fill="#000000" font-family="sans-serif" font-size="14" lengthAdjust="spacing" textLength="37" x="1382" y="108.0234">Redis</text><rect fill="#E2E2F0" height="30.4883" rx="2.5" ry="2.5" style="stroke:#181818;stroke-width:0.5;" width="51" x="1375" y="1243.0664"/><text fill="#000000" font-family="sans-serif" font-size="14" lengthAdjust="spacing" textLength="37" x="1382" y="1263.6016">Redis</text><rect fill="#E2E2F0" height="30.4883" rx="2.5" ry="2.5" style="stroke:#181818;stroke-width:0.5;" width="43" x="1436" y="87.4883"/><text fill="#000000" font-family="sans-serif" font-size="14" lengthAdjust="spacing" textLength="29" x="1443" y="108.0234">KMS</text><rect fill="#E2E2F0" height="30.4883" rx="2.5" ry="2.5" style="stroke:#181818;stroke-width:0.5;" width="43" x="1436" y="1243.0664"/><text fill="#000000" font-family="sans-serif" font-size="14" lengthAdjust="spacing" textLength="29" x="1443" y="1263.6016">KMS</text><rect fill="#E2E2F0" height="30.4883" rx="2.5" ry="2.5" style="stroke:#181818;stroke-width:0.5;" width="73" x="1489" y="87.4883"/><text fill="#000000" font-family="sans-serif" font-size="14" lengthAdjust="spacing" textLength="59" x="1496" y="108.0234">Postgres</text><rect fill="#E2E2F0" height="30.4883" rx="2.5" ry="2.5" style="stroke:#181818;stroke-width:0.5;" width="73" x="1489" y="1243.0664"/><text fill="#000000" font-family="sans-serif" font-size="14" lengthAdjust="spacing" textLength="59" x="1496" y="1263.6016">Postgres</text><line style="stroke:#000000;stroke-width:1.0;stroke-dasharray:2.0,2.0;" x1="0" x2="1585" y1="129.9766" y2="129.9766"/><polygon fill="#181818" points="328.5,148.2871,338.5,152.2871,328.5,156.2871,332.5,152.2871" style="stroke:#181818;stroke-width:1.0;"/><line style="stroke:#181818;stroke-width:1.0;" x1="97.5" x2="334.5" y1="152.2871" y2="152.2871"/><text fill="#000000" font-family="sans-serif" font-size="13" font-weight="bold" lengthAdjust="spacing" textLength="9" x="104.5" y="147.5449">1</text><text fill="#000000" font-family="sans-serif" font-size="13" lengthAdjust="spacing" textLength="206" x="117.5" y="147.5449">Wants to add a new email or SMS</text><polygon fill="#181818" points="920.5,177.5977,930.5,181.5977,920.5,185.5977,924.5,181.5977" style="stroke:#181818;stroke-width:1.0;"/><line style="stroke:#181818;stroke-width:1.0;" x1="340.5" x2="926.5" y1="181.5977" y2="181.5977"/><text fill="#000000" font-family="sans-serif" font-size="13" font-weight="bold" lengthAdjust="spacing" textLength="9" x="347.5" y="176.8555">2</text><text fill="#000000" font-family="sans-serif" font-size="13" lengthAdjust="spacing" textLength="459" x="360.5" y="176.8555">Launches Browser or View with Browser chrome to Login Page w/callback</text><polygon fill="#181818" points="108.5,206.9082,98.5,210.9082,108.5,214.9082,104.5,210.9082" style="stroke:#181818;stroke-width:1.0;"/><line style="stroke:#181818;stroke-width:1.0;" x1="102.5" x2="931.5" y1="210.9082" y2="210.9082"/><text fill="#000000" font-family="sans-serif" font-size="13" font-weight="bold" lengthAdjust="spacing" textLength="9" x="114.5" y="206.166">3</text><text fill="#000000" font-family="sans-serif" font-size="13" lengthAdjust="spacing" textLength="68" x="127.5" y="206.166">Login Page</text><polygon fill="#181818" points="920.5,236.2188,930.5,240.2188,920.5,244.2188,924.5,240.2188" style="stroke:#181818;stroke-width:1.0;"/><line style="stroke:#181818;stroke-width:1.0;" x1="97.5" x2="926.5" y1="240.2188" y2="240.2188"/><text fill="#000000" font-family="sans-serif" font-size="13" font-weight="bold" lengthAdjust="spacing" textLength="9" x="104.5" y="235.4766">4</text><text fill="#000000" font-family="sans-serif" font-size="13" lengthAdjust="spacing" textLength="195" x="117.5" y="235.4766">Submit phone or email to login</text><polygon fill="#181818" points="1513.5,265.5293,1523.5,269.5293,1513.5,273.5293,1517.5,269.5293" style="stroke:#181818;stroke-width:1.0;"/><line style="stroke:#181818;stroke-width:1.0;" x1="932.5" x2="1519.5" y1="269.5293" y2="269.5293"/><text fill="#000000" font-family="sans-serif" font-size="13" font-weight="bold" lengthAdjust="spacing" textLength="9" x="939.5" y="264.7871">5</text><text fill="#000000" font-family="sans-serif" font-size="13" lengthAdjust="spacing" textLength="270" x="952.5" y="264.7871">fetch UserAccount(s) by user UserIdentifier</text><polygon fill="#181818" points="943.5,294.8398,933.5,298.8398,943.5,302.8398,939.5,298.8398" style="stroke:#181818;stroke-width:1.0;"/><line style="stroke:#181818;stroke-width:1.0;stroke-dasharray:2.0,2.0;" x1="937.5" x2="1524.5" y1="298.8398" y2="298.8398"/><text fill="#000000" font-family="sans-serif" font-size="13" font-weight="bold" lengthAdjust="spacing" textLength="9" x="949.5" y="294.0977">6</text><text fill="#000000" font-family="sans-serif" font-size="13" lengthAdjust="spacing" textLength="167" x="962.5" y="294.0977">ProviderExternalUserDetail</text><line style="stroke:#181818;stroke-width:1.0;" x1="932.5" x2="974.5" y1="328.1504" y2="328.1504"/><line style="stroke:#181818;stroke-width:1.0;" x1="974.5" x2="974.5" y1="328.1504" y2="341.1504"/><line style="stroke:#181818;stroke-width:1.0;" x1="933.5" x2="974.5" y1="341.1504" y2="341.1504"/><polygon fill="#181818" points="943.5,337.1504,933.5,341.1504,943.5,345.1504,939.5,341.1504" style="stroke:#181818;stroke-width:1.0;"/><text fill="#000000" font-family="sans-serif" font-size="13" font-weight="bold" lengthAdjust="spacing" textLength="9" x="939.5" y="323.4082">7</text><text fill="#000000" font-family="sans-serif" font-size="13" lengthAdjust="spacing" textLength="184" x="952.5" y="323.4082">Generate authentication code</text><polygon fill="#181818" points="1388.5,366.4609,1398.5,370.4609,1388.5,374.4609,1392.5,370.4609" style="stroke:#181818;stroke-width:1.0;"/><line style="stroke:#181818;stroke-width:1.0;" x1="932.5" x2="1394.5" y1="370.4609" y2="370.4609"/><text fill="#000000" font-family="sans-serif" font-size="13" font-weight="bold" lengthAdjust="spacing" textLength="9" x="939.5" y="365.7188">8</text><text fill="#000000" font-family="sans-serif" font-size="13" lengthAdjust="spacing" textLength="206" x="952.5" y="365.7188">Persist sessionData by sessionId</text><polygon fill="#181818" points="1388.5,395.7715,1398.5,399.7715,1388.5,403.7715,1392.5,399.7715" style="stroke:#181818;stroke-width:1.0;"/><line style="stroke:#181818;stroke-width:1.0;" x1="932.5" x2="1394.5" y1="399.7715" y2="399.7715"/><text fill="#000000" font-family="sans-serif" font-size="13" font-weight="bold" lengthAdjust="spacing" textLength="9" x="939.5" y="395.0293">9</text><text fill="#000000" font-family="sans-serif" font-size="13" lengthAdjust="spacing" textLength="431" x="952.5" y="395.0293">Persist sessionData w/associated authentication code and sessionId</text><path d="M10,414.7715 L72,414.7715 L72,422.082 L62,432.082 L10,432.082 L10,414.7715 " fill="#EEEEEE" style="stroke:#000000;stroke-width:1.5;"/><rect fill="none" height="208.1289" style="stroke:#000000;stroke-width:1.5;" width="1023.5" x="10" y="414.7715"/><text fill="#000000" font-family="sans-serif" font-size="13" font-weight="bold" lengthAdjust="spacing" textLength="17" x="25" y="428.3398">alt</text><text fill="#000000" font-family="sans-serif" font-size="11" font-weight="bold" lengthAdjust="spacing" textLength="88" x="87" y="427.4063">[Sending Email]</text><polygon fill="#181818" points="108.5,449.3926,98.5,453.3926,108.5,457.3926,104.5,453.3926" style="stroke:#181818;stroke-width:1.0;"/><line style="stroke:#181818;stroke-width:1.0;" x1="102.5" x2="931.5" y1="453.3926" y2="453.3926"/><text fill="#000000" font-family="sans-serif" font-size="13" font-weight="bold" lengthAdjust="spacing" textLength="17" x="114.5" y="448.6504">9a</text><text fill="#000000" font-family="sans-serif" font-size="13" lengthAdjust="spacing" textLength="163" x="135.5" y="448.6504">Email authentication code</text><polygon fill="#181818" points="108.5,478.7031,98.5,482.7031,108.5,486.7031,104.5,482.7031" style="stroke:#181818;stroke-width:1.0;"/><line style="stroke:#181818;stroke-width:1.0;" x1="102.5" x2="931.5" y1="482.7031" y2="482.7031"/><text fill="#000000" font-family="sans-serif" font-size="13" font-weight="bold" lengthAdjust="spacing" textLength="18" x="114.5" y="477.9609">9b</text><text fill="#000000" font-family="sans-serif" font-size="13" lengthAdjust="spacing" textLength="112" x="136.5" y="477.9609">Show check email</text><polygon fill="#181818" points="920.5,508.0137,930.5,512.0137,920.5,516.0137,924.5,512.0137" style="stroke:#181818;stroke-width:1.0;"/><line style="stroke:#181818;stroke-width:1.0;" x1="97.5" x2="926.5" y1="512.0137" y2="512.0137"/><text fill="#000000" font-family="sans-serif" font-size="13" font-weight="bold" lengthAdjust="spacing" textLength="16" x="104.5" y="507.2715">9c</text><text fill="#000000" font-family="sans-serif" font-size="13" lengthAdjust="spacing" textLength="304" x="124.5" y="507.2715">Clicks link w/authentication code and sessionId</text><line style="stroke:#000000;stroke-width:1.0;stroke-dasharray:2.0,2.0;" x1="10" x2="1033.5" y1="521.0137" y2="521.0137"/><text fill="#000000" font-family="sans-serif" font-size="11" font-weight="bold" lengthAdjust="spacing" textLength="78" x="15" y="531.6484">[Sending SMS]</text><polygon fill="#181818" points="108.5,552.2793,98.5,556.2793,108.5,560.2793,104.5,556.2793" style="stroke:#181818;stroke-width:1.0;"/><line style="stroke:#181818;stroke-width:1.0;" x1="102.5" x2="931.5" y1="556.2793" y2="556.2793"/><text fill="#000000" font-family="sans-serif" font-size="13" font-weight="bold" lengthAdjust="spacing" textLength="17" x="114.5" y="551.5371">9a</text><text fill="#000000" font-family="sans-serif" font-size="13" lengthAdjust="spacing" textLength="390" x="135.5" y="551.5371">Send SMS authentication code (how does sessionId work here)</text><polygon fill="#181818" points="108.5,581.5898,98.5,585.5898,108.5,589.5898,104.5,585.5898" style="stroke:#181818;stroke-width:1.0;"/><line style="stroke:#181818;stroke-width:1.0;" x1="102.5" x2="931.5" y1="585.5898" y2="585.5898"/><text fill="#000000" font-family="sans-serif" font-size="13" font-weight="bold" lengthAdjust="spacing" textLength="18" x="114.5" y="580.8477">9b</text><text fill="#000000" font-family="sans-serif" font-size="13" lengthAdjust="spacing" textLength="149" x="136.5" y="580.8477">Display SMS Code input</text><polygon fill="#181818" points="920.5,610.9004,930.5,614.9004,920.5,618.9004,924.5,614.9004" style="stroke:#181818;stroke-width:1.0;"/><line style="stroke:#181818;stroke-width:1.0;" x1="97.5" x2="926.5" y1="614.9004" y2="614.9004"/><text fill="#000000" font-family="sans-serif" font-size="13" font-weight="bold" lengthAdjust="spacing" textLength="16" x="104.5" y="610.1582">9c</text><text fill="#000000" font-family="sans-serif" font-size="13" lengthAdjust="spacing" textLength="168" x="124.5" y="610.1582">Enters authentication code</text><polygon fill="#181818" points="1388.5,647.2109,1398.5,651.2109,1388.5,655.2109,1392.5,651.2109" style="stroke:#181818;stroke-width:1.0;"/><line style="stroke:#181818;stroke-width:1.0;" x1="932.5" x2="1394.5" y1="651.2109" y2="651.2109"/><text fill="#000000" font-family="sans-serif" font-size="13" font-weight="bold" lengthAdjust="spacing" textLength="18" x="939.5" y="646.4688">10</text><text fill="#000000" font-family="sans-serif" font-size="13" lengthAdjust="spacing" textLength="326" x="961.5" y="646.4688">Fetch payload by authentication code and sessionId</text><polygon fill="#181818" points="943.5,676.5215,933.5,680.5215,943.5,684.5215,939.5,680.5215" style="stroke:#181818;stroke-width:1.0;"/><line style="stroke:#181818;stroke-width:1.0;stroke-dasharray:2.0,2.0;" x1="937.5" x2="1399.5" y1="680.5215" y2="680.5215"/><text fill="#000000" font-family="sans-serif" font-size="13" font-weight="bold" lengthAdjust="spacing" textLength="18" x="949.5" y="675.7793">11</text><text fill="#000000" font-family="sans-serif" font-size="13" lengthAdjust="spacing" textLength="48" x="971.5" y="675.7793">Payload</text><polygon fill="#181818" points="108.5,705.832,98.5,709.832,108.5,713.832,104.5,709.832" style="stroke:#181818;stroke-width:1.0;"/><line style="stroke:#181818;stroke-width:1.0;" x1="102.5" x2="931.5" y1="709.832" y2="709.832"/><text fill="#000000" font-family="sans-serif" font-size="13" font-weight="bold" lengthAdjust="spacing" textLength="18" x="114.5" y="705.0898">12</text><text fill="#000000" font-family="sans-serif" font-size="13" lengthAdjust="spacing" textLength="358" x="136.5" y="705.0898">display add email or SMS form (or autofill from Provider?)</text><polygon fill="#181818" points="920.5,735.1426,930.5,739.1426,920.5,743.1426,924.5,739.1426" style="stroke:#181818;stroke-width:1.0;"/><line style="stroke:#181818;stroke-width:1.0;" x1="97.5" x2="926.5" y1="739.1426" y2="739.1426"/><text fill="#000000" font-family="sans-serif" font-size="13" font-weight="bold" lengthAdjust="spacing" textLength="18" x="104.5" y="734.4004">13</text><text fill="#000000" font-family="sans-serif" font-size="13" lengthAdjust="spacing" textLength="196" x="126.5" y="734.4004">Submits add email or SMS form</text><line style="stroke:#181818;stroke-width:1.0;" x1="932.5" x2="974.5" y1="768.4531" y2="768.4531"/><line style="stroke:#181818;stroke-width:1.0;" x1="974.5" x2="974.5" y1="768.4531" y2="781.4531"/><line style="stroke:#181818;stroke-width:1.0;" x1="933.5" x2="974.5" y1="781.4531" y2="781.4531"/><polygon fill="#181818" points="943.5,777.4531,933.5,781.4531,943.5,785.4531,939.5,781.4531" style="stroke:#181818;stroke-width:1.0;"/><text fill="#000000" font-family="sans-serif" font-size="13" font-weight="bold" lengthAdjust="spacing" textLength="18" x="939.5" y="763.7109">14</text><text fill="#000000" font-family="sans-serif" font-size="13" lengthAdjust="spacing" textLength="167" x="961.5" y="763.7109">Generate Verification Code</text><polygon fill="#181818" points="1388.5,806.7637,1398.5,810.7637,1388.5,814.7637,1392.5,810.7637" style="stroke:#181818;stroke-width:1.0;"/><line style="stroke:#181818;stroke-width:1.0;" x1="932.5" x2="1394.5" y1="810.7637" y2="810.7637"/><text fill="#000000" font-family="sans-serif" font-size="13" font-weight="bold" lengthAdjust="spacing" textLength="18" x="939.5" y="806.0215">15</text><text fill="#000000" font-family="sans-serif" font-size="13" lengthAdjust="spacing" textLength="383" x="961.5" y="806.0215">Persist payload w/associated verification code and sessionId</text><path d="M10,825.7637 L72,825.7637 L72,833.0742 L62,843.0742 L10,843.0742 L10,825.7637 " fill="#EEEEEE" style="stroke:#000000;stroke-width:1.5;"/><rect fill="none" height="178.8184" style="stroke:#000000;stroke-width:1.5;" width="1023.5" x="10" y="825.7637"/><text fill="#000000" font-family="sans-serif" font-size="13" font-weight="bold" lengthAdjust="spacing" textLength="17" x="25" y="839.332">alt</text><text fill="#000000" font-family="sans-serif" font-size="11" font-weight="bold" lengthAdjust="spacing" textLength="79" x="87" y="838.3984">[Email Added]</text><polygon fill="#181818" points="108.5,860.3848,98.5,864.3848,108.5,868.3848,104.5,864.3848" style="stroke:#181818;stroke-width:1.0;"/><line style="stroke:#181818;stroke-width:1.0;" x1="102.5" x2="931.5" y1="864.3848" y2="864.3848"/><text fill="#000000" font-family="sans-serif" font-size="13" font-weight="bold" lengthAdjust="spacing" textLength="26" x="114.5" y="859.6426">16a</text><text fill="#000000" font-family="sans-serif" font-size="13" lengthAdjust="spacing" textLength="234" x="144.5" y="859.6426">Email verification code and sessionId</text><polygon fill="#181818" points="920.5,889.6953,930.5,893.6953,920.5,897.6953,924.5,893.6953" style="stroke:#181818;stroke-width:1.0;"/><line style="stroke:#181818;stroke-width:1.0;" x1="97.5" x2="926.5" y1="893.6953" y2="893.6953"/><text fill="#000000" font-family="sans-serif" font-size="13" font-weight="bold" lengthAdjust="spacing" textLength="27" x="104.5" y="888.9531">16b</text><text fill="#000000" font-family="sans-serif" font-size="13" lengthAdjust="spacing" textLength="284" x="135.5" y="888.9531">Clicks link w/verification code and sessionId</text><line style="stroke:#000000;stroke-width:1.0;stroke-dasharray:2.0,2.0;" x1="10" x2="1033.5" y1="902.6953" y2="902.6953"/><text fill="#000000" font-family="sans-serif" font-size="11" font-weight="bold" lengthAdjust="spacing" textLength="81" x="15" y="913.3301">[Phone Added]</text><polygon fill="#181818" points="108.5,933.9609,98.5,937.9609,108.5,941.9609,104.5,937.9609" style="stroke:#181818;stroke-width:1.0;"/><line style="stroke:#181818;stroke-width:1.0;" x1="102.5" x2="931.5" y1="937.9609" y2="937.9609"/><text fill="#000000" font-family="sans-serif" font-size="13" font-weight="bold" lengthAdjust="spacing" textLength="26" x="114.5" y="933.2188">16a</text><text fill="#000000" font-family="sans-serif" font-size="13" lengthAdjust="spacing" textLength="370" x="144.5" y="933.2188">Send SMS verification code (how does sessionId work here)</text><polygon fill="#181818" points="108.5,963.2715,98.5,967.2715,108.5,971.2715,104.5,967.2715" style="stroke:#181818;stroke-width:1.0;"/><line style="stroke:#181818;stroke-width:1.0;" x1="102.5" x2="931.5" y1="967.2715" y2="967.2715"/><text fill="#000000" font-family="sans-serif" font-size="13" font-weight="bold" lengthAdjust="spacing" textLength="27" x="114.5" y="962.5293">16b</text><text fill="#000000" font-family="sans-serif" font-size="13" lengthAdjust="spacing" textLength="149" x="145.5" y="962.5293">Display SMS Code input</text><polygon fill="#181818" points="920.5,992.582,930.5,996.582,920.5,1000.582,924.5,996.582" style="stroke:#181818;stroke-width:1.0;"/><line style="stroke:#181818;stroke-width:1.0;" x1="97.5" x2="926.5" y1="996.582" y2="996.582"/><text fill="#000000" font-family="sans-serif" font-size="13" font-weight="bold" lengthAdjust="spacing" textLength="25" x="104.5" y="991.8398">16c</text><text fill="#000000" font-family="sans-serif" font-size="13" lengthAdjust="spacing" textLength="168" x="133.5" y="991.8398">Enters authentication code</text><polygon fill="#181818" points="1388.5,1028.8926,1398.5,1032.8926,1388.5,1036.8926,1392.5,1032.8926" style="stroke:#181818;stroke-width:1.0;"/><line style="stroke:#181818;stroke-width:1.0;" x1="932.5" x2="1394.5" y1="1032.8926" y2="1032.8926"/><text fill="#000000" font-family="sans-serif" font-size="13" font-weight="bold" lengthAdjust="spacing" textLength="18" x="939.5" y="1028.1504">17</text><text fill="#000000" font-family="sans-serif" font-size="13" lengthAdjust="spacing" textLength="319" x="961.5" y="1028.1504">Fetch payload by verification code and sessionId(?)</text><polygon fill="#181818" points="943.5,1058.2031,933.5,1062.2031,943.5,1066.2031,939.5,1062.2031" style="stroke:#181818;stroke-width:1.0;"/><line style="stroke:#181818;stroke-width:1.0;stroke-dasharray:2.0,2.0;" x1="937.5" x2="1399.5" y1="1062.2031" y2="1062.2031"/><text fill="#000000" font-family="sans-serif" font-size="13" font-weight="bold" lengthAdjust="spacing" textLength="18" x="949.5" y="1057.4609">18</text><text fill="#000000" font-family="sans-serif" font-size="13" lengthAdjust="spacing" textLength="48" x="971.5" y="1057.4609">Payload</text><polygon fill="#181818" points="1513.5,1087.5137,1523.5,1091.5137,1513.5,1095.5137,1517.5,1091.5137" style="stroke:#181818;stroke-width:1.0;"/><line style="stroke:#181818;stroke-width:1.0;" x1="932.5" x2="1519.5" y1="1091.5137" y2="1091.5137"/><text fill="#000000" font-family="sans-serif" font-size="13" font-weight="bold" lengthAdjust="spacing" textLength="18" x="939.5" y="1086.7715">19</text><text fill="#000000" font-family="sans-serif" font-size="13" lengthAdjust="spacing" textLength="386" x="961.5" y="1086.7715">Persist new ProviderExternalUserDetail with new Email or SMS</text><polygon fill="#181818" points="108.5,1116.8242,98.5,1120.8242,108.5,1124.8242,104.5,1120.8242" style="stroke:#181818;stroke-width:1.0;"/><line style="stroke:#181818;stroke-width:1.0;" x1="102.5" x2="931.5" y1="1120.8242" y2="1120.8242"/><text fill="#000000" font-family="sans-serif" font-size="13" font-weight="bold" lengthAdjust="spacing" textLength="18" x="114.5" y="1116.082">20</text><text fill="#000000" font-family="sans-serif" font-size="13" lengthAdjust="spacing" textLength="259" x="136.5" y="1116.082">Success page w/button back to provider?</text><path d="M453,1135.8242 L515,1135.8242 L515,1143.1348 L505,1153.1348 L453,1153.1348 L453,1135.8242 " fill="#EEEEEE" style="stroke:#000000;stroke-width:1.5;"/><rect fill="none" height="46.6211" style="stroke:#000000;stroke-width:1.5;" width="580.5" x="453" y="1135.8242"/><text fill="#000000" font-family="sans-serif" font-size="13" font-weight="bold" lengthAdjust="spacing" textLength="17" x="468" y="1149.3926">alt</text><text fill="#000000" font-family="sans-serif" font-size="11" font-weight="bold" lengthAdjust="spacing" textLength="165" x="530" y="1148.459">[Async Call of the new email]</text><polygon fill="#181818" points="534.5,1170.4453,524.5,1174.4453,534.5,1178.4453,530.5,1174.4453" style="stroke:#181818;stroke-width:1.0;"/><line style="stroke:#181818;stroke-width:1.0;" x1="528.5" x2="931.5" y1="1174.4453" y2="1174.4453"/><text fill="#000000" font-family="sans-serif" font-size="13" font-weight="bold" lengthAdjust="spacing" textLength="18" x="540.5" y="1169.7031">21</text><text fill="#000000" font-family="sans-serif" font-size="13" lengthAdjust="spacing" textLength="363" x="562.5" y="1169.7031">Email or SMS added Callback (and potentially other state?)</text><polygon fill="#181818" points="328.5,1222.0664,338.5,1226.0664,328.5,1230.0664,332.5,1226.0664" style="stroke:#181818;stroke-width:1.0;"/><line style="stroke:#181818;stroke-width:1.0;" x1="97.5" x2="334.5" y1="1226.0664" y2="1226.0664"/><text fill="#000000" font-family="sans-serif" font-size="13" font-weight="bold" lengthAdjust="spacing" textLength="18" x="104.5" y="1213.6689">22</text><text fill="#000000" font-family="sans-serif" font-size="13" lengthAdjust="spacing" textLength="126" x="126.5" y="1206.0137">Click to callback url</text><text fill="#000000" font-family="sans-serif" font-size="13" lengthAdjust="spacing" textLength="190" x="130.5" y="1221.3242">(app link deep link or website)</text><!--SRC=[xLTDRnit4BtlhnZeKic0uqG5MaY718hi1aRjnAZgzD8BHOwqX2Xoom-fwg_lSBzbhIq9TP1BVV5gEHo-cNcSD-kbLmYzYH1IBu61nYtSh9bKO2myf4OZV0xhELguXCz6mvSDMWztPYbrB_aXzJvpuwkhJ37jmrgzuMPzvV2lW9hZfP1iQTawIHZtvAtt6peJBCSlMuss_-ZG3dh075YJPCnwoML6Rg0tLHBfVpHWIthAZNZeCke_MBEHelB4zsqcmQV6od-ObqRFq1Bs_cHIc3AsRrk1Ayq-AiDNF6LIbnZTKtCXNR6ol_3h_In_lTf__M2SNreijcIKak2DpXERQECH6BV6kJ7SUf04phcmHW4-PHwoCaJ8s4uP9cZP8ZYvr6J1j82KRH2qePJJenQAAfbO0vVlWO_X3phUWJV0X2ZhYrLzP_UpX4SxniOmAnmI4sBYRmLbLovaSonihpXJQixuAc6ishLXIWhc2ppC1ulbegLW5kXv2cl7RWNCTv25kP8SLhXBB9AfBfRA3LbbNvNqvc-FLZCLuLoZZvZ9IN0HKkqfJq2LeVlSNUdxUJSLmZ4ye7NI-LQ8b7d39GKaO8RE4My8U__nyVPwK6wZdBfwfMM-bJu56xbF3ll3jqFoTcTupZr8aKMI5jdcOGnFLc8U0oOyL7dzTFDxB5fbra2cwAn4AhZKqakcQkoKcnfNdODYhLMlJqXtBzQB29Z64fSmk15uObuwTkPLQ4vlo0tEconXobCsTTvYykQI0FsLfvanN5oy-ubTN9IDfmlPeVsSx6UfsG9FaQyAJkTc1VDZhD6Cancr2hvoGFTY5ICv2X-Lmnfll2FTQAD5NEvCI3z24mPTYonROrTKRuk3P-AvbeuwwIvtEerUfCw2VoQg6qsyTftP8c3j6hpxkQdiB_aLQt7cU3ewkHHXYn9kx2pjdW8BOzVGfnyHn48g1GjhrlMD_318cd1cORwMrA4wdNGHzojQwaibtEdfjDsqzvr8seAGr19H79HiE6meUyptqmeEX_C3NXxpaREoKEIN0DMiFFHt9YSBa2ToSZWyZvF37r_Wv95Kz2E1kaYPDHI8ElU2aEJDUc_MYVSybdpYTfh3b9GEp88461l9R6M8HA2zCxANA3Qjz34FbbMzFiuA5hcF3RsIK0XM_QcXpxAi8810B9_8vHRdJdggIKA7PpG4mKa3MciuQmyOvImGJXW6QlsvOq5JPtNmqPfjb5oo-2h9FizSzPAdTA-n42ewbCf1K0_cX4YdPltWxaEMHq4755Z8cof2s9yBOlacd9j0OvyRrBF0_hHoilgVBuOb_wwPP_jY-wBbDvVEqNdAEJf9E4VVH3T7hosRepCwrEXCqNpxlsY-lcYsvxnpHREOaLvPD9-CSlzPDB_V8FVTHBEEVXOuf-CWArHW7ZmXXrpjgATN7saVNarcIJtZnnzzFklu9QHsOCXHP29nbyADsMkqBoVE-HByBm00]--></g></svg>