<?xml version="1.0" encoding="us-ascii" standalone="no"?><svg xmlns="http://www.w3.org/2000/svg" xmlns:xlink="http://www.w3.org/1999/xlink" contentStyleType="text/css" height="849px" preserveAspectRatio="none" style="width:1192px;height:849px;background:#FFFFFF;" version="1.1" viewBox="0 0 1192 849" width="1192px" zoomAndPan="magnify"><defs/><g><text fill="#000000" font-family="sans-serif" font-size="14" font-weight="bold" lengthAdjust="spacing" textLength="253" x="470.5" y="28.5352">Login To Custodial Wallet Detailed</text><rect fill="none" height="208.1289" style="stroke:#000000;stroke-width:1.5;" width="1175" x="10" y="375.4609"/><line style="stroke:#181818;stroke-width:0.5;stroke-dasharray:5.0,5.0;" x1="38" x2="38" y1="118.9766" y2="768.4531"/><line style="stroke:#181818;stroke-width:0.5;stroke-dasharray:5.0,5.0;" x1="432" x2="432" y1="118.9766" y2="768.4531"/><line style="stroke:#181818;stroke-width:0.5;stroke-dasharray:5.0,5.0;" x1="900" x2="900" y1="118.9766" y2="768.4531"/><line style="stroke:#181818;stroke-width:0.5;stroke-dasharray:5.0,5.0;" x1="957" x2="957" y1="118.9766" y2="768.4531"/><line style="stroke:#181818;stroke-width:0.5;stroke-dasharray:5.0,5.0;" x1="1025" x2="1025" y1="118.9766" y2="768.4531"/><line style="stroke:#181818;stroke-width:0.5;stroke-dasharray:5.0,5.0;" x1="1099" x2="1099" y1="118.9766" y2="768.4531"/><line style="stroke:#181818;stroke-width:0.5;stroke-dasharray:5.0,5.0;" x1="1156" x2="1156" y1="118.9766" y2="768.4531"/><text fill="#000000" font-family="sans-serif" font-size="14" lengthAdjust="spacing" textLength="31" x="20" y="116.0234">User</text><ellipse cx="38.5" cy="50.9883" fill="#E2E2F0" rx="8" ry="8" style="stroke:#181818;stroke-width:0.5;"/><path d="M38.5,58.9883 L38.5,85.9883 M25.5,66.9883 L51.5,66.9883 M38.5,85.9883 L25.5,100.9883 M38.5,85.9883 L51.5,100.9883 " fill="none" style="stroke:#181818;stroke-width:0.5;"/><text fill="#000000" font-family="sans-serif" font-size="14" lengthAdjust="spacing" textLength="31" x="20" y="780.9883">User</text><ellipse cx="38.5" cy="792.4414" fill="#E2E2F0" rx="8" ry="8" style="stroke:#181818;stroke-width:0.5;"/><path d="M38.5,800.4414 L38.5,827.4414 M25.5,808.4414 L51.5,808.4414 M38.5,827.4414 L25.5,842.4414 M38.5,827.4414 L51.5,842.4414 " fill="none" style="stroke:#181818;stroke-width:0.5;"/><rect fill="#E2E2F0" height="30.4883" rx="2.5" ry="2.5" style="stroke:#181818;stroke-width:0.5;" width="119" x="373" y="87.4883"/><text fill="#000000" font-family="sans-serif" font-size="14" lengthAdjust="spacing" textLength="105" x="380" y="108.0234">Amplica Access</text><rect fill="#E2E2F0" height="30.4883" rx="2.5" ry="2.5" style="stroke:#181818;stroke-width:0.5;" width="119" x="373" y="767.4531"/><text fill="#000000" font-family="sans-serif" font-size="14" lengthAdjust="spacing" textLength="105" x="380" y="787.9883">Amplica Access</text><rect fill="#E2E2F0" height="30.4883" rx="2.5" ry="2.5" style="stroke:#181818;stroke-width:0.5;" width="51" x="875" y="87.4883"/><text fill="#000000" font-family="sans-serif" font-size="14" lengthAdjust="spacing" textLength="37" x="882" y="108.0234">Redis</text><rect fill="#E2E2F0" height="30.4883" rx="2.5" ry="2.5" style="stroke:#181818;stroke-width:0.5;" width="51" x="875" y="767.4531"/><text fill="#000000" font-family="sans-serif" font-size="14" lengthAdjust="spacing" textLength="37" x="882" y="787.9883">Redis</text><rect fill="#E2E2F0" height="30.4883" rx="2.5" ry="2.5" style="stroke:#181818;stroke-width:0.5;" width="43" x="936" y="87.4883"/><text fill="#000000" font-family="sans-serif" font-size="14" lengthAdjust="spacing" textLength="29" x="943" y="108.0234">KMS</text><rect fill="#E2E2F0" height="30.4883" rx="2.5" ry="2.5" style="stroke:#181818;stroke-width:0.5;" width="43" x="936" y="767.4531"/><text fill="#000000" font-family="sans-serif" font-size="14" lengthAdjust="spacing" textLength="29" x="943" y="787.9883">KMS</text><rect fill="#E2E2F0" height="30.4883" rx="2.5" ry="2.5" style="stroke:#181818;stroke-width:0.5;" width="73" x="989" y="87.4883"/><text fill="#000000" font-family="sans-serif" font-size="14" lengthAdjust="spacing" textLength="59" x="996" y="108.0234">Postgres</text><rect fill="#E2E2F0" height="30.4883" rx="2.5" ry="2.5" style="stroke:#181818;stroke-width:0.5;" width="73" x="989" y="767.4531"/><text fill="#000000" font-family="sans-serif" font-size="14" lengthAdjust="spacing" textLength="59" x="996" y="787.9883">Postgres</text><rect fill="#E2E2F0" height="30.4883" rx="2.5" ry="2.5" style="stroke:#181818;stroke-width:0.5;" width="55" x="1072" y="87.4883"/><text fill="#000000" font-family="sans-serif" font-size="14" lengthAdjust="spacing" textLength="41" x="1079" y="108.0234">Twilio</text><rect fill="#E2E2F0" height="30.4883" rx="2.5" ry="2.5" style="stroke:#181818;stroke-width:0.5;" width="55" x="1072" y="767.4531"/><text fill="#000000" font-family="sans-serif" font-size="14" lengthAdjust="spacing" textLength="41" x="1079" y="787.9883">Twilio</text><rect fill="#E2E2F0" height="30.4883" rx="2.5" ry="2.5" style="stroke:#181818;stroke-width:0.5;" width="38" x="1137" y="87.4883"/><text fill="#000000" font-family="sans-serif" font-size="14" lengthAdjust="spacing" textLength="24" x="1144" y="108.0234">SES</text><rect fill="#E2E2F0" height="30.4883" rx="2.5" ry="2.5" style="stroke:#181818;stroke-width:0.5;" width="38" x="1137" y="767.4531"/><text fill="#000000" font-family="sans-serif" font-size="14" lengthAdjust="spacing" textLength="24" x="1144" y="787.9883">SES</text><polygon fill="#181818" points="49.5,146.2871,39.5,150.2871,49.5,154.2871,45.5,150.2871" style="stroke:#181818;stroke-width:1.0;"/><line style="stroke:#181818;stroke-width:1.0;" x1="43.5" x2="431.5" y1="150.2871" y2="150.2871"/><text fill="#000000" font-family="sans-serif" font-size="13" font-weight="bold" lengthAdjust="spacing" textLength="9" x="55.5" y="145.5449">1</text><text fill="#000000" font-family="sans-serif" font-size="13" lengthAdjust="spacing" textLength="68" x="68.5" y="145.5449">Login Page</text><polygon fill="#181818" points="420.5,175.5977,430.5,179.5977,420.5,183.5977,424.5,179.5977" style="stroke:#181818;stroke-width:1.0;"/><line style="stroke:#181818;stroke-width:1.0;" x1="38.5" x2="426.5" y1="179.5977" y2="179.5977"/><text fill="#000000" font-family="sans-serif" font-size="13" font-weight="bold" lengthAdjust="spacing" textLength="9" x="45.5" y="174.8555">2</text><text fill="#000000" font-family="sans-serif" font-size="13" lengthAdjust="spacing" textLength="195" x="58.5" y="174.8555">Submit phone or email to login</text><polygon fill="#181818" points="1013.5,204.9082,1023.5,208.9082,1013.5,212.9082,1017.5,208.9082" style="stroke:#181818;stroke-width:1.0;"/><line style="stroke:#181818;stroke-width:1.0;" x1="432.5" x2="1019.5" y1="208.9082" y2="208.9082"/><text fill="#000000" font-family="sans-serif" font-size="13" font-weight="bold" lengthAdjust="spacing" textLength="9" x="439.5" y="204.166">3</text><text fill="#000000" font-family="sans-serif" font-size="13" lengthAdjust="spacing" textLength="270" x="452.5" y="204.166">fetch UserAccount(s) by user UserIdentifier</text><polygon fill="#181818" points="443.5,234.2188,433.5,238.2188,443.5,242.2188,439.5,238.2188" style="stroke:#181818;stroke-width:1.0;"/><line style="stroke:#181818;stroke-width:1.0;stroke-dasharray:2.0,2.0;" x1="437.5" x2="1024.5" y1="238.2188" y2="238.2188"/><text fill="#000000" font-family="sans-serif" font-size="13" font-weight="bold" lengthAdjust="spacing" textLength="9" x="449.5" y="233.4766">4</text><text fill="#000000" font-family="sans-serif" font-size="13" lengthAdjust="spacing" textLength="95" x="462.5" y="233.4766">UserAccount(s)</text><line style="stroke:#181818;stroke-width:1.0;" x1="432.5" x2="474.5" y1="267.5293" y2="267.5293"/><line style="stroke:#181818;stroke-width:1.0;" x1="474.5" x2="474.5" y1="267.5293" y2="280.5293"/><line style="stroke:#181818;stroke-width:1.0;" x1="433.5" x2="474.5" y1="280.5293" y2="280.5293"/><polygon fill="#181818" points="443.5,276.5293,433.5,280.5293,443.5,284.5293,439.5,280.5293" style="stroke:#181818;stroke-width:1.0;"/><text fill="#000000" font-family="sans-serif" font-size="13" font-weight="bold" lengthAdjust="spacing" textLength="9" x="439.5" y="262.7871">5</text><text fill="#000000" font-family="sans-serif" font-size="13" lengthAdjust="spacing" textLength="184" x="452.5" y="262.7871">Generate authentication code</text><polygon fill="#181818" points="888.5,316.4951,898.5,320.4951,888.5,324.4951,892.5,320.4951" style="stroke:#181818;stroke-width:1.0;"/><line style="stroke:#181818;stroke-width:1.0;" x1="432.5" x2="894.5" y1="320.4951" y2="320.4951"/><text fill="#000000" font-family="sans-serif" font-size="13" font-weight="bold" lengthAdjust="spacing" textLength="9" x="439.5" y="315.7529">6</text><text fill="#000000" font-family="sans-serif" font-size="13" lengthAdjust="spacing" textLength="206" x="452.5" y="315.7529">Persist sessionData by sessionId</text><path d="M90,293.5293 L90,333.5293 L427,333.5293 L427,303.5293 L417,293.5293 L90,293.5293 " fill="#FEFFDD" style="stroke:#181818;stroke-width:0.5;"/><path d="M417,293.5293 L417,303.5293 L427,303.5293 L417,293.5293 " fill="#FEFFDD" style="stroke:#181818;stroke-width:0.5;"/><text fill="#000000" font-family="sans-serif" font-size="13" lengthAdjust="spacing" textLength="112" x="96" y="311.0977">The UserIdentifier</text><text fill="#000000" font-family="sans-serif" font-size="13" lengthAdjust="spacing" textLength="316" x="96" y="326.4082">and userAccountIds should be in this sessionData</text><polygon fill="#181818" points="888.5,356.4609,898.5,360.4609,888.5,364.4609,892.5,360.4609" style="stroke:#181818;stroke-width:1.0;"/><line style="stroke:#181818;stroke-width:1.0;" x1="432.5" x2="894.5" y1="360.4609" y2="360.4609"/><text fill="#000000" font-family="sans-serif" font-size="13" font-weight="bold" lengthAdjust="spacing" textLength="9" x="439.5" y="355.7188">7</text><text fill="#000000" font-family="sans-serif" font-size="13" lengthAdjust="spacing" textLength="431" x="452.5" y="355.7188">Persist sessionData w/associated authentication code and sessionId</text><path d="M10,375.4609 L72,375.4609 L72,382.7715 L62,392.7715 L10,392.7715 L10,375.4609 " fill="#EEEEEE" style="stroke:#000000;stroke-width:1.5;"/><rect fill="none" height="208.1289" style="stroke:#000000;stroke-width:1.5;" width="1175" x="10" y="375.4609"/><text fill="#000000" font-family="sans-serif" font-size="13" font-weight="bold" lengthAdjust="spacing" textLength="17" x="25" y="389.0293">alt</text><text fill="#000000" font-family="sans-serif" font-size="11" font-weight="bold" lengthAdjust="spacing" textLength="88" x="87" y="388.0957">[Sending Email]</text><polygon fill="#181818" points="1144,410.082,1154,414.082,1144,418.082,1148,414.082" style="stroke:#181818;stroke-width:1.0;"/><line style="stroke:#181818;stroke-width:1.0;" x1="432.5" x2="1150" y1="414.082" y2="414.082"/><text fill="#000000" font-family="sans-serif" font-size="13" font-weight="bold" lengthAdjust="spacing" textLength="17" x="439.5" y="409.3398">9a</text><text fill="#000000" font-family="sans-serif" font-size="13" lengthAdjust="spacing" textLength="163" x="460.5" y="409.3398">Email authentication code</text><polygon fill="#181818" points="49.5,439.3926,39.5,443.3926,49.5,447.3926,45.5,443.3926" style="stroke:#181818;stroke-width:1.0;"/><line style="stroke:#181818;stroke-width:1.0;" x1="43.5" x2="431.5" y1="443.3926" y2="443.3926"/><text fill="#000000" font-family="sans-serif" font-size="13" font-weight="bold" lengthAdjust="spacing" textLength="18" x="55.5" y="438.6504">9b</text><text fill="#000000" font-family="sans-serif" font-size="13" lengthAdjust="spacing" textLength="112" x="77.5" y="438.6504">Show check email</text><polygon fill="#181818" points="420.5,468.7031,430.5,472.7031,420.5,476.7031,424.5,472.7031" style="stroke:#181818;stroke-width:1.0;"/><line style="stroke:#181818;stroke-width:1.0;" x1="38.5" x2="426.5" y1="472.7031" y2="472.7031"/><text fill="#000000" font-family="sans-serif" font-size="13" font-weight="bold" lengthAdjust="spacing" textLength="16" x="45.5" y="467.9609">9c</text><text fill="#000000" font-family="sans-serif" font-size="13" lengthAdjust="spacing" textLength="304" x="65.5" y="467.9609">Clicks link w/authentication code and sessionId</text><line style="stroke:#000000;stroke-width:1.0;stroke-dasharray:2.0,2.0;" x1="10" x2="1185" y1="481.7031" y2="481.7031"/><text fill="#000000" font-family="sans-serif" font-size="11" font-weight="bold" lengthAdjust="spacing" textLength="78" x="15" y="492.3379">[Sending SMS]</text><polygon fill="#181818" points="1087.5,512.9688,1097.5,516.9688,1087.5,520.9688,1091.5,516.9688" style="stroke:#181818;stroke-width:1.0;"/><line style="stroke:#181818;stroke-width:1.0;" x1="432.5" x2="1093.5" y1="516.9688" y2="516.9688"/><text fill="#000000" font-family="sans-serif" font-size="13" font-weight="bold" lengthAdjust="spacing" textLength="17" x="439.5" y="512.2266">9a</text><text fill="#000000" font-family="sans-serif" font-size="13" lengthAdjust="spacing" textLength="390" x="460.5" y="512.2266">Send SMS authentication code (how does sessionId work here)</text><polygon fill="#181818" points="49.5,542.2793,39.5,546.2793,49.5,550.2793,45.5,546.2793" style="stroke:#181818;stroke-width:1.0;"/><line style="stroke:#181818;stroke-width:1.0;" x1="43.5" x2="431.5" y1="546.2793" y2="546.2793"/><text fill="#000000" font-family="sans-serif" font-size="13" font-weight="bold" lengthAdjust="spacing" textLength="18" x="55.5" y="541.5371">9b</text><text fill="#000000" font-family="sans-serif" font-size="13" lengthAdjust="spacing" textLength="149" x="77.5" y="541.5371">Display SMS Code input</text><polygon fill="#181818" points="420.5,571.5898,430.5,575.5898,420.5,579.5898,424.5,575.5898" style="stroke:#181818;stroke-width:1.0;"/><line style="stroke:#181818;stroke-width:1.0;" x1="38.5" x2="426.5" y1="575.5898" y2="575.5898"/><text fill="#000000" font-family="sans-serif" font-size="13" font-weight="bold" lengthAdjust="spacing" textLength="16" x="45.5" y="570.8477">9c</text><text fill="#000000" font-family="sans-serif" font-size="13" lengthAdjust="spacing" textLength="168" x="65.5" y="570.8477">Enters authentication code</text><polygon fill="#181818" points="888.5,607.9004,898.5,611.9004,888.5,615.9004,892.5,611.9004" style="stroke:#181818;stroke-width:1.0;"/><line style="stroke:#181818;stroke-width:1.0;" x1="432.5" x2="894.5" y1="611.9004" y2="611.9004"/><text fill="#000000" font-family="sans-serif" font-size="13" font-weight="bold" lengthAdjust="spacing" textLength="18" x="439.5" y="607.1582">10</text><text fill="#000000" font-family="sans-serif" font-size="13" lengthAdjust="spacing" textLength="326" x="461.5" y="607.1582">Fetch payload by authentication code and sessionId</text><polygon fill="#181818" points="443.5,637.2109,433.5,641.2109,443.5,645.2109,439.5,641.2109" style="stroke:#181818;stroke-width:1.0;"/><line style="stroke:#181818;stroke-width:1.0;stroke-dasharray:2.0,2.0;" x1="437.5" x2="899.5" y1="641.2109" y2="641.2109"/><text fill="#000000" font-family="sans-serif" font-size="13" font-weight="bold" lengthAdjust="spacing" textLength="18" x="449.5" y="636.4688">11</text><text fill="#000000" font-family="sans-serif" font-size="13" lengthAdjust="spacing" textLength="48" x="471.5" y="636.4688">Payload</text><polygon fill="#181818" points="1013.5,681.832,1023.5,685.832,1013.5,689.832,1017.5,685.832" style="stroke:#181818;stroke-width:1.0;"/><line style="stroke:#181818;stroke-width:1.0;" x1="432.5" x2="1019.5" y1="685.832" y2="685.832"/><text fill="#000000" font-family="sans-serif" font-size="13" font-weight="bold" lengthAdjust="spacing" textLength="18" x="439.5" y="673.4346">12</text><text fill="#000000" font-family="sans-serif" font-size="13" lengthAdjust="spacing" textLength="189" x="461.5" y="665.7793">fetch join of ProviderExternal*</text><text fill="#000000" font-family="sans-serif" font-size="13" lengthAdjust="spacing" textLength="227" x="465.5" y="681.0898">and UserKeyData by userAccountIds</text><polygon fill="#181818" points="443.5,714.1426,433.5,718.1426,443.5,722.1426,439.5,718.1426" style="stroke:#181818;stroke-width:1.0;"/><line style="stroke:#181818;stroke-width:1.0;stroke-dasharray:2.0,2.0;" x1="437.5" x2="1024.5" y1="718.1426" y2="718.1426"/><text fill="#000000" font-family="sans-serif" font-size="13" font-weight="bold" lengthAdjust="spacing" textLength="18" x="449.5" y="713.4004">13</text><text fill="#000000" font-family="sans-serif" font-size="13" lengthAdjust="spacing" textLength="29" x="471.5" y="713.4004">Data</text><path d="M48,698.832 L48,723.832 L427,723.832 L427,708.832 L417,698.832 L48,698.832 " fill="#FEFFDD" style="stroke:#181818;stroke-width:0.5;"/><path d="M417,698.832 L417,708.832 L427,708.832 L417,698.832 " fill="#FEFFDD" style="stroke:#181818;stroke-width:0.5;"/><text fill="#000000" font-family="sans-serif" font-size="13" lengthAdjust="spacing" textLength="358" x="54" y="716.4004">This should just be wrapped in a single struct like object</text><polygon fill="#181818" points="49.5,746.4531,39.5,750.4531,49.5,754.4531,45.5,750.4531" style="stroke:#181818;stroke-width:1.0;"/><line style="stroke:#181818;stroke-width:1.0;" x1="43.5" x2="431.5" y1="750.4531" y2="750.4531"/><text fill="#000000" font-family="sans-serif" font-size="13" font-weight="bold" lengthAdjust="spacing" textLength="18" x="55.5" y="745.7109">14</text><text fill="#000000" font-family="sans-serif" font-size="13" lengthAdjust="spacing" textLength="348" x="77.5" y="745.7109">render the page with all the data we have on the person</text><!--SRC=[XLJ1Rjim3BtxAuXSrWReiXtdmu2YpOQWAn3C7NRfXP6OM8aiQHBTB7y_oaxhE0ZMt48-ae-FJsR3bc3oms-CWoSFTsrYhmrQ-8tM4iCzCHfBUb9yg9b3AcUpOD5nszYFoZUpH7zQSefkf6WJiIaALEmZJ7ubYXF01D4N0ICRPOBKmUIs2TOeX5kbAAKEWZY6_2Hj-amS9nuUgowy6uUNFl4cKbyInhcdlR76TvdKf76kclVj4YNXtR9tRREYM232pLSXNa8lp18tL4IVWuWbLEsgCGoXzev0TgL690BsO3FwM1rAM1Eh6h8Gigjl7L-bQrWTe9L85rveScpMHaP6uZQwC_2nLPxvdHn5P0AXMUSgXMoy0-KrlV8jOKancSHveIJPUsJC0uz_5xfmNbfOMdC9JpMTaO1dXqvtz8uS5bh4gNrhDQm8H0ckJJhj_l_H-nccv9KHtleISSZZ1dB31K1S60gq31KvRTm6vbdZ0kJNJvIg4gRJBpYTzhcBmWpuV4o1hmHUrNuFgYQrwo_NeORh2ae9wavCkajWZTlbFTubJpRH6zlgiJhbsWnSCoAdByfnbPbfJsde2tiVTr1JfElBszoR90_oqFMyoqsC2orVtcdkMAvqKIcXTQh_vq_3PRzrDWvui1vrjjFxOXpTlEnhpb_4rekJ_1gMqRyOJN7-LsWvjDDdr_N9hdoWmwjxntvyxTsvRsHdy-RLhNp5ic7t4KCGwyauX2I7aMzTujWgbhlkvEskjgJuvBb7aK6sb_LatuqqC5o3V0YxYEuiJL3ZYvIw7YLwUlSF]--></g></svg>
