<?xml version="1.0" encoding="us-ascii" standalone="no"?><svg xmlns="http://www.w3.org/2000/svg" xmlns:xlink="http://www.w3.org/1999/xlink" contentStyleType="text/css" height="614px" preserveAspectRatio="none" style="width:814px;height:614px;background:#FFFFFF;" version="1.1" viewBox="0 0 814 614" width="814px" zoomAndPan="magnify"><defs/><g><text fill="#000000" font-family="sans-serif" font-size="14" font-weight="bold" lengthAdjust="spacing" textLength="188" x="312.75" y="28.5352">Login To Custodial Wallet</text><rect fill="none" height="149.5078" style="stroke:#000000;stroke-width:1.5;" width="671" x="10" y="266.2188"/><line style="stroke:#181818;stroke-width:0.5;stroke-dasharray:5.0,5.0;" x1="38" x2="38" y1="118.9766" y2="533.6582"/><line style="stroke:#181818;stroke-width:0.5;stroke-dasharray:5.0,5.0;" x1="611" x2="611" y1="118.9766" y2="533.6582"/><text fill="#000000" font-family="sans-serif" font-size="14" lengthAdjust="spacing" textLength="31" x="20" y="116.0234">User</text><ellipse cx="38.5" cy="50.9883" fill="#E2E2F0" rx="8" ry="8" style="stroke:#181818;stroke-width:0.5;"/><path d="M38.5,58.9883 L38.5,85.9883 M25.5,66.9883 L51.5,66.9883 M38.5,85.9883 L25.5,100.9883 M38.5,85.9883 L51.5,100.9883 " fill="none" style="stroke:#181818;stroke-width:0.5;"/><text fill="#000000" font-family="sans-serif" font-size="14" lengthAdjust="spacing" textLength="31" x="20" y="546.1934">User</text><ellipse cx="38.5" cy="557.6465" fill="#E2E2F0" rx="8" ry="8" style="stroke:#181818;stroke-width:0.5;"/><path d="M38.5,565.6465 L38.5,592.6465 M25.5,573.6465 L51.5,573.6465 M38.5,592.6465 L25.5,607.6465 M38.5,592.6465 L51.5,607.6465 " fill="none" style="stroke:#181818;stroke-width:0.5;"/><rect fill="#E2E2F0" height="30.4883" rx="2.5" ry="2.5" style="stroke:#181818;stroke-width:0.5;" width="119" x="552" y="87.4883"/><text fill="#000000" font-family="sans-serif" font-size="14" lengthAdjust="spacing" textLength="105" x="559" y="108.0234">Amplica Access</text><rect fill="#E2E2F0" height="30.4883" rx="2.5" ry="2.5" style="stroke:#181818;stroke-width:0.5;" width="119" x="552" y="532.6582"/><text fill="#000000" font-family="sans-serif" font-size="14" lengthAdjust="spacing" textLength="105" x="559" y="553.1934">Amplica Access</text><polygon fill="#181818" points="599.5,146.2871,609.5,150.2871,599.5,154.2871,603.5,150.2871" style="stroke:#181818;stroke-width:1.0;"/><line style="stroke:#181818;stroke-width:1.0;" x1="38.5" x2="605.5" y1="150.2871" y2="150.2871"/><text fill="#000000" font-family="sans-serif" font-size="13" font-weight="bold" lengthAdjust="spacing" textLength="9" x="45.5" y="145.5449">1</text><text fill="#000000" font-family="sans-serif" font-size="13" lengthAdjust="spacing" textLength="94" x="58.5" y="145.5449">Wants to Login</text><polygon fill="#181818" points="49.5,175.5977,39.5,179.5977,49.5,183.5977,45.5,179.5977" style="stroke:#181818;stroke-width:1.0;"/><line style="stroke:#181818;stroke-width:1.0;" x1="43.5" x2="610.5" y1="179.5977" y2="179.5977"/><text fill="#000000" font-family="sans-serif" font-size="13" font-weight="bold" lengthAdjust="spacing" textLength="9" x="55.5" y="174.8555">2</text><text fill="#000000" font-family="sans-serif" font-size="13" lengthAdjust="spacing" textLength="68" x="68.5" y="174.8555">Login Page</text><polygon fill="#181818" points="599.5,204.9082,609.5,208.9082,599.5,212.9082,603.5,208.9082" style="stroke:#181818;stroke-width:1.0;"/><line style="stroke:#181818;stroke-width:1.0;" x1="38.5" x2="605.5" y1="208.9082" y2="208.9082"/><text fill="#000000" font-family="sans-serif" font-size="13" font-weight="bold" lengthAdjust="spacing" textLength="9" x="45.5" y="204.166">3</text><text fill="#000000" font-family="sans-serif" font-size="13" lengthAdjust="spacing" textLength="231" x="58.5" y="204.166">Enter User identifier (email or phone)</text><line style="stroke:#181818;stroke-width:1.0;" x1="611.5" x2="653.5" y1="238.2188" y2="238.2188"/><line style="stroke:#181818;stroke-width:1.0;" x1="653.5" x2="653.5" y1="238.2188" y2="251.2188"/><line style="stroke:#181818;stroke-width:1.0;" x1="612.5" x2="653.5" y1="251.2188" y2="251.2188"/><polygon fill="#181818" points="622.5,247.2188,612.5,251.2188,622.5,255.2188,618.5,251.2188" style="stroke:#181818;stroke-width:1.0;"/><text fill="#000000" font-family="sans-serif" font-size="13" font-weight="bold" lengthAdjust="spacing" textLength="9" x="618.5" y="233.4766">4</text><text fill="#000000" font-family="sans-serif" font-size="13" lengthAdjust="spacing" textLength="176" x="631.5" y="233.4766">Search for the UserIdentifier</text><path d="M10,266.2188 L72,266.2188 L72,273.5293 L62,283.5293 L10,283.5293 L10,266.2188 " fill="#EEEEEE" style="stroke:#000000;stroke-width:1.5;"/><rect fill="none" height="149.5078" style="stroke:#000000;stroke-width:1.5;" width="671" x="10" y="266.2188"/><text fill="#000000" font-family="sans-serif" font-size="13" font-weight="bold" lengthAdjust="spacing" textLength="17" x="25" y="279.7871">alt</text><text fill="#000000" font-family="sans-serif" font-size="11" font-weight="bold" lengthAdjust="spacing" textLength="160" x="87" y="278.8535">[Single UserIdentifier found]</text><polygon fill="#181818" points="49.5,300.8398,39.5,304.8398,49.5,308.8398,45.5,304.8398" style="stroke:#181818;stroke-width:1.0;"/><line style="stroke:#181818;stroke-width:1.0;" x1="43.5" x2="610.5" y1="304.8398" y2="304.8398"/><text fill="#000000" font-family="sans-serif" font-size="13" font-weight="bold" lengthAdjust="spacing" textLength="19" x="55.5" y="300.0977">5A</text><text fill="#000000" font-family="sans-serif" font-size="13" lengthAdjust="spacing" textLength="246" x="78.5" y="300.0977">Message User with authentication code</text><line style="stroke:#000000;stroke-width:1.0;stroke-dasharray:2.0,2.0;" x1="10" x2="681" y1="313.8398" y2="313.8398"/><text fill="#000000" font-family="sans-serif" font-size="11" font-weight="bold" lengthAdjust="spacing" textLength="178" x="15" y="324.4746">[Multiple UserIdentifiers found]</text><polygon fill="#181818" points="49.5,345.1055,39.5,349.1055,49.5,353.1055,45.5,349.1055" style="stroke:#181818;stroke-width:1.0;"/><line style="stroke:#181818;stroke-width:1.0;" x1="43.5" x2="610.5" y1="349.1055" y2="349.1055"/><text fill="#000000" font-family="sans-serif" font-size="13" font-weight="bold" lengthAdjust="spacing" textLength="17" x="55.5" y="344.3633">5B</text><text fill="#000000" font-family="sans-serif" font-size="13" lengthAdjust="spacing" textLength="528" x="76.5" y="344.3633">Display screen on which keypair they want to be using (presumably tied to Provider)</text><polygon fill="#181818" points="599.5,374.416,609.5,378.416,599.5,382.416,603.5,378.416" style="stroke:#181818;stroke-width:1.0;"/><line style="stroke:#181818;stroke-width:1.0;" x1="38.5" x2="605.5" y1="378.416" y2="378.416"/><text fill="#000000" font-family="sans-serif" font-size="13" font-weight="bold" lengthAdjust="spacing" textLength="17" x="45.5" y="373.6738">6B</text><text fill="#000000" font-family="sans-serif" font-size="13" lengthAdjust="spacing" textLength="87" x="66.5" y="373.6738">Select keypair</text><polygon fill="#181818" points="49.5,403.7266,39.5,407.7266,49.5,411.7266,45.5,407.7266" style="stroke:#181818;stroke-width:1.0;"/><line style="stroke:#181818;stroke-width:1.0;" x1="43.5" x2="610.5" y1="407.7266" y2="407.7266"/><text fill="#000000" font-family="sans-serif" font-size="13" font-weight="bold" lengthAdjust="spacing" textLength="17" x="55.5" y="402.9844">7B</text><text fill="#000000" font-family="sans-serif" font-size="13" lengthAdjust="spacing" textLength="246" x="76.5" y="402.9844">Message User with authentication code</text><polygon fill="#181818" points="599.5,440.0371,609.5,444.0371,599.5,448.0371,603.5,444.0371" style="stroke:#181818;stroke-width:1.0;"/><line style="stroke:#181818;stroke-width:1.0;" x1="38.5" x2="605.5" y1="444.0371" y2="444.0371"/><text fill="#000000" font-family="sans-serif" font-size="13" font-weight="bold" lengthAdjust="spacing" textLength="9" x="45.5" y="439.2949">8</text><text fill="#000000" font-family="sans-serif" font-size="13" lengthAdjust="spacing" textLength="260" x="58.5" y="439.2949">Clicks link, or enters authentication code</text><line style="stroke:#181818;stroke-width:1.0;" x1="611.5" x2="653.5" y1="473.3477" y2="473.3477"/><line style="stroke:#181818;stroke-width:1.0;" x1="653.5" x2="653.5" y1="473.3477" y2="486.3477"/><line style="stroke:#181818;stroke-width:1.0;" x1="612.5" x2="653.5" y1="486.3477" y2="486.3477"/><polygon fill="#181818" points="622.5,482.3477,612.5,486.3477,622.5,490.3477,618.5,486.3477" style="stroke:#181818;stroke-width:1.0;"/><text fill="#000000" font-family="sans-serif" font-size="13" font-weight="bold" lengthAdjust="spacing" textLength="9" x="618.5" y="468.6055">9</text><text fill="#000000" font-family="sans-serif" font-size="13" lengthAdjust="spacing" textLength="83" x="631.5" y="468.6055">validate code</text><polygon fill="#181818" points="49.5,511.6582,39.5,515.6582,49.5,519.6582,45.5,515.6582" style="stroke:#181818;stroke-width:1.0;"/><line style="stroke:#181818;stroke-width:1.0;" x1="43.5" x2="610.5" y1="515.6582" y2="515.6582"/><text fill="#000000" font-family="sans-serif" font-size="13" font-weight="bold" lengthAdjust="spacing" textLength="18" x="55.5" y="510.916">10</text><text fill="#000000" font-family="sans-serif" font-size="13" lengthAdjust="spacing" textLength="144" x="77.5" y="510.916">Display logged in page</text><!--SRC=[ZL9BRzim3BxhLn2-j3NQvRG7SXYGTZiKM842sR0p8pCs4LhI9Af1_lreTqs2TWFcaooIdxu7bLK8cc-nvm3V8zpLeh5Z5FY98gIDknXKKrak5aamQ1tbdO_Zej2lIi7JZVNs6KVdq6lCqFmeb1l00jKbpCgUaur1ingJi4TOUK-bp1s8DbKrXZfkABiGbK1egqkuLs2hbr97wa07L4Xua8YTtMQ2mdsmmfvrW12D1WmOEk7GkmetdmrvQVo35j08ipQ7E1NgylaN7h6dK-_Ne9HXeWxSKL3UiXqlQKGMC5LfY86k_c1C0sl2x0VOMaq7cYVlZuDdei3SJ0v5OMtav7Md0TJGER3loAzjtw_Q5XxC9UFuJ6eMQgZ3DEXHEGRmiID7KWWUgYYdD-3b7-YtXlw5YyLvWE8pKG23smziWdPqICYpg0Fif-3Cm0r1BKOVBbCcYmGtSW3bAPa8Zpa-cMVvQdxdw6ZRVfZUMPEGrnVOrrG-tlw_K1DoPkkdKtPtjbQx0XR-xdhAYgOiorz1JlazeN27jczdzqRfnHQ9VM_oR4-IKViD]--></g></svg>