<?xml version="1.0" encoding="us-ascii" standalone="no"?><svg xmlns="http://www.w3.org/2000/svg" xmlns:xlink="http://www.w3.org/1999/xlink" contentStyleType="text/css" height="840px" preserveAspectRatio="none" style="width:1240px;height:840px;background:#FFFFFF;" version="1.1" viewBox="0 0 1240 840" width="1240px" zoomAndPan="magnify"><defs/><g><text fill="#000000" font-family="sans-serif" font-size="14" font-weight="bold" lengthAdjust="spacing" textLength="606" x="318" y="28.5352">Action taken on behalf of the Standalone Wallet but needing token (Add Public Key)</text><rect fill="none" height="452.3027" style="stroke:#000000;stroke-width:1.5;" width="1223" x="10" y="289.8398"/><line style="stroke:#181818;stroke-width:0.5;stroke-dasharray:5.0,5.0;" x1="97" x2="97" y1="118.9766" y2="759.1426"/><line style="stroke:#181818;stroke-width:0.5;stroke-dasharray:5.0,5.0;" x1="427.5" x2="427.5" y1="118.9766" y2="759.1426"/><line style="stroke:#181818;stroke-width:0.5;stroke-dasharray:5.0,5.0;" x1="745.5" x2="745.5" y1="118.9766" y2="759.1426"/><line style="stroke:#181818;stroke-width:0.5;stroke-dasharray:5.0,5.0;" x1="1121" x2="1121" y1="118.9766" y2="759.1426"/><text fill="#000000" font-family="sans-serif" font-size="14" lengthAdjust="spacing" textLength="149" x="20" y="116.0234">ResourceOwner(User)</text><ellipse cx="97.5" cy="50.9883" fill="#E2E2F0" rx="8" ry="8" style="stroke:#181818;stroke-width:0.5;"/><path d="M97.5,58.9883 L97.5,85.9883 M84.5,66.9883 L110.5,66.9883 M97.5,85.9883 L84.5,100.9883 M97.5,85.9883 L110.5,100.9883 " fill="none" style="stroke:#181818;stroke-width:0.5;"/><text fill="#000000" font-family="sans-serif" font-size="14" lengthAdjust="spacing" textLength="149" x="20" y="771.6777">ResourceOwner(User)</text><ellipse cx="97.5" cy="783.1309" fill="#E2E2F0" rx="8" ry="8" style="stroke:#181818;stroke-width:0.5;"/><path d="M97.5,791.1309 L97.5,818.1309 M84.5,799.1309 L110.5,799.1309 M97.5,818.1309 L84.5,833.1309 M97.5,818.1309 L110.5,833.1309 " fill="none" style="stroke:#181818;stroke-width:0.5;"/><rect fill="#E2E2F0" height="30.4883" rx="2.5" ry="2.5" style="stroke:#181818;stroke-width:0.5;" width="186" x="334.5" y="87.4883"/><text fill="#000000" font-family="sans-serif" font-size="14" lengthAdjust="spacing" textLength="172" x="341.5" y="108.0234">Client(Standalone Wallet)</text><rect fill="#E2E2F0" height="30.4883" rx="2.5" ry="2.5" style="stroke:#181818;stroke-width:0.5;" width="186" x="334.5" y="758.1426"/><text fill="#000000" font-family="sans-serif" font-size="14" lengthAdjust="spacing" textLength="172" x="341.5" y="778.6777">Client(Standalone Wallet)</text><rect fill="#E2E2F0" height="30.4883" rx="2.5" ry="2.5" style="stroke:#181818;stroke-width:0.5;" width="182" x="654.5" y="87.4883"/><text fill="#000000" font-family="sans-serif" font-size="14" lengthAdjust="spacing" textLength="168" x="661.5" y="108.0234">AuthorizationServer(AA)</text><rect fill="#E2E2F0" height="30.4883" rx="2.5" ry="2.5" style="stroke:#181818;stroke-width:0.5;" width="182" x="654.5" y="758.1426"/><text fill="#000000" font-family="sans-serif" font-size="14" lengthAdjust="spacing" textLength="168" x="661.5" y="778.6777">AuthorizationServer(AA)</text><rect fill="#E2E2F0" height="30.4883" rx="2.5" ry="2.5" style="stroke:#181818;stroke-width:0.5;" width="203" x="1020" y="87.4883"/><text fill="#000000" font-family="sans-serif" font-size="14" lengthAdjust="spacing" textLength="189" x="1027" y="108.0234">ResourceServer(Blockchain)</text><rect fill="#E2E2F0" height="30.4883" rx="2.5" ry="2.5" style="stroke:#181818;stroke-width:0.5;" width="203" x="1020" y="758.1426"/><text fill="#000000" font-family="sans-serif" font-size="14" lengthAdjust="spacing" textLength="189" x="1027" y="778.6777">ResourceServer(Blockchain)</text><path d="M10,133.9766 L10,158.9766 L1208,158.9766 L1208,143.9766 L1198,133.9766 L10,133.9766 " fill="#FEFFDD" style="stroke:#181818;stroke-width:0.5;"/><path d="M1198,133.9766 L1198,143.9766 L1208,143.9766 L1198,133.9766 " fill="#FEFFDD" style="stroke:#181818;stroke-width:0.5;"/><text fill="#000000" font-family="sans-serif" font-size="13" lengthAdjust="spacing" textLength="707" x="251" y="151.5449">Given the client is compromised (e.g. anyone can look at the client code) there is no good way to lock this down</text><polygon fill="#181818" points="415.5,181.5977,425.5,185.5977,415.5,189.5977,419.5,185.5977" style="stroke:#181818;stroke-width:1.0;"/><line style="stroke:#181818;stroke-width:1.0;" x1="97.5" x2="421.5" y1="185.5977" y2="185.5977"/><text fill="#000000" font-family="sans-serif" font-size="13" font-weight="bold" lengthAdjust="spacing" textLength="9" x="104.5" y="180.8555">1</text><text fill="#000000" font-family="sans-serif" font-size="13" lengthAdjust="spacing" textLength="293" x="117.5" y="180.8555">Requires a payload to be paid for on it's behalf</text><polygon fill="#181818" points="733.5,241.5293,743.5,245.5293,733.5,249.5293,737.5,245.5293" style="stroke:#181818;stroke-width:1.0;"/><line style="stroke:#181818;stroke-width:1.0;" x1="427.5" x2="739.5" y1="245.5293" y2="245.5293"/><text fill="#000000" font-family="sans-serif" font-size="13" font-weight="bold" lengthAdjust="spacing" textLength="9" x="434.5" y="225.4766">2</text><text fill="#000000" font-family="sans-serif" font-size="13" lengthAdjust="spacing" textLength="179" x="447.5" y="210.166">Request authentication code</text><text fill="#000000" font-family="sans-serif" font-size="13" lengthAdjust="spacing" textLength="176" x="451.5" y="225.4766">(signed payload w/callback)</text><text fill="#000000" font-family="sans-serif" font-size="13" lengthAdjust="spacing" textLength="272" x="451.5" y="240.7871">(SafariViewController, Chrome Custom Tab)</text><polygon fill="#181818" points="1109.5,270.8398,1119.5,274.8398,1109.5,278.8398,1113.5,274.8398" style="stroke:#181818;stroke-width:1.0;"/><line style="stroke:#181818;stroke-width:1.0;" x1="745.5" x2="1115.5" y1="274.8398" y2="274.8398"/><text fill="#000000" font-family="sans-serif" font-size="13" font-weight="bold" lengthAdjust="spacing" textLength="9" x="752.5" y="270.0977">3</text><text fill="#000000" font-family="sans-serif" font-size="13" lengthAdjust="spacing" textLength="192" x="765.5" y="270.0977">Validate user public key exists</text><path d="M10,289.8398 L72,289.8398 L72,297.1504 L62,307.1504 L10,307.1504 L10,289.8398 " fill="#EEEEEE" style="stroke:#000000;stroke-width:1.5;"/><rect fill="none" height="452.3027" style="stroke:#000000;stroke-width:1.5;" width="1223" x="10" y="289.8398"/><text fill="#000000" font-family="sans-serif" font-size="13" font-weight="bold" lengthAdjust="spacing" textLength="17" x="25" y="303.4082">alt</text><text fill="#000000" font-family="sans-serif" font-size="11" font-weight="bold" lengthAdjust="spacing" textLength="41" x="87" y="302.4746">[Exists]</text><polygon fill="#181818" points="756.5,324.4609,746.5,328.4609,756.5,332.4609,752.5,328.4609" style="stroke:#181818;stroke-width:1.0;"/><line style="stroke:#181818;stroke-width:1.0;" x1="750.5" x2="1120.5" y1="328.4609" y2="328.4609"/><text fill="#000000" font-family="sans-serif" font-size="13" font-weight="bold" lengthAdjust="spacing" textLength="9" x="762.5" y="323.7188">4</text><text fill="#000000" font-family="sans-serif" font-size="13" lengthAdjust="spacing" textLength="51" x="775.5" y="323.7188">It exists</text><polygon fill="#181818" points="438.5,353.7715,428.5,357.7715,438.5,361.7715,434.5,357.7715" style="stroke:#181818;stroke-width:1.0;"/><line style="stroke:#181818;stroke-width:1.0;" x1="432.5" x2="744.5" y1="357.7715" y2="357.7715"/><text fill="#000000" font-family="sans-serif" font-size="13" font-weight="bold" lengthAdjust="spacing" textLength="9" x="444.5" y="353.0293">5</text><text fill="#000000" font-family="sans-serif" font-size="13" lengthAdjust="spacing" textLength="78" x="457.5" y="353.0293">202? Maybe?</text><line style="stroke:#181818;stroke-width:1.0;" x1="745.5" x2="787.5" y1="387.082" y2="387.082"/><line style="stroke:#181818;stroke-width:1.0;" x1="787.5" x2="787.5" y1="387.082" y2="400.082"/><line style="stroke:#181818;stroke-width:1.0;" x1="746.5" x2="787.5" y1="400.082" y2="400.082"/><polygon fill="#181818" points="756.5,396.082,746.5,400.082,756.5,404.082,752.5,400.082" style="stroke:#181818;stroke-width:1.0;"/><text fill="#000000" font-family="sans-serif" font-size="13" font-weight="bold" lengthAdjust="spacing" textLength="9" x="752.5" y="382.3398">6</text><text fill="#000000" font-family="sans-serif" font-size="13" lengthAdjust="spacing" textLength="184" x="765.5" y="382.3398">Generate authentication code</text><polygon fill="#181818" points="108.5,425.3926,98.5,429.3926,108.5,433.3926,104.5,429.3926" style="stroke:#181818;stroke-width:1.0;"/><line style="stroke:#181818;stroke-width:1.0;" x1="102.5" x2="744.5" y1="429.3926" y2="429.3926"/><text fill="#000000" font-family="sans-serif" font-size="13" font-weight="bold" lengthAdjust="spacing" textLength="9" x="114.5" y="424.6504">7</text><text fill="#000000" font-family="sans-serif" font-size="13" lengthAdjust="spacing" textLength="183" x="127.5" y="424.6504">Message authentication code</text><polygon fill="#181818" points="733.5,454.7031,743.5,458.7031,733.5,462.7031,737.5,458.7031" style="stroke:#181818;stroke-width:1.0;"/><line style="stroke:#181818;stroke-width:1.0;" x1="97.5" x2="739.5" y1="458.7031" y2="458.7031"/><text fill="#000000" font-family="sans-serif" font-size="13" font-weight="bold" lengthAdjust="spacing" textLength="9" x="104.5" y="453.9609">8</text><text fill="#000000" font-family="sans-serif" font-size="13" lengthAdjust="spacing" textLength="260" x="117.5" y="453.9609">Clicks link, or enters authentication code</text><line style="stroke:#181818;stroke-width:1.0;" x1="745.5" x2="787.5" y1="488.0137" y2="488.0137"/><line style="stroke:#181818;stroke-width:1.0;" x1="787.5" x2="787.5" y1="488.0137" y2="501.0137"/><line style="stroke:#181818;stroke-width:1.0;" x1="746.5" x2="787.5" y1="501.0137" y2="501.0137"/><polygon fill="#181818" points="756.5,497.0137,746.5,501.0137,756.5,505.0137,752.5,501.0137" style="stroke:#181818;stroke-width:1.0;"/><text fill="#000000" font-family="sans-serif" font-size="13" font-weight="bold" lengthAdjust="spacing" textLength="9" x="752.5" y="483.2715">9</text><text fill="#000000" font-family="sans-serif" font-size="13" lengthAdjust="spacing" textLength="127" x="765.5" y="483.2715">Fetch initial payload</text><polygon fill="#181818" points="108.5,526.3242,98.5,530.3242,108.5,534.3242,104.5,530.3242" style="stroke:#181818;stroke-width:1.0;"/><line style="stroke:#181818;stroke-width:1.0;" x1="102.5" x2="744.5" y1="530.3242" y2="530.3242"/><text fill="#000000" font-family="sans-serif" font-size="13" font-weight="bold" lengthAdjust="spacing" textLength="18" x="114.5" y="525.582">10</text><text fill="#000000" font-family="sans-serif" font-size="13" lengthAdjust="spacing" textLength="246" x="136.5" y="525.582">display permissions screen for payload</text><polygon fill="#181818" points="733.5,555.6348,743.5,559.6348,733.5,563.6348,737.5,559.6348" style="stroke:#181818;stroke-width:1.0;"/><line style="stroke:#181818;stroke-width:1.0;" x1="97.5" x2="739.5" y1="559.6348" y2="559.6348"/><text fill="#000000" font-family="sans-serif" font-size="13" font-weight="bold" lengthAdjust="spacing" textLength="18" x="104.5" y="554.8926">11</text><text fill="#000000" font-family="sans-serif" font-size="13" lengthAdjust="spacing" textLength="184" x="126.5" y="554.8926">Accepts payload permissions</text><line style="stroke:#181818;stroke-width:1.0;" x1="745.5" x2="787.5" y1="588.9453" y2="588.9453"/><line style="stroke:#181818;stroke-width:1.0;" x1="787.5" x2="787.5" y1="588.9453" y2="601.9453"/><line style="stroke:#181818;stroke-width:1.0;" x1="746.5" x2="787.5" y1="601.9453" y2="601.9453"/><polygon fill="#181818" points="756.5,597.9453,746.5,601.9453,756.5,605.9453,752.5,601.9453" style="stroke:#181818;stroke-width:1.0;"/><text fill="#000000" font-family="sans-serif" font-size="13" font-weight="bold" lengthAdjust="spacing" textLength="18" x="752.5" y="584.2031">12</text><text fill="#000000" font-family="sans-serif" font-size="13" lengthAdjust="spacing" textLength="340" x="774.5" y="584.2031">Create Signed Provider Payload w/Signed User Payload</text><polygon fill="#181818" points="1109.5,627.2559,1119.5,631.2559,1109.5,635.2559,1113.5,631.2559" style="stroke:#181818;stroke-width:1.0;"/><line style="stroke:#181818;stroke-width:1.0;" x1="745.5" x2="1115.5" y1="631.2559" y2="631.2559"/><text fill="#000000" font-family="sans-serif" font-size="13" font-weight="bold" lengthAdjust="spacing" textLength="18" x="752.5" y="626.5137">13</text><text fill="#000000" font-family="sans-serif" font-size="13" lengthAdjust="spacing" textLength="285" x="774.5" y="626.5137">Mutate resource with Signed Provider Payload</text><polygon fill="#181818" points="438.5,656.5664,428.5,660.5664,438.5,664.5664,434.5,660.5664" style="stroke:#181818;stroke-width:1.0;"/><line style="stroke:#181818;stroke-width:1.0;" x1="432.5" x2="744.5" y1="660.5664" y2="660.5664"/><text fill="#000000" font-family="sans-serif" font-size="13" font-weight="bold" lengthAdjust="spacing" textLength="18" x="444.5" y="655.8242">14</text><text fill="#000000" font-family="sans-serif" font-size="13" lengthAdjust="spacing" textLength="272" x="466.5" y="655.8242">Redirect to callback url with status payload</text><line style="stroke:#000000;stroke-width:1.0;stroke-dasharray:2.0,2.0;" x1="10" x2="1233" y1="669.5664" y2="669.5664"/><text fill="#000000" font-family="sans-serif" font-size="11" font-weight="bold" lengthAdjust="spacing" textLength="81" x="15" y="680.2012">[Doesn't Exist]</text><polygon fill="#181818" points="756.5,700.832,746.5,704.832,756.5,708.832,752.5,704.832" style="stroke:#181818;stroke-width:1.0;"/><line style="stroke:#181818;stroke-width:1.0;" x1="750.5" x2="1120.5" y1="704.832" y2="704.832"/><text fill="#000000" font-family="sans-serif" font-size="13" font-weight="bold" lengthAdjust="spacing" textLength="18" x="762.5" y="700.0898">15</text><text fill="#000000" font-family="sans-serif" font-size="13" lengthAdjust="spacing" textLength="64" x="784.5" y="700.0898">Not found</text><polygon fill="#181818" points="438.5,730.1426,428.5,734.1426,438.5,738.1426,434.5,734.1426" style="stroke:#181818;stroke-width:1.0;"/><line style="stroke:#181818;stroke-width:1.0;" x1="432.5" x2="744.5" y1="734.1426" y2="734.1426"/><text fill="#000000" font-family="sans-serif" font-size="13" font-weight="bold" lengthAdjust="spacing" textLength="18" x="444.5" y="729.4004">16</text><text fill="#000000" font-family="sans-serif" font-size="13" lengthAdjust="spacing" textLength="91" x="466.5" y="729.4004">403 Forbidden</text><!--SRC=[VLJ1SjCm4BtxAtPoQJBJDft2AGSw8T0EmnGw3PGBbxMqYJMHjKPQDOIlPrKd8GqKdspfxTFRzrOM9vvWC3NYE83WYWBeIqqD-WNm0gGXc0i6Yvu3mJVqdWJgB128h0jB42v5mwcrS9ThxmnyfCreK9qq8bsQZCUTno2vzUU6st6Y7vc2eJFhS1cnhIeqmX46zvGuHqEVru7Yy6kYE1e09eXSTHZ56TSf3Gnctb6GuL-QUhJ9pz7JB0r7zmjBVtEAZyezdVPOnEVOdO8jxArdip8Dkh0LabHh5WwvhIbMWOK0JUIK9d3Z7jM3ufLvaWTEfN3RHMvT8Wj3Eb-U0uPDqMimW6TU0SfXYM5Bex8GgPG7XYMpXJLkr68eOdHJDoolGnKPpjvejnEuLqDT96q7EjnuHblWDUcNix1GQpLF9oTf6sfbSYb5x4if2MXNZIfmvicb9o7VDT7aba6rxrZNOwD6rsXMex8xnmL6z-1eFUCWaJM3U0gpHbiccEKatC8Nh4SLOZalgaiFw9r5jIrhkj3rmxAY3T1FboHLw0NUzw-WJqmxeHza1odhFM7f_VBYyWfkSLFJrS5EgRWXdQ9or3zwEu16di0jfOJBbv6zrOLKHy-i4dWNLgUWnYgQLEJ_ZoY5roIc0HUSEFGxGuzaM9VqecoWewWpavGfGJAHTAvAY8T5VnHDZQ5EqZwZW-8Z2RD8nOvvd-bTv4TdDOIxVRZRdNBnTgk72ZM-soo58cwl2QoTD2yH7WLrhx-AI4RAQEwc27BqFKTIthnleYAV2DunfN2odOUZSVZ4efxaS7pAwujNSCsnTjPIg2ZOtm00]--></g></svg>