<?xml version="1.0" encoding="us-ascii" standalone="no"?><svg xmlns="http://www.w3.org/2000/svg" xmlns:xlink="http://www.w3.org/1999/xlink" contentStyleType="text/css" height="1379px" preserveAspectRatio="none" style="width:1468px;height:1379px;background:#FFFFFF;" version="1.1" viewBox="0 0 1468 1379" width="1468px" zoomAndPan="magnify"><defs/><g><text fill="#000000" font-family="sans-serif" font-size="14" font-weight="bold" lengthAdjust="spacing" textLength="358" x="551.25" y="28.5352">"Obtaining a Signed Payload as a Provider - SMS"</text><line style="stroke:#181818;stroke-width:0.5;stroke-dasharray:5.0,5.0;" x1="82" x2="82" y1="118.9766" y2="1298.7773"/><line style="stroke:#181818;stroke-width:0.5;stroke-dasharray:5.0,5.0;" x1="234" x2="234" y1="118.9766" y2="1298.7773"/><line style="stroke:#181818;stroke-width:0.5;stroke-dasharray:5.0,5.0;" x1="416.5" x2="416.5" y1="118.9766" y2="1298.7773"/><line style="stroke:#181818;stroke-width:0.5;stroke-dasharray:5.0,5.0;" x1="824" x2="824" y1="118.9766" y2="1298.7773"/><line style="stroke:#181818;stroke-width:0.5;stroke-dasharray:5.0,5.0;" x1="1043.5" x2="1043.5" y1="118.9766" y2="1298.7773"/><line style="stroke:#181818;stroke-width:0.5;stroke-dasharray:5.0,5.0;" x1="1276.5" x2="1276.5" y1="118.9766" y2="1298.7773"/><line style="stroke:#181818;stroke-width:0.5;stroke-dasharray:5.0,5.0;" x1="1333.5" x2="1333.5" y1="118.9766" y2="1298.7773"/><line style="stroke:#181818;stroke-width:0.5;stroke-dasharray:5.0,5.0;" x1="1401.5" x2="1401.5" y1="118.9766" y2="1298.7773"/><text fill="#000000" font-family="sans-serif" font-size="14" lengthAdjust="spacing" textLength="149" x="5" y="116.0234">ResourceOwner(User)</text><ellipse cx="82.5" cy="50.9883" fill="#E2E2F0" rx="8" ry="8" style="stroke:#181818;stroke-width:0.5;"/><path d="M82.5,58.9883 L82.5,85.9883 M69.5,66.9883 L95.5,66.9883 M82.5,85.9883 L69.5,100.9883 M82.5,85.9883 L95.5,100.9883 " fill="none" style="stroke:#181818;stroke-width:0.5;"/><text fill="#000000" font-family="sans-serif" font-size="14" lengthAdjust="spacing" textLength="149" x="5" y="1311.3125">ResourceOwner(User)</text><ellipse cx="82.5" cy="1322.7656" fill="#E2E2F0" rx="8" ry="8" style="stroke:#181818;stroke-width:0.5;"/><path d="M82.5,1330.7656 L82.5,1357.7656 M69.5,1338.7656 L95.5,1338.7656 M82.5,1357.7656 L69.5,1372.7656 M82.5,1357.7656 L95.5,1372.7656 " fill="none" style="stroke:#181818;stroke-width:0.5;"/><rect fill="#E2E2F0" height="30.4883" rx="2.5" ry="2.5" style="stroke:#181818;stroke-width:0.5;" width="128" x="170" y="87.4883"/><text fill="#000000" font-family="sans-serif" font-size="14" lengthAdjust="spacing" textLength="114" x="177" y="108.0234">Client Useragent</text><rect fill="#E2E2F0" height="30.4883" rx="2.5" ry="2.5" style="stroke:#181818;stroke-width:0.5;" width="128" x="170" y="1297.7773"/><text fill="#000000" font-family="sans-serif" font-size="14" lengthAdjust="spacing" textLength="114" x="177" y="1318.3125">Client Useragent</text><rect fill="#E2E2F0" height="30.4883" rx="2.5" ry="2.5" style="stroke:#181818;stroke-width:0.5;" width="121" x="356.5" y="87.4883"/><text fill="#000000" font-family="sans-serif" font-size="14" lengthAdjust="spacing" textLength="107" x="363.5" y="108.0234">Client(Provider)</text><rect fill="#E2E2F0" height="30.4883" rx="2.5" ry="2.5" style="stroke:#181818;stroke-width:0.5;" width="121" x="356.5" y="1297.7773"/><text fill="#000000" font-family="sans-serif" font-size="14" lengthAdjust="spacing" textLength="107" x="363.5" y="1318.3125">Client(Provider)</text><rect fill="#E2E2F0" height="30.4883" rx="2.5" ry="2.5" style="stroke:#181818;stroke-width:0.5;" width="182" x="733" y="87.4883"/><text fill="#000000" font-family="sans-serif" font-size="14" lengthAdjust="spacing" textLength="168" x="740" y="108.0234">AuthorizationServer(AA)</text><rect fill="#E2E2F0" height="30.4883" rx="2.5" ry="2.5" style="stroke:#181818;stroke-width:0.5;" width="182" x="733" y="1297.7773"/><text fill="#000000" font-family="sans-serif" font-size="14" lengthAdjust="spacing" textLength="168" x="740" y="1318.3125">AuthorizationServer(AA)</text><rect fill="#E2E2F0" height="30.4883" rx="2.5" ry="2.5" style="stroke:#181818;stroke-width:0.5;" width="203" x="942.5" y="87.4883"/><text fill="#000000" font-family="sans-serif" font-size="14" lengthAdjust="spacing" textLength="189" x="949.5" y="108.0234">ResourceServer(Blockchain)</text><rect fill="#E2E2F0" height="30.4883" rx="2.5" ry="2.5" style="stroke:#181818;stroke-width:0.5;" width="203" x="942.5" y="1297.7773"/><text fill="#000000" font-family="sans-serif" font-size="14" lengthAdjust="spacing" textLength="189" x="949.5" y="1318.3125">ResourceServer(Blockchain)</text><rect fill="#E2E2F0" height="30.4883" rx="2.5" ry="2.5" style="stroke:#181818;stroke-width:0.5;" width="51" x="1251.5" y="87.4883"/><text fill="#000000" font-family="sans-serif" font-size="14" lengthAdjust="spacing" textLength="37" x="1258.5" y="108.0234">Redis</text><rect fill="#E2E2F0" height="30.4883" rx="2.5" ry="2.5" style="stroke:#181818;stroke-width:0.5;" width="51" x="1251.5" y="1297.7773"/><text fill="#000000" font-family="sans-serif" font-size="14" lengthAdjust="spacing" textLength="37" x="1258.5" y="1318.3125">Redis</text><rect fill="#E2E2F0" height="30.4883" rx="2.5" ry="2.5" style="stroke:#181818;stroke-width:0.5;" width="43" x="1312.5" y="87.4883"/><text fill="#000000" font-family="sans-serif" font-size="14" lengthAdjust="spacing" textLength="29" x="1319.5" y="108.0234">KMS</text><rect fill="#E2E2F0" height="30.4883" rx="2.5" ry="2.5" style="stroke:#181818;stroke-width:0.5;" width="43" x="1312.5" y="1297.7773"/><text fill="#000000" font-family="sans-serif" font-size="14" lengthAdjust="spacing" textLength="29" x="1319.5" y="1318.3125">KMS</text><rect fill="#E2E2F0" height="30.4883" rx="2.5" ry="2.5" style="stroke:#181818;stroke-width:0.5;" width="73" x="1365.5" y="87.4883"/><text fill="#000000" font-family="sans-serif" font-size="14" lengthAdjust="spacing" textLength="59" x="1372.5" y="108.0234">Postgres</text><rect fill="#E2E2F0" height="30.4883" rx="2.5" ry="2.5" style="stroke:#181818;stroke-width:0.5;" width="73" x="1365.5" y="1297.7773"/><text fill="#000000" font-family="sans-serif" font-size="14" lengthAdjust="spacing" textLength="59" x="1372.5" y="1318.3125">Postgres</text><line style="stroke:#000000;stroke-width:1.0;stroke-dasharray:2.0,2.0;" x1="0" x2="1461.5" y1="129.9766" y2="129.9766"/><path d="M28,135.9766 L28,160.9766 L1456,160.9766 L1456,145.9766 L1446,135.9766 L28,135.9766 " fill="#FEFFDD" style="stroke:#181818;stroke-width:0.5;"/><path d="M1446,135.9766 L1446,145.9766 L1456,145.9766 L1446,135.9766 " fill="#FEFFDD" style="stroke:#181818;stroke-width:0.5;"/><text fill="#000000" font-family="sans-serif" font-size="13" lengthAdjust="spacing" textLength="459" x="508.25" y="153.5449">It is assumed that provider payloads are signed and have nonce handling</text><polygon fill="#181818" points="405,183.5977,415,187.5977,405,191.5977,409,187.5977" style="stroke:#181818;stroke-width:1.0;"/><line style="stroke:#181818;stroke-width:1.0;" x1="82.5" x2="411" y1="187.5977" y2="187.5977"/><text fill="#000000" font-family="sans-serif" font-size="13" font-weight="bold" lengthAdjust="spacing" textLength="9" x="89.5" y="182.8555">1</text><text fill="#000000" font-family="sans-serif" font-size="13" lengthAdjust="spacing" textLength="248" x="102.5" y="182.8555">Requires a signed payload for an action</text><polygon fill="#181818" points="812,212.9082,822,216.9082,812,220.9082,816,216.9082" style="stroke:#181818;stroke-width:1.0;"/><line style="stroke:#181818;stroke-width:1.0;" x1="417" x2="818" y1="216.9082" y2="216.9082"/><text fill="#000000" font-family="sans-serif" font-size="13" font-weight="bold" lengthAdjust="spacing" textLength="9" x="424" y="212.166">2</text><text fill="#000000" font-family="sans-serif" font-size="13" lengthAdjust="spacing" textLength="222" x="437" y="212.166">Signed Provider Payload w/callback</text><line style="stroke:#181818;stroke-width:1.0;" x1="824" x2="866" y1="246.2188" y2="246.2188"/><line style="stroke:#181818;stroke-width:1.0;" x1="866" x2="866" y1="246.2188" y2="259.2188"/><line style="stroke:#181818;stroke-width:1.0;" x1="825" x2="866" y1="259.2188" y2="259.2188"/><polygon fill="#181818" points="835,255.2188,825,259.2188,835,263.2188,831,259.2188" style="stroke:#181818;stroke-width:1.0;"/><text fill="#000000" font-family="sans-serif" font-size="13" font-weight="bold" lengthAdjust="spacing" textLength="9" x="831" y="241.4766">3</text><text fill="#000000" font-family="sans-serif" font-size="13" lengthAdjust="spacing" textLength="112" x="844" y="241.4766">validate signature</text><polygon fill="#181818" points="1032,284.5293,1042,288.5293,1032,292.5293,1036,288.5293" style="stroke:#181818;stroke-width:1.0;"/><line style="stroke:#181818;stroke-width:1.0;" x1="824" x2="1038" y1="288.5293" y2="288.5293"/><text fill="#000000" font-family="sans-serif" font-size="13" font-weight="bold" lengthAdjust="spacing" textLength="9" x="831" y="283.7871">4</text><text fill="#000000" font-family="sans-serif" font-size="13" lengthAdjust="spacing" textLength="162" x="844" y="283.7871">fetch msaId by public key</text><polygon fill="#181818" points="835,313.8398,825,317.8398,835,321.8398,831,317.8398" style="stroke:#181818;stroke-width:1.0;"/><line style="stroke:#181818;stroke-width:1.0;stroke-dasharray:2.0,2.0;" x1="829" x2="1043" y1="317.8398" y2="317.8398"/><text fill="#000000" font-family="sans-serif" font-size="13" font-weight="bold" lengthAdjust="spacing" textLength="9" x="841" y="313.0977">5</text><text fill="#000000" font-family="sans-serif" font-size="13" lengthAdjust="spacing" textLength="38" x="854" y="313.0977">msaId</text><polygon fill="#181818" points="1390,343.1504,1400,347.1504,1390,351.1504,1394,347.1504" style="stroke:#181818;stroke-width:1.0;"/><line style="stroke:#181818;stroke-width:1.0;" x1="824" x2="1396" y1="347.1504" y2="347.1504"/><text fill="#000000" font-family="sans-serif" font-size="13" font-weight="bold" lengthAdjust="spacing" textLength="9" x="831" y="342.4082">6</text><text fill="#000000" font-family="sans-serif" font-size="13" lengthAdjust="spacing" textLength="343" x="844" y="342.4082">fetch UserKeyData by UserIdentifier and providerMsaId</text><polygon fill="#181818" points="835,372.4609,825,376.4609,835,380.4609,831,376.4609" style="stroke:#181818;stroke-width:1.0;"/><line style="stroke:#181818;stroke-width:1.0;stroke-dasharray:2.0,2.0;" x1="829" x2="1401" y1="376.4609" y2="376.4609"/><text fill="#000000" font-family="sans-serif" font-size="13" font-weight="bold" lengthAdjust="spacing" textLength="9" x="841" y="371.7188">7</text><text fill="#000000" font-family="sans-serif" font-size="13" lengthAdjust="spacing" textLength="79" x="854" y="371.7188">UserKeyData</text><polygon fill="#181818" points="1265,401.7715,1275,405.7715,1265,409.7715,1269,405.7715" style="stroke:#181818;stroke-width:1.0;"/><line style="stroke:#181818;stroke-width:1.0;" x1="824" x2="1271" y1="405.7715" y2="405.7715"/><text fill="#000000" font-family="sans-serif" font-size="13" font-weight="bold" lengthAdjust="spacing" textLength="9" x="831" y="401.0293">8</text><text fill="#000000" font-family="sans-serif" font-size="13" lengthAdjust="spacing" textLength="291" x="844" y="401.0293">Persist payload w/associated SessionId (UUID)</text><polygon fill="#181818" points="428,431.082,418,435.082,428,439.082,424,435.082" style="stroke:#181818;stroke-width:1.0;"/><line style="stroke:#181818;stroke-width:1.0;" x1="422" x2="823" y1="435.082" y2="435.082"/><text fill="#000000" font-family="sans-serif" font-size="13" font-weight="bold" lengthAdjust="spacing" textLength="9" x="434" y="430.3398">9</text><text fill="#000000" font-family="sans-serif" font-size="13" lengthAdjust="spacing" textLength="370" x="447" y="430.3398">sessionId associated with request (202 w/Location header)</text><polygon fill="#181818" points="245,460.3926,235,464.3926,245,468.3926,241,464.3926" style="stroke:#181818;stroke-width:1.0;"/><line style="stroke:#181818;stroke-width:1.0;" x1="239" x2="416" y1="464.3926" y2="464.3926"/><text fill="#000000" font-family="sans-serif" font-size="13" font-weight="bold" lengthAdjust="spacing" textLength="18" x="251" y="459.6504">10</text><text fill="#000000" font-family="sans-serif" font-size="13" lengthAdjust="spacing" textLength="137" x="273" y="459.6504">Location header value</text><polygon fill="#181818" points="812,489.7031,822,493.7031,812,497.7031,816,493.7031" style="stroke:#181818;stroke-width:1.0;"/><line style="stroke:#181818;stroke-width:1.0;" x1="234" x2="818" y1="493.7031" y2="493.7031"/><text fill="#000000" font-family="sans-serif" font-size="13" font-weight="bold" lengthAdjust="spacing" textLength="18" x="241" y="488.9609">11</text><text fill="#000000" font-family="sans-serif" font-size="13" lengthAdjust="spacing" textLength="99" x="263" y="488.9609">GET to Location</text><polygon fill="#181818" points="1265,519.0137,1275,523.0137,1265,527.0137,1269,523.0137" style="stroke:#181818;stroke-width:1.0;"/><line style="stroke:#181818;stroke-width:1.0;" x1="824" x2="1271" y1="523.0137" y2="523.0137"/><text fill="#000000" font-family="sans-serif" font-size="13" font-weight="bold" lengthAdjust="spacing" textLength="18" x="831" y="518.2715">12</text><text fill="#000000" font-family="sans-serif" font-size="13" lengthAdjust="spacing" textLength="223" x="853" y="518.2715">retrieve initial payload by sessionId</text><polygon fill="#181818" points="835,548.3242,825,552.3242,835,556.3242,831,552.3242" style="stroke:#181818;stroke-width:1.0;"/><line style="stroke:#181818;stroke-width:1.0;stroke-dasharray:2.0,2.0;" x1="829" x2="1276" y1="552.3242" y2="552.3242"/><text fill="#000000" font-family="sans-serif" font-size="13" font-weight="bold" lengthAdjust="spacing" textLength="18" x="841" y="547.582">13</text><text fill="#000000" font-family="sans-serif" font-size="13" lengthAdjust="spacing" textLength="48" x="863" y="547.582">Payload</text><polygon fill="#181818" points="93.5,577.6348,83.5,581.6348,93.5,585.6348,89.5,581.6348" style="stroke:#181818;stroke-width:1.0;"/><line style="stroke:#181818;stroke-width:1.0;" x1="87.5" x2="823" y1="581.6348" y2="581.6348"/><text fill="#000000" font-family="sans-serif" font-size="13" font-weight="bold" lengthAdjust="spacing" textLength="18" x="99.5" y="576.8926">14</text><text fill="#000000" font-family="sans-serif" font-size="13" lengthAdjust="spacing" textLength="246" x="121.5" y="576.8926">display permissions screen for payload</text><polygon fill="#181818" points="812,606.9453,822,610.9453,812,614.9453,816,610.9453" style="stroke:#181818;stroke-width:1.0;"/><line style="stroke:#181818;stroke-width:1.0;" x1="82.5" x2="818" y1="610.9453" y2="610.9453"/><text fill="#000000" font-family="sans-serif" font-size="13" font-weight="bold" lengthAdjust="spacing" textLength="18" x="89.5" y="606.2031">15</text><text fill="#000000" font-family="sans-serif" font-size="13" lengthAdjust="spacing" textLength="184" x="111.5" y="606.2031">Accepts payload permissions</text><line style="stroke:#181818;stroke-width:1.0;" x1="824" x2="866" y1="640.2559" y2="640.2559"/><line style="stroke:#181818;stroke-width:1.0;" x1="866" x2="866" y1="640.2559" y2="653.2559"/><line style="stroke:#181818;stroke-width:1.0;" x1="825" x2="866" y1="653.2559" y2="653.2559"/><polygon fill="#181818" points="835,649.2559,825,653.2559,835,657.2559,831,653.2559" style="stroke:#181818;stroke-width:1.0;"/><text fill="#000000" font-family="sans-serif" font-size="13" font-weight="bold" lengthAdjust="spacing" textLength="18" x="831" y="635.5137">16</text><text fill="#000000" font-family="sans-serif" font-size="13" lengthAdjust="spacing" textLength="184" x="853" y="635.5137">Generate authentication code</text><polygon fill="#181818" points="1265,678.5664,1275,682.5664,1265,686.5664,1269,682.5664" style="stroke:#181818;stroke-width:1.0;"/><line style="stroke:#181818;stroke-width:1.0;" x1="824" x2="1271" y1="682.5664" y2="682.5664"/><text fill="#000000" font-family="sans-serif" font-size="13" font-weight="bold" lengthAdjust="spacing" textLength="18" x="831" y="677.8242">17</text><text fill="#000000" font-family="sans-serif" font-size="13" lengthAdjust="spacing" textLength="407" x="853" y="677.8242">Persist payload w/associated authentication code and sessionId,</text><polygon fill="#181818" points="93.5,707.877,83.5,711.877,93.5,715.877,89.5,711.877" style="stroke:#181818;stroke-width:1.0;"/><line style="stroke:#181818;stroke-width:1.0;" x1="87.5" x2="823" y1="711.877" y2="711.877"/><text fill="#000000" font-family="sans-serif" font-size="13" font-weight="bold" lengthAdjust="spacing" textLength="18" x="99.5" y="707.1348">18</text><text fill="#000000" font-family="sans-serif" font-size="13" lengthAdjust="spacing" textLength="154" x="121.5" y="707.1348">SMS authentication code</text><polygon fill="#181818" points="93.5,737.1875,83.5,741.1875,93.5,745.1875,89.5,741.1875" style="stroke:#181818;stroke-width:1.0;"/><line style="stroke:#181818;stroke-width:1.0;" x1="87.5" x2="823" y1="741.1875" y2="741.1875"/><text fill="#000000" font-family="sans-serif" font-size="13" font-weight="bold" lengthAdjust="spacing" textLength="18" x="99.5" y="736.4453">19</text><text fill="#000000" font-family="sans-serif" font-size="13" lengthAdjust="spacing" textLength="149" x="121.5" y="736.4453">Display SMS Code input</text><polygon fill="#181818" points="812,766.498,822,770.498,812,774.498,816,770.498" style="stroke:#181818;stroke-width:1.0;"/><line style="stroke:#181818;stroke-width:1.0;" x1="82.5" x2="818" y1="770.498" y2="770.498"/><text fill="#000000" font-family="sans-serif" font-size="13" font-weight="bold" lengthAdjust="spacing" textLength="18" x="89.5" y="765.7559">20</text><text fill="#000000" font-family="sans-serif" font-size="13" lengthAdjust="spacing" textLength="168" x="111.5" y="765.7559">Enters authentication code</text><polygon fill="#181818" points="1265,795.8086,1275,799.8086,1265,803.8086,1269,799.8086" style="stroke:#181818;stroke-width:1.0;"/><line style="stroke:#181818;stroke-width:1.0;" x1="824" x2="1271" y1="799.8086" y2="799.8086"/><text fill="#000000" font-family="sans-serif" font-size="13" font-weight="bold" lengthAdjust="spacing" textLength="18" x="831" y="795.0664">21</text><text fill="#000000" font-family="sans-serif" font-size="13" lengthAdjust="spacing" textLength="326" x="853" y="795.0664">Fetch payload by authentication code and sessionId</text><polygon fill="#181818" points="835,825.1191,825,829.1191,835,833.1191,831,829.1191" style="stroke:#181818;stroke-width:1.0;"/><line style="stroke:#181818;stroke-width:1.0;stroke-dasharray:2.0,2.0;" x1="829" x2="1276" y1="829.1191" y2="829.1191"/><text fill="#000000" font-family="sans-serif" font-size="13" font-weight="bold" lengthAdjust="spacing" textLength="18" x="841" y="824.377">22</text><text fill="#000000" font-family="sans-serif" font-size="13" lengthAdjust="spacing" textLength="48" x="863" y="824.377">Payload</text><line style="stroke:#181818;stroke-width:1.0;" x1="824" x2="866" y1="858.4297" y2="858.4297"/><line style="stroke:#181818;stroke-width:1.0;" x1="866" x2="866" y1="858.4297" y2="871.4297"/><line style="stroke:#181818;stroke-width:1.0;" x1="825" x2="866" y1="871.4297" y2="871.4297"/><polygon fill="#181818" points="835,867.4297,825,871.4297,835,875.4297,831,871.4297" style="stroke:#181818;stroke-width:1.0;"/><text fill="#000000" font-family="sans-serif" font-size="13" font-weight="bold" lengthAdjust="spacing" textLength="18" x="831" y="853.6875">23</text><text fill="#000000" font-family="sans-serif" font-size="13" lengthAdjust="spacing" textLength="177" x="853" y="853.6875">Generate authorization code</text><polygon fill="#181818" points="1265,896.7402,1275,900.7402,1265,904.7402,1269,900.7402" style="stroke:#181818;stroke-width:1.0;"/><line style="stroke:#181818;stroke-width:1.0;" x1="824" x2="1271" y1="900.7402" y2="900.7402"/><text fill="#000000" font-family="sans-serif" font-size="13" font-weight="bold" lengthAdjust="spacing" textLength="18" x="831" y="895.998">24</text><text fill="#000000" font-family="sans-serif" font-size="13" lengthAdjust="spacing" textLength="274" x="853" y="895.998">Persist by authorization code and sessionId</text><polygon fill="#181818" points="245,941.3613,235,945.3613,245,949.3613,241,945.3613" style="stroke:#181818;stroke-width:1.0;"/><line style="stroke:#181818;stroke-width:1.0;" x1="239" x2="823" y1="945.3613" y2="945.3613"/><text fill="#000000" font-family="sans-serif" font-size="13" font-weight="bold" lengthAdjust="spacing" textLength="18" x="251" y="932.9639">25</text><text fill="#000000" font-family="sans-serif" font-size="13" lengthAdjust="spacing" textLength="389" x="273" y="925.3086">Redirect to callback url with authorization code and sessionId</text><text fill="#000000" font-family="sans-serif" font-size="13" lengthAdjust="spacing" textLength="190" x="277" y="940.6191">(app link deep link or website)</text><polygon fill="#181818" points="812,970.6719,822,974.6719,812,978.6719,816,974.6719" style="stroke:#181818;stroke-width:1.0;"/><line style="stroke:#181818;stroke-width:1.0;" x1="234" x2="818" y1="974.6719" y2="974.6719"/><text fill="#000000" font-family="sans-serif" font-size="13" font-weight="bold" lengthAdjust="spacing" textLength="18" x="241" y="969.9297">26</text><text fill="#000000" font-family="sans-serif" font-size="13" lengthAdjust="spacing" textLength="366" x="263" y="969.9297">trade authorization code and sessionId for signed payload</text><polygon fill="#181818" points="1265,999.9824,1275,1003.9824,1265,1007.9824,1269,1003.9824" style="stroke:#181818;stroke-width:1.0;"/><line style="stroke:#181818;stroke-width:1.0;" x1="824" x2="1271" y1="1003.9824" y2="1003.9824"/><text fill="#000000" font-family="sans-serif" font-size="13" font-weight="bold" lengthAdjust="spacing" textLength="18" x="831" y="999.2402">27</text><text fill="#000000" font-family="sans-serif" font-size="13" lengthAdjust="spacing" textLength="266" x="853" y="999.2402">Fetch by authorization code and sessionId</text><polygon fill="#181818" points="835,1029.293,825,1033.293,835,1037.293,831,1033.293" style="stroke:#181818;stroke-width:1.0;"/><line style="stroke:#181818;stroke-width:1.0;stroke-dasharray:2.0,2.0;" x1="829" x2="1276" y1="1033.293" y2="1033.293"/><text fill="#000000" font-family="sans-serif" font-size="13" font-weight="bold" lengthAdjust="spacing" textLength="18" x="841" y="1028.5508">28</text><text fill="#000000" font-family="sans-serif" font-size="13" lengthAdjust="spacing" textLength="56" x="863" y="1028.5508">: Payload</text><polygon fill="#181818" points="1390,1058.6035,1400,1062.6035,1390,1066.6035,1394,1062.6035" style="stroke:#181818;stroke-width:1.0;"/><line style="stroke:#181818;stroke-width:1.0;" x1="824" x2="1396" y1="1062.6035" y2="1062.6035"/><text fill="#000000" font-family="sans-serif" font-size="13" font-weight="bold" lengthAdjust="spacing" textLength="18" x="831" y="1057.8613">29</text><text fill="#000000" font-family="sans-serif" font-size="13" lengthAdjust="spacing" textLength="343" x="853" y="1057.8613">fetch UserKeyData by UserIdentifier and providerMsaId</text><polygon fill="#181818" points="835,1087.9141,825,1091.9141,835,1095.9141,831,1091.9141" style="stroke:#181818;stroke-width:1.0;"/><line style="stroke:#181818;stroke-width:1.0;stroke-dasharray:2.0,2.0;" x1="829" x2="1401" y1="1091.9141" y2="1091.9141"/><text fill="#000000" font-family="sans-serif" font-size="13" font-weight="bold" lengthAdjust="spacing" textLength="18" x="841" y="1087.1719">30</text><text fill="#000000" font-family="sans-serif" font-size="13" lengthAdjust="spacing" textLength="79" x="863" y="1087.1719">UserKeyData</text><polygon fill="#181818" points="1322,1117.2246,1332,1121.2246,1322,1125.2246,1326,1121.2246" style="stroke:#181818;stroke-width:1.0;"/><line style="stroke:#181818;stroke-width:1.0;" x1="824" x2="1328" y1="1121.2246" y2="1121.2246"/><text fill="#000000" font-family="sans-serif" font-size="13" font-weight="bold" lengthAdjust="spacing" textLength="18" x="831" y="1116.4824">31</text><text fill="#000000" font-family="sans-serif" font-size="13" lengthAdjust="spacing" textLength="279" x="853" y="1116.4824">Decrypt call to get the private key decrypted</text><polygon fill="#181818" points="835,1146.5352,825,1150.5352,835,1154.5352,831,1150.5352" style="stroke:#181818;stroke-width:1.0;"/><line style="stroke:#181818;stroke-width:1.0;stroke-dasharray:2.0,2.0;" x1="829" x2="1333" y1="1150.5352" y2="1150.5352"/><text fill="#000000" font-family="sans-serif" font-size="13" font-weight="bold" lengthAdjust="spacing" textLength="18" x="841" y="1145.793">32</text><text fill="#000000" font-family="sans-serif" font-size="13" lengthAdjust="spacing" textLength="135" x="863" y="1145.793">decrypted private key</text><line style="stroke:#181818;stroke-width:1.0;" x1="824" x2="866" y1="1179.8457" y2="1179.8457"/><line style="stroke:#181818;stroke-width:1.0;" x1="866" x2="866" y1="1179.8457" y2="1192.8457"/><line style="stroke:#181818;stroke-width:1.0;" x1="825" x2="866" y1="1192.8457" y2="1192.8457"/><polygon fill="#181818" points="835,1188.8457,825,1192.8457,835,1196.8457,831,1192.8457" style="stroke:#181818;stroke-width:1.0;"/><text fill="#000000" font-family="sans-serif" font-size="13" font-weight="bold" lengthAdjust="spacing" textLength="18" x="831" y="1175.1035">33</text><text fill="#000000" font-family="sans-serif" font-size="13" lengthAdjust="spacing" textLength="168" x="853" y="1175.1035">Sign Payload w/Private Key</text><polygon fill="#181818" points="245,1218.1563,235,1222.1563,245,1226.1563,241,1222.1563" style="stroke:#181818;stroke-width:1.0;"/><line style="stroke:#181818;stroke-width:1.0;" x1="239" x2="823" y1="1222.1563" y2="1222.1563"/><text fill="#000000" font-family="sans-serif" font-size="13" font-weight="bold" lengthAdjust="spacing" textLength="18" x="251" y="1217.4141">34</text><text fill="#000000" font-family="sans-serif" font-size="13" lengthAdjust="spacing" textLength="94" x="273" y="1217.4141">Signed Payload</text><polygon fill="#181818" points="405,1247.4668,415,1251.4668,405,1255.4668,409,1251.4668" style="stroke:#181818;stroke-width:1.0;"/><line style="stroke:#181818;stroke-width:1.0;" x1="234" x2="411" y1="1251.4668" y2="1251.4668"/><text fill="#000000" font-family="sans-serif" font-size="13" font-weight="bold" lengthAdjust="spacing" textLength="18" x="241" y="1246.7246">35</text><text fill="#000000" font-family="sans-serif" font-size="13" lengthAdjust="spacing" textLength="94" x="263" y="1246.7246">Signed Payload</text><polygon fill="#181818" points="1032,1276.7773,1042,1280.7773,1032,1284.7773,1036,1280.7773" style="stroke:#181818;stroke-width:1.0;"/><line style="stroke:#181818;stroke-width:1.0;" x1="417" x2="1038" y1="1280.7773" y2="1280.7773"/><text fill="#000000" font-family="sans-serif" font-size="13" font-weight="bold" lengthAdjust="spacing" textLength="18" x="424" y="1276.0352">36</text><text fill="#000000" font-family="sans-serif" font-size="13" lengthAdjust="spacing" textLength="288" x="446" y="1276.0352">mutate resource with signed provider payload</text><!--SRC=[xLLDRzim3BtxLn2vB0NMPUZHXm5TqnL5LpHOrjikZCp6Gcp9a-W4sQyVPSkkasRz07ePa5CSwV7hFOfapGN1w6x1g8qsIq2OwwMX36QuBIncW5xEPiwkTKOEJk6oH5sCaWyvS-NJoQGgq71T5f-KBIUUVjTa59rc6fSEooH1nTR1w0TvMpj5Tnj3RdploPsCWcjdameTQwKhSGEZYqAJ_0O0BkMh0Qdw46ZS9TLwKhkOyvfpw_GVP6tDdDnQmfwVjr34NMoNN8HzBQnQgLm8YJdwVNYcVNkpUt5pEs-ELxl7C-jvwQWrgOIIcgsfomMvn5WcGEMizobSCsX9plkw5FuvHuQguxrgrP1hH-1RXT1aaEEQm5YXN3vDLeY4YRDm-WLK2Zz43Is1HS1e4jt0WsY2HY87TX8Ly8XfBtqNjUk1pKHXKInGhHB43hp6GcV8RJh8jQDuwQIM1sALG-dnEeF55gfwKMW5AzecZWHgsgjeK7Nu8FiDRQV86Ap2t-jCfDOFcbnJRqV8RMCUVGtCkXHIc97psdDVycOYp5gb9UCCvkIzL2x9ZU_lhwSdqKmuy_tD0BxHd8CBlIqEnsUVpyJRTwkQteASC3HXowAgKzYx2KJLbAYw8-xgyYUmxM6FAKivJfC8Aa-HDHPzxi95drTNTDIcixOfI5VAOnIooPMwGNlmoX6PHk_eBBP7IEHSAQhOzs46XWEThqYURD1P-ZOFOiJgbCtebNGVi6pKx8lwE2YZ6J07WprcBXD0hJn8kwz2f9VSFwRvhUcp0Qylsnxa-man_Qpv1oynr2xiO9QXXSA8SQGuz4dtzA1sHTk9BpdwPM2CLTNIan75B-c13IsyPZePT2CxpEX5bqq7xGwHVL9VKs7BPRf7vlk__rKAKr9kMt53Nw1nIS9cJk91huDeCek4cmP3lQV-O0WRI1u6v60gpYBefWS5yNONQAHQFJtlPcLPSt3YuXPgDUwutbi0IM9eKybgVDFEdijYIlZDgxunEoxwuw8_BlhZed__HI_ZvRbGWfZ6GWFo8lZIfgfvKDYbOKdd-OIFA_-uyl_dbVyN]--></g></svg>