<?xml version="1.0" encoding="us-ascii" standalone="no"?><svg xmlns="http://www.w3.org/2000/svg" xmlns:xlink="http://www.w3.org/1999/xlink" contentStyleType="text/css" height="1349px" preserveAspectRatio="none" style="width:1468px;height:1349px;background:#FFFFFF;" version="1.1" viewBox="0 0 1468 1349" width="1468px" zoomAndPan="magnify"><defs/><g><text fill="#000000" font-family="sans-serif" font-size="14" font-weight="bold" lengthAdjust="spacing" textLength="346" x="557.25" y="28.5352">Obtaining a Signed Payload as a Provider - Email</text><line style="stroke:#181818;stroke-width:0.5;stroke-dasharray:5.0,5.0;" x1="82" x2="82" y1="118.9766" y2="1268.4668"/><line style="stroke:#181818;stroke-width:0.5;stroke-dasharray:5.0,5.0;" x1="234" x2="234" y1="118.9766" y2="1268.4668"/><line style="stroke:#181818;stroke-width:0.5;stroke-dasharray:5.0,5.0;" x1="416.5" x2="416.5" y1="118.9766" y2="1268.4668"/><line style="stroke:#181818;stroke-width:0.5;stroke-dasharray:5.0,5.0;" x1="824" x2="824" y1="118.9766" y2="1268.4668"/><line style="stroke:#181818;stroke-width:0.5;stroke-dasharray:5.0,5.0;" x1="1043.5" x2="1043.5" y1="118.9766" y2="1268.4668"/><line style="stroke:#181818;stroke-width:0.5;stroke-dasharray:5.0,5.0;" x1="1276.5" x2="1276.5" y1="118.9766" y2="1268.4668"/><line style="stroke:#181818;stroke-width:0.5;stroke-dasharray:5.0,5.0;" x1="1333.5" x2="1333.5" y1="118.9766" y2="1268.4668"/><line style="stroke:#181818;stroke-width:0.5;stroke-dasharray:5.0,5.0;" x1="1401.5" x2="1401.5" y1="118.9766" y2="1268.4668"/><text fill="#000000" font-family="sans-serif" font-size="14" lengthAdjust="spacing" textLength="149" x="5" y="116.0234">ResourceOwner(User)</text><ellipse cx="82.5" cy="50.9883" fill="#E2E2F0" rx="8" ry="8" style="stroke:#181818;stroke-width:0.5;"/><path d="M82.5,58.9883 L82.5,85.9883 M69.5,66.9883 L95.5,66.9883 M82.5,85.9883 L69.5,100.9883 M82.5,85.9883 L95.5,100.9883 " fill="none" style="stroke:#181818;stroke-width:0.5;"/><text fill="#000000" font-family="sans-serif" font-size="14" lengthAdjust="spacing" textLength="149" x="5" y="1281.002">ResourceOwner(User)</text><ellipse cx="82.5" cy="1292.4551" fill="#E2E2F0" rx="8" ry="8" style="stroke:#181818;stroke-width:0.5;"/><path d="M82.5,1300.4551 L82.5,1327.4551 M69.5,1308.4551 L95.5,1308.4551 M82.5,1327.4551 L69.5,1342.4551 M82.5,1327.4551 L95.5,1342.4551 " fill="none" style="stroke:#181818;stroke-width:0.5;"/><rect fill="#E2E2F0" height="30.4883" rx="2.5" ry="2.5" style="stroke:#181818;stroke-width:0.5;" width="128" x="170" y="87.4883"/><text fill="#000000" font-family="sans-serif" font-size="14" lengthAdjust="spacing" textLength="114" x="177" y="108.0234">Client Useragent</text><rect fill="#E2E2F0" height="30.4883" rx="2.5" ry="2.5" style="stroke:#181818;stroke-width:0.5;" width="128" x="170" y="1267.4668"/><text fill="#000000" font-family="sans-serif" font-size="14" lengthAdjust="spacing" textLength="114" x="177" y="1288.002">Client Useragent</text><rect fill="#E2E2F0" height="30.4883" rx="2.5" ry="2.5" style="stroke:#181818;stroke-width:0.5;" width="121" x="356.5" y="87.4883"/><text fill="#000000" font-family="sans-serif" font-size="14" lengthAdjust="spacing" textLength="107" x="363.5" y="108.0234">Client(Provider)</text><rect fill="#E2E2F0" height="30.4883" rx="2.5" ry="2.5" style="stroke:#181818;stroke-width:0.5;" width="121" x="356.5" y="1267.4668"/><text fill="#000000" font-family="sans-serif" font-size="14" lengthAdjust="spacing" textLength="107" x="363.5" y="1288.002">Client(Provider)</text><rect fill="#E2E2F0" height="30.4883" rx="2.5" ry="2.5" style="stroke:#181818;stroke-width:0.5;" width="182" x="733" y="87.4883"/><text fill="#000000" font-family="sans-serif" font-size="14" lengthAdjust="spacing" textLength="168" x="740" y="108.0234">AuthorizationServer(AA)</text><rect fill="#E2E2F0" height="30.4883" rx="2.5" ry="2.5" style="stroke:#181818;stroke-width:0.5;" width="182" x="733" y="1267.4668"/><text fill="#000000" font-family="sans-serif" font-size="14" lengthAdjust="spacing" textLength="168" x="740" y="1288.002">AuthorizationServer(AA)</text><rect fill="#E2E2F0" height="30.4883" rx="2.5" ry="2.5" style="stroke:#181818;stroke-width:0.5;" width="203" x="942.5" y="87.4883"/><text fill="#000000" font-family="sans-serif" font-size="14" lengthAdjust="spacing" textLength="189" x="949.5" y="108.0234">ResourceServer(Blockchain)</text><rect fill="#E2E2F0" height="30.4883" rx="2.5" ry="2.5" style="stroke:#181818;stroke-width:0.5;" width="203" x="942.5" y="1267.4668"/><text fill="#000000" font-family="sans-serif" font-size="14" lengthAdjust="spacing" textLength="189" x="949.5" y="1288.002">ResourceServer(Blockchain)</text><rect fill="#E2E2F0" height="30.4883" rx="2.5" ry="2.5" style="stroke:#181818;stroke-width:0.5;" width="51" x="1251.5" y="87.4883"/><text fill="#000000" font-family="sans-serif" font-size="14" lengthAdjust="spacing" textLength="37" x="1258.5" y="108.0234">Redis</text><rect fill="#E2E2F0" height="30.4883" rx="2.5" ry="2.5" style="stroke:#181818;stroke-width:0.5;" width="51" x="1251.5" y="1267.4668"/><text fill="#000000" font-family="sans-serif" font-size="14" lengthAdjust="spacing" textLength="37" x="1258.5" y="1288.002">Redis</text><rect fill="#E2E2F0" height="30.4883" rx="2.5" ry="2.5" style="stroke:#181818;stroke-width:0.5;" width="43" x="1312.5" y="87.4883"/><text fill="#000000" font-family="sans-serif" font-size="14" lengthAdjust="spacing" textLength="29" x="1319.5" y="108.0234">KMS</text><rect fill="#E2E2F0" height="30.4883" rx="2.5" ry="2.5" style="stroke:#181818;stroke-width:0.5;" width="43" x="1312.5" y="1267.4668"/><text fill="#000000" font-family="sans-serif" font-size="14" lengthAdjust="spacing" textLength="29" x="1319.5" y="1288.002">KMS</text><rect fill="#E2E2F0" height="30.4883" rx="2.5" ry="2.5" style="stroke:#181818;stroke-width:0.5;" width="73" x="1365.5" y="87.4883"/><text fill="#000000" font-family="sans-serif" font-size="14" lengthAdjust="spacing" textLength="59" x="1372.5" y="108.0234">Postgres</text><rect fill="#E2E2F0" height="30.4883" rx="2.5" ry="2.5" style="stroke:#181818;stroke-width:0.5;" width="73" x="1365.5" y="1267.4668"/><text fill="#000000" font-family="sans-serif" font-size="14" lengthAdjust="spacing" textLength="59" x="1372.5" y="1288.002">Postgres</text><path d="M28,133.9766 L28,158.9766 L1456,158.9766 L1456,143.9766 L1446,133.9766 L28,133.9766 " fill="#FEFFDD" style="stroke:#181818;stroke-width:0.5;"/><path d="M1446,133.9766 L1446,143.9766 L1456,143.9766 L1446,133.9766 " fill="#FEFFDD" style="stroke:#181818;stroke-width:0.5;"/><text fill="#000000" font-family="sans-serif" font-size="13" lengthAdjust="spacing" textLength="459" x="508.25" y="151.5449">It is assumed that provider payloads are signed and have nonce handling</text><polygon fill="#181818" points="405,181.5977,415,185.5977,405,189.5977,409,185.5977" style="stroke:#181818;stroke-width:1.0;"/><line style="stroke:#181818;stroke-width:1.0;" x1="82.5" x2="411" y1="185.5977" y2="185.5977"/><text fill="#000000" font-family="sans-serif" font-size="13" font-weight="bold" lengthAdjust="spacing" textLength="9" x="89.5" y="180.8555">1</text><text fill="#000000" font-family="sans-serif" font-size="13" lengthAdjust="spacing" textLength="248" x="102.5" y="180.8555">Requires a signed payload for an action</text><polygon fill="#181818" points="812,210.9082,822,214.9082,812,218.9082,816,214.9082" style="stroke:#181818;stroke-width:1.0;"/><line style="stroke:#181818;stroke-width:1.0;" x1="417" x2="818" y1="214.9082" y2="214.9082"/><text fill="#000000" font-family="sans-serif" font-size="13" font-weight="bold" lengthAdjust="spacing" textLength="9" x="424" y="210.166">2</text><text fill="#000000" font-family="sans-serif" font-size="13" lengthAdjust="spacing" textLength="222" x="437" y="210.166">Signed Provider Payload w/callback</text><line style="stroke:#181818;stroke-width:1.0;" x1="824" x2="866" y1="244.2188" y2="244.2188"/><line style="stroke:#181818;stroke-width:1.0;" x1="866" x2="866" y1="244.2188" y2="257.2188"/><line style="stroke:#181818;stroke-width:1.0;" x1="825" x2="866" y1="257.2188" y2="257.2188"/><polygon fill="#181818" points="835,253.2188,825,257.2188,835,261.2188,831,257.2188" style="stroke:#181818;stroke-width:1.0;"/><text fill="#000000" font-family="sans-serif" font-size="13" font-weight="bold" lengthAdjust="spacing" textLength="9" x="831" y="239.4766">3</text><text fill="#000000" font-family="sans-serif" font-size="13" lengthAdjust="spacing" textLength="112" x="844" y="239.4766">validate signature</text><polygon fill="#181818" points="1032,282.5293,1042,286.5293,1032,290.5293,1036,286.5293" style="stroke:#181818;stroke-width:1.0;"/><line style="stroke:#181818;stroke-width:1.0;" x1="824" x2="1038" y1="286.5293" y2="286.5293"/><text fill="#000000" font-family="sans-serif" font-size="13" font-weight="bold" lengthAdjust="spacing" textLength="9" x="831" y="281.7871">4</text><text fill="#000000" font-family="sans-serif" font-size="13" lengthAdjust="spacing" textLength="162" x="844" y="281.7871">fetch msaId by public key</text><polygon fill="#181818" points="835,311.8398,825,315.8398,835,319.8398,831,315.8398" style="stroke:#181818;stroke-width:1.0;"/><line style="stroke:#181818;stroke-width:1.0;stroke-dasharray:2.0,2.0;" x1="829" x2="1043" y1="315.8398" y2="315.8398"/><text fill="#000000" font-family="sans-serif" font-size="13" font-weight="bold" lengthAdjust="spacing" textLength="9" x="841" y="311.0977">5</text><text fill="#000000" font-family="sans-serif" font-size="13" lengthAdjust="spacing" textLength="38" x="854" y="311.0977">msaId</text><polygon fill="#181818" points="1390,341.1504,1400,345.1504,1390,349.1504,1394,345.1504" style="stroke:#181818;stroke-width:1.0;"/><line style="stroke:#181818;stroke-width:1.0;" x1="824" x2="1396" y1="345.1504" y2="345.1504"/><text fill="#000000" font-family="sans-serif" font-size="13" font-weight="bold" lengthAdjust="spacing" textLength="9" x="831" y="340.4082">6</text><text fill="#000000" font-family="sans-serif" font-size="13" lengthAdjust="spacing" textLength="343" x="844" y="340.4082">fetch UserKeyData by UserIdentifier and providerMsaId</text><polygon fill="#181818" points="835,370.4609,825,374.4609,835,378.4609,831,374.4609" style="stroke:#181818;stroke-width:1.0;"/><line style="stroke:#181818;stroke-width:1.0;stroke-dasharray:2.0,2.0;" x1="829" x2="1401" y1="374.4609" y2="374.4609"/><text fill="#000000" font-family="sans-serif" font-size="13" font-weight="bold" lengthAdjust="spacing" textLength="9" x="841" y="369.7188">7</text><text fill="#000000" font-family="sans-serif" font-size="13" lengthAdjust="spacing" textLength="79" x="854" y="369.7188">UserKeyData</text><polygon fill="#181818" points="1265,399.7715,1275,403.7715,1265,407.7715,1269,403.7715" style="stroke:#181818;stroke-width:1.0;"/><line style="stroke:#181818;stroke-width:1.0;" x1="824" x2="1271" y1="403.7715" y2="403.7715"/><text fill="#000000" font-family="sans-serif" font-size="13" font-weight="bold" lengthAdjust="spacing" textLength="9" x="831" y="399.0293">8</text><text fill="#000000" font-family="sans-serif" font-size="13" lengthAdjust="spacing" textLength="291" x="844" y="399.0293">Persist payload w/associated SessionId (UUID)</text><polygon fill="#181818" points="428,429.082,418,433.082,428,437.082,424,433.082" style="stroke:#181818;stroke-width:1.0;"/><line style="stroke:#181818;stroke-width:1.0;" x1="422" x2="823" y1="433.082" y2="433.082"/><text fill="#000000" font-family="sans-serif" font-size="13" font-weight="bold" lengthAdjust="spacing" textLength="9" x="434" y="428.3398">9</text><text fill="#000000" font-family="sans-serif" font-size="13" lengthAdjust="spacing" textLength="370" x="447" y="428.3398">sessionId associated with request (202 w/Location header)</text><polygon fill="#181818" points="245,458.3926,235,462.3926,245,466.3926,241,462.3926" style="stroke:#181818;stroke-width:1.0;"/><line style="stroke:#181818;stroke-width:1.0;" x1="239" x2="416" y1="462.3926" y2="462.3926"/><text fill="#000000" font-family="sans-serif" font-size="13" font-weight="bold" lengthAdjust="spacing" textLength="18" x="251" y="457.6504">10</text><text fill="#000000" font-family="sans-serif" font-size="13" lengthAdjust="spacing" textLength="137" x="273" y="457.6504">Location header value</text><polygon fill="#181818" points="812,487.7031,822,491.7031,812,495.7031,816,491.7031" style="stroke:#181818;stroke-width:1.0;"/><line style="stroke:#181818;stroke-width:1.0;" x1="234" x2="818" y1="491.7031" y2="491.7031"/><text fill="#000000" font-family="sans-serif" font-size="13" font-weight="bold" lengthAdjust="spacing" textLength="18" x="241" y="486.9609">11</text><text fill="#000000" font-family="sans-serif" font-size="13" lengthAdjust="spacing" textLength="99" x="263" y="486.9609">GET to Location</text><polygon fill="#181818" points="1265,517.0137,1275,521.0137,1265,525.0137,1269,521.0137" style="stroke:#181818;stroke-width:1.0;"/><line style="stroke:#181818;stroke-width:1.0;" x1="824" x2="1271" y1="521.0137" y2="521.0137"/><text fill="#000000" font-family="sans-serif" font-size="13" font-weight="bold" lengthAdjust="spacing" textLength="18" x="831" y="516.2715">12</text><text fill="#000000" font-family="sans-serif" font-size="13" lengthAdjust="spacing" textLength="223" x="853" y="516.2715">retrieve initial payload by sessionId</text><polygon fill="#181818" points="835,546.3242,825,550.3242,835,554.3242,831,550.3242" style="stroke:#181818;stroke-width:1.0;"/><line style="stroke:#181818;stroke-width:1.0;stroke-dasharray:2.0,2.0;" x1="829" x2="1276" y1="550.3242" y2="550.3242"/><text fill="#000000" font-family="sans-serif" font-size="13" font-weight="bold" lengthAdjust="spacing" textLength="18" x="841" y="545.582">13</text><text fill="#000000" font-family="sans-serif" font-size="13" lengthAdjust="spacing" textLength="48" x="863" y="545.582">Payload</text><polygon fill="#181818" points="93.5,575.6348,83.5,579.6348,93.5,583.6348,89.5,579.6348" style="stroke:#181818;stroke-width:1.0;"/><line style="stroke:#181818;stroke-width:1.0;" x1="87.5" x2="823" y1="579.6348" y2="579.6348"/><text fill="#000000" font-family="sans-serif" font-size="13" font-weight="bold" lengthAdjust="spacing" textLength="18" x="99.5" y="574.8926">14</text><text fill="#000000" font-family="sans-serif" font-size="13" lengthAdjust="spacing" textLength="246" x="121.5" y="574.8926">display permissions screen for payload</text><polygon fill="#181818" points="812,604.9453,822,608.9453,812,612.9453,816,608.9453" style="stroke:#181818;stroke-width:1.0;"/><line style="stroke:#181818;stroke-width:1.0;" x1="82.5" x2="818" y1="608.9453" y2="608.9453"/><text fill="#000000" font-family="sans-serif" font-size="13" font-weight="bold" lengthAdjust="spacing" textLength="18" x="89.5" y="604.2031">15</text><text fill="#000000" font-family="sans-serif" font-size="13" lengthAdjust="spacing" textLength="184" x="111.5" y="604.2031">Accepts payload permissions</text><line style="stroke:#181818;stroke-width:1.0;" x1="824" x2="866" y1="638.2559" y2="638.2559"/><line style="stroke:#181818;stroke-width:1.0;" x1="866" x2="866" y1="638.2559" y2="651.2559"/><line style="stroke:#181818;stroke-width:1.0;" x1="825" x2="866" y1="651.2559" y2="651.2559"/><polygon fill="#181818" points="835,647.2559,825,651.2559,835,655.2559,831,651.2559" style="stroke:#181818;stroke-width:1.0;"/><text fill="#000000" font-family="sans-serif" font-size="13" font-weight="bold" lengthAdjust="spacing" textLength="18" x="831" y="633.5137">16</text><text fill="#000000" font-family="sans-serif" font-size="13" lengthAdjust="spacing" textLength="184" x="853" y="633.5137">Generate authentication code</text><polygon fill="#181818" points="1265,676.5664,1275,680.5664,1265,684.5664,1269,680.5664" style="stroke:#181818;stroke-width:1.0;"/><line style="stroke:#181818;stroke-width:1.0;" x1="824" x2="1271" y1="680.5664" y2="680.5664"/><text fill="#000000" font-family="sans-serif" font-size="13" font-weight="bold" lengthAdjust="spacing" textLength="18" x="831" y="675.8242">17</text><text fill="#000000" font-family="sans-serif" font-size="13" lengthAdjust="spacing" textLength="407" x="853" y="675.8242">Persist payload w/associated authentication code and sessionId,</text><polygon fill="#181818" points="93.5,705.877,83.5,709.877,93.5,713.877,89.5,709.877" style="stroke:#181818;stroke-width:1.0;"/><line style="stroke:#181818;stroke-width:1.0;" x1="87.5" x2="823" y1="709.877" y2="709.877"/><text fill="#000000" font-family="sans-serif" font-size="13" font-weight="bold" lengthAdjust="spacing" textLength="18" x="99.5" y="705.1348">18</text><text fill="#000000" font-family="sans-serif" font-size="13" lengthAdjust="spacing" textLength="163" x="121.5" y="705.1348">Email authentication code</text><polygon fill="#181818" points="812,735.1875,822,739.1875,812,743.1875,816,739.1875" style="stroke:#181818;stroke-width:1.0;"/><line style="stroke:#181818;stroke-width:1.0;" x1="82.5" x2="818" y1="739.1875" y2="739.1875"/><text fill="#000000" font-family="sans-serif" font-size="13" font-weight="bold" lengthAdjust="spacing" textLength="18" x="89.5" y="734.4453">19</text><text fill="#000000" font-family="sans-serif" font-size="13" lengthAdjust="spacing" textLength="304" x="111.5" y="734.4453">Clicks link w/authentication code and sessionId</text><polygon fill="#181818" points="1265,764.498,1275,768.498,1265,772.498,1269,768.498" style="stroke:#181818;stroke-width:1.0;"/><line style="stroke:#181818;stroke-width:1.0;" x1="824" x2="1271" y1="768.498" y2="768.498"/><text fill="#000000" font-family="sans-serif" font-size="13" font-weight="bold" lengthAdjust="spacing" textLength="18" x="831" y="763.7559">20</text><text fill="#000000" font-family="sans-serif" font-size="13" lengthAdjust="spacing" textLength="326" x="853" y="763.7559">Fetch payload by authentication code and sessionId</text><polygon fill="#181818" points="835,793.8086,825,797.8086,835,801.8086,831,797.8086" style="stroke:#181818;stroke-width:1.0;"/><line style="stroke:#181818;stroke-width:1.0;stroke-dasharray:2.0,2.0;" x1="829" x2="1276" y1="797.8086" y2="797.8086"/><text fill="#000000" font-family="sans-serif" font-size="13" font-weight="bold" lengthAdjust="spacing" textLength="18" x="841" y="793.0664">21</text><text fill="#000000" font-family="sans-serif" font-size="13" lengthAdjust="spacing" textLength="48" x="863" y="793.0664">Payload</text><line style="stroke:#181818;stroke-width:1.0;" x1="824" x2="866" y1="827.1191" y2="827.1191"/><line style="stroke:#181818;stroke-width:1.0;" x1="866" x2="866" y1="827.1191" y2="840.1191"/><line style="stroke:#181818;stroke-width:1.0;" x1="825" x2="866" y1="840.1191" y2="840.1191"/><polygon fill="#181818" points="835,836.1191,825,840.1191,835,844.1191,831,840.1191" style="stroke:#181818;stroke-width:1.0;"/><text fill="#000000" font-family="sans-serif" font-size="13" font-weight="bold" lengthAdjust="spacing" textLength="18" x="831" y="822.377">22</text><text fill="#000000" font-family="sans-serif" font-size="13" lengthAdjust="spacing" textLength="177" x="853" y="822.377">Generate authorization code</text><polygon fill="#181818" points="1265,865.4297,1275,869.4297,1265,873.4297,1269,869.4297" style="stroke:#181818;stroke-width:1.0;"/><line style="stroke:#181818;stroke-width:1.0;" x1="824" x2="1271" y1="869.4297" y2="869.4297"/><text fill="#000000" font-family="sans-serif" font-size="13" font-weight="bold" lengthAdjust="spacing" textLength="18" x="831" y="864.6875">23</text><text fill="#000000" font-family="sans-serif" font-size="13" lengthAdjust="spacing" textLength="274" x="853" y="864.6875">Persist by authorization code and sessionId</text><polygon fill="#181818" points="245,910.0508,235,914.0508,245,918.0508,241,914.0508" style="stroke:#181818;stroke-width:1.0;"/><line style="stroke:#181818;stroke-width:1.0;" x1="239" x2="823" y1="914.0508" y2="914.0508"/><text fill="#000000" font-family="sans-serif" font-size="13" font-weight="bold" lengthAdjust="spacing" textLength="18" x="251" y="901.6533">24</text><text fill="#000000" font-family="sans-serif" font-size="13" lengthAdjust="spacing" textLength="389" x="273" y="893.998">Redirect to callback url with authorization code and sessionId</text><text fill="#000000" font-family="sans-serif" font-size="13" lengthAdjust="spacing" textLength="190" x="277" y="909.3086">(app link deep link or website)</text><polygon fill="#181818" points="812,939.3613,822,943.3613,812,947.3613,816,943.3613" style="stroke:#181818;stroke-width:1.0;"/><line style="stroke:#181818;stroke-width:1.0;" x1="234" x2="818" y1="943.3613" y2="943.3613"/><text fill="#000000" font-family="sans-serif" font-size="13" font-weight="bold" lengthAdjust="spacing" textLength="18" x="241" y="938.6191">25</text><text fill="#000000" font-family="sans-serif" font-size="13" lengthAdjust="spacing" textLength="366" x="263" y="938.6191">trade authorization code and sessionId for signed payload</text><polygon fill="#181818" points="1265,968.6719,1275,972.6719,1265,976.6719,1269,972.6719" style="stroke:#181818;stroke-width:1.0;"/><line style="stroke:#181818;stroke-width:1.0;" x1="824" x2="1271" y1="972.6719" y2="972.6719"/><text fill="#000000" font-family="sans-serif" font-size="13" font-weight="bold" lengthAdjust="spacing" textLength="18" x="831" y="967.9297">26</text><text fill="#000000" font-family="sans-serif" font-size="13" lengthAdjust="spacing" textLength="266" x="853" y="967.9297">Fetch by authorization code and sessionId</text><polygon fill="#181818" points="835,997.9824,825,1001.9824,835,1005.9824,831,1001.9824" style="stroke:#181818;stroke-width:1.0;"/><line style="stroke:#181818;stroke-width:1.0;stroke-dasharray:2.0,2.0;" x1="829" x2="1276" y1="1001.9824" y2="1001.9824"/><text fill="#000000" font-family="sans-serif" font-size="13" font-weight="bold" lengthAdjust="spacing" textLength="18" x="841" y="997.2402">27</text><text fill="#000000" font-family="sans-serif" font-size="13" lengthAdjust="spacing" textLength="56" x="863" y="997.2402">: Payload</text><polygon fill="#181818" points="1390,1027.293,1400,1031.293,1390,1035.293,1394,1031.293" style="stroke:#181818;stroke-width:1.0;"/><line style="stroke:#181818;stroke-width:1.0;" x1="824" x2="1396" y1="1031.293" y2="1031.293"/><text fill="#000000" font-family="sans-serif" font-size="13" font-weight="bold" lengthAdjust="spacing" textLength="18" x="831" y="1026.5508">28</text><text fill="#000000" font-family="sans-serif" font-size="13" lengthAdjust="spacing" textLength="343" x="853" y="1026.5508">fetch UserKeyData by UserIdentifier and providerMsaId</text><polygon fill="#181818" points="835,1056.6035,825,1060.6035,835,1064.6035,831,1060.6035" style="stroke:#181818;stroke-width:1.0;"/><line style="stroke:#181818;stroke-width:1.0;stroke-dasharray:2.0,2.0;" x1="829" x2="1401" y1="1060.6035" y2="1060.6035"/><text fill="#000000" font-family="sans-serif" font-size="13" font-weight="bold" lengthAdjust="spacing" textLength="18" x="841" y="1055.8613">29</text><text fill="#000000" font-family="sans-serif" font-size="13" lengthAdjust="spacing" textLength="79" x="863" y="1055.8613">UserKeyData</text><polygon fill="#181818" points="1322,1085.9141,1332,1089.9141,1322,1093.9141,1326,1089.9141" style="stroke:#181818;stroke-width:1.0;"/><line style="stroke:#181818;stroke-width:1.0;" x1="824" x2="1328" y1="1089.9141" y2="1089.9141"/><text fill="#000000" font-family="sans-serif" font-size="13" font-weight="bold" lengthAdjust="spacing" textLength="18" x="831" y="1085.1719">30</text><text fill="#000000" font-family="sans-serif" font-size="13" lengthAdjust="spacing" textLength="279" x="853" y="1085.1719">Decrypt call to get the private key decrypted</text><polygon fill="#181818" points="835,1115.2246,825,1119.2246,835,1123.2246,831,1119.2246" style="stroke:#181818;stroke-width:1.0;"/><line style="stroke:#181818;stroke-width:1.0;stroke-dasharray:2.0,2.0;" x1="829" x2="1333" y1="1119.2246" y2="1119.2246"/><text fill="#000000" font-family="sans-serif" font-size="13" font-weight="bold" lengthAdjust="spacing" textLength="18" x="841" y="1114.4824">31</text><text fill="#000000" font-family="sans-serif" font-size="13" lengthAdjust="spacing" textLength="135" x="863" y="1114.4824">decrypted private key</text><line style="stroke:#181818;stroke-width:1.0;" x1="824" x2="866" y1="1148.5352" y2="1148.5352"/><line style="stroke:#181818;stroke-width:1.0;" x1="866" x2="866" y1="1148.5352" y2="1161.5352"/><line style="stroke:#181818;stroke-width:1.0;" x1="825" x2="866" y1="1161.5352" y2="1161.5352"/><polygon fill="#181818" points="835,1157.5352,825,1161.5352,835,1165.5352,831,1161.5352" style="stroke:#181818;stroke-width:1.0;"/><text fill="#000000" font-family="sans-serif" font-size="13" font-weight="bold" lengthAdjust="spacing" textLength="18" x="831" y="1143.793">32</text><text fill="#000000" font-family="sans-serif" font-size="13" lengthAdjust="spacing" textLength="168" x="853" y="1143.793">Sign Payload w/Private Key</text><polygon fill="#181818" points="245,1186.8457,235,1190.8457,245,1194.8457,241,1190.8457" style="stroke:#181818;stroke-width:1.0;"/><line style="stroke:#181818;stroke-width:1.0;" x1="239" x2="823" y1="1190.8457" y2="1190.8457"/><text fill="#000000" font-family="sans-serif" font-size="13" font-weight="bold" lengthAdjust="spacing" textLength="18" x="251" y="1186.1035">33</text><text fill="#000000" font-family="sans-serif" font-size="13" lengthAdjust="spacing" textLength="94" x="273" y="1186.1035">Signed Payload</text><polygon fill="#181818" points="405,1216.1563,415,1220.1563,405,1224.1563,409,1220.1563" style="stroke:#181818;stroke-width:1.0;"/><line style="stroke:#181818;stroke-width:1.0;" x1="234" x2="411" y1="1220.1563" y2="1220.1563"/><text fill="#000000" font-family="sans-serif" font-size="13" font-weight="bold" lengthAdjust="spacing" textLength="18" x="241" y="1215.4141">34</text><text fill="#000000" font-family="sans-serif" font-size="13" lengthAdjust="spacing" textLength="94" x="263" y="1215.4141">Signed Payload</text><polygon fill="#181818" points="1032,1245.4668,1042,1249.4668,1032,1253.4668,1036,1249.4668" style="stroke:#181818;stroke-width:1.0;"/><line style="stroke:#181818;stroke-width:1.0;" x1="417" x2="1038" y1="1249.4668" y2="1249.4668"/><text fill="#000000" font-family="sans-serif" font-size="13" font-weight="bold" lengthAdjust="spacing" textLength="18" x="424" y="1244.7246">35</text><text fill="#000000" font-family="sans-serif" font-size="13" lengthAdjust="spacing" textLength="288" x="446" y="1244.7246">mutate resource with signed provider payload</text><line style="stroke:#000000;stroke-width:1.0;stroke-dasharray:2.0,2.0;" x1="0" x2="1461.5" y1="1257.4668" y2="1257.4668"/><!--SRC=[xLLDRzim3BtxLn2vB0NMPUZHXm5TqnL5LpHOrjikZCp6Gcp9a-W4sQyVPSkkasRz07ePa5CSwV7hFOfapGN1w6x1g8qsIq2OwwMX36QuBIncW5xEPiwkTKOEJk6oH5sCaWyvS-NJoQGgq71T5f-KBIUUVjTa59rc6fSEooH1nTR1w0TvMpj5Tnj3RdploPsCWcjdameTQwKhSGEZYqAJ_0O0BkMh0Qdw46ZS9TLwKhkOyvfpw_GVP6tDdDnQmfwVjr34NMoNN8HzBQnQgLm8YJdwVNYcVNkpUt5pEs-ELxl7C-jvwQWrgOIIcgsfomMvn5WcGEMizobSCsX9plkw5FuvHuQguxrgrP1hH-1RXT1aaEEQm5YXN3vDLeY4YRDm-WLK2Zz43Is1HS1e4jt0WsY2HY87TX8Ly8XfBtqNjUk1pKHXKInGhHB43hp6GcV8RJh8jQDuwQIM1sALG-dnEeF55gfwKMW5AzecZWHgsgjeK7Nu8FiDRQV86Ap2t-jCfDOFcbnJRqV8RMCUVGtCkXHIc97psdDVycOYp5gb9UCCvkIzL2x9ZU_lhwSdqKmuy_tD0BxHd8CBlIqEnsUVpyJRTwkQteASC3HXowAgKzYx2KJLbAYw8-xgyYUmxM6FAKivJfC8Aa-HDHPzxi95drTNTDIcixOfI5VAOnIooPMwGNlmoX6PHk_eBBP7IEHSAQhOzs46XWEThqYURD1P-ZOFOiJgbCtebNGVi6pKx8lwE2YZ6J07WprcBXD0hJn8kwz2f9VSFwRvhUcp0Qylsnxa-man_Qpv1oynr2xiO9QXXSA8SQGuz4dtzA1sHTk9BpdwPM2CLTNIan75B-c13IsyPZePT2CxpEX5bqq7xGwHVL9VKs7BPRf7vlk__rKAKr9kMt53Nw1nIS9cJk91huDeCek4cmP3lQV-O0WRI1u6v60gpYBefWS5yNONQAHQFJtlPcLPSt3YuXPgDUwutbi0IM9eKybgVDFEdijYIlZDgxunEoxwuw8_BlhZed__HI_ZvRbGWfZ6GWFo8lZIfgfvKDYbOKdd-OIFA_-uyl_dbVyN]--></g></svg>