<?xml version="1.0" encoding="us-ascii" standalone="no"?><svg xmlns="http://www.w3.org/2000/svg" xmlns:xlink="http://www.w3.org/1999/xlink" contentStyleType="text/css" height="692px" preserveAspectRatio="none" style="width:982px;height:692px;background:#FFFFFF;" version="1.1" viewBox="0 0 982 692" width="982px" zoomAndPan="magnify"><defs/><g><text fill="#000000" font-family="sans-serif" font-size="14" font-weight="bold" lengthAdjust="spacing" textLength="298" x="341" y="28.5352">Obtaining a Signed Payload as a Provider</text><line style="stroke:#181818;stroke-width:0.5;stroke-dasharray:5.0,5.0;" x1="91" x2="91" y1="118.9766" y2="611.9453"/><line style="stroke:#181818;stroke-width:0.5;stroke-dasharray:5.0,5.0;" x1="243" x2="243" y1="118.9766" y2="611.9453"/><line style="stroke:#181818;stroke-width:0.5;stroke-dasharray:5.0,5.0;" x1="501.5" x2="501.5" y1="118.9766" y2="611.9453"/><line style="stroke:#181818;stroke-width:0.5;stroke-dasharray:5.0,5.0;" x1="663.5" x2="663.5" y1="118.9766" y2="611.9453"/><line style="stroke:#181818;stroke-width:0.5;stroke-dasharray:5.0,5.0;" x1="874" x2="874" y1="118.9766" y2="611.9453"/><text fill="#000000" font-family="sans-serif" font-size="14" lengthAdjust="spacing" textLength="149" x="14" y="116.0234">ResourceOwner(User)</text><ellipse cx="91.5" cy="50.9883" fill="#E2E2F0" rx="8" ry="8" style="stroke:#181818;stroke-width:0.5;"/><path d="M91.5,58.9883 L91.5,85.9883 M78.5,66.9883 L104.5,66.9883 M91.5,85.9883 L78.5,100.9883 M91.5,85.9883 L104.5,100.9883 " fill="none" style="stroke:#181818;stroke-width:0.5;"/><text fill="#000000" font-family="sans-serif" font-size="14" lengthAdjust="spacing" textLength="149" x="14" y="624.4805">ResourceOwner(User)</text><ellipse cx="91.5" cy="635.9336" fill="#E2E2F0" rx="8" ry="8" style="stroke:#181818;stroke-width:0.5;"/><path d="M91.5,643.9336 L91.5,670.9336 M78.5,651.9336 L104.5,651.9336 M91.5,670.9336 L78.5,685.9336 M91.5,670.9336 L104.5,685.9336 " fill="none" style="stroke:#181818;stroke-width:0.5;"/><rect fill="#E2E2F0" height="30.4883" rx="2.5" ry="2.5" style="stroke:#181818;stroke-width:0.5;" width="128" x="179" y="87.4883"/><text fill="#000000" font-family="sans-serif" font-size="14" lengthAdjust="spacing" textLength="114" x="186" y="108.0234">Client Useragent</text><rect fill="#E2E2F0" height="30.4883" rx="2.5" ry="2.5" style="stroke:#181818;stroke-width:0.5;" width="128" x="179" y="610.9453"/><text fill="#000000" font-family="sans-serif" font-size="14" lengthAdjust="spacing" textLength="114" x="186" y="631.4805">Client Useragent</text><rect fill="#E2E2F0" height="30.4883" rx="2.5" ry="2.5" style="stroke:#181818;stroke-width:0.5;" width="121" x="441.5" y="87.4883"/><text fill="#000000" font-family="sans-serif" font-size="14" lengthAdjust="spacing" textLength="107" x="448.5" y="108.0234">Client(Provider)</text><rect fill="#E2E2F0" height="30.4883" rx="2.5" ry="2.5" style="stroke:#181818;stroke-width:0.5;" width="121" x="441.5" y="610.9453"/><text fill="#000000" font-family="sans-serif" font-size="14" lengthAdjust="spacing" textLength="107" x="448.5" y="631.4805">Client(Provider)</text><rect fill="#E2E2F0" height="30.4883" rx="2.5" ry="2.5" style="stroke:#181818;stroke-width:0.5;" width="182" x="572.5" y="87.4883"/><text fill="#000000" font-family="sans-serif" font-size="14" lengthAdjust="spacing" textLength="168" x="579.5" y="108.0234">AuthorizationServer(AA)</text><rect fill="#E2E2F0" height="30.4883" rx="2.5" ry="2.5" style="stroke:#181818;stroke-width:0.5;" width="182" x="572.5" y="610.9453"/><text fill="#000000" font-family="sans-serif" font-size="14" lengthAdjust="spacing" textLength="168" x="579.5" y="631.4805">AuthorizationServer(AA)</text><rect fill="#E2E2F0" height="30.4883" rx="2.5" ry="2.5" style="stroke:#181818;stroke-width:0.5;" width="203" x="773" y="87.4883"/><text fill="#000000" font-family="sans-serif" font-size="14" lengthAdjust="spacing" textLength="189" x="780" y="108.0234">ResourceServer(Blockchain)</text><rect fill="#E2E2F0" height="30.4883" rx="2.5" ry="2.5" style="stroke:#181818;stroke-width:0.5;" width="203" x="773" y="610.9453"/><text fill="#000000" font-family="sans-serif" font-size="14" lengthAdjust="spacing" textLength="189" x="780" y="631.4805">ResourceServer(Blockchain)</text><path d="M5,133.9766 L5,158.9766 L962,158.9766 L962,143.9766 L952,133.9766 L5,133.9766 " fill="#FEFFDD" style="stroke:#181818;stroke-width:0.5;"/><path d="M952,133.9766 L952,143.9766 L962,143.9766 L952,133.9766 " fill="#FEFFDD" style="stroke:#181818;stroke-width:0.5;"/><text fill="#000000" font-family="sans-serif" font-size="13" lengthAdjust="spacing" textLength="459" x="249.5" y="151.5449">It is assumed that provider payloads are signed and have nonce handling</text><polygon fill="#181818" points="490,181.5977,500,185.5977,490,189.5977,494,185.5977" style="stroke:#181818;stroke-width:1.0;"/><line style="stroke:#181818;stroke-width:1.0;" x1="91.5" x2="496" y1="185.5977" y2="185.5977"/><text fill="#000000" font-family="sans-serif" font-size="13" font-weight="bold" lengthAdjust="spacing" textLength="9" x="98.5" y="180.8555">1</text><text fill="#000000" font-family="sans-serif" font-size="13" lengthAdjust="spacing" textLength="248" x="111.5" y="180.8555">Requires a signed payload for an action</text><polygon fill="#181818" points="254,210.9082,244,214.9082,254,218.9082,250,214.9082" style="stroke:#181818;stroke-width:1.0;"/><line style="stroke:#181818;stroke-width:1.0;" x1="248" x2="501" y1="214.9082" y2="214.9082"/><text fill="#000000" font-family="sans-serif" font-size="13" font-weight="bold" lengthAdjust="spacing" textLength="9" x="260" y="210.166">2</text><text fill="#000000" font-family="sans-serif" font-size="13" lengthAdjust="spacing" textLength="222" x="273" y="210.166">Signed Provider Payload w/callback</text><polygon fill="#181818" points="651.5,255.5293,661.5,259.5293,651.5,263.5293,655.5,259.5293" style="stroke:#181818;stroke-width:1.0;"/><line style="stroke:#181818;stroke-width:1.0;" x1="243" x2="657.5" y1="259.5293" y2="259.5293"/><text fill="#000000" font-family="sans-serif" font-size="13" font-weight="bold" lengthAdjust="spacing" textLength="9" x="250" y="247.1318">3</text><text fill="#000000" font-family="sans-serif" font-size="13" lengthAdjust="spacing" textLength="179" x="263" y="239.4766">Request authentication code</text><text fill="#000000" font-family="sans-serif" font-size="13" lengthAdjust="spacing" textLength="130" x="267" y="254.7871">(payload w/callback)</text><line style="stroke:#181818;stroke-width:1.0;" x1="663.5" x2="705.5" y1="288.8398" y2="288.8398"/><line style="stroke:#181818;stroke-width:1.0;" x1="705.5" x2="705.5" y1="288.8398" y2="301.8398"/><line style="stroke:#181818;stroke-width:1.0;" x1="664.5" x2="705.5" y1="301.8398" y2="301.8398"/><polygon fill="#181818" points="674.5,297.8398,664.5,301.8398,674.5,305.8398,670.5,301.8398" style="stroke:#181818;stroke-width:1.0;"/><text fill="#000000" font-family="sans-serif" font-size="13" font-weight="bold" lengthAdjust="spacing" textLength="9" x="670.5" y="284.0977">4</text><text fill="#000000" font-family="sans-serif" font-size="13" lengthAdjust="spacing" textLength="184" x="683.5" y="284.0977">Generate authentication code</text><polygon fill="#181818" points="102.5,327.1504,92.5,331.1504,102.5,335.1504,98.5,331.1504" style="stroke:#181818;stroke-width:1.0;"/><line style="stroke:#181818;stroke-width:1.0;" x1="96.5" x2="662.5" y1="331.1504" y2="331.1504"/><text fill="#000000" font-family="sans-serif" font-size="13" font-weight="bold" lengthAdjust="spacing" textLength="9" x="108.5" y="326.4082">5</text><text fill="#000000" font-family="sans-serif" font-size="13" lengthAdjust="spacing" textLength="183" x="121.5" y="326.4082">Message authentication code</text><polygon fill="#181818" points="651.5,356.4609,661.5,360.4609,651.5,364.4609,655.5,360.4609" style="stroke:#181818;stroke-width:1.0;"/><line style="stroke:#181818;stroke-width:1.0;" x1="91.5" x2="657.5" y1="360.4609" y2="360.4609"/><text fill="#000000" font-family="sans-serif" font-size="13" font-weight="bold" lengthAdjust="spacing" textLength="9" x="98.5" y="355.7188">6</text><text fill="#000000" font-family="sans-serif" font-size="13" lengthAdjust="spacing" textLength="260" x="111.5" y="355.7188">Clicks link, or enters authentication code</text><line style="stroke:#181818;stroke-width:1.0;" x1="663.5" x2="705.5" y1="389.7715" y2="389.7715"/><line style="stroke:#181818;stroke-width:1.0;" x1="705.5" x2="705.5" y1="389.7715" y2="402.7715"/><line style="stroke:#181818;stroke-width:1.0;" x1="664.5" x2="705.5" y1="402.7715" y2="402.7715"/><polygon fill="#181818" points="674.5,398.7715,664.5,402.7715,674.5,406.7715,670.5,402.7715" style="stroke:#181818;stroke-width:1.0;"/><text fill="#000000" font-family="sans-serif" font-size="13" font-weight="bold" lengthAdjust="spacing" textLength="9" x="670.5" y="385.0293">7</text><text fill="#000000" font-family="sans-serif" font-size="13" lengthAdjust="spacing" textLength="127" x="683.5" y="385.0293">Fetch initial payload</text><polygon fill="#181818" points="102.5,428.082,92.5,432.082,102.5,436.082,98.5,432.082" style="stroke:#181818;stroke-width:1.0;"/><line style="stroke:#181818;stroke-width:1.0;" x1="96.5" x2="662.5" y1="432.082" y2="432.082"/><text fill="#000000" font-family="sans-serif" font-size="13" font-weight="bold" lengthAdjust="spacing" textLength="9" x="108.5" y="427.3398">8</text><text fill="#000000" font-family="sans-serif" font-size="13" lengthAdjust="spacing" textLength="246" x="121.5" y="427.3398">display permissions screen for payload</text><polygon fill="#181818" points="651.5,457.3926,661.5,461.3926,651.5,465.3926,655.5,461.3926" style="stroke:#181818;stroke-width:1.0;"/><line style="stroke:#181818;stroke-width:1.0;" x1="91.5" x2="657.5" y1="461.3926" y2="461.3926"/><text fill="#000000" font-family="sans-serif" font-size="13" font-weight="bold" lengthAdjust="spacing" textLength="9" x="98.5" y="456.6504">9</text><text fill="#000000" font-family="sans-serif" font-size="13" lengthAdjust="spacing" textLength="184" x="111.5" y="456.6504">Accepts payload permissions</text><polygon fill="#181818" points="254,502.0137,244,506.0137,254,510.0137,250,506.0137" style="stroke:#181818;stroke-width:1.0;"/><line style="stroke:#181818;stroke-width:1.0;" x1="248" x2="662.5" y1="506.0137" y2="506.0137"/><text fill="#000000" font-family="sans-serif" font-size="13" font-weight="bold" lengthAdjust="spacing" textLength="18" x="260" y="493.6162">10</text><text fill="#000000" font-family="sans-serif" font-size="13" lengthAdjust="spacing" textLength="298" x="282" y="485.9609">Redirect to callback url with authorization code</text><text fill="#000000" font-family="sans-serif" font-size="13" lengthAdjust="spacing" textLength="190" x="286" y="501.2715">(app link deep link or website)</text><polygon fill="#181818" points="651.5,531.3242,661.5,535.3242,651.5,539.3242,655.5,535.3242" style="stroke:#181818;stroke-width:1.0;"/><line style="stroke:#181818;stroke-width:1.0;" x1="243" x2="657.5" y1="535.3242" y2="535.3242"/><text fill="#000000" font-family="sans-serif" font-size="13" font-weight="bold" lengthAdjust="spacing" textLength="18" x="250" y="530.582">11</text><text fill="#000000" font-family="sans-serif" font-size="13" lengthAdjust="spacing" textLength="275" x="272" y="530.582">trade authorization code for signed payload</text><polygon fill="#181818" points="490,560.6348,500,564.6348,490,568.6348,494,564.6348" style="stroke:#181818;stroke-width:1.0;"/><line style="stroke:#181818;stroke-width:1.0;" x1="243" x2="496" y1="564.6348" y2="564.6348"/><text fill="#000000" font-family="sans-serif" font-size="13" font-weight="bold" lengthAdjust="spacing" textLength="18" x="250" y="559.8926">12</text><text fill="#000000" font-family="sans-serif" font-size="13" lengthAdjust="spacing" textLength="94" x="272" y="559.8926">Signed Payload</text><polygon fill="#181818" points="862.5,589.9453,872.5,593.9453,862.5,597.9453,866.5,593.9453" style="stroke:#181818;stroke-width:1.0;"/><line style="stroke:#181818;stroke-width:1.0;" x1="502" x2="868.5" y1="593.9453" y2="593.9453"/><text fill="#000000" font-family="sans-serif" font-size="13" font-weight="bold" lengthAdjust="spacing" textLength="18" x="509" y="589.2031">13</text><text fill="#000000" font-family="sans-serif" font-size="13" lengthAdjust="spacing" textLength="288" x="531" y="589.2031">mutate resource with signed provider payload</text><!--SRC=[VPDFZzD03CNl-HHMBhGII-yv81Ka40UqgwwuSN4TquoQp0JRqshvz3Z_IhjRSSeeUNxp_BDZmLg6yd5l66A81q1u3eV8DJpXIvkm1bH_zoJf56gMidZNcFLQRJPzYz5ortwWr6sKVsUEn0zrm8DWLnH8bWJA7MlAGlnuZYoh7ygoBWTBIKMFOe52xpPGVcu3-tCGuC5FeuZoFT5g2JCvqQrccwr94lwWXHIVMKv-xNOxIH5ljKkuMVQfJNIana7C6TNRo9PYxlOiHKp6W2H9jO9l1i4DLNFdhAn1WtwE1Vr4pZyBWquqCTRGu8aX9iVanrYtZhkG10yVWIhOES4WFC2UIsOR-EKSCVhDGqS5ZVfSNSQqtBhCwxmXRDizqh6WF8WH9tTM0s-dSOI1HZn0gUQV4LRzczfrWRWKVsMV7GxDlwsUPP8g-CwgFhkxggdDmSndI4S5R_xu7hmpLxBeVwo7eYzir80lg0Li5p1NLzT1VHrVe6VfWgexA2W9SnpfBGN_Kco9k3UzCBugd6q7n3kkVIHaO0aMC92bXNEmPenysRGBIkpxiJcecUUJ9pZpNeFn-cea9bZp7PCnyUqAp5LKlVetfsKGNySksp0WcHTw2hYOlDhBlm00]--></g></svg>