<svg width="86" height="85" viewBox="0 0 86 85" fill="none" xmlns="http://www.w3.org/2000/svg">
<circle cx="43" cy="42.5" r="42.5" fill="url(#paint0_linear_1399_6775)"/>
<path d="M72.4219 24.6872C72.1071 23.3558 70.9199 22.4146 69.5491 22.4146H22.3246C20.6947 22.4146 19.373 23.7362 19.373 25.3661V66.6875C19.373 67.7107 19.9043 68.6618 20.7734 69.1996C21.2489 69.4915 21.7867 69.6391 22.3246 69.6391C22.7771 69.6391 23.2264 69.5374 23.6462 69.3275L59.0646 51.6183C60.2878 51.0051 60.9306 49.631 60.6158 48.2995C60.301 46.968 59.1138 46.0268 57.743 46.0268H34.826L70.8675 28.0061C72.0907 27.3928 72.7335 26.0187 72.4187 24.6872H72.4219Z" fill="#FCF3E4"/>
<defs>
<linearGradient id="paint0_linear_1399_6775" x1="75" y1="13" x2="10" y2="69" gradientUnits="userSpaceOnUse">
<stop stop-color="#311E48"/>
<stop offset="0.5" stop-color="#790E70"/>
<stop offset="1" stop-color="#AA40A1"/>
</linearGradient>
</defs>
</svg>
