<svg width="22" height="22" viewBox="0 0 22 22" fill="none" xmlns="http://www.w3.org/2000/svg">
    <path fill-rule="evenodd" clip-rule="evenodd" d="M5 0C3.67392 0 2.40215 0.526784 1.46447 1.46447C0.526784 2.40215 0 3.67392 0 5C0 6.32608 0.526784 7.59785 1.46447 8.53553C2.40215 9.47322 3.67392 10 5 10C6.32608 10 7.59785 9.47322 8.53553 8.53553C9.47322 7.59785 10 6.32608 10 5C10 3.67392 9.47322 2.40215 8.53553 1.46447C7.59785 0.526784 6.32608 0 5 0ZM2 5C2 4.20435 2.31607 3.44129 2.87868 2.87868C3.44129 2.31607 4.20435 2 5 2C5.79565 2 6.55871 2.31607 7.12132 2.87868C7.68393 3.44129 8 4.20435 8 5C8 5.79565 7.68393 6.55871 7.12132 7.12132C6.55871 7.68393 5.79565 8 5 8C4.20435 8 3.44129 7.68393 2.87868 7.12132C2.31607 6.55871 2 5.79565 2 5ZM17 0C15.6739 0 14.4021 0.526784 13.4645 1.46447C12.5268 2.40215 12 3.67392 12 5C12 6.32608 12.5268 7.59785 13.4645 8.53553C14.4021 9.47322 15.6739 10 17 10C18.3261 10 19.5979 9.47322 20.5355 8.53553C21.4732 7.59785 22 6.32608 22 5C22 3.67392 21.4732 2.40215 20.5355 1.46447C19.5979 0.526784 18.3261 0 17 0ZM14 5C14 4.20435 14.3161 3.44129 14.8787 2.87868C15.4413 2.31607 16.2044 2 17 2C17.7956 2 18.5587 2.31607 19.1213 2.87868C19.6839 3.44129 20 4.20435 20 5C20 5.79565 19.6839 6.55871 19.1213 7.12132C18.5587 7.68393 17.7956 8 17 8C16.2044 8 15.4413 7.68393 14.8787 7.12132C14.3161 6.55871 14 5.79565 14 5ZM0 17C0 15.6739 0.526784 14.4021 1.46447 13.4645C2.40215 12.5268 3.67392 12 5 12C6.32608 12 7.59785 12.5268 8.53553 13.4645C9.47322 14.4021 10 15.6739 10 17C10 18.3261 9.47322 19.5979 8.53553 20.5355C7.59785 21.4732 6.32608 22 5 22C3.67392 22 2.40215 21.4732 1.46447 20.5355C0.526784 19.5979 0 18.3261 0 17ZM5 14C4.20435 14 3.44129 14.3161 2.87868 14.8787C2.31607 15.4413 2 16.2044 2 17C2 17.7956 2.31607 18.5587 2.87868 19.1213C3.44129 19.6839 4.20435 20 5 20C5.79565 20 6.55871 19.6839 7.12132 19.1213C7.68393 18.5587 8 17.7956 8 17C8 16.2044 7.68393 15.4413 7.12132 14.8787C6.55871 14.3161 5.79565 14 5 14ZM17 12C15.6739 12 14.4021 12.5268 13.4645 13.4645C12.5268 14.4021 12 15.6739 12 17C12 18.3261 12.5268 19.5979 13.4645 20.5355C14.4021 21.4732 15.6739 22 17 22C18.3261 22 19.5979 21.4732 20.5355 20.5355C21.4732 19.5979 22 18.3261 22 17C22 15.6739 21.4732 14.4021 20.5355 13.4645C19.5979 12.5268 18.3261 12 17 12ZM14 17C14 16.2044 14.3161 15.4413 14.8787 14.8787C15.4413 14.3161 16.2044 14 17 14C17.7956 14 18.5587 14.3161 19.1213 14.8787C19.6839 15.4413 20 16.2044 20 17C20 17.7956 19.6839 18.5587 19.1213 19.1213C18.5587 19.6839 17.7956 20 17 20C16.2044 20 15.4413 19.6839 14.8787 19.1213C14.3161 18.5587 14 17.7956 14 17Z" fill="#242527"/>
</svg>
