<svg width="22" height="22" viewBox="0 0 22 22" fill="none" xmlns="http://www.w3.org/2000/svg">
    <path d="M0 18.5263V15.2842C0 14.6281 0.169053 14.0252 0.507158 13.4756C0.845263 12.926 1.29375 12.506 1.85263 12.2158C3.04912 11.6175 4.26491 11.1691 5.5 10.8703C6.73509 10.5716 7.98947 10.4218 9.26316 10.4211C9.64912 10.4211 10.0351 10.4357 10.4211 10.4651C10.807 10.4944 11.193 10.5376 11.5789 10.5947C11.5018 11.714 11.7044 12.7708 12.1868 13.7651C12.6693 14.7593 13.3737 15.5745 14.3 16.2105V18.5263H0ZM18.5263 22L16.7895 20.2632V14.8789C15.9404 14.6281 15.2456 14.1506 14.7053 13.4466C14.1649 12.7426 13.8947 11.9271 13.8947 11C13.8947 9.8807 14.2903 8.92544 15.0816 8.13421C15.8728 7.34298 16.8281 6.94737 17.9474 6.94737C19.0667 6.94737 20.0219 7.34298 20.8132 8.13421C21.6044 8.92544 22 9.8807 22 11C22 11.8684 21.7538 12.6404 21.2613 13.3158C20.7688 13.9912 20.1466 14.4737 19.3947 14.7632L20.8421 16.2105L19.1053 17.9474L20.8421 19.6842L18.5263 22ZM9.26316 9.26316C7.98947 9.26316 6.89912 8.80965 5.99211 7.90263C5.08509 6.99561 4.63158 5.90526 4.63158 4.63158C4.63158 3.35789 5.08509 2.26754 5.99211 1.36053C6.89912 0.453509 7.98947 0 9.26316 0C10.5368 0 11.6272 0.453509 12.5342 1.36053C13.4412 2.26754 13.8947 3.35789 13.8947 4.63158C13.8947 5.90526 13.4412 6.99561 12.5342 7.90263C11.6272 8.80965 10.5368 9.26316 9.26316 9.26316ZM17.9474 11.5789C18.2754 11.5789 18.5506 11.4678 18.7729 11.2455C18.9953 11.0232 19.106 10.7484 19.1053 10.4211C19.1045 10.0938 18.9933 9.81895 18.7718 9.59663C18.5502 9.37432 18.2754 9.26316 17.9474 9.26316C17.6193 9.26316 17.3445 9.37432 17.1229 9.59663C16.9014 9.81895 16.7902 10.0938 16.7895 10.4211C16.7887 10.7484 16.8999 11.0235 17.1229 11.2466C17.346 11.4697 17.6208 11.5805 17.9474 11.5789Z"  fill="#242527"/>
</svg>
