<svg width="22" height="22" viewBox="0 0 22 22" fill="none" xmlns="http://www.w3.org/2000/svg">
    <path d="M18.7664 14.2044C17.9951 14.204 17.2492 14.4787 16.6646 14.9783L13.9031 12.8451C14.1247 12.4028 14.2398 11.9155 14.2394 11.4215C14.239 11.2927 14.2311 11.164 14.2157 11.0362L15.964 10.4582C16.3553 11.1333 16.9806 11.6442 17.7231 11.8956C18.4657 12.1469 19.275 12.1216 20.0001 11.8244C20.7253 11.5271 21.3169 10.9782 21.6648 10.2799C22.0126 9.58162 22.093 8.78156 21.8908 8.02881C21.6887 7.27605 21.2178 6.62195 20.566 6.18836C19.9143 5.75478 19.126 5.57129 18.348 5.67209C17.5701 5.77288 16.8556 6.15109 16.3377 6.73623C15.8197 7.32138 15.5337 8.07356 15.5328 8.85262C15.5332 8.98141 15.5411 9.11007 15.5565 9.23795L13.8082 9.81594C13.4662 9.22416 12.9426 8.75639 12.314 8.48085C11.6854 8.20532 10.9846 8.13644 10.3138 8.28426L9.4364 6.32549C10.0887 5.86355 10.5451 5.1776 10.7171 4.40055C10.8891 3.62351 10.7645 2.81072 10.3675 2.1197C9.97043 1.42868 9.32918 0.908638 8.56802 0.66036C7.80685 0.412082 6.97997 0.453248 6.24763 0.77588C5.51529 1.09851 4.92964 1.67964 4.60417 2.40663C4.2787 3.13362 4.2366 3.95471 4.48602 4.71077C4.73545 5.46683 5.25863 6.10402 5.95418 6.49885C6.64973 6.89369 7.46812 7.01804 8.25075 6.84783L9.12813 8.80659C8.47256 9.26959 8.01491 9.95918 7.84501 10.74C7.6751 11.5209 7.80521 12.3366 8.20979 13.027L5.1853 15.7029C4.54214 15.2248 3.74311 15.0008 2.94311 15.0744C2.14311 15.148 1.39913 15.514 0.855375 16.1013C0.311624 16.6887 0.00684298 17.4556 0.000113841 18.2534C-0.0066153 19.0512 0.285187 19.8231 0.818954 20.4194C1.35272 21.0157 2.09043 21.3939 2.88908 21.4808C3.68772 21.5677 4.49042 21.3571 5.14155 20.8897C5.79268 20.4223 6.24588 19.7315 6.41328 18.9512C6.58068 18.1709 6.45036 17.3566 6.04759 16.6663L9.06561 13.9904C9.6531 14.4288 10.3738 14.6548 11.1083 14.6309C11.8429 14.6069 12.5471 14.3345 13.1044 13.8587L15.8659 15.9919C15.5543 16.6176 15.4564 17.3269 15.5871 18.0127C15.7179 18.6985 16.07 19.3233 16.5903 19.7926C17.1106 20.2618 17.7707 20.5499 18.4706 20.6133C19.1705 20.6767 19.8722 20.5119 20.4694 20.1439C21.0666 19.7759 21.5268 19.2247 21.7803 18.5737C22.0338 17.9227 22.0668 17.2075 21.8743 16.5362C21.6818 15.8649 21.2744 15.2742 20.7136 14.8535C20.1528 14.4327 19.4692 14.2049 18.7664 14.2044ZM18.7664 6.92596C19.1501 6.92596 19.5252 7.03896 19.8443 7.25066C20.1634 7.46237 20.412 7.76327 20.5589 8.11532C20.7057 8.46737 20.7441 8.85476 20.6693 9.22849C20.5944 9.60222 20.4096 9.94552 20.1383 10.215C19.867 10.4844 19.5213 10.6679 19.1449 10.7423C18.7686 10.8166 18.3785 10.7784 18.0239 10.6326C17.6694 10.4868 17.3664 10.2398 17.1532 9.92301C16.94 9.60617 16.8262 9.23367 16.8262 8.85262C16.8262 8.34164 17.0307 7.85159 17.3945 7.49027C17.7584 7.12895 18.2518 6.92596 18.7664 6.92596ZM5.61644 3.71487C5.61644 3.33382 5.73023 2.96132 5.94342 2.64448C6.15661 2.32765 6.45962 2.0807 6.81414 1.93488C7.16865 1.78905 7.55875 1.7509 7.93511 1.82524C8.31146 1.89958 8.65716 2.08308 8.9285 2.35252C9.19984 2.62197 9.38462 2.96527 9.45948 3.339C9.53434 3.71274 9.49592 4.10012 9.34907 4.45217C9.20223 4.80422 8.95355 5.10513 8.6345 5.31683C8.31544 5.52853 7.94033 5.64153 7.5566 5.64153C7.04204 5.64153 6.54855 5.43854 6.1847 5.07722C5.82085 4.71591 5.61644 4.22585 5.61644 3.71487ZM3.24514 20.1985C2.86141 20.1985 2.4863 20.0855 2.16725 19.8738C1.84819 19.6621 1.59951 19.3612 1.45267 19.0091C1.30582 18.6571 1.2674 18.2697 1.34226 17.8959C1.41712 17.5222 1.60191 17.1789 1.87324 16.9095C2.14458 16.64 2.49028 16.4565 2.86663 16.3822C3.24299 16.3078 3.63309 16.346 3.98761 16.4918C4.34212 16.6376 4.64514 16.8846 4.85832 17.2014C5.07151 17.5183 5.1853 17.8908 5.1853 18.2718C5.1853 18.7828 4.98089 19.2728 4.61704 19.6342C4.25319 19.9955 3.7597 20.1985 3.24514 20.1985ZM11.0058 13.3481C10.622 13.3481 10.2469 13.2351 9.92788 13.0234C9.60882 12.8117 9.36014 12.5108 9.2133 12.1588C9.06645 11.8067 9.02803 11.4194 9.10289 11.0456C9.17775 10.6719 9.36254 10.3286 9.63387 10.0591C9.90521 9.78969 10.2509 9.6062 10.6273 9.53186C11.0036 9.45752 11.3937 9.49567 11.7482 9.64149C12.1028 9.78732 12.4058 10.0343 12.619 10.3511C12.8321 10.6679 12.9459 11.0404 12.9459 11.4215C12.9459 11.9325 12.7415 12.4225 12.3777 12.7838C12.0138 13.1452 11.5203 13.3481 11.0058 13.3481ZM18.7664 19.3422C18.3827 19.3422 18.0076 19.2292 17.6885 19.0175C17.3695 18.8058 17.1208 18.5049 16.9739 18.1528C16.8271 17.8008 16.7887 17.4134 16.8635 17.0397C16.9384 16.6659 17.1232 16.3226 17.3945 16.0532C17.6658 15.7837 18.0115 15.6002 18.3879 15.5259C18.7642 15.4515 19.1544 15.4897 19.5089 15.6355C19.8634 15.7814 20.1664 16.0283 20.3796 16.3451C20.5928 16.662 20.7066 17.0345 20.7066 17.4155C20.7066 17.9265 20.5021 18.4166 20.1383 18.7779C19.7745 19.1392 19.281 19.3422 18.7664 19.3422Z" fill="#242527"/>
</svg>
