<svg width="81" height="80" viewBox="0 0 81 80" fill="none" xmlns="http://www.w3.org/2000/svg">
    <path d="M40.5 8C34.171 8 27.9841 9.87677 22.7218 13.393C17.4594 16.9092 13.3579 21.9069 10.9359 27.7541C8.51386 33.6014 7.88016 40.0355 9.11489 46.2429C10.3496 52.4503 13.3973 58.1521 17.8726 62.6274C22.3479 67.1027 28.0497 70.1504 34.2571 71.3851C40.4645 72.6199 46.8986 71.9862 52.7459 69.5641C58.5931 67.1421 63.5908 63.0406 67.107 57.7782C70.6232 52.5159 72.5 46.329 72.5 40C72.5 31.5131 69.1286 23.3737 63.1274 17.3726C57.1263 11.3714 48.9869 8 40.5 8ZM61.4 29.26L35.12 55.52L19.6 40C19.0696 39.4696 18.7716 38.7501 18.7716 38C18.7716 37.2499 19.0696 36.5304 19.6 36C20.1304 35.4696 20.8499 35.1716 21.6 35.1716C22.3502 35.1716 23.0696 35.4696 23.6 36L35.16 47.56L57.44 25.3C57.7027 25.0374 58.0145 24.829 58.3576 24.6869C58.7008 24.5447 59.0686 24.4716 59.44 24.4716C59.8114 24.4716 60.1792 24.5447 60.5224 24.6869C60.8656 24.829 61.1774 25.0374 61.44 25.3C61.7027 25.5626 61.911 25.8744 62.0531 26.2176C62.1953 26.5608 62.2684 26.9286 62.2684 27.3C62.2684 27.6714 62.1953 28.0392 62.0531 28.3824C61.911 28.7256 61.7027 29.0374 61.44 29.3L61.4 29.26Z" fill="#36B07D"/>
    <circle cx="40.5" cy="40" r="38.5" stroke="#36B07D" stroke-width="3"/>
</svg>
