<svg width="400" height="92" viewBox="0 0 400 92" fill="none" xmlns="http://www.w3.org/2000/svg">
	<path d="M83.7159 3.60938C83.219 1.49479 81.3456 0 79.1823 0H4.65778C2.08565 0 0 2.09896 0 4.6875V70.3125C0 71.9375 0.838401 73.4479 2.20986 74.3021C2.96028 74.7656 3.80903 75 4.65778 75C5.37198 75 6.08099 74.8385 6.74343 74.5052L62.6368 46.3802C64.5672 45.4063 65.5816 43.224 65.0847 41.1094C64.5879 38.9948 62.7145 37.5 60.5512 37.5H24.3861L81.2628 8.88021C83.1932 7.90625 84.2075 5.72396 83.7107 3.60938H83.7159Z" fill="white"/>
	<path d="M102.471 0H133.549V6.61458H110.276V20.4635H133.549V27.0781H110.276V46.849H102.471V0Z" fill="white"/>
	<path d="M137.177 13.3646H144.158V19.151C145.664 15.224 148.744 13.0885 153.469 12.8802V20.3229C147.512 20.1146 144.707 23.1458 144.707 29.625V46.849H137.177V13.3646Z" fill="white"/>
	<path d="M154.395 30.1094C154.395 20.1198 161.651 12.8854 171.577 12.8854C182.461 12.8854 188.211 20.7396 188.211 30.4531H161.309C161.444 36.8594 165.693 41.3385 172.126 41.3385C176.235 41.3385 179.521 39.2031 180.888 35.8281H187.734C185.68 42.5781 180.479 47.3333 171.717 47.3333C161.516 47.3333 154.395 40.3073 154.395 30.1094ZM181.022 25.6302C179.79 21.2917 176.364 18.6042 171.779 18.6042C167.194 18.6042 163.566 21.3594 162.06 25.6302H181.022Z" fill="white"/>
	<path d="M206.086 47.3281C196.983 47.3281 190.545 40.2344 190.545 30.1042C190.545 19.974 197.05 12.8802 206.086 12.8802C211.701 12.8802 215.945 15.5 218.476 19.9063V13.3594H225.457V59.2448H217.927V41.0573C215.464 44.9844 211.355 47.3281 206.086 47.3281ZM207.794 40.9219C213.684 40.9219 217.927 36.375 217.927 30.0365C217.927 23.6979 213.684 19.2865 207.794 19.2865C201.905 19.2865 197.868 23.6979 197.868 30.0365C197.868 36.375 201.837 40.9219 207.794 40.9219Z" fill="white"/>
	<path d="M231.005 34.1042V13.3646H238.535V33.6875C238.535 38.1667 240.932 40.7813 244.973 40.7813C249.015 40.7813 251.406 38.1615 251.406 33.6875V13.3646H258.869V34.099C258.869 42.0885 253.394 47.3281 244.973 47.3281C236.553 47.3281 231.005 42.0938 231.005 34.099V34.1042Z" fill="white"/>
	<path d="M262.595 30.1094C262.595 20.1198 269.851 12.8854 279.777 12.8854C290.661 12.8854 296.411 20.7396 296.411 30.4531H269.51C269.644 36.8594 273.893 41.3385 280.326 41.3385C284.435 41.3385 287.722 39.2031 289.088 35.8281H295.935C293.88 42.5781 288.679 47.3333 279.917 47.3333C269.717 47.3333 262.595 40.3073 262.595 30.1094ZM289.222 25.6302C287.991 21.2917 284.565 18.6042 279.979 18.6042C275.394 18.6042 271.766 21.3594 270.26 25.6302H289.222Z" fill="white"/>
	<path d="M300.386 13.3646H307.367V18.3229C309.422 14.8073 312.775 12.8802 317.086 12.8802C323.793 12.8802 328.177 17.9115 328.177 25.6927V46.8438H320.647V27.0729C320.647 22.25 318.799 19.2188 314.83 19.2188C310.446 19.2188 307.916 22.5938 307.916 27.4167V46.8438H300.386V13.3646Z" fill="white"/>
	<path d="M331.867 30.1094C331.867 19.9844 339.19 12.8854 349.53 12.8854C358.841 12.8854 365.072 18.4635 366.236 26.8698H358.913C358.09 22.3906 354.53 19.4323 349.536 19.4323C343.444 19.4323 339.128 23.8437 339.128 30.0417C339.128 36.2396 343.439 40.7917 349.536 40.7917C354.669 40.7917 358.096 37.9688 358.913 33.2812H366.236C365.212 41.8906 358.773 47.3333 349.53 47.3333C339.195 47.3333 331.867 40.2396 331.867 30.1094Z" fill="white"/>
	<path d="M378.165 36.9271L365.02 13.3646H373.031L382.202 30.0365L392.128 13.3646H400L372.824 59.25H364.953L378.165 36.9271Z" fill="white"/>
	<path d="M241.842 77.848C241.842 75.16 242.37 72.808 243.426 70.792C244.514 68.744 246.002 67.176 247.89 66.088C249.81 64.968 251.97 64.408 254.37 64.408C256.866 64.408 259.01 64.984 260.802 66.136C262.626 67.288 263.938 68.76 264.738 70.552V64.792H268.098V91H264.738V85.192C263.906 86.984 262.578 88.472 260.754 89.656C258.962 90.808 256.818 91.384 254.322 91.384C251.954 91.384 249.81 90.824 247.89 89.704C246.002 88.584 244.514 87 243.426 84.952C242.37 82.904 241.842 80.536 241.842 77.848ZM264.738 77.896C264.738 75.784 264.306 73.928 263.442 72.328C262.578 70.728 261.394 69.496 259.89 68.632C258.418 67.768 256.786 67.336 254.994 67.336C253.138 67.336 251.474 67.752 250.002 68.584C248.53 69.416 247.362 70.632 246.498 72.232C245.666 73.8 245.25 75.672 245.25 77.848C245.25 79.992 245.666 81.88 246.498 83.512C247.362 85.112 248.53 86.344 250.002 87.208C251.474 88.04 253.138 88.456 254.994 88.456C256.786 88.456 258.418 88.024 259.89 87.16C261.394 86.296 262.578 85.064 263.442 83.464C264.306 81.864 264.738 80.008 264.738 77.896ZM272.312 77.896C272.312 75.176 272.856 72.808 273.944 70.792C275.032 68.744 276.536 67.176 278.456 66.088C280.376 64.968 282.568 64.408 285.032 64.408C288.264 64.408 290.92 65.208 293 66.808C295.112 68.408 296.472 70.584 297.08 73.336H293.48C293.032 71.448 292.056 69.976 290.552 68.92C289.08 67.832 287.24 67.288 285.032 67.288C283.272 67.288 281.688 67.688 280.28 68.488C278.872 69.288 277.752 70.488 276.92 72.088C276.12 73.656 275.72 75.592 275.72 77.896C275.72 80.2 276.12 82.152 276.92 83.752C277.752 85.352 278.872 86.552 280.28 87.352C281.688 88.152 283.272 88.552 285.032 88.552C287.24 88.552 289.08 88.024 290.552 86.968C292.056 85.88 293.032 84.376 293.48 82.456H297.08C296.472 85.144 295.112 87.304 293 88.936C290.888 90.568 288.232 91.384 285.032 91.384C282.568 91.384 280.376 90.84 278.456 89.752C276.536 88.632 275.032 87.064 273.944 85.048C272.856 83 272.312 80.616 272.312 77.896ZM299.83 77.896C299.83 75.176 300.374 72.808 301.462 70.792C302.55 68.744 304.054 67.176 305.974 66.088C307.894 64.968 310.086 64.408 312.55 64.408C315.782 64.408 318.438 65.208 320.518 66.808C322.63 68.408 323.99 70.584 324.598 73.336H320.998C320.55 71.448 319.574 69.976 318.07 68.92C316.598 67.832 314.758 67.288 312.55 67.288C310.79 67.288 309.206 67.688 307.798 68.488C306.39 69.288 305.27 70.488 304.438 72.088C303.638 73.656 303.238 75.592 303.238 77.896C303.238 80.2 303.638 82.152 304.438 83.752C305.27 85.352 306.39 86.552 307.798 87.352C309.206 88.152 310.79 88.552 312.55 88.552C314.758 88.552 316.598 88.024 318.07 86.968C319.574 85.88 320.55 84.376 320.998 82.456H324.598C323.99 85.144 322.63 87.304 320.518 88.936C318.406 90.568 315.75 91.384 312.55 91.384C310.086 91.384 307.894 90.84 305.974 89.752C304.054 88.632 302.55 87.064 301.462 85.048C300.374 83 299.83 80.616 299.83 77.896ZM352.595 76.552C352.595 77.704 352.563 78.584 352.499 79.192H330.755C330.851 81.176 331.331 82.872 332.195 84.28C333.059 85.688 334.195 86.76 335.603 87.496C337.011 88.2 338.547 88.552 340.211 88.552C342.387 88.552 344.211 88.024 345.683 86.968C347.187 85.912 348.179 84.488 348.659 82.696H352.211C351.571 85.256 350.195 87.352 348.083 88.984C346.003 90.584 343.379 91.384 340.211 91.384C337.747 91.384 335.539 90.84 333.587 89.752C331.635 88.632 330.099 87.064 328.979 85.048C327.891 83 327.347 80.616 327.347 77.896C327.347 75.176 327.891 72.792 328.979 70.744C330.067 68.696 331.587 67.128 333.539 66.04C335.491 64.952 337.715 64.408 340.211 64.408C342.707 64.408 344.883 64.952 346.739 66.04C348.627 67.128 350.067 68.6 351.059 70.456C352.083 72.28 352.595 74.312 352.595 76.552ZM349.187 76.456C349.219 74.504 348.819 72.84 347.987 71.464C347.187 70.088 346.083 69.048 344.675 68.344C343.267 67.64 341.731 67.288 340.067 67.288C337.571 67.288 335.443 68.088 333.683 69.688C331.923 71.288 330.947 73.544 330.755 76.456H349.187ZM365.847 91.384C362.839 91.384 360.375 90.696 358.455 89.32C356.567 87.912 355.511 86.008 355.287 83.608H358.743C358.903 85.08 359.591 86.28 360.807 87.208C362.055 88.104 363.719 88.552 365.799 88.552C367.623 88.552 369.047 88.12 370.071 87.256C371.127 86.392 371.655 85.32 371.655 84.04C371.655 83.144 371.367 82.408 370.791 81.832C370.215 81.256 369.479 80.808 368.583 80.488C367.719 80.136 366.535 79.768 365.031 79.384C363.079 78.872 361.495 78.36 360.279 77.848C359.063 77.336 358.023 76.584 357.159 75.592C356.327 74.568 355.911 73.208 355.911 71.512C355.911 70.232 356.295 69.048 357.063 67.96C357.831 66.872 358.919 66.008 360.327 65.368C361.735 64.728 363.335 64.408 365.127 64.408C367.943 64.408 370.215 65.128 371.943 66.568C373.671 67.976 374.599 69.928 374.727 72.424H371.367C371.271 70.888 370.663 69.656 369.543 68.728C368.455 67.768 366.951 67.288 365.031 67.288C363.335 67.288 361.959 67.688 360.903 68.488C359.847 69.288 359.319 70.28 359.319 71.464C359.319 72.488 359.623 73.336 360.231 74.008C360.871 74.648 361.655 75.16 362.583 75.544C363.511 75.896 364.759 76.296 366.327 76.744C368.215 77.256 369.719 77.752 370.839 78.232C371.959 78.712 372.919 79.416 373.719 80.344C374.519 81.272 374.935 82.504 374.967 84.04C374.967 85.448 374.583 86.712 373.815 87.832C373.047 88.92 371.975 89.784 370.599 90.424C369.223 91.064 367.639 91.384 365.847 91.384ZM388.395 91.384C385.387 91.384 382.923 90.696 381.003 89.32C379.115 87.912 378.059 86.008 377.835 83.608H381.291C381.451 85.08 382.139 86.28 383.355 87.208C384.603 88.104 386.267 88.552 388.347 88.552C390.171 88.552 391.595 88.12 392.619 87.256C393.675 86.392 394.203 85.32 394.203 84.04C394.203 83.144 393.915 82.408 393.339 81.832C392.763 81.256 392.027 80.808 391.131 80.488C390.267 80.136 389.083 79.768 387.579 79.384C385.627 78.872 384.043 78.36 382.827 77.848C381.611 77.336 380.571 76.584 379.707 75.592C378.875 74.568 378.459 73.208 378.459 71.512C378.459 70.232 378.843 69.048 379.611 67.96C380.379 66.872 381.467 66.008 382.875 65.368C384.283 64.728 385.883 64.408 387.675 64.408C390.491 64.408 392.763 65.128 394.491 66.568C396.219 67.976 397.147 69.928 397.275 72.424H393.915C393.819 70.888 393.211 69.656 392.091 68.728C391.003 67.768 389.499 67.288 387.579 67.288C385.883 67.288 384.507 67.688 383.451 68.488C382.395 69.288 381.867 70.28 381.867 71.464C381.867 72.488 382.171 73.336 382.779 74.008C383.419 74.648 384.203 75.16 385.131 75.544C386.059 75.896 387.307 76.296 388.875 76.744C390.763 77.256 392.267 77.752 393.387 78.232C394.507 78.712 395.467 79.416 396.267 80.344C397.067 81.272 397.483 82.504 397.515 84.04C397.515 85.448 397.131 86.712 396.363 87.832C395.595 88.92 394.523 89.784 393.147 90.424C391.771 91.064 390.187 91.384 388.395 91.384Z" fill="white"/>
</svg>
