<?xml version="1.0" encoding="utf-8"?>
<svg viewBox="0 169.853 400 325.448" xmlns="http://www.w3.org/2000/svg">
  <defs>
    <style>
      .cls-1, .cls-2, .cls-3, .cls-4, .cls-5, .cls-6 {
      fill: none;
      stroke-miterlimit: 10;
      transform: scale(-1, 1);
      transform-origin: center;
      }

      .cls-1, .cls-2, .cls-4, .cls-5, .cls-6 {
      stroke-width: 4px;
      }

      .cls-1 {
      stroke: #311E48;
      }

      .cls-2 {
      stroke: #FFCD80;
      }

      .cls-3 {
      stroke: #790E70;
      stroke-width: 6px;
      }

      .cls-4 {
      stroke: #AA40A1;
      }

      .cls-5 {
      stroke: #FF5B2F;
      }

      .cls-6 {
      stroke: #FF9A02;
      }
    </style>
  </defs>
  <path class="cls-1" d="M 400 324.69 C 396.66 324.69 393.53 324.341 390.7 323.658 C 388.19 323.051 385.87 322.186 383.59 321.002 C 379.38 318.816 375.97 315.857 372.66 313.004 C 366.11 307.328 359.34 301.469 346.32 301.469 C 333.3 301.469 326.53 307.328 319.98 313.004 C 316.68 315.857 313.26 318.816 309.05 321.002 C 306.77 322.186 304.44 323.051 301.94 323.658 C 299.1 324.341 295.97 324.69 292.64 324.69 C 288.5 324.69 284.63 323.582 281.11 321.381 C 278 319.439 275.12 316.661 272.3 312.882 C 267.09 305.901 262.86 296.446 258.76 287.309 C 250.64 269.188 242.25 250.444 226.14 250.444 C 210.02 250.444 201.63 269.188 193.52 287.309 C 189.43 296.446 185.2 305.901 179.98 312.882 C 177.16 316.661 174.28 319.454 171.17 321.381 C 167.78 323.506 164.04 324.614 160.07 324.69 C 160.02 324.69 159.96 324.69 159.91 324.69 C 159.82 324.69 159.73 324.69 159.65 324.69 C 154.83 324.553 150.31 322.338 146.2 318.073 C 142.46 314.188 138.99 308.618 135.6 301.059 C 129.33 287.097 124.23 268.201 119.31 249.928 C 109.54 213.685 99.44 176.213 80.04 176.213 C 60.64 176.213 50.54 213.685 40.77 249.928 C 35.84 268.201 30.75 287.097 24.48 301.059 C 21.08 308.618 17.61 314.188 13.88 318.073 C 9.64 322.459 4.98 324.69 0 324.69"/>
  <path class="cls-2" d="M -0.259 324.538 C -0.259 324.538 1.391 324.548 2.205 324.567 C 3.019 324.586 3.826 324.615 4.61 324.653 C 6.179 324.729 7.7 324.845 9.131 324.996 C 11.671 325.264 14.055 325.652 16.368 326.176 C 20.65 327.151 24.13 328.464 27.439 329.71 C 33.989 332.188 40.568 334.676 53.395 334.676 C 66.213 334.676 72.8 332.188 79.349 329.71 C 82.649 328.465 86.141 327.151 90.422 326.176 C 92.736 325.652 95.129 325.264 97.659 324.996 C 100.53 324.695 103.718 324.538 107.075 324.538 C 111.283 324.538 115.298 325.046 118.894 326.023 C 122.07 326.892 125.077 328.158 127.958 329.839 C 133.263 332.958 137.588 337.159 141.687 341.146 C 149.807 349.059 157.832 356.953 173.575 356.953 C 189.328 356.953 197.352 349.06 205.462 341.147 C 209.552 337.159 213.877 332.958 219.193 329.839 C 222.072 328.158 225.08 326.887 228.258 326.022 C 231.722 325.079 235.6 324.576 239.636 324.538 C 239.686 324.538 239.755 324.538 239.805 324.538 C 239.895 324.538 239.985 324.538 240.065 324.538 C 244.994 324.609 249.744 325.625 253.963 327.523 C 257.784 329.266 261.397 331.794 264.847 335.145 C 271.188 341.327 276.358 349.664 281.278 357.644 C 286.163 365.554 291.072 373.506 297.165 379.497 C 303.243 385.473 310.236 389.362 319.675 389.362 C 329.114 389.362 336.107 385.473 342.185 379.497 C 348.278 373.506 353.187 365.554 358.072 357.643 C 363.002 349.665 368.162 341.327 374.503 335.145 C 377.963 331.794 381.574 329.267 385.386 327.524 C 389.727 325.573 394.623 324.55 399.705 324.538"/>
  <path class="cls-4" d="M 400 325.25 C 396.66 325.25 393.53 325.038 390.7 324.601 C 388.19 324.22 385.87 323.684 383.59 322.936 C 379.38 321.567 375.97 319.718 372.66 317.94 C 366.11 314.398 359.34 310.743 346.32 310.743 C 333.31 310.743 326.53 314.412 319.98 317.94 C 316.68 319.732 313.26 321.567 309.05 322.936 C 306.77 323.669 304.44 324.22 301.94 324.601 C 299.1 325.024 295.97 325.25 292.64 325.25 C 288.5 325.25 284.63 324.559 281.11 323.176 C 278 321.962 275.12 320.226 272.3 317.855 C 267.09 313.495 262.86 307.596 258.76 301.881 C 250.64 290.563 242.25 278.851 226.14 278.851 C 210.03 278.851 201.63 290.563 193.52 301.881 C 189.43 307.582 185.2 313.495 179.98 317.855 C 177.16 320.212 174.28 321.962 171.17 323.176 C 167.78 324.502 164.04 325.194 160.07 325.236 C 160.02 325.236 159.96 325.236 159.91 325.236 C 159.82 325.236 159.73 325.236 159.65 325.236 C 154.83 325.151 150.31 323.768 146.2 321.101 C 142.46 318.674 138.99 315.202 135.6 310.475 C 129.33 301.754 124.23 289.942 119.31 278.526 C 109.54 255.891 99.44 232.48 80.04 232.48 C 60.64 232.48 50.54 255.891 40.77 278.526 C 35.84 289.942 30.75 301.754 24.48 310.475 C 21.08 315.202 17.61 318.674 13.88 321.101 C 9.65 323.839 4.98 325.236 0.01 325.236"/>
  <path class="cls-5" d="M 0 324.69 C 3.34 324.69 6.47 325.039 9.3 325.759 C 11.81 326.387 14.13 327.27 16.41 328.502 C 20.62 330.757 24.03 333.802 27.34 336.73 C 33.89 342.565 40.66 348.585 53.68 348.585 C 66.69 348.585 73.47 342.542 80.02 336.73 C 83.32 333.778 86.74 330.757 90.95 328.502 C 93.23 327.293 95.56 326.387 98.06 325.759 C 100.9 325.062 104.03 324.69 107.36 324.69 C 111.5 324.69 115.37 325.829 118.89 328.107 C 122 330.106 124.88 332.965 127.7 336.87 C 132.91 344.052 137.14 353.768 141.24 363.182 C 149.36 381.824 157.75 401.117 173.86 401.117 C 189.97 401.117 198.37 381.824 206.48 363.182 C 210.57 353.792 214.8 344.052 220.02 336.87 C 222.84 332.988 225.72 330.106 228.83 328.107 C 232.22 325.922 235.96 324.783 239.93 324.713 C 239.98 324.713 240.04 324.713 240.09 324.713 C 240.18 324.713 240.27 324.713 240.35 324.713 C 245.17 324.853 249.69 327.131 253.8 331.524 C 257.54 335.522 261.01 341.24 264.4 349.027 C 270.67 363.391 275.77 382.847 280.69 401.651 C 290.46 438.935 300.56 477.497 319.96 477.497 C 339.36 477.497 349.46 438.935 359.23 401.651 C 364.16 382.847 369.25 363.391 375.52 349.027 C 378.92 341.24 382.39 335.522 386.12 331.524 C 390.35 327.014 395.02 324.713 399.99 324.713"/>
  <path class="cls-6" d="M -1.318 325.443 C 2.022 325.443 5.152 325.675 7.982 326.154 C 10.492 326.571 12.812 327.158 15.092 327.977 C 19.302 329.477 22.712 331.501 26.022 333.448 C 32.572 337.327 39.342 341.329 52.362 341.329 C 65.372 341.329 72.152 337.312 78.702 333.448 C 82.002 331.485 85.422 329.477 89.632 327.977 C 91.912 327.174 94.242 326.571 96.742 326.154 C 99.582 325.69 102.712 325.443 106.042 325.443 C 110.182 325.443 114.052 326.2 117.572 327.715 C 120.682 329.044 123.562 330.944 126.382 333.541 C 131.592 338.316 135.822 344.775 139.922 351.034 C 148.042 363.428 156.432 376.254 172.542 376.254 C 188.652 376.254 197.052 363.428 205.162 351.034 C 209.252 344.791 213.482 338.316 218.702 333.541 C 221.522 330.96 224.402 329.044 227.512 327.715 C 230.902 326.262 234.642 325.505 238.612 325.458 C 238.662 325.458 238.722 325.458 238.772 325.458 C 238.862 325.458 238.952 325.458 239.032 325.458 C 243.852 325.551 248.372 327.066 252.482 329.986 C 256.222 332.644 259.692 336.446 263.082 341.623 C 269.352 351.173 274.452 364.108 279.372 376.609 C 289.142 401.397 299.242 427.034 318.642 427.034 C 338.042 427.034 348.142 401.397 357.912 376.609 C 362.842 364.108 367.932 351.173 374.202 341.623 C 377.602 336.446 381.072 332.644 384.802 329.986 C 389.032 326.988 393.702 325.458 398.672 325.458"/>
  <path class="cls-3" d="M 400 325.25 C 396.66 325.25 393.53 325.146 390.7 324.952 C 388.19 324.785 385.87 324.526 383.59 324.189 C 379.38 323.568 375.97 322.713 372.66 321.898 C 366.11 320.28 359.34 318.598 346.32 318.598 C 333.3 318.598 326.53 320.28 319.98 321.898 C 316.68 322.713 313.26 323.568 309.05 324.189 C 306.77 324.526 304.44 324.771 301.94 324.952 C 299.1 325.146 295.97 325.25 292.64 325.25 C 288.5 325.25 284.63 324.926 281.11 324.306 C 278 323.749 275.12 322.946 272.3 321.872 C 267.09 319.866 262.86 317.161 258.76 314.547 C 250.64 309.357 242.25 303.986 226.14 303.986 C 210.02 303.986 201.63 309.357 193.52 314.547 C 189.43 317.161 185.2 319.866 179.98 321.872 C 177.16 322.96 174.28 323.749 171.17 324.306 C 167.78 324.914 164.04 325.224 160.07 325.25 C 160.02 325.25 159.96 325.25 159.91 325.25 C 159.82 325.25 159.73 325.25 159.65 325.25 C 154.83 325.211 150.31 324.577 146.2 323.347 C 142.46 322.234 138.99 320.643 135.6 318.469 C 129.33 314.469 124.23 309.059 119.31 303.818 C 109.54 293.438 99.44 282.696 80.04 282.696 C 60.64 282.696 50.54 293.438 40.77 303.818 C 35.84 309.047 30.75 314.469 24.48 318.469 C 21.08 320.629 17.61 322.234 13.88 323.347 C 9.65 324.603 4.98 325.25 0.01 325.25"/>

</svg>