<svg width="777" height="520" viewBox="0 0 777 520" fill="none" xmlns="http://www.w3.org/2000/svg">
<g clip-path="url(#clip0_72_3095)">
<rect width="777" height="520" fill="#790E70"/>
<rect x="796" y="-13.9999" width="277" height="1775" transform="rotate(90 796 -13.9999)" fill="url(#paint0_linear_72_3095)"/>
<path d="M995.401 253.717L922.297 114.2C919.789 109.362 914.08 106.867 908.584 108.089C903.088 109.311 899.192 113.996 899.192 119.393V209.672L824.808 67.7108C822.3 62.8735 816.59 60.3785 811.094 61.6006C805.598 62.8226 801.703 67.5072 801.703 72.9045V209.672L751.704 114.2C749.196 109.362 743.486 106.867 737.99 108.089C732.494 109.311 728.599 113.996 728.599 119.393V209.672L654.214 67.7108C651.706 62.8735 645.997 60.3785 640.501 61.6006C635.005 62.8226 631.109 67.5072 631.109 72.9045V209.672L581.11 114.2C578.603 109.362 572.893 106.867 567.397 108.089C561.901 109.311 558.005 113.996 558.005 119.393V209.672L483.621 67.7108C481.113 62.8735 475.403 60.3785 469.907 61.6006C464.411 62.8226 460.516 67.5072 460.516 72.9045V209.672L410.517 114.2C408.009 109.362 402.3 106.867 396.804 108.089C391.307 109.311 387.412 113.996 387.412 119.393V209.672L313.028 67.7108C310.52 62.8735 304.81 60.3785 299.314 61.6006C293.818 62.8226 289.922 67.5072 289.922 72.9045V209.672L239.924 114.2C237.416 109.362 231.706 106.867 226.21 108.089C220.714 109.311 216.819 113.996 216.819 119.393V209.672L142.434 67.7108C139.926 62.8735 134.217 60.3785 128.721 61.6006C123.224 62.8226 119.329 67.5072 119.329 72.9045V209.672L69.3304 114.2C66.8224 109.362 61.1129 106.867 55.6167 108.089C50.1206 109.311 46.2253 113.996 46.2253 119.393V209.672L-28.1592 67.7108C-30.6671 62.8735 -36.3767 60.3785 -41.8728 61.6006C-47.369 62.8226 -51.2643 67.5072 -51.2643 72.9045V209.672L-101.263 114.2C-103.771 109.362 -109.481 106.867 -114.977 108.089C-120.473 109.311 -124.368 113.996 -124.368 119.393V209.672L-198.753 67.7108C-201.261 62.8735 -206.97 60.3785 -212.466 61.6006C-217.802 62.8226 -221.698 67.5072 -221.698 72.9045V258.911C-221.698 265.326 -216.255 270.52 -209.531 270.52H984.462C988.678 270.52 992.626 268.432 994.814 265.021C997.055 261.609 997.215 257.332 995.348 253.717" fill="url(#paint1_linear_72_3095)"/>
<path d="M-220.472 266.121L-147.369 405.638C-144.861 410.475 -139.151 412.97 -133.655 411.748C-128.159 410.526 -124.264 405.841 -124.264 400.444L-124.264 310.165L-49.879 452.127C-47.3711 456.964 -41.6616 459.459 -36.1654 458.237C-30.6693 457.015 -26.774 452.33 -26.774 446.933L-26.774 310.165L23.2248 405.638C25.7327 410.475 31.4423 412.97 36.9384 411.748C42.4345 410.526 46.3298 405.841 46.3298 400.444L46.3298 310.165L120.714 452.127C123.222 456.964 128.932 459.459 134.428 458.237C139.924 457.015 143.819 452.33 143.819 446.933L143.819 310.165L193.818 405.638C196.326 410.475 202.036 412.97 207.532 411.748C213.028 410.526 216.923 405.841 216.923 400.444L216.923 310.165L291.308 452.127C293.816 456.964 299.525 459.459 305.021 458.237C310.517 457.015 314.413 452.33 314.413 446.933L314.413 310.165L364.412 405.638C366.919 410.475 372.629 412.97 378.125 411.748C383.621 410.526 387.517 405.842 387.517 400.444L387.517 310.165L461.901 452.127C464.409 456.964 470.119 459.459 475.615 458.237C481.111 457.015 485.006 452.33 485.006 446.933L485.006 310.165L535.005 405.638C537.513 410.475 543.222 412.97 548.719 411.748C554.215 410.526 558.11 405.842 558.11 400.444L558.11 310.165L632.494 452.127C635.002 456.964 640.712 459.459 646.208 458.237C651.704 457.015 655.6 452.33 655.6 446.933L655.6 310.165L705.598 405.638C708.106 410.475 713.816 412.97 719.312 411.748C724.808 410.526 728.703 405.842 728.703 400.444L728.703 310.165L803.088 452.127C805.596 456.964 811.305 459.459 816.801 458.237C822.298 457.015 826.193 452.33 826.193 446.933L826.193 310.165L876.192 405.638C878.7 410.475 884.409 412.97 889.905 411.748C895.401 410.526 899.297 405.842 899.297 400.444L899.297 310.165L973.681 452.127C976.189 456.964 981.899 459.459 987.395 458.237C992.731 457.015 996.626 452.33 996.626 446.933L996.626 260.927C996.626 254.511 991.183 249.317 984.46 249.317L-209.534 249.317C-213.749 249.317 -217.698 251.405 -219.885 254.817C-222.127 258.228 -222.287 262.505 -220.419 266.121" fill="url(#paint2_linear_72_3095)"/>
</g>
<defs>
<linearGradient id="paint0_linear_72_3095" x1="934.5" y1="-13.9999" x2="934.5" y2="1761" gradientUnits="userSpaceOnUse">
<stop stop-color="#311E48"/>
<stop offset="0.5" stop-color="#790E70"/>
<stop offset="1" stop-color="#AA40A1"/>
</linearGradient>
<linearGradient id="paint1_linear_72_3095" x1="996.633" y1="165.906" x2="-221.698" y2="165.906" gradientUnits="userSpaceOnUse">
<stop stop-color="#AA40A1"/>
<stop offset="0.5" stop-color="#7C1173"/>
<stop offset="1" stop-color="#321E48"/>
</linearGradient>
<linearGradient id="paint2_linear_72_3095" x1="-221.704" y1="353.931" x2="996.626" y2="353.931" gradientUnits="userSpaceOnUse">
<stop stop-color="#311D48"/>
<stop offset="0.5" stop-color="#7B1072"/>
<stop offset="1" stop-color="#A93FA0"/>
</linearGradient>
<clipPath id="clip0_72_3095">
<rect width="777" height="520" fill="white"/>
</clipPath>
</defs>
</svg>
