<svg width="409" height="257" viewBox="0 0 409 257" fill="none" xmlns="http://www.w3.org/2000/svg">
    <path d="M208.168 0.143532C210.732 -0.426032 213.376 0.737809 214.555 2.95506L269.119 105.646V36.083C269.119 33.6039 270.931 31.4494 273.495 30.8799C276.059 30.3105 278.703 31.475 279.881 33.6924L318.111 105.648V42.7646C318.111 40.2855 319.922 38.1311 322.486 37.5615C325.05 36.9919 327.694 38.1566 328.872 40.374L363.556 105.648V64.1474C363.556 61.6685 365.367 59.5149 367.931 58.9453C370.495 58.3757 373.138 59.5397 374.316 61.7568L408.4 125.902C408.713 126.489 408.913 127.137 408.977 127.822C408.98 127.854 408.982 127.887 408.984 127.919C408.989 127.987 408.993 128.056 408.995 128.125C408.996 128.162 408.998 128.199 408.998 128.236C408.998 128.255 409 128.273 409 128.292V213.819C409 216.298 407.188 218.452 404.624 219.021C402.06 219.591 399.416 218.427 398.238 216.21L363.556 150.936V192.437C363.556 194.917 361.744 197.07 359.18 197.64C356.616 198.209 353.972 197.045 352.794 194.828L344.38 178.996V229.855C344.38 232.335 342.569 234.489 340.005 235.059C337.441 235.628 334.797 234.463 333.619 232.246L290.415 150.935V204.465C290.415 206.944 288.604 209.097 286.04 209.667C283.476 210.237 280.831 209.073 279.653 206.855L249.944 150.937V177.167C249.944 179.646 248.132 181.801 245.568 182.37C243.004 182.939 240.361 181.775 239.183 179.558L223.978 150.937V164.944C223.977 167.423 222.166 169.577 219.603 170.146C217.039 170.716 214.395 169.552 213.217 167.335L205.207 152.266V251.237C205.207 253.716 203.395 255.871 200.831 256.44C198.267 257.01 195.623 255.845 194.445 253.628L139.881 150.936V220.501C139.881 222.98 138.069 225.135 135.505 225.704C132.941 226.274 130.297 225.109 129.119 222.892L90.8887 150.937V213.819C90.8887 216.298 89.0775 218.452 86.5137 219.021C83.9496 219.591 81.3051 218.427 80.127 216.21L45.4443 150.936V192.437C45.4443 194.916 43.6331 197.07 41.0693 197.64C38.5053 198.209 35.8608 197.045 34.6826 194.828L0.599609 130.683C0.597354 130.678 0.595016 130.674 0.592773 130.67C0.331284 130.176 0.148572 129.638 0.0605469 129.071C0.0577492 129.053 0.055338 129.035 0.0527344 129.018C0.0408383 128.935 0.0312928 128.852 0.0234375 128.769C0.0199454 128.732 0.0173298 128.695 0.0146484 128.658C0.00993497 128.593 0.00609243 128.527 0.00390625 128.461C0.00262983 128.423 0.00138767 128.385 0.000976562 128.347C0.000781143 128.328 1.43001e-06 128.31 0 128.292V42.7646C0 40.2856 1.81113 38.1312 4.375 37.5615C6.93904 36.9919 9.58353 38.1566 10.7617 40.374L45.4443 105.646V64.1455C45.4445 61.6667 47.2556 59.5131 49.8193 58.9433C52.3833 58.3737 55.0277 59.5376 56.2061 61.7549L64.6191 77.5869V26.7275C64.6192 24.2484 66.4311 22.0949 68.9951 21.5254C71.5591 20.9559 74.2027 22.1196 75.3809 24.3369L118.585 105.647V52.1191C118.585 49.6401 120.396 47.4866 122.96 46.917C125.524 46.3475 128.167 47.5113 129.346 49.7285L159.056 105.645V79.417C159.056 76.9381 160.867 74.7845 163.431 74.2148C165.995 73.6453 168.639 74.8098 169.817 77.0273L185.021 105.645V91.6396C185.021 89.1608 186.833 87.0073 189.396 86.4375C191.96 85.8678 194.605 87.0311 195.783 89.248L203.793 104.318V5.34568C203.793 2.86685 205.604 0.713203 208.168 0.143532Z"
          fill="url(#paint0_linear_1582_96)"/>
    <defs>
        <linearGradient id="paint0_linear_1582_96" x1="409" y1="128" x2="12.5" y2="124" gradientUnits="userSpaceOnUse">
            <stop stop-color="#AA40A1"/>
            <stop offset="0.5" stop-color="#790E70"/>
            <stop offset="1" stop-color="#311E48"/>
        </linearGradient>
    </defs>
</svg>
