<svg width="45" height="45" viewBox="0 0 45 45" fill="none" xmlns="http://www.w3.org/2000/svg">
<g clip-path="url(#clip0_1662_69)">
<path d="M24.1693 3.98732C24.0038 4.07683 23.8176 4.12782 23.6299 4.12975C18.9013 4.24831 11.9829 7.64313 9.65169 10.9835C9.27664 11.5225 8.53474 11.6625 7.99586 11.2943C7.45698 10.9261 7.32265 10.1896 7.69769 9.65054C10.428 5.74573 18.1599 1.94807 23.5734 1.77015C24.2298 1.75111 24.7774 2.25158 24.7908 2.9041C24.8084 3.35517 24.5585 3.77672 24.1595 3.99259L24.1693 3.98732Z" fill="url(#paint0_linear_1662_69)"/>
<path d="M36.5526 17.342C36.1634 17.5526 35.6985 17.5303 35.3312 17.2933C30.9281 14.4099 25.0539 14.0154 19.6439 16.2456C14.0041 18.5626 9.89864 23.2738 8.92117 28.5581C8.79108 29.2011 8.16587 29.6266 7.52027 29.5028C6.88961 29.3835 6.46788 28.79 6.5785 28.1575C7.69686 22.0873 12.3608 16.6881 18.7526 14.0637C24.9005 11.5464 31.5916 12.0093 36.6538 15.3204C37.1972 15.6737 37.3465 16.4146 36.9864 16.958C36.8724 17.1193 36.7278 17.2473 36.5526 17.342Z" fill="url(#paint1_linear_1662_69)"/>
<path d="M21.7361 7.39522C14.7749 8.92092 8.24097 13.5145 5.75683 18.6181C5.74779 18.6479 5.72381 18.6733 5.71477 18.7031C5.45022 19.3069 5.72668 20.0038 6.32639 20.252C6.93131 20.5098 7.63467 20.2288 7.8895 19.6303C10.1685 14.9613 16.5485 10.6876 23.0752 9.52143C23.0752 9.52143 24.1177 9.35573 23.899 8.25407C23.7785 7.65946 23.2821 7.0442 21.7263 7.40048L21.7361 7.39522Z" fill="url(#paint2_linear_1662_69)"/>
<path d="M31.9376 7.62679C31.8674 7.59007 30.4654 7.09133 29.0588 6.95608C28.0671 6.82043 27.0976 6.77234 26.1705 6.82581C25.2928 6.87748 24.9392 7.47957 24.9968 8.12067C25.0596 8.7714 25.6311 9.24644 26.2861 9.17835C27.6274 9.09994 29.0847 9.28243 30.5775 9.66985C30.7568 9.72222 30.9413 9.78423 31.116 9.8515C31.7255 10.0944 32.4139 9.80905 32.6784 9.20529C32.9281 8.59718 32.7711 7.93516 31.9525 7.63116L31.9376 7.62679Z" fill="url(#paint3_linear_1662_69)"/>
<path d="M38.9575 35.9217C39.1016 36.3043 39.236 36.6922 39.336 37.0863C40.0828 40.2799 38.0838 43.4903 34.8652 44.2608C31.6589 44.9375 28.4606 43.0952 27.4841 39.9885C26.344 36.5097 26.5829 37.2767 26.1844 35.401C26.0355 34.4981 26.7559 33.9464 27.4092 33.9913C28.5281 34.083 28.4208 35.1868 29.7488 39.1988C30.3131 41.1716 32.3078 42.3705 34.3368 41.9822C36.2599 41.5143 37.465 39.5801 37.0112 37.6719C37.0112 37.6719 37.0008 37.6527 36.9956 37.643L36.6844 36.7657C36.0718 35.0058 38.3327 34.2555 38.9425 35.9174L38.9575 35.9217Z" fill="url(#paint4_linear_1662_69)"/>
<path d="M37.3549 33.9131C37.2868 33.95 37.2089 33.9921 37.1304 34.0097C36.5035 34.1995 35.8464 33.8454 35.6662 33.2333C35.644 33.1458 34.0133 27.8535 30.0655 25.8814C28.207 24.9574 26.0818 24.9122 23.7392 25.744C21.5141 26.5372 19.9713 28.0566 19.1289 30.2428C17.6246 34.1814 18.8165 39.1509 19.5453 40.4746C19.8527 41.0427 19.6455 41.7524 19.0766 42.0727C19.0766 42.0727 19.0766 42.0727 19.0669 42.0779C18.5025 42.3833 17.7905 42.1834 17.4734 41.6205C16.4327 39.7437 15.1415 34.056 16.9128 29.4252C18.0125 26.552 20.046 24.5678 22.946 23.534C25.9193 22.473 28.6776 22.5491 31.1327 23.7852C35.9974 26.2197 37.8326 32.2852 37.909 32.5427C38.0625 33.0821 37.8167 33.6508 37.3399 33.9087L37.3549 33.9131Z" fill="url(#paint5_linear_1662_69)"/>
<path d="M22.2879 34.895C22.1009 34.9215 21.9101 34.9874 21.7551 35.0961C20.7966 35.7891 21.4683 37.8905 21.6061 38.401C22.0422 40.2067 22.8219 42.4614 24.44 44.4988C24.7166 44.8472 25.1707 45.0123 25.603 44.9277C25.7945 44.8864 25.98 44.8109 26.1298 44.6925C26.6518 44.2855 26.7343 43.5313 26.3296 43.0158C24.7785 41.079 24.134 38.8882 23.7896 37.1823C23.7254 36.8311 23.6602 36.2688 23.6161 35.9317C23.5384 35.2766 22.9377 34.8173 22.2834 34.9099L22.2879 34.895Z" fill="url(#paint6_linear_1662_69)"/>
<path d="M24.7549 28.1324C23.2272 28.6104 21.4743 29.8577 20.8592 32.0454C20.7378 32.4721 20.8645 32.9388 21.1793 33.2415C21.3165 33.3789 21.492 33.4707 21.6713 33.5231C22.3085 33.7011 22.9747 33.3282 23.1497 32.6983C23.2032 32.495 23.2352 32.2287 23.5338 31.7808C23.9749 31.1314 24.6175 30.6218 25.4254 30.3714C27.4257 29.8369 29.4909 30.9104 30.1921 32.8341C31.779 36.7434 31.6382 36.832 31.7864 38.0589C31.8641 38.714 32.4551 39.1786 33.1146 39.0956C33.7742 39.0126 34.2465 38.4209 34.1688 37.7658C33.9513 35.8294 33.7777 35.276 32.3981 31.8894C31.2114 28.8591 27.9057 27.2367 24.7399 28.128L24.7549 28.1324Z" fill="url(#paint7_linear_1662_69)"/>
<path d="M38.4597 23.1447C34.6967 18.2592 26.6223 16.0301 20.8675 18.2974C17.8632 19.4872 16.0316 21.1007 15.7717 21.3409C15.7522 21.3515 14.8385 22.0575 15.6421 23.0543C16.0565 23.5645 16.8214 23.5366 17.3232 23.1157C17.5112 22.9517 17.6999 22.8123 17.8886 22.6728C18.5469 22.1922 19.5798 21.3345 21.7145 20.4907C26.5168 18.6019 33.4422 20.5439 36.5844 24.6075C36.9429 25.0609 37.5937 25.1942 38.1042 24.9056L38.2397 24.8073C38.7617 24.4004 38.8547 23.6654 38.4597 23.1447Z" fill="url(#paint8_linear_1662_69)"/>
<path d="M13.7707 24.1291C13.4107 24.3239 13.0565 24.9015 13.0617 24.9111C13.0617 24.9111 9.73348 30.3844 11.1894 37.539C11.1998 37.5582 11.2005 37.5827 11.196 37.5976C11.3523 38.2351 11.995 38.6094 12.6376 38.4485C13.2801 38.2875 13.6374 37.646 13.5059 37.0076C12.3224 31.2866 14.8551 26.5052 14.8551 26.5052C14.9309 26.3895 15.1812 25.8059 15.2556 25.6412C15.744 24.5677 14.3643 23.8079 13.7707 24.1291Z" fill="url(#paint9_linear_1662_69)"/>
</g>
<defs>
<linearGradient id="paint0_linear_1662_69" x1="14.8175" y1="4.18928" x2="16.8508" y2="7.94716" gradientUnits="userSpaceOnUse">
<stop stop-color="#FF5B2F"/>
<stop offset="0.5" stop-color="#FF9A02"/>
<stop offset="1" stop-color="#FFCF2C"/>
</linearGradient>
<linearGradient id="paint1_linear_1662_69" x1="17.6475" y1="14.5194" x2="23.1102" y2="24.6154" gradientUnits="userSpaceOnUse">
<stop stop-color="#FF5B2F"/>
<stop offset="0.5" stop-color="#FF9A02"/>
<stop offset="1" stop-color="#FFCF2C"/>
</linearGradient>
<linearGradient id="paint2_linear_1662_69" x1="13.1672" y1="10.8655" x2="15.7616" y2="15.6604" gradientUnits="userSpaceOnUse">
<stop stop-color="#FF5B2F"/>
<stop offset="0.5" stop-color="#FF9A02"/>
<stop offset="1" stop-color="#FFCF2C"/>
</linearGradient>
<linearGradient id="paint3_linear_1662_69" x1="27.5574" y1="5.90344" x2="30.2227" y2="10.8293" gradientUnits="userSpaceOnUse">
<stop stop-color="#FF5B2F"/>
<stop offset="0.5" stop-color="#FF9A02"/>
<stop offset="1" stop-color="#FFCF2C"/>
</linearGradient>
<linearGradient id="paint4_linear_1662_69" x1="30.1141" y1="32.3258" x2="36.2836" y2="43.7281" gradientUnits="userSpaceOnUse">
<stop stop-color="#FF5B2F"/>
<stop offset="0.5" stop-color="#FF9A02"/>
<stop offset="1" stop-color="#FFCF2C"/>
</linearGradient>
<linearGradient id="paint5_linear_1662_69" x1="21.016" y1="24.4267" x2="28.6867" y2="38.6033" gradientUnits="userSpaceOnUse">
<stop stop-color="#FF5B2F"/>
<stop offset="0.5" stop-color="#FF9A02"/>
<stop offset="1" stop-color="#FFCF2C"/>
</linearGradient>
<linearGradient id="paint6_linear_1662_69" x1="21.3153" y1="35.3264" x2="26.3331" y2="44.6001" gradientUnits="userSpaceOnUse">
<stop stop-color="#FF5B2F"/>
<stop offset="0.5" stop-color="#FF9A02"/>
<stop offset="1" stop-color="#FFCF2C"/>
</linearGradient>
<linearGradient id="paint7_linear_1662_69" x1="24.4163" y1="28.1889" x2="30.991" y2="40.3399" gradientUnits="userSpaceOnUse">
<stop stop-color="#FF5B2F"/>
<stop offset="0.5" stop-color="#FF9A02"/>
<stop offset="1" stop-color="#FFCF2C"/>
</linearGradient>
<linearGradient id="paint8_linear_1662_69" x1="23.5691" y1="16.6825" x2="30.3026" y2="29.1271" gradientUnits="userSpaceOnUse">
<stop stop-color="#FF5B2F"/>
<stop offset="0.5" stop-color="#FF9A02"/>
<stop offset="1" stop-color="#FFCF2C"/>
</linearGradient>
<linearGradient id="paint9_linear_1662_69" x1="10.3806" y1="25.9634" x2="16.135" y2="36.5985" gradientUnits="userSpaceOnUse">
<stop stop-color="#FF5B2F"/>
<stop offset="0.5" stop-color="#FF9A02"/>
<stop offset="1" stop-color="#FFCF2C"/>
</linearGradient>
<clipPath id="clip0_1662_69">
<rect width="33.1579" height="45" fill="white" transform="translate(-2 13.2793) rotate(-28.4168)"/>
</clipPath>
</defs>
</svg>
