<svg width="73" height="73" viewBox="0 0 73 73" fill="none" xmlns="http://www.w3.org/2000/svg">
<path d="M73 73L63.875 73L63.875 72.9189C63.875 37.6457 35.2732 9.04389 -3.95321e-07 9.04388L0 -3.19093e-06L3.48779 -3.03848e-06C42.1575 1.825 72.9594 33.7321 73 72.8378L73 72.9189L73 73ZM54.75 72.8378C54.6993 42.6442 30.2038 18.1689 -7.94187e-07 18.1689L-1.19305e-06 27.2939C25.1951 27.2939 45.625 47.7237 45.625 72.9189L45.625 73L54.75 73L54.75 72.8378ZM36.5 72.8378C36.4493 52.7222 20.1257 36.4189 -1.59192e-06 36.4189L-1.99079e-06 45.5439C15.1171 45.5439 27.375 57.8018 27.375 72.9189L27.375 73L36.5 73L36.5 72.8378ZM18.25 72.8378C18.1993 62.8003 10.0476 54.6689 -2.38965e-06 54.6689L-2.78852e-06 63.7939C5.03903 63.7939 9.125 67.8798 9.125 72.9189L9.125 73L18.25 73L18.25 72.8378Z" fill="#EACF40"/>
</svg>
