<svg width="334" height="114" viewBox="0 0 334 114" fill="none" xmlns="http://www.w3.org/2000/svg">
<path fill-rule="evenodd" clip-rule="evenodd" d="M52.6903 10.216C52.6903 15.8603 47.9147 20.432 42.0273 20.432C36.136 20.432 31.3681 15.8603 31.3681 10.216C31.3681 4.57537 36.136 0 42.0273 0C47.9147 0 52.6903 4.57537 52.6903 10.216Z" fill="#17377F"/>
<path fill-rule="evenodd" clip-rule="evenodd" d="M162.068 10.216C162.068 15.8603 157.3 20.432 151.405 20.432C145.518 20.432 140.75 15.8603 140.75 10.216C140.75 4.57537 145.518 0 151.405 0C157.3 0 162.064 4.57537 162.064 10.216" fill="#EC2B8E"/>
<path fill-rule="evenodd" clip-rule="evenodd" d="M223.324 10.216C223.324 15.8603 218.556 20.432 212.665 20.432C206.778 20.432 202.002 15.8603 202.002 10.216C202.002 4.57537 206.778 0 212.665 0C218.556 0 223.324 4.57537 223.324 10.216Z" fill="#FF8100"/>
<path fill-rule="evenodd" clip-rule="evenodd" d="M284.616 10.216C284.616 15.8603 279.845 20.432 273.961 20.432C268.07 20.432 263.294 15.8603 263.294 10.216C263.294 4.57537 268.07 0 273.957 0C279.845 0 284.612 4.57537 284.612 10.216" fill="#007DA1"/>
<path fill-rule="evenodd" clip-rule="evenodd" d="M-3.05176e-05 38.2044C-3.05176e-05 34.2578 3.26605 31.014 7.49728 31.014H9.0724C12.3385 31.014 14.5159 32.6378 15.9713 34.8385L41.6135 73.3168L67.3792 34.7239C68.9505 32.2938 71.1317 31.014 74.1507 31.014H75.7258C79.9609 31.014 83.227 34.2578 83.227 38.2044V106.114C83.227 110.057 79.9609 113.186 75.7258 113.186C71.734 113.186 68.3444 109.946 68.3444 106.114V57.438L47.6631 87.2241C46.0841 89.5396 44.1499 90.9377 41.3703 90.9377C38.7064 90.9377 36.7761 89.5396 35.1972 87.2241L14.6355 57.671V106.236C14.6355 110.179 11.3733 113.186 7.25406 113.186C3.14637 113.182 -3.05176e-05 110.179 -3.05176e-05 106.228V38.2081V38.2044Z" fill="#17377F"/>
<path d="M139.696 77.7189C138.731 68.6791 133.16 61.6145 123.482 61.6145C114.525 61.6145 108.24 68.2167 106.912 77.7189H139.696ZM125.18 114C106.669 114 92.3923 101.128 92.3923 82.2425V82.0094C92.3923 64.5143 105.337 50.1372 123.605 50.1372C143.928 50.1372 153.969 66.1343 153.969 80.271C153.969 84.2139 150.819 86.9917 147.074 86.9917H107.032C108.603 96.9635 115.984 102.523 125.416 102.523C131.585 102.523 136.423 100.44 140.542 97.1966C141.627 96.3754 142.599 95.9205 144.287 95.9205C147.557 95.9205 150.101 98.3506 150.101 101.594C150.101 103.333 149.251 104.842 148.159 105.885C142.356 110.871 135.098 114 125.18 114Z" fill="#17377F"/>
<path fill-rule="evenodd" clip-rule="evenodd" d="M151.773 40.6348C151.413 39.8247 151.17 38.7854 151.17 37.8533C151.17 33.9141 154.68 30.8996 158.787 30.8996C162.42 30.8996 165.204 33.1041 166.169 36.1149L185.649 91.8663L204.759 36.3479C205.968 32.9894 208.508 30.6703 212.257 30.6703H213.349C217.098 30.6703 219.762 32.9894 220.85 36.3479L239.96 91.8663L259.437 35.9965C260.526 33.1041 263.066 30.8996 266.695 30.8996C270.687 30.8996 274.077 33.9141 274.077 37.7423C274.077 38.667 273.71 39.8247 273.347 40.6348L248.315 107.856C246.983 111.451 244.199 113.767 240.57 113.767H239.119C235.486 113.767 232.826 111.566 231.498 107.856L212.623 54.8898L193.749 107.856C192.417 111.562 189.637 113.763 186.008 113.763H184.557C180.928 113.763 178.268 111.562 176.812 107.852L151.773 40.6348Z" fill="#007DA1"/>
<path d="M318.739 77.7189C317.77 68.6791 312.203 61.6145 302.525 61.6145C293.568 61.6145 287.283 68.2167 285.951 77.7189H318.739ZM304.223 114C285.704 114 271.431 101.128 271.431 82.2425V82.0094C271.435 64.5143 284.376 50.1372 302.644 50.1372C322.97 50.1372 333.012 66.1343 333.012 80.271C333.012 84.2139 329.862 86.9917 326.113 86.9917H286.075C287.646 96.9635 295.027 102.523 304.455 102.523C310.632 102.523 315.469 100.44 319.577 97.1966C320.666 96.3754 321.639 95.9205 323.333 95.9205C326.599 95.9205 329.136 98.3506 329.136 101.594C329.136 103.333 328.29 104.842 327.202 105.885C321.395 110.871 314.141 114 304.219 114H304.223Z" fill="#007DA1"/>
</svg>
