<svg width="182" height="61" viewBox="0 0 182 61" fill="none" xmlns="http://www.w3.org/2000/svg">
    <g clip-path="url(#clip0_1568_118)">
        <path fill-rule="evenodd" clip-rule="evenodd"
              d="M29.2339 5.87685C29.2339 8.84754 26.6506 11.2537 23.466 11.2537C20.2792 11.2537 17.7002 8.84754 17.7002 5.87685C17.7002 2.9081 20.2792 0.5 23.466 0.5C26.6506 0.5 29.2339 2.9081 29.2339 5.87685Z"
              fill="white"/>
        <path fill-rule="evenodd" clip-rule="evenodd"
              d="M88.3996 5.87685C88.3996 8.84754 85.8205 11.2537 82.6316 11.2537C79.447 11.2537 76.8679 8.84754 76.8679 5.87685C76.8679 2.9081 79.447 0.5 82.6316 0.5C85.8205 0.5 88.3975 2.9081 88.3975 5.87685"
              fill="white"/>
        <path fill-rule="evenodd" clip-rule="evenodd"
              d="M121.535 5.87685C121.535 8.84754 118.956 11.2537 115.768 11.2537C112.584 11.2537 110.001 8.84754 110.001 5.87685C110.001 2.9081 112.584 0.5 115.768 0.5C118.956 0.5 121.535 2.9081 121.535 5.87685Z"
              fill="white"/>
        <path fill-rule="evenodd" clip-rule="evenodd"
              d="M154.689 5.87685C154.689 8.84754 152.108 11.2537 148.925 11.2537C145.738 11.2537 143.155 8.84754 143.155 5.87685C143.155 2.9081 145.738 0.5 148.923 0.5C152.108 0.5 154.687 2.9081 154.687 5.87685"
              fill="white"/>
        <path fill-rule="evenodd" clip-rule="evenodd"
              d="M0.732788 20.6076C0.732788 18.5306 2.49949 16.8232 4.78827 16.8232H5.6403C7.407 16.8232 8.5848 17.6779 9.37209 18.8361L23.2425 39.088L37.1799 18.7758C38.0298 17.4968 39.2098 16.8232 40.8428 16.8232H41.6948C43.9857 16.8232 45.7524 18.5306 45.7524 20.6076V56.3495C45.7524 58.4247 43.9857 60.0717 41.6948 60.0717C39.5355 60.0717 37.702 58.3663 37.702 56.3495V30.7306L26.515 46.4076C25.6609 47.6263 24.6146 48.3621 23.111 48.3621C21.6701 48.3621 20.626 47.6263 19.7718 46.4076L8.64955 30.8533V56.4137C8.64955 58.489 6.88492 60.0717 4.65671 60.0717C2.43476 60.0696 0.732788 58.489 0.732788 56.4098V20.6097V20.6076Z"
              fill="white"/>
        <path d="M76.2983 41.4046C75.7762 36.6468 72.7628 32.9287 67.5274 32.9287C62.6826 32.9287 59.2828 36.4035 58.5644 41.4046H76.2983ZM68.4462 60.5C58.4328 60.5 50.7103 53.7254 50.7103 43.7854V43.6629C50.7103 34.4548 57.7124 26.8879 67.5942 26.8879C78.587 26.8879 84.0187 35.3075 84.0187 42.7479C84.0187 44.8231 82.3146 46.2851 80.2889 46.2851H58.6291C59.4791 51.5335 63.4719 54.4593 68.5736 54.4593C71.9107 54.4593 74.5274 53.3634 76.7556 51.656C77.3424 51.2239 77.8687 50.9845 78.7813 50.9845C80.5501 50.9845 81.9262 52.2634 81.9262 53.9708C81.9262 54.8857 81.4668 55.6799 80.8759 56.2289C77.7371 58.853 73.8111 60.5 68.4462 60.5Z"
              fill="white"/>
        <path fill-rule="evenodd" clip-rule="evenodd"
              d="M82.8301 21.8868C82.6359 21.4604 82.5043 20.9135 82.5043 20.4229C82.5043 18.3497 84.4025 16.7631 86.6245 16.7631C88.5896 16.7631 90.0952 17.9233 90.6174 19.5079L101.155 48.8509L111.492 19.6305C112.145 17.8629 113.519 16.6423 115.548 16.6423H116.139C118.166 16.6423 119.607 17.8629 120.196 19.6305L130.533 48.8509L141.069 19.4456C141.658 17.9233 143.032 16.7631 144.995 16.7631C147.154 16.7631 148.988 18.3497 148.988 20.3645C148.988 20.8511 148.789 21.4604 148.593 21.8868L135.052 57.2665C134.332 59.1588 132.826 60.3774 130.863 60.3774H130.078C128.113 60.3774 126.674 59.2191 125.956 57.2665L115.746 29.3894L105.536 57.2665C104.816 59.2172 103.312 60.3755 101.349 60.3755H100.564C98.601 60.3755 97.1621 59.2172 96.3748 57.2646L82.8301 21.8868Z"
              fill="white"/>
        <path d="M173.148 41.4046C172.624 36.6468 169.612 32.9287 164.377 32.9287C159.532 32.9287 156.133 36.4035 155.412 41.4046H173.148ZM165.295 60.5C155.278 60.5 147.557 53.7254 147.557 43.7854V43.6629C147.559 34.4548 154.559 26.8879 164.441 26.8879C175.436 26.8879 180.868 35.3075 180.868 42.7479C180.868 44.8231 179.163 46.2851 177.136 46.2851H155.478C156.329 51.5335 160.321 54.4593 165.42 54.4593C168.762 54.4593 171.378 53.3634 173.601 51.656C174.19 51.2239 174.716 50.9845 175.632 50.9845C177.4 50.9845 178.771 52.2634 178.771 53.9708C178.771 54.8857 178.314 55.6799 177.725 56.2289C174.584 58.853 170.662 60.5 165.295 60.5Z"
              fill="white"/>
    </g>
    <defs>
        <clipPath id="clip0_1568_118">
            <rect width="181" height="60" fill="white" transform="translate(0.732788 0.5)"/>
        </clipPath>
    </defs>
</svg>
