<svg width="203" height="67" viewBox="0 0 203 67" fill="none" xmlns="http://www.w3.org/2000/svg">
    <path fill-rule="evenodd" clip-rule="evenodd"
          d="M67.1959 38.6821C70.0204 41.3336 73.5942 42.717 77.9173 42.717C81.2029 42.717 83.8544 41.8524 85.8719 40.0655C87.8317 38.2786 88.8692 36.2035 88.8692 33.7825C88.8692 30.9004 88.0046 28.6524 86.0448 26.8078C84.1426 24.9057 82.4134 23.8105 79.1278 22.1965C76.7068 20.9284 74.9776 19.8908 73.94 18.9686C72.9601 18.1039 72.4413 16.9511 72.4413 15.5677C72.4413 12.5703 74.8623 10.6681 78.8396 10.6681C81.4335 10.6681 83.7391 11.7057 85.8719 13.8384V9.51529C84.0273 7.90132 81.7217 7.15198 78.8972 7.15198C72.6143 7.15198 68.637 10.6105 68.637 15.5677C68.637 18.0463 69.444 19.9485 71.2309 21.5624C72.1531 22.3118 73.0754 22.9458 73.8824 23.5223C74.747 24.041 75.8998 24.6751 77.4562 25.4821C80.3959 26.9808 82.4134 28.3065 83.4509 29.3441C84.4885 30.3816 85.0649 31.8803 85.0649 33.7825C85.0649 36.5493 82.4134 39.2008 77.6291 39.2008C73.6518 39.2008 70.1357 37.4139 67.1959 33.9554V38.6821ZM182.941 42.0253V28.4795H190.665H190.722L198.446 42.0253H202.827L194.527 27.7301C198.504 26.2314 201.098 22.5423 201.098 17.9886C201.098 15.1065 200.118 12.628 198.101 10.7258C196.083 8.76595 193.662 7.78604 190.838 7.78604H179.136V42.0253H182.941ZM182.941 11.3022H190.665C194.469 11.3022 197.236 14.2419 197.236 17.9886C197.236 20.0061 196.602 21.6201 195.276 22.9458C194.008 24.2716 192.394 24.9633 190.434 24.9633H182.941V11.3022ZM142.591 42.0253C149.566 26.0585 146.396 33.4367 154.005 15.51C160.864 31.5921 159.25 27.903 165.418 42.0253H169.568L154.581 7.78604H153.543L138.557 42.0253H142.591ZM102.185 37.6445C105.701 41.0454 109.909 42.717 114.866 42.717C119.823 42.717 124.088 41.0454 127.547 37.6445C131.005 34.3013 132.735 29.9781 132.735 24.9633C132.735 19.8908 131.005 15.6253 127.547 12.2245C124.088 8.88123 119.823 7.15198 114.866 7.15198C109.909 7.15198 105.701 8.88123 102.185 12.2245C98.7836 15.6253 97.0544 19.8908 97.0544 24.9633C97.0544 29.9781 98.7836 34.3013 102.185 37.6445ZM104.778 14.7607C107.488 12.0515 110.831 10.6681 114.866 10.6681C118.901 10.6681 122.244 12.0515 124.895 14.7607C127.547 17.4699 128.873 20.8707 128.873 24.9633C128.873 28.9982 127.547 32.4567 124.895 35.1659C122.244 37.8751 118.901 39.2008 114.866 39.2008C110.831 39.2008 107.488 37.8751 104.778 35.1659C102.127 32.4567 100.801 28.9982 100.801 24.9633C100.801 20.8707 102.127 17.4699 104.778 14.7607Z"
          fill="white"/>
    <path fill-rule="evenodd" clip-rule="evenodd"
          d="M74.574 52.0548H73.6517V56.8967C73.6517 57.7614 73.4212 58.4531 72.96 58.9142C72.4989 59.3753 71.9225 59.6059 71.1155 59.6059C70.3085 59.6059 69.7321 59.3753 69.271 58.9142C68.8098 58.3954 68.5793 57.7037 68.5793 56.8391V52.0548H67.657V56.8967C67.657 57.4732 67.7723 57.9919 67.8875 58.4531C68.0605 58.8566 68.291 59.2601 68.6369 59.5483C68.9251 59.8365 69.271 60.067 69.7321 60.24C70.1356 60.4129 70.5967 60.4705 71.1155 60.4705C71.6343 60.4705 72.0954 60.4129 72.4989 60.24C72.96 60.067 73.3059 59.8365 73.5941 59.5483C73.9399 59.2601 74.1705 58.8566 74.2858 58.3954C74.4587 57.9343 74.574 57.4155 74.574 56.7815V52.0548ZM84.7766 54.7064C84.7766 54.3029 84.719 53.8994 84.546 53.6112C84.4308 53.2653 84.2002 52.9771 83.912 52.7465C83.6814 52.5736 83.3356 52.343 82.9321 52.2278C82.5862 52.1125 82.1251 52.0548 81.6639 52.0548H78.6089V60.3553H79.5312V57.4155H81.5487C81.9522 57.4155 82.4133 57.3579 82.7591 57.2426C83.1626 57.1273 83.5085 56.9544 83.7967 56.7238C84.1425 56.4933 84.3731 56.205 84.546 55.8592C84.719 55.571 84.7766 55.1675 84.7766 54.7064ZM83.8543 54.764C83.8543 54.9946 83.7967 55.2828 83.6814 55.5133C83.5661 55.7439 83.4508 55.9168 83.2203 56.0898C83.0474 56.205 82.7591 56.378 82.5286 56.4356C82.2404 56.5509 81.8945 56.5509 81.5487 56.5509H79.5312V52.9195H81.6063C82.298 52.9195 82.8168 53.0924 83.2203 53.3806C83.6238 53.6688 83.8543 54.1299 83.8543 54.764ZM88.2928 60.3553H93.884V59.4906H89.215V52.0548H88.2928V60.3553ZM97.5155 52.0548V60.3553H98.4377V52.0548H97.5155ZM108.64 52.0548H102.703V60.3553H103.625V56.7238H108.122V55.8592H103.625V52.9195H108.64V52.0548ZM115.384 52.9195H118.151V52.0548H111.695V52.9195H114.462V60.3553H115.384V52.9195ZM131.005 56.6085V60.3553H131.928V52.0548H131.005V55.7439H126.221V52.0548H125.299V60.3553H126.221V56.6085H131.005ZM142.88 52.0548H141.9V56.8967C141.9 57.7614 141.727 58.4531 141.266 58.9142C140.804 59.3753 140.17 59.6059 139.421 59.6059C138.614 59.6059 138.038 59.3753 137.577 58.9142C137.115 58.3954 136.885 57.7037 136.885 56.8391V52.0548H135.963V56.8967C135.963 57.4732 136.02 57.9919 136.193 58.4531C136.366 58.8566 136.597 59.2601 136.942 59.5483C137.231 59.8365 137.577 60.067 137.98 60.24C138.441 60.4129 138.902 60.4705 139.421 60.4705C139.94 60.4705 140.401 60.4129 140.804 60.24C141.266 60.067 141.611 59.8365 141.9 59.5483C142.188 59.2601 142.418 58.8566 142.591 58.3954C142.764 57.9343 142.88 57.4155 142.88 56.7815V52.0548ZM153.889 53.6112V60.3553H154.811V52.0548H153.889L150.834 56.6085L147.837 52.0548H146.857V60.3553H147.779V53.6688L150.834 58.0496L153.889 53.6112ZM162.881 51.9972H162.017L158.27 60.3553H159.192L160.172 58.1649H164.726L165.648 60.3553H166.686L162.881 51.9972ZM164.322 57.3579H160.576L162.478 53.0924L164.322 57.3579ZM176.197 58.6836L171.009 52.0548H170.144V60.3553H171.009V53.5535L176.369 60.3553H177.119V52.0548H176.197V58.6836ZM181.384 52.0548V60.3553H182.307V52.0548H181.384ZM189.685 52.9195H192.452V52.0548H185.938V52.9195H188.705V60.3553H189.685V52.9195ZM199.541 57.0697L203 52.0548H201.905L199.08 56.205L196.314 52.0548H195.161L198.619 57.0697V60.3553H199.541V57.0697Z"
          fill="#EE785A"/>
    <path d="M32.8989 25.2515C32.8413 24.4445 32.8413 24.041 32.9566 23.9833C33.0719 23.9257 33.7059 24.2715 34.6282 24.848C35.954 25.7702 37.5103 27.3266 38.8937 29.1711C42.0064 33.3213 44.312 38.9702 41.7181 42.4864C40.9688 43.4663 39.7583 44.3309 38.2596 45.0226C37.1644 45.5414 37.0492 47.7318 38.0291 48.4235C38.4902 48.7117 39.009 48.7693 39.5278 48.5388C41.7181 47.5588 43.5627 46.2907 44.7155 44.6768C48.5199 39.6043 45.8684 32.2261 41.9487 26.9231C40.2771 24.7327 38.4326 22.8881 36.7033 21.7353C34.5129 20.2943 32.3802 19.8331 30.8238 20.9283C29.671 21.6777 29.0369 23.1764 29.1522 25.482C29.3251 28.8829 30.0169 32.2838 30.7086 35.627C31.5155 39.5466 32.3225 43.4086 32.092 47.0401C28.9793 47.7894 25.4631 48.3658 22.0623 48.8846C16.9322 49.6916 12.0902 50.4986 8.74702 51.8243C4.71209 53.496 2.69463 55.8593 4.3086 59.7789C5.23087 62.0269 6.55663 63.6986 8.11296 64.8514C10.0151 66.2348 12.2632 66.9265 14.6265 66.9841C16.9322 67.0994 19.3531 66.5807 21.7164 65.6007C25.6937 63.9868 29.4981 61.047 32.2649 57.3003C34.0518 54.8794 35.0893 52.4584 35.5505 49.9798C35.781 48.5964 35.8963 47.2706 35.954 45.9449C35.954 42.3134 35.147 38.6244 34.3976 34.8776C33.7059 31.7073 33.0719 28.4794 32.8989 25.2515ZM14.1653 41.737C14.223 42.6017 14.223 43.0051 14.1077 43.0628C13.9924 43.1204 13.3584 42.7746 12.4361 42.1982C11.1103 41.2759 9.554 39.7196 8.1706 37.875C5.05794 33.6672 2.75227 28.0183 5.34615 24.5598C6.09549 23.5222 7.24833 22.7152 8.80466 22.0235C9.89985 21.4471 10.0151 19.3144 9.03523 18.6227C8.57409 18.2768 8.05532 18.2192 7.53654 18.4497C5.34615 19.4873 3.50161 20.6978 2.34877 22.3117C-1.45559 27.4419 1.19594 34.82 5.11558 40.0654C6.7872 42.2558 8.63173 44.1003 10.361 45.3108C12.5514 46.7519 14.6841 47.213 16.2405 46.1178C17.3933 45.3108 18.0274 43.8698 17.9121 41.5641C17.7391 38.1056 17.0474 34.7624 16.3557 31.4191C15.5488 27.4995 14.7418 23.6375 14.9723 20.0061C18.085 19.2567 21.6011 18.6803 25.002 18.1615C30.1321 17.3545 34.974 16.5475 38.3173 15.2218C42.3522 13.5502 44.3697 11.1292 42.7557 7.20957C41.8334 5.01918 40.5077 3.34756 38.9513 2.13709C37.0492 0.753682 34.8011 0.0619795 32.3802 0.00433766C30.1321 -0.0533042 27.7112 0.465472 25.3479 1.44538C21.3706 3.00171 17.5662 5.94145 14.7994 9.74581C13.0125 12.1091 11.975 14.5301 11.5138 17.0087C11.2833 18.3921 11.168 19.7755 11.1103 21.0436C11.1103 24.675 11.9173 28.4218 12.6667 32.1685C13.3584 35.3388 13.9924 38.5667 14.1653 41.737ZM24.4256 14.4148C21.5435 14.8759 18.5461 15.3947 15.664 15.9711C16.1252 14.5877 16.8169 13.262 17.7968 11.9362C20.1601 8.7659 23.388 6.22966 26.7313 4.90389C28.6334 4.09691 30.5356 3.69341 32.2649 3.75106C33.9365 3.8087 35.4352 4.26983 36.7033 5.1921C37.7409 5.94145 38.6631 7.09428 39.2972 8.65061C39.816 9.97638 38.7784 10.9563 36.8762 11.7056C33.9365 12.9161 29.3251 13.6655 24.4256 14.4148ZM22.6387 52.5737C25.5208 52.1126 28.5182 51.6514 31.3426 51.0174C30.9391 52.4008 30.2474 53.7842 29.2675 55.0523C26.9042 58.2802 23.6763 60.7588 20.333 62.1422C18.4308 62.8916 16.5287 63.2951 14.7418 63.2374C13.1278 63.2374 11.5715 62.7763 10.361 61.854C9.32344 61.047 8.40117 59.9518 7.76711 58.3955C7.24833 57.0698 8.28588 56.0898 10.1881 55.2829C13.1278 54.0724 17.7391 53.3807 22.6387 52.5737Z"
          fill="#EE785A"/>
</svg>
