<svg width="158" height="83" viewBox="0 0 158 83" fill="none" xmlns="http://www.w3.org/2000/svg">
    <path d="M33.2129 29.4098C26.5164 29.4465 24.7203 32.6972 24.7975 37.2734V56.5442C24.7713 57.0291 25.0163 57.0763 25.2829 57.0822H30.199C30.461 57.0523 30.6179 56.9007 30.6331 56.5858V48.2326C30.6364 47.805 30.8421 47.6388 31.1822 47.6397H33.0207C33.2634 47.6373 33.4163 47.7864 33.5442 48.0257L38.5245 56.5309C38.7258 56.8655 39.021 57.0055 39.3541 57.0683H44.3981C44.7078 57.0489 44.8793 56.9182 44.8065 56.6136L39.0608 46.468C38.9617 46.2361 39.0504 46.1474 39.1374 46.082C41.4616 44.7033 42.9467 42.6903 42.9172 38.3071C42.9505 33.3034 41.6569 29.4688 33.8766 29.4165C33.6502 29.411 33.4289 29.4084 33.2129 29.4098ZM33.8123 34.7097C35.8537 34.7385 37.1947 35.6 37.1581 38.5555C37.1296 41.7966 35.4566 42.2614 33.5827 42.3875H31.18C30.945 42.3771 30.7323 42.3225 30.7225 41.864V37.4525C30.6951 35.0236 32.202 34.793 33.8123 34.7097Z"
          fill="white"/>
    <path d="M145.416 29.3713C138.719 29.4079 136.923 32.6586 137.001 37.2348V56.5056C136.975 56.9905 137.219 57.0377 137.486 57.0436H142.402C142.664 57.0137 142.821 56.8621 142.836 56.5472V48.194C142.84 47.7664 143.045 47.6002 143.385 47.6011H145.224C145.467 47.5988 145.619 47.7478 145.747 47.9871L150.728 56.4924C150.929 56.8269 151.224 56.9669 151.557 57.0297H156.601C156.911 57.0103 157.082 56.8796 157.01 56.575L151.264 46.4294C151.165 46.1975 151.253 46.1087 151.34 46.0434C153.665 44.6647 155.15 42.6517 155.12 38.2685C155.154 33.2648 153.86 29.4302 146.08 29.3779C145.853 29.3721 145.632 29.3699 145.416 29.3713ZM146.015 34.6711C148.057 34.6999 149.398 35.5614 149.361 38.517C149.333 41.758 147.66 42.2228 145.786 42.3489H143.383C143.148 42.3385 142.935 42.2839 142.926 41.8254V37.4139C142.898 34.985 144.405 34.7544 146.015 34.6711Z"
          fill="white"/>
    <path d="M79.9153 0.936646L74.8394 9.74523C47.3756 16.1202 46.6867 42.0754 50.7315 51.5682L53.9052 46.0591V30.4695C53.933 30.058 54.1276 29.8056 54.5644 29.7838H59.2358C59.5942 29.8048 59.8627 29.948 59.8621 30.4598V35.7187L72.1327 14.4185L73.1316 15.0409L80.8666 1.53008L79.9153 0.936646Z"
          fill="white"/>
    <path d="M79.6058 14.4872C79.2743 14.4822 78.9413 14.4822 78.6069 14.4879C76.8235 14.5172 74.9993 14.6983 73.1316 15.0409L59.861 38.008V56.499C59.8098 56.819 59.6555 57.0273 59.3398 57.0617H54.4684C54.1047 57.0731 53.9067 56.8826 53.9041 56.4526V48.317L49.1741 56.5032C52.1311 64.9052 56.9778 69.2271 62.1218 72.907L56.937 81.8404L57.908 82.4459L65.7648 68.8784L64.7519 68.2476L72.1898 55.3206C71.0436 54.241 70.377 52.6253 70.2937 50.356V30.5057C70.3496 30.2002 70.346 29.8673 70.8607 29.7741H75.6104C75.9928 29.8161 76.2338 30.011 76.2422 30.4568V48.2766L93.6234 18.0671C89.2322 15.8271 84.5788 14.5637 79.6058 14.4872Z"
          fill="white"/>
    <path d="M97.2875 14.0602L76.3969 50.3891C76.6531 51.2524 77.288 51.7322 78.7169 51.7672H85.1369C85.5788 51.797 85.8321 52.0302 85.8408 52.5276V56.3777C85.8036 56.8398 85.5741 57.049 85.2 57.0694H78.3376C76.2449 57.1311 74.4863 56.8195 73.1511 56.0333L65.7647 68.8783C71.4717 71.8603 78.0991 73.2371 86.3062 71.8594L95.092 56.625C92.6968 55.7682 91.2653 53.833 91.1407 50.4349V30.5846C91.1966 30.2791 91.1935 29.9462 91.7083 29.853H96.4573C96.8397 29.8951 97.0813 30.0899 97.0897 30.5357V49.1239C97.0931 50.2774 97.2841 51.0917 98.0383 51.5163L107.707 34.7506L108.673 35.3531L116.441 21.8484L115.47 21.2429L110.159 30.4223C107.668 23.3987 103.319 17.9962 97.2875 14.0602Z"
          fill="white"/>
    <path d="M108.673 35.3533L99.1807 51.824C99.3021 51.8351 99.4294 51.843 99.5645 51.8462H105.984C106.426 51.876 106.68 52.1092 106.688 52.6067V56.4567C106.651 56.9188 106.421 57.128 106.047 57.1484H99.1852C98.1091 57.1804 97.127 57.1071 96.2395 56.9277L84.504 77.2913C97.1258 75.6534 116.598 59.7281 108.673 35.3533Z"
          fill="white"/>
    <path d="M0.650208 30.449V30.5179V34.5155C0.654578 34.5985 0.666046 34.684 0.688593 34.7603C0.710376 34.8337 0.74275 34.903 0.790942 34.9628C0.83752 35.0206 0.897782 35.0683 0.974712 35.1022C1.04882 35.1348 1.13779 35.1546 1.24443 35.1591L6.56486 35.1592C6.60637 35.1602 6.64143 35.1665 6.67248 35.1779C6.70265 35.189 6.72824 35.205 6.74924 35.2265C6.77001 35.2473 6.78753 35.275 6.80098 35.3111C6.8144 35.3471 6.82377 35.3913 6.82748 35.4466L6.82734 35.4421V56.3363C6.82875 56.4452 6.83876 56.5512 6.86336 56.6481C6.88785 56.7443 6.92654 56.8331 6.98553 56.9086C7.04438 56.9839 7.12198 57.0442 7.22164 57.0861C7.32027 57.1276 7.43982 57.151 7.58381 57.154L12.0173 57.1541C12.1233 57.1509 12.2246 57.1367 12.3148 57.1072C12.4051 57.0777 12.4863 57.0325 12.5543 56.9675C12.6224 56.9024 12.6757 56.8188 12.7119 56.7149C12.748 56.6114 12.7669 56.4886 12.7678 56.3444V35.549C12.7702 35.4751 12.7801 35.4137 12.7972 35.3604C12.8143 35.307 12.8384 35.2638 12.8691 35.2296C12.8999 35.1952 12.9385 35.1686 12.9865 35.1503C13.0351 35.1319 13.0938 35.1218 13.1638 35.1215H18.1975C18.3307 35.1248 18.4452 35.109 18.5441 35.075C18.6443 35.0402 18.7269 34.9861 18.7916 34.9134C18.8571 34.8399 18.9025 34.7494 18.9305 34.6454C18.9586 34.5403 18.9692 34.4214 18.9648 34.2911L18.9649 30.5729C18.9695 30.4166 18.9528 30.2911 18.9181 30.1875C18.9003 30.1347 18.878 30.0881 18.8514 30.0472C18.8246 30.0058 18.7934 29.9705 18.7591 29.9406C18.7245 29.9102 18.6867 29.8858 18.6468 29.866C18.6065 29.846 18.5638 29.8305 18.5199 29.8189C18.4305 29.7954 18.3336 29.7864 18.2359 29.7853L1.3041 29.7853C1.21809 29.7892 1.1352 29.7998 1.06156 29.8208C0.983492 29.8429 0.913906 29.8769 0.85482 29.9261C0.823983 29.9518 0.796268 29.9815 0.772125 30.0151C0.746977 30.0498 0.726081 30.0886 0.708946 30.131C0.672427 30.2214 0.653794 30.3294 0.650208 30.449ZM0.757516 30.5179V34.5154C0.76154 34.5921 0.771856 34.6608 0.790968 34.7251C0.809075 34.7867 0.835333 34.8412 0.872053 34.8868C0.90723 34.9305 0.953541 34.9677 1.01548 34.9951C1.07571 35.0218 1.1519 35.0393 1.24881 35.0434L6.56502 35.0434C6.61475 35.0446 6.6635 35.0521 6.7072 35.0684C6.75029 35.0843 6.78952 35.1083 6.82296 35.1424C6.85581 35.176 6.88188 35.2178 6.90059 35.2679C6.91905 35.3171 6.93011 35.3738 6.93448 35.4384L6.93462 35.4429V56.337C6.93594 56.4398 6.94568 56.5339 6.9668 56.6183C6.98793 56.7018 7.02039 56.7745 7.06744 56.8347C7.11399 56.8942 7.17636 56.9436 7.26053 56.979C7.34457 57.0147 7.45108 57.0361 7.58589 57.039L12.0173 57.039C12.1166 57.036 12.2049 57.0227 12.2836 56.9971C12.3619 56.9711 12.4286 56.9336 12.4831 56.8815C12.5373 56.8297 12.5809 56.7622 12.6114 56.6748C12.6419 56.587 12.6596 56.4783 12.6604 56.3444L12.6604 35.5497C12.6631 35.4672 12.6745 35.3898 12.6959 35.3231C12.7174 35.256 12.749 35.1976 12.792 35.1497C12.8352 35.1015 12.8884 35.0655 12.9508 35.0417C13.0132 35.0178 13.0844 35.0062 13.1636 35.0062H18.1975C18.3219 35.0092 18.4265 34.9944 18.5112 34.9653C18.5965 34.9358 18.6632 34.891 18.7143 34.8336C18.766 34.7756 18.8035 34.7023 18.8274 34.6136C18.8515 34.5234 18.8616 34.4173 18.8576 34.2958L18.8575 30.5733C18.8619 30.4275 18.8462 30.3137 18.8172 30.2274C18.8024 30.1836 18.7843 30.1462 18.7635 30.1142C18.7424 30.082 18.7183 30.0544 18.6917 30.0311C18.6645 30.0076 18.6346 29.9879 18.6019 29.9716C18.5687 29.9549 18.5327 29.9419 18.4943 29.9319C18.4157 29.9112 18.3277 29.9026 18.2344 29.9015L1.30403 29.9015C1.22281 29.9051 1.15282 29.9151 1.08897 29.9332C1.0218 29.9524 0.965797 29.9804 0.920356 30.0183C0.896561 30.0382 0.875388 30.0608 0.856875 30.0866C0.837762 30.1133 0.821095 30.1436 0.807279 30.1778C0.77776 30.2511 0.760902 30.3417 0.757548 30.4512L0.757608 30.4838C0.757608 30.4838 0.758269 30.4282 0.757548 30.4512"
          fill="white"/>
    <path d="M131.113 34.0438V30.1254C131.13 29.603 130.872 29.3926 130.432 29.3895H123.493C119.547 29.4984 116.311 30.6536 116.143 36.3344V49.7856C116.475 56.0722 120.498 56.7202 124.956 56.7062H130.59C130.914 56.664 131.087 56.4673 131.122 56.1311V52.1445C131.102 51.7191 130.923 51.4508 130.477 51.4475H124.865C123.252 51.4631 121.855 51.1732 121.922 48.8304V46.0622C121.934 45.8165 122.029 45.6235 122.364 45.5846H128.441C128.682 45.5513 128.937 45.5046 128.969 45.0143V40.8377C128.962 40.5312 128.846 40.3055 128.479 40.3089H122.301C122.113 40.303 121.988 40.2023 121.968 39.9495V37.3092C121.916 35.0654 123.34 34.6881 125.1 34.7359H130.481C130.828 34.7304 131.124 34.6404 131.113 34.0438Z"
          fill="white"/>
</svg>
