<svg width="20" height="21" viewBox="0 0 20 21" fill="none" xmlns="http://www.w3.org/2000/svg">
    <path fill-rule="evenodd" clip-rule="evenodd" d="M0 10.5C0 4.977 4.477 0.5 10 0.5C15.523 0.5 20 4.977 20 10.5C20 16.023 15.523 20.5 10 20.5C4.477 20.5 0 16.023 0 10.5ZM10 11.5C9.73478 11.5 9.48043 11.3946 9.29289 11.2071C9.10536 11.0196 9 10.7652 9 10.5V6.5C9 6.23478 9.10536 5.98043 9.29289 5.79289C9.48043 5.60536 9.73478 5.5 10 5.5C10.2652 5.5 10.5196 5.60536 10.7071 5.79289C10.8946 5.98043 11 6.23478 11 6.5V10.5C11 10.7652 10.8946 11.0196 10.7071 11.2071C10.5196 11.3946 10.2652 11.5 10 11.5ZM8.5 14.5C8.5 14.1022 8.65804 13.7206 8.93934 13.4393C9.22064 13.158 9.60218 13 10 13H10.01C10.4078 13 10.7894 13.158 11.0707 13.4393C11.352 13.7206 11.51 14.1022 11.51 14.5V14.51C11.51 14.9078 11.352 15.2894 11.0707 15.5707C10.7894 15.852 10.4078 16.01 10.01 16.01H10C9.60218 16.01 9.22064 15.852 8.93934 15.5707C8.65804 15.2894 8.5 14.9078 8.5 14.51V14.5Z" fill="#F99A2A"/>
</svg>
