<svg width="248" height="53" viewBox="0 0 248 53" fill="none" xmlns="http://www.w3.org/2000/svg">
    <path d="M184.421 50.4027C181.764 49.0708 179.55 47.0008 178.028 44.4436C176.452 41.681 175.661 38.5454 175.745 35.3718V34.5727C175.668 31.399 176.445 28.2711 177.997 25.5008C179.481 22.9437 181.681 20.8812 184.314 19.5417C187.244 18.0881 190.486 17.3651 193.751 17.4336C196.963 17.3575 200.136 18.1033 202.975 19.6102C205.532 21.003 207.648 23.0959 209.071 25.6302C210.563 28.37 211.316 31.4447 211.248 34.5651V37.4419H185.037C185.083 39.6109 186.095 41.6505 187.8 42.9976C189.603 44.4512 191.871 45.2047 194.193 45.1362C196.757 45.1362 198.645 44.6263 199.855 43.5988C200.996 42.6551 201.933 41.4983 202.61 40.1817L210.091 43.7967C209.254 45.1666 208.265 46.43 207.146 47.5792C205.685 49.0632 203.942 50.2429 202.024 51.0572C199.893 52.0161 197.184 52.4956 193.896 52.4956C190.616 52.5641 187.366 51.8411 184.421 50.3875V50.4027ZM187.8 26.5359C186.354 27.6851 185.395 29.329 185.113 31.1555H201.955C201.811 29.329 200.905 27.6546 199.452 26.5359C197.975 25.3791 196.05 24.7931 193.683 24.7931C191.217 24.7931 189.253 25.3715 187.8 26.5359ZM73.4125 50.4027C70.7564 49.0708 68.5417 47.0008 67.0196 44.4436C65.4442 41.6886 64.6527 38.5454 64.7364 35.3718V34.5727C64.6603 31.399 65.4366 28.2711 66.9892 25.5008C68.4732 22.9437 70.6727 20.8812 73.3059 19.5417C76.236 18.0881 79.4705 17.3651 82.7431 17.4336C85.9547 17.3575 89.1284 18.1033 91.9671 19.6102C94.5243 21.003 96.64 23.0959 98.0632 25.6302C99.5549 28.37 100.308 31.4447 100.24 34.5651V37.4419H74.0289C74.0746 39.6109 75.0868 41.6505 76.7916 42.9976C78.5953 44.4512 80.8633 45.2047 83.1845 45.1362C85.7493 45.1362 87.6367 44.6263 88.8468 43.5988C89.9884 42.6551 90.9245 41.4983 91.6094 40.1817L99.0906 43.7967C98.2535 45.1666 97.2641 46.43 96.1453 47.5792C94.6841 49.0632 92.9413 50.2429 91.0234 51.0572C88.8924 52.0161 86.1831 52.4956 82.8953 52.4956C79.6151 52.5641 76.3654 51.8411 73.4201 50.3875L73.4125 50.4027ZM76.7916 26.5359C75.3456 27.6851 74.3866 29.329 74.105 31.1555H90.9473C90.8027 29.329 89.897 27.6546 88.4434 26.5359C86.967 25.3791 85.0415 24.7931 82.6746 24.7931C80.2088 24.7931 78.2452 25.3715 76.7916 26.5359ZM151.497 51.5747V18.3697H160.5V22.1217H161.81C162.289 20.8432 163.233 19.7853 164.458 19.1764C165.805 18.5295 167.282 18.2023 168.781 18.2403H173.134V25.7368H168.636C166.315 25.7368 164.405 26.3076 162.898 27.4415C161.399 28.5831 160.645 30.3336 160.645 32.6928V51.5747H151.497ZM136.687 51.5747L133.924 41.2624H115.773L113.01 51.5747H103.132L116.488 4.71631H133.186L146.543 51.5747H136.672H136.687ZM118.026 33.0962H131.672L125.499 10.272H124.19L118.018 33.0962H118.026ZM37.8786 51.5747L31.3411 9.93717H30.0321L23.5022 51.5747H6.94919L0.26709 4.71631H9.78033L14.7196 45.4178H16.0286L22.4139 4.71631H38.967L45.3598 45.4178H46.6689L51.6081 4.71631H61.1214L54.4393 51.5747H37.8862H37.8786Z"
          fill="white"/>
    <path fill-rule="evenodd" clip-rule="evenodd"
          d="M233.029 0.5C225.038 0.5 218.09 6.63414 218.09 14.6329C218.09 22.6316 220.533 22.8828 224.658 26.4826C220.525 30.0824 218.09 33.7431 218.09 38.3323C218.09 46.331 225.038 52.4651 233.029 52.4651C241.02 52.4651 247.969 46.331 247.969 38.3323C247.969 30.3335 245.526 30.0824 241.401 26.4826C245.533 22.8828 247.969 19.2221 247.969 14.6329C247.969 6.63414 241.02 0.5 233.029 0.5ZM233.029 8.74988C236.309 8.74988 239.003 11.6495 239.003 14.747C239.003 17.8445 236.987 19.2829 233.029 22.2435C229.072 19.2829 227.055 16.8095 227.055 14.747C227.055 11.6495 229.749 8.74988 233.029 8.74988ZM233.029 44.2152C236.309 44.2152 239.003 41.3156 239.003 38.2181C239.003 35.1206 236.987 33.6822 233.029 30.7217C229.072 33.6822 227.055 36.1556 227.055 38.2181C227.055 41.3156 229.749 44.2152 233.029 44.2152Z"
          fill="white"/>
</svg>
