<svg width="104" height="35" viewBox="0 0 104 35" fill="none" xmlns="http://www.w3.org/2000/svg">
<path fill-rule="evenodd" clip-rule="evenodd" d="M16.3278 3.07387C16.3278 4.77218 14.8479 6.14775 13.0235 6.14775C11.1979 6.14775 9.72046 4.77218 9.72046 3.07387C9.72046 1.37668 11.1979 0 13.0235 0C14.8479 0 16.3278 1.37668 16.3278 3.07387Z" fill="black"/>
<path fill-rule="evenodd" clip-rule="evenodd" d="M50.2228 3.07387C50.2228 4.77218 48.7453 6.14775 46.9186 6.14775C45.0942 6.14775 43.6167 4.77218 43.6167 3.07387C43.6167 1.37668 45.0942 0 46.9186 0C48.7453 0 50.2216 1.37668 50.2216 3.07387" fill="black"/>
<path fill-rule="evenodd" clip-rule="evenodd" d="M69.203 3.07387C69.203 4.77218 67.7255 6.14775 65.8999 6.14775C64.0756 6.14775 62.5957 4.77218 62.5957 3.07387C62.5957 1.37668 64.0756 0 65.8999 0C67.7255 0 69.203 1.37668 69.203 3.07387Z" fill="black"/>
<path fill-rule="evenodd" clip-rule="evenodd" d="M88.1957 3.07387C88.1957 4.77218 86.717 6.14775 84.8938 6.14775C83.0682 6.14775 81.5884 4.77218 81.5884 3.07387C81.5884 1.37668 83.0682 0 84.8926 0C86.717 0 88.1945 1.37668 88.1945 3.07387" fill="black"/>
<path fill-rule="evenodd" clip-rule="evenodd" d="M0 11.4954C0 10.3079 1.01209 9.33191 2.32326 9.33191H2.81136C3.82345 9.33191 4.49818 9.82048 4.94919 10.4827L12.8952 22.0603L20.8795 10.4482C21.3664 9.71698 22.0423 9.33191 22.9778 9.33191H23.4659C24.7783 9.33191 25.7904 10.3079 25.7904 11.4954V31.9285C25.7904 33.1149 24.7783 34.0564 23.4659 34.0564C22.2289 34.0564 21.1785 33.0815 21.1785 31.9285V17.2826L14.7698 26.2449C14.2805 26.9416 13.6812 27.3623 12.8198 27.3623C11.9943 27.3623 11.3962 26.9416 10.9069 26.2449L4.53527 17.3527V31.9653C4.53527 33.1516 3.52437 34.0564 2.24789 34.0564C0.975004 34.0553 0 33.1516 0 31.963V11.4965V11.4954Z" fill="black"/>
<path d="M43.2882 23.3847C42.9891 20.6647 41.2628 18.5391 38.2636 18.5391C35.4882 18.5391 33.5406 20.5256 33.129 23.3847H43.2882ZM38.79 34.3013C33.0536 34.3013 28.6296 30.4283 28.6296 24.7458V24.6757C28.6296 19.4116 32.6409 15.0857 38.3019 15.0857C44.5994 15.0857 47.711 19.8991 47.711 24.1526C47.711 25.339 46.7348 26.1748 45.5744 26.1748H33.1661C33.653 29.1752 35.9404 30.8479 38.863 30.8479C40.7747 30.8479 42.2737 30.2213 43.5502 29.2453C43.8864 28.9983 44.1878 28.8614 44.7106 28.8614C45.7239 28.8614 46.5123 29.5925 46.5123 30.5686C46.5123 31.0916 46.2491 31.5457 45.9105 31.8596C44.1125 33.3598 41.8634 34.3013 38.79 34.3013Z" fill="black"/>
<path fill-rule="evenodd" clip-rule="evenodd" d="M47.0306 12.2267C46.9194 11.983 46.844 11.6703 46.844 11.3898C46.844 10.2045 47.9315 9.29752 49.2043 9.29752C50.3301 9.29752 51.1926 9.96081 51.4917 10.8667L57.5284 27.6417L63.4502 10.9368C63.8246 9.92631 64.6118 9.22852 65.7734 9.22852H66.112C67.2736 9.22852 68.0991 9.92631 68.4365 10.9368L74.3583 27.6417L80.3937 10.8311C80.7311 9.96081 81.5183 9.29752 82.6428 9.29752C83.8798 9.29752 84.9302 10.2045 84.9302 11.3564C84.9302 11.6346 84.8165 11.983 84.7041 12.2267L76.9471 32.4528C76.5344 33.5346 75.6718 34.2313 74.5473 34.2313H74.0975C72.9717 34.2313 72.1475 33.5691 71.7359 32.4528L65.8871 16.5159L60.0383 32.4528C59.6255 33.568 58.7642 34.2302 57.6396 34.2302H57.1898C56.0653 34.2302 55.241 33.568 54.79 32.4517L47.0306 12.2267Z" fill="black"/>
<path d="M98.7733 23.3847C98.473 20.6647 96.7479 18.5391 93.7487 18.5391C90.9733 18.5391 89.0256 20.5256 88.6129 23.3847H98.7733ZM94.2751 34.3013C88.5363 34.3013 84.1135 30.4283 84.1135 24.7458V24.6757C84.1147 19.4116 88.1248 15.0857 93.7858 15.0857C100.084 15.0857 103.196 19.8991 103.196 24.1526C103.196 25.339 102.22 26.1748 101.058 26.1748H88.6512C89.1381 29.1752 91.4255 30.8479 94.3469 30.8479C96.261 30.8479 97.76 30.2213 99.0329 29.2453C99.3703 28.9983 99.6717 28.8614 100.197 28.8614C101.209 28.8614 101.995 29.5925 101.995 30.5686C101.995 31.0916 101.733 31.5457 101.396 31.8596C99.5964 33.3598 97.3485 34.3013 94.2739 34.3013H94.2751Z" fill="black"/>
</svg>
