<?xml version="1.0" encoding="UTF-8"?>
<svg id="Layer_1" data-name="Layer 1" xmlns="http://www.w3.org/2000/svg" viewBox="0 0 239.84 92.19">
  <defs>
    <style>
      .cls-1 {
        fill: #0b9da3;
      }

      .cls-2 {
        fill: #3c4341;
      }
    </style>
  </defs>
  <g>
    <path class="cls-2" d="m215.98,37.51h-1.85v-.95h4.74v.95h-1.85v4.89h-1.04v-4.89Z"/>
    <path class="cls-2" d="m220.36,36.56h1.09l1.78,2.76,1.78-2.76h1.09v5.84h-1.03v-4.19l-1.84,2.75h-.03l-1.83-2.74v4.17h-1.01v-5.84Z"/>
  </g>
  <g>
    <path class="cls-1" d="m140.73,73.56h3.34l5.32,12.6h-3.72l-.89-2.25h-4.84l-.89,2.25h-3.63l5.31-12.6Zm3.04,7.65l-1.39-3.54-1.41,3.54h2.8Z"/>
    <path class="cls-1" d="m150.3,79.94v-.04c0-3.64,2.79-6.5,6.57-6.5,2.55,0,4.2,1.07,5.31,2.59l-2.61,2.02c-.71-.88-1.54-1.47-2.73-1.47-1.75,0-2.98,1.5-2.98,3.32v.04c0,1.88,1.23,3.34,2.98,3.34,1.3,0,2.07-.61,2.82-1.52l2.61,1.86c-1.18,1.63-2.77,2.82-5.52,2.82-3.57,0-6.45-2.73-6.45-6.47Z"/>
    <path class="cls-1" d="m163.9,79.94v-.04c0-3.64,2.79-6.5,6.57-6.5,2.55,0,4.2,1.07,5.31,2.59l-2.61,2.02c-.71-.88-1.54-1.47-2.73-1.47-1.75,0-2.98,1.5-2.98,3.32v.04c0,1.88,1.23,3.34,2.98,3.34,1.3,0,2.07-.61,2.82-1.52l2.61,1.86c-1.18,1.63-2.77,2.82-5.52,2.82-3.57,0-6.45-2.73-6.45-6.47Z"/>
    <path class="cls-1" d="m178.27,73.65h10.06v2.93h-6.63v1.91h6v2.73h-6v1.98h6.72v2.95h-10.15v-12.51Z"/>
    <path class="cls-1" d="m190.15,84.3l1.93-2.3c1.25.98,2.61,1.5,4.06,1.5.95,0,1.45-.32,1.45-.86v-.04c0-.54-.41-.8-2.13-1.21-2.66-.61-4.72-1.36-4.72-3.91v-.04c0-2.32,1.84-4,4.84-4,2.13,0,3.79.57,5.15,1.66l-1.73,2.45c-1.14-.82-2.39-1.23-3.5-1.23-.84,0-1.25.34-1.25.8v.04c0,.57.43.82,2.18,1.22,2.86.62,4.65,1.55,4.65,3.89v.04c0,2.55-2.02,4.07-5.06,4.07-2.22,0-4.31-.7-5.86-2.07Z"/>
    <path class="cls-1" d="m202.52,84.3l1.93-2.3c1.25.98,2.61,1.5,4.05,1.5.95,0,1.45-.32,1.45-.86v-.04c0-.54-.41-.8-2.12-1.21-2.66-.61-4.72-1.36-4.72-3.91v-.04c0-2.32,1.84-4,4.84-4,2.12,0,3.79.57,5.14,1.66l-1.73,2.45c-1.14-.82-2.39-1.23-3.5-1.23-.84,0-1.25.34-1.25.8v.04c0,.57.43.82,2.18,1.22,2.86.62,4.64,1.55,4.64,3.89v.04c0,2.55-2.02,4.07-5.06,4.07-2.21,0-4.31-.7-5.86-2.07Z"/>
  </g>
  <g>
    <path class="cls-2" d="m33.17,28.65h5.84l15.78,36.12h-6.66l-3.64-8.66h-16.96l-3.69,8.66h-6.46l15.78-36.12Zm9.02,21.88l-6.2-14.35-6.15,14.35h12.35Z"/>
    <path class="cls-2" d="m58.18,37.72h6.2v4.1c1.74-2.41,4.1-4.66,8.25-4.66,3.89,0,6.66,1.9,8.1,4.77,2.15-2.87,5.02-4.77,9.12-4.77,5.89,0,9.48,3.74,9.48,10.35v17.27h-6.2v-15.37c0-4.3-2-6.61-5.48-6.61s-5.79,2.36-5.79,6.71v15.27h-6.2v-15.42c0-4.2-2.05-6.56-5.48-6.56s-5.79,2.56-5.79,6.71v15.27h-6.2v-27.05Z"/>
    <path class="cls-2" d="m104.8,37.72h6.2v4.51c2-2.82,4.82-5.07,9.22-5.07,6.35,0,12.55,5.02,12.55,14.04v.1c0,8.97-6.15,14.04-12.55,14.04-4.51,0-7.33-2.25-9.22-4.76v12.4h-6.2v-35.25Zm21.67,13.58v-.1c0-5.23-3.54-8.66-7.74-8.66s-7.89,3.48-7.89,8.66v.1c0,5.17,3.69,8.66,7.89,8.66s7.74-3.33,7.74-8.66Z"/>
    <path class="cls-2" d="m137.49,27.37h6.2v37.4h-6.2V27.37Z"/>
    <path class="cls-2" d="m149.84,27.67h6.66v5.89h-6.66v-5.89Zm.26,10.04h6.2v27.05h-6.2v-27.05Z"/>
    <path class="cls-2" d="m160.85,51.4v-.1c0-7.69,5.94-14.14,14.09-14.14,5.07,0,8.25,1.9,10.81,4.66l-3.89,4.15c-1.9-2-3.89-3.38-6.97-3.38-4.51,0-7.84,3.89-7.84,8.61v.1c0,4.82,3.33,8.66,8.1,8.66,2.92,0,5.07-1.33,7.02-3.33l3.74,3.69c-2.66,2.97-5.79,5.07-11.07,5.07-8.04,0-13.99-6.3-13.99-13.99Z"/>
    <path class="cls-2" d="m187.75,56.98v-.1c0-5.84,4.56-8.71,11.17-8.71,3.02,0,5.18.46,7.28,1.13v-.67c0-3.84-2.36-5.89-6.71-5.89-3.02,0-5.28.67-7.74,1.69l-1.64-4.87c2.97-1.33,5.89-2.2,10.2-2.2,4.05,0,7.07,1.08,8.97,3.02,2,1.95,2.92,4.82,2.92,8.35v16.04h-6.05v-3.38c-1.84,2.2-4.66,3.95-8.81,3.95-5.07,0-9.58-2.92-9.58-8.35Zm18.55-1.95v-1.84c-1.59-.62-3.69-1.08-6.15-1.08-4,0-6.35,1.69-6.35,4.51v.1c0,2.61,2.31,4.1,5.28,4.1,4.1,0,7.22-2.36,7.22-5.79Z"/>
  </g>
  <g>
    <path class="cls-2" d="m18.58,13.18h3.14c1.9,0,3.14,1.01,3.14,2.66v.02c0,1.81-1.51,2.75-3.3,2.75h-2.04v2.96h-.95v-8.4Zm3.02,4.57c1.39,0,2.3-.74,2.3-1.85v-.02c0-1.2-.9-1.82-2.25-1.82h-2.12v3.69h2.07Z"/>
    <path class="cls-2" d="m26.22,17.4v-.02c0-2.31,1.74-4.34,4.29-4.34s4.27,2,4.27,4.32v.02c0,2.31-1.74,4.34-4.29,4.34s-4.27-2-4.27-4.32Zm7.58,0v-.02c0-1.91-1.39-3.47-3.31-3.47s-3.29,1.54-3.29,3.44v.02c0,1.91,1.39,3.47,3.31,3.47s3.29-1.54,3.29-3.44Z"/>
    <path class="cls-2" d="m35.72,13.18h1.03l2.4,6.99,2.3-7.02h.78l2.3,7.02,2.4-6.99h1l-3,8.46h-.8l-2.3-6.81-2.31,6.81h-.79l-3-8.46Z"/>
    <path class="cls-2" d="m49.65,13.18h6.07v.86h-5.12v2.87h4.58v.86h-4.58v2.94h5.18v.86h-6.13v-8.4Z"/>
    <path class="cls-2" d="m57.69,13.18h3.61c1.03,0,1.86.31,2.39.84.41.41.65,1,.65,1.65v.02c0,1.39-.96,2.21-2.28,2.45l2.58,3.43h-1.16l-2.43-3.26h-2.4v3.26h-.95v-8.4Zm3.53,4.28c1.26,0,2.16-.65,2.16-1.73v-.02c0-1.03-.79-1.66-2.15-1.66h-2.59v3.41h2.58Z"/>
    <path class="cls-2" d="m66.36,13.18h6.07v.86h-5.12v2.87h4.58v.86h-4.58v2.94h5.18v.86h-6.13v-8.4Z"/>
    <path class="cls-2" d="m74.4,13.18h2.91c2.64,0,4.46,1.81,4.46,4.17v.02c0,2.36-1.82,4.2-4.46,4.2h-2.91v-8.4Zm.95.88v6.64h1.97c2.12,0,3.48-1.44,3.48-3.3v-.02c0-1.86-1.36-3.32-3.48-3.32h-1.97Z"/>
    <path class="cls-2" d="m87.39,13.18h3.57c.96,0,1.72.28,2.2.74.35.36.54.8.54,1.34v.02c0,1.09-.67,1.66-1.33,1.94,1,.3,1.8.88,1.8,2.03v.02c0,1.44-1.21,2.29-3.05,2.29h-3.73v-8.4Zm5.35,2.22c0-.83-.66-1.37-1.86-1.37h-2.55v2.89h2.48c1.14,0,1.93-.52,1.93-1.5v-.02Zm-1.76,2.36h-2.65v2.96h2.82c1.27,0,2.06-.56,2.06-1.5v-.02c0-.91-.77-1.44-2.23-1.44Z"/>
    <path class="cls-2" d="m98.32,18.25l-3.49-5.07h1.15l2.83,4.2,2.85-4.2h1.1l-3.49,5.06v3.33h-.96v-3.32Z"/>
  </g>
</svg>