<svg id="svg" version="1.1" xmlns="http://www.w3.org/2000/svg" xmlns:xlink="http://www.w3.org/1999/xlink" width="100" height="90" viewBox="0, 0, 400,356.25"><g id="svgg"><path id="path0" d="M193.428 14.093 C 176.513 16.282,163.092 26.517,153.518 44.531 C 140.620 68.800,73.945 194.281,72.736 196.563 C 71.871 198.195,70.708 200.375,70.152 201.406 C 69.596 202.438,68.508 204.477,67.734 205.938 C 62.481 215.849,54.601 230.675,49.131 240.938 C 40.313 257.480,38.966 260.220,37.529 264.531 C 26.452 297.779,45.163 333.042,77.355 339.587 C 80.036 340.132,85.285 340.156,200.000 340.156 L 319.844 340.156 323.061 339.459 C 358.079 331.871,375.954 290.973,359.088 257.031 C 357.892 254.625,356.190 251.320,355.305 249.688 C 354.421 248.055,351.790 243.133,349.460 238.750 C 347.129 234.367,344.843 230.078,344.379 229.219 C 343.915 228.359,342.825 226.320,341.956 224.688 C 341.087 223.055,333.418 208.641,324.913 192.656 C 316.409 176.672,308.888 162.539,308.199 161.250 C 307.511 159.961,304.666 154.617,301.876 149.375 C 299.086 144.133,296.202 138.719,295.467 137.344 C 294.732 135.969,291.775 130.414,288.897 125.000 C 286.019 119.586,283.137 114.172,282.494 112.969 C 281.850 111.766,278.442 105.367,274.919 98.750 C 271.397 92.133,263.836 77.930,258.117 67.188 C 252.398 56.445,246.942 46.180,245.992 44.375 C 234.421 22.395,215.136 11.285,193.428 14.093 M207.031 43.051 C 212.072 44.753,216.465 47.854,219.608 51.929 C 220.881 53.579,227.123 65.097,244.389 97.656 C 246.419 101.486,255.655 118.821,256.876 121.094 C 257.522 122.297,258.683 124.477,259.457 125.938 C 260.755 128.387,277.106 159.118,280.157 164.844 C 280.890 166.219,283.212 170.578,285.317 174.531 C 287.422 178.484,289.744 182.844,290.478 184.219 C 291.212 185.594,297.013 196.492,303.369 208.438 C 309.725 220.383,315.488 231.211,316.176 232.500 C 316.864 233.789,319.781 239.273,322.659 244.688 C 325.537 250.102,328.275 255.234,328.745 256.094 C 335.648 268.731,338.057 273.813,338.849 277.411 C 342.311 293.129,333.024 308.664,318.353 311.694 C 315.405 312.303,85.929 312.459,82.188 311.855 C 69.519 309.808,60.313 298.041,60.323 283.906 C 60.328 277.437,61.246 274.400,65.748 265.964 C 67.236 263.175,73.742 250.954,80.204 238.806 C 98.019 205.315,104.622 192.906,106.092 190.156 C 106.827 188.781,113.859 175.563,121.719 160.781 C 129.580 146.000,137.735 130.672,139.843 126.719 C 144.645 117.711,165.073 79.300,172.583 65.156 C 175.686 59.313,178.899 53.608,179.724 52.480 C 186.203 43.616,197.326 39.775,207.031 43.051 M197.514 118.779 C 192.689 119.725,188.750 123.767,187.353 129.206 C 186.637 131.994,186.640 205.371,187.356 208.408 C 190.700 222.594,209.497 222.429,212.467 208.188 C 213.056 205.363,212.943 131.258,212.346 128.967 C 210.480 121.802,204.177 117.473,197.514 118.779 M196.995 240.734 C 186.886 243.312,183.548 257.183,191.196 264.831 C 199.106 272.741,211.979 267.123,212.732 255.433 C 213.337 246.045,205.365 238.599,196.995 240.734 " stroke="none" fill="#fafafa" fill-rule="evenodd"></path><path id="path1" d="M0.000 178.125 L 0.000 356.250 200.000 356.250 L 400.000 356.250 400.000 178.125 L 400.000 0.000 200.000 0.000 L 0.000 0.000 0.000 178.125 M206.776 14.234 C 223.611 16.734,236.762 26.841,245.992 44.375 C 246.942 46.180,252.398 56.445,258.117 67.188 C 263.836 77.930,271.397 92.133,274.919 98.750 C 278.442 105.367,281.850 111.766,282.494 112.969 C 283.137 114.172,286.019 119.586,288.897 125.000 C 291.775 130.414,294.732 135.969,295.467 137.344 C 296.202 138.719,299.086 144.133,301.876 149.375 C 304.666 154.617,307.511 159.961,308.199 161.250 C 308.888 162.539,316.409 176.672,324.913 192.656 C 333.418 208.641,341.087 223.055,341.956 224.688 C 342.825 226.320,343.915 228.359,344.379 229.219 C 344.843 230.078,347.129 234.367,349.460 238.750 C 351.790 243.133,354.421 248.055,355.305 249.688 C 356.190 251.320,357.892 254.625,359.088 257.031 C 375.954 290.973,358.079 331.871,323.061 339.459 L 319.844 340.156 200.000 340.156 C 85.285 340.156,80.036 340.132,77.355 339.587 C 45.163 333.042,26.452 297.779,37.529 264.531 C 38.966 260.220,40.313 257.480,49.131 240.938 C 54.601 230.675,62.481 215.849,67.734 205.938 C 68.508 204.477,69.596 202.438,70.152 201.406 C 70.708 200.375,71.871 198.195,72.736 196.563 C 73.945 194.281,140.620 68.800,153.518 44.531 C 165.522 21.944,184.809 10.973,206.776 14.234 M195.648 42.195 C 185.437 44.346,181.609 48.157,172.583 65.156 C 165.073 79.300,144.645 117.711,139.843 126.719 C 137.735 130.672,129.580 146.000,121.719 160.781 C 113.859 175.563,106.827 188.781,106.092 190.156 C 104.622 192.906,98.019 205.315,80.204 238.806 C 73.742 250.954,67.236 263.175,65.748 265.964 C 61.246 274.400,60.328 277.437,60.323 283.906 C 60.313 298.041,69.519 309.808,82.188 311.855 C 85.929 312.459,315.405 312.303,318.353 311.694 C 333.024 308.664,342.311 293.129,338.849 277.411 C 338.057 273.813,335.648 268.731,328.745 256.094 C 328.275 255.234,325.537 250.102,322.659 244.688 C 319.781 239.273,316.864 233.789,316.176 232.500 C 315.488 231.211,309.725 220.383,303.369 208.438 C 297.013 196.492,291.212 185.594,290.478 184.219 C 289.744 182.844,287.422 178.484,285.317 174.531 C 283.212 170.578,280.890 166.219,280.157 164.844 C 277.106 159.118,260.755 128.387,259.457 125.938 C 258.683 124.477,257.522 122.297,256.876 121.094 C 255.655 118.821,246.419 101.486,244.389 97.656 C 220.015 51.694,220.158 51.944,216.307 48.416 C 210.885 43.447,202.165 40.821,195.648 42.195 M202.645 118.917 C 207.546 120.193,210.991 123.762,212.346 128.967 C 212.943 131.258,213.056 205.363,212.467 208.188 C 209.497 222.429,190.700 222.594,187.356 208.408 C 186.640 205.371,186.637 131.994,187.353 129.206 C 189.295 121.643,195.942 117.171,202.645 118.917 M205.199 241.709 C 218.142 248.106,213.508 268.998,199.281 268.391 C 190.534 268.018,184.733 258.483,187.811 249.537 C 190.458 241.842,198.313 238.306,205.199 241.709 " stroke="none" fill="#0c0c0c" fill-rule="evenodd"></path></g></svg>