<?xml version="1.0" encoding="us-ascii" standalone="no"?><svg xmlns="http://www.w3.org/2000/svg" xmlns:xlink="http://www.w3.org/1999/xlink" contentStyleType="text/css" height="926px" preserveAspectRatio="none" style="width:1886px;height:926px;background:#FFFFFF;" version="1.1" viewBox="0 0 1886 926" width="1886px" zoomAndPan="magnify"><defs/><g><ellipse cx="1174" cy="20" fill="#222222" rx="10" ry="10" style="stroke:#222222;stroke-width:1.0;"/><path d="M406,40 L406,216.4609 A0,0 0 0 0 406,216.4609 L830,216.4609 A0,0 0 0 0 830,216.4609 L830,132.2305 L850,128.2305 L830,124.2305 L830,50 L820,40 L406,40 A0,0 0 0 0 406,40 " fill="#FEFFDD" style="stroke:#181818;stroke-width:0.5;"/><path d="M820,40 L820,50 L830,50 L820,40 " fill="#FEFFDD" style="stroke:#181818;stroke-width:0.5;"/><text fill="#000000" font-family="sans-serif" font-size="13" lengthAdjust="spacing" textLength="374" x="412" y="57.0669">Lots of conditionals but as far as "screens" are concerned</text><text fill="#000000" font-family="sans-serif" font-size="13" lengthAdjust="spacing" textLength="169" x="412" y="72.1997">these are the unique ones</text><text fill="#000000" font-family="sans-serif" font-size="13" lengthAdjust="spacing" textLength="196" x="412" y="87.3325">1. User Enters in Email or SMS</text><text fill="#000000" font-family="sans-serif" font-size="13" lengthAdjust="spacing" textLength="175" x="412" y="102.4653">2. Display Email Sent Page</text><text fill="#000000" font-family="sans-serif" font-size="13" lengthAdjust="spacing" textLength="133" x="412" y="117.5981">3. Display SMS Form</text><text fill="#000000" font-family="sans-serif" font-size="13" lengthAdjust="spacing" textLength="401" x="412" y="132.731">4. Permissions Acceptance Screen and Data to be sent screen</text><text fill="#000000" font-family="sans-serif" font-size="13" lengthAdjust="spacing" textLength="368" x="412" y="147.8638">5. Permissions, Capture Data and Data to be sent screen</text><text fill="#000000" font-family="sans-serif" font-size="13" lengthAdjust="spacing" textLength="258" x="424" y="162.9966">which is really just a permutation of #4</text><text fill="#000000" font-family="sans-serif" font-size="13" lengthAdjust="spacing" textLength="4" x="412" y="178.1294">&#160;</text><text fill="#000000" font-family="sans-serif" font-size="13" lengthAdjust="spacing" textLength="347" x="412" y="193.2622">This is just how I've mapped them for this document,</text><text fill="#000000" font-family="sans-serif" font-size="13" lengthAdjust="spacing" textLength="403" x="412" y="208.395">not dictating it be this way, merged or split apart up to design</text><rect fill="#F1F1F1" height="33.9688" rx="12.5" ry="12.5" style="stroke:#181818;stroke-width:0.5;" width="648" x="850" y="111.2461"/><text fill="#000000" font-family="sans-serif" font-size="12" lengthAdjust="spacing" textLength="628" x="860" y="132.3848">Provider sends user who would like to SiWA request(publicKey,callbackUrl,permissions,nonce,signature)</text><rect fill="#F1F1F1" height="33.9688" rx="12.5" ry="12.5" style="stroke:#181818;stroke-width:0.5;" width="188" x="1080" y="236.4609"/><text fill="#000000" font-family="sans-serif" font-size="12" lengthAdjust="spacing" textLength="168" x="1090" y="257.5996">User Enters in Email or SMS</text><path d="M934.5,280.4297 L934.5,305.5625 L1126.5,305.5625 L1126.5,290.4297 L1116.5,280.4297 L934.5,280.4297 " fill="#FEFFDD" style="stroke:#181818;stroke-width:0.5;"/><path d="M1116.5,280.4297 L1116.5,290.4297 L1126.5,290.4297 L1116.5,280.4297 " fill="#FEFFDD" style="stroke:#181818;stroke-width:0.5;"/><text fill="#000000" font-family="sans-serif" font-size="13" lengthAdjust="spacing" textLength="171" x="940.5" y="297.4966">New FA Account, New Key</text><polygon fill="#F1F1F1" points="1138.5,305.5625,1209.5,305.5625,1221.5,317.5625,1209.5,329.5625,1138.5,329.5625,1126.5,317.5625,1138.5,305.5625" style="stroke:#181818;stroke-width:0.5;"/><text fill="#000000" font-family="sans-serif" font-size="11" lengthAdjust="spacing" textLength="71" x="1138.5" y="321.3706">Exists in FA?</text><text fill="#000000" font-family="sans-serif" font-size="11" lengthAdjust="spacing" textLength="20" x="1106.5" y="314.9683">Yes</text><text fill="#000000" font-family="sans-serif" font-size="11" lengthAdjust="spacing" textLength="73" x="1221.5" y="314.9683">Doesn't Exist</text><polygon fill="#F1F1F1" points="562.5,349.5625,602.5,349.5625,614.5,361.5625,602.5,373.5625,562.5,373.5625,550.5,361.5625,562.5,349.5625" style="stroke:#181818;stroke-width:0.5;"/><text fill="#000000" font-family="sans-serif" font-size="11" lengthAdjust="spacing" textLength="20" x="586.5" y="383.7729">Yes</text><text fill="#000000" font-family="sans-serif" font-size="11" lengthAdjust="spacing" textLength="40" x="562.5" y="365.3706">isEmail</text><rect fill="#F1F1F1" height="33.9688" rx="12.5" ry="12.5" style="stroke:#181818;stroke-width:0.5;" width="88" x="538.5" y="405.2729"/><text fill="#000000" font-family="sans-serif" font-size="12" lengthAdjust="spacing" textLength="68" x="548.5" y="426.4116">Send Email</text><rect fill="#F1F1F1" height="33.9688" rx="12.5" ry="12.5" style="stroke:#181818;stroke-width:0.5;" width="165" x="500" y="459.2417"/><text fill="#000000" font-family="sans-serif" font-size="12" lengthAdjust="spacing" textLength="145" x="510" y="480.3804">Display Email Sent Page</text><rect fill="#F1F1F1" height="33.9688" rx="12.5" ry="12.5" style="stroke:#181818;stroke-width:0.5;" width="151" x="507" y="513.2104"/><text fill="#000000" font-family="sans-serif" font-size="12" lengthAdjust="spacing" textLength="131" x="517" y="534.3491">User Clicks Email Link</text><polygon fill="#F1F1F1" points="751.5,349.5625,784.5,349.5625,796.5,361.5625,784.5,373.5625,751.5,373.5625,739.5,361.5625,751.5,349.5625" style="stroke:#181818;stroke-width:0.5;"/><text fill="#000000" font-family="sans-serif" font-size="11" lengthAdjust="spacing" textLength="20" x="772" y="383.7729">Yes</text><text fill="#000000" font-family="sans-serif" font-size="11" lengthAdjust="spacing" textLength="33" x="751.5" y="365.3706">isSms</text><rect fill="#F1F1F1" height="33.9688" rx="12.5" ry="12.5" style="stroke:#181818;stroke-width:0.5;" width="81" x="727.5" y="405.2729"/><text fill="#000000" font-family="sans-serif" font-size="12" lengthAdjust="spacing" textLength="61" x="737.5" y="426.4116">Send Sms</text><rect fill="#F1F1F1" height="33.9688" rx="12.5" ry="12.5" style="stroke:#181818;stroke-width:0.5;" width="128" x="704" y="459.2417"/><text fill="#000000" font-family="sans-serif" font-size="12" lengthAdjust="spacing" textLength="108" x="714" y="480.3804">Display SMS Form</text><rect fill="#F1F1F1" height="33.9688" rx="12.5" ry="12.5" style="stroke:#181818;stroke-width:0.5;" width="166" x="685" y="513.2104"/><text fill="#000000" font-family="sans-serif" font-size="12" lengthAdjust="spacing" textLength="146" x="695" y="534.3491">User Submits SMS Form</text><path d="M412,591.5972 L412,616.73 A0,0 0 0 0 412,616.73 L619,616.73 A0,0 0 0 0 619,616.73 L619,609.5972 L639,604.1636 L619,601.5972 L619,601.5972 L609,591.5972 L412,591.5972 A0,0 0 0 0 412,591.5972 " fill="#FEFFDD" style="stroke:#181818;stroke-width:0.5;"/><path d="M609,591.5972 L609,601.5972 L619,601.5972 L609,591.5972 " fill="#FEFFDD" style="stroke:#181818;stroke-width:0.5;"/><text fill="#000000" font-family="sans-serif" font-size="13" lengthAdjust="spacing" textLength="186" x="418" y="608.6641">Login or Mutate Existing Key</text><rect fill="#F1F1F1" height="33.9688" rx="12.5" ry="12.5" style="stroke:#181818;stroke-width:0.5;" width="123" x="639" y="587.1792"/><text fill="#000000" font-family="sans-serif" font-size="12" lengthAdjust="spacing" textLength="103" x="649" y="608.3179">Identifier Verified</text><polygon fill="#F1F1F1" points="94.5,666.1479,279.5,666.1479,291.5,678.1479,279.5,690.1479,94.5,690.1479,82.5,678.1479,94.5,666.1479" style="stroke:#181818;stroke-width:0.5;"/><text fill="#000000" font-family="sans-serif" font-size="11" lengthAdjust="spacing" textLength="89" x="191" y="700.3584">True, Is A Login</text><text fill="#000000" font-family="sans-serif" font-size="11" lengthAdjust="spacing" textLength="185" x="94.5" y="681.9561">Has All Permissions For Provider</text><rect fill="#F1F1F1" height="33.9688" rx="12.5" ry="12.5" style="stroke:#181818;stroke-width:0.5;" width="303" x="35.5" y="721.8584"/><text fill="#000000" font-family="sans-serif" font-size="12" lengthAdjust="spacing" textLength="283" x="45.5" y="742.9971">Display Selection of Data to be sent to Provider</text><rect fill="#F1F1F1" height="47.9375" rx="12.5" ry="12.5" style="stroke:#181818;stroke-width:0.5;" width="352" x="11" y="775.8271"/><text fill="#000000" font-family="sans-serif" font-size="12" lengthAdjust="spacing" textLength="332" x="21" y="796.9658">Redirect to Provider callbackUrl with authorizationCode</text><text fill="#000000" font-family="sans-serif" font-size="12" lengthAdjust="spacing" textLength="197" x="25" y="810.9346">that will resolve the loginPayload</text><polygon fill="#F1F1F1" points="543,666.1479,672,666.1479,684,678.1479,672,690.1479,543,690.1479,531,678.1479,543,666.1479" style="stroke:#181818;stroke-width:0.5;"/><text fill="#000000" font-family="sans-serif" font-size="11" lengthAdjust="spacing" textLength="185" x="611.5" y="700.3584">Adding or removing permissions</text><text fill="#000000" font-family="sans-serif" font-size="11" lengthAdjust="spacing" textLength="129" x="543" y="681.9561">Has Some Permissions</text><rect fill="#F1F1F1" height="33.9688" rx="12.5" ry="12.5" style="stroke:#181818;stroke-width:0.5;" width="469" x="373" y="721.8584"/><text fill="#000000" font-family="sans-serif" font-size="12" lengthAdjust="spacing" textLength="449" x="383" y="742.9971">Display Permissions Acceptance Screen , Send Single Identifier to Provider</text><rect fill="#F1F1F1" height="47.9375" rx="12.5" ry="12.5" style="stroke:#181818;stroke-width:0.5;" width="352" x="431.5" y="775.8271"/><text fill="#000000" font-family="sans-serif" font-size="12" lengthAdjust="spacing" textLength="332" x="441.5" y="796.9658">Redirect to Provider callbackUrl with authorizationCode</text><text fill="#000000" font-family="sans-serif" font-size="12" lengthAdjust="spacing" textLength="261" x="445.5" y="810.9346">that will resolve the addPermissionsPayload</text><polygon fill="#F1F1F1" points="1062,666.1479,1150,666.1479,1162,678.1479,1150,690.1479,1062,690.1479,1050,678.1479,1062,666.1479" style="stroke:#181818;stroke-width:0.5;"/><text fill="#000000" font-family="sans-serif" font-size="11" lengthAdjust="spacing" textLength="159" x="1110" y="700.3584">Delegation for new Provider</text><text fill="#000000" font-family="sans-serif" font-size="11" lengthAdjust="spacing" textLength="88" x="1062" y="681.9561">New Delegation</text><rect fill="#F1F1F1" height="33.9688" rx="12.5" ry="12.5" style="stroke:#181818;stroke-width:0.5;" width="488" x="862" y="721.8584"/><text fill="#000000" font-family="sans-serif" font-size="12" lengthAdjust="spacing" textLength="468" x="872" y="742.9971">Display Permissions Acceptance Screen and Send Single Identifier to Provider</text><rect fill="#F1F1F1" height="47.9375" rx="12.5" ry="12.5" style="stroke:#181818;stroke-width:0.5;" width="352" x="930" y="775.8271"/><text fill="#000000" font-family="sans-serif" font-size="12" lengthAdjust="spacing" textLength="332" x="940" y="796.9658">Redirect to Provider callbackUrl with authorizationCode</text><text fill="#000000" font-family="sans-serif" font-size="12" lengthAdjust="spacing" textLength="261" x="944" y="810.9346">that will resolve the addPermissionsPayload</text><polygon fill="#F1F1F1" points="1509.5,349.5625,1549.5,349.5625,1561.5,361.5625,1549.5,373.5625,1509.5,373.5625,1497.5,361.5625,1509.5,349.5625" style="stroke:#181818;stroke-width:0.5;"/><text fill="#000000" font-family="sans-serif" font-size="11" lengthAdjust="spacing" textLength="20" x="1533.5" y="383.7729">Yes</text><text fill="#000000" font-family="sans-serif" font-size="11" lengthAdjust="spacing" textLength="40" x="1509.5" y="365.3706">isEmail</text><rect fill="#F1F1F1" height="33.9688" rx="12.5" ry="12.5" style="stroke:#181818;stroke-width:0.5;" width="88" x="1485.5" y="405.2729"/><text fill="#000000" font-family="sans-serif" font-size="12" lengthAdjust="spacing" textLength="68" x="1495.5" y="426.4116">Send Email</text><rect fill="#F1F1F1" height="33.9688" rx="12.5" ry="12.5" style="stroke:#181818;stroke-width:0.5;" width="165" x="1447" y="459.2417"/><text fill="#000000" font-family="sans-serif" font-size="12" lengthAdjust="spacing" textLength="145" x="1457" y="480.3804">Display Email Sent Page</text><rect fill="#F1F1F1" height="33.9688" rx="12.5" ry="12.5" style="stroke:#181818;stroke-width:0.5;" width="151" x="1454" y="513.2104"/><text fill="#000000" font-family="sans-serif" font-size="12" lengthAdjust="spacing" textLength="131" x="1464" y="534.3491">User Clicks Email Link</text><polygon fill="#F1F1F1" points="1698.5,349.5625,1731.5,349.5625,1743.5,361.5625,1731.5,373.5625,1698.5,373.5625,1686.5,361.5625,1698.5,349.5625" style="stroke:#181818;stroke-width:0.5;"/><text fill="#000000" font-family="sans-serif" font-size="11" lengthAdjust="spacing" textLength="20" x="1719" y="383.7729">Yes</text><text fill="#000000" font-family="sans-serif" font-size="11" lengthAdjust="spacing" textLength="33" x="1698.5" y="365.3706">isSms</text><rect fill="#F1F1F1" height="33.9688" rx="12.5" ry="12.5" style="stroke:#181818;stroke-width:0.5;" width="81" x="1674.5" y="405.2729"/><text fill="#000000" font-family="sans-serif" font-size="12" lengthAdjust="spacing" textLength="61" x="1684.5" y="426.4116">Send Sms</text><rect fill="#F1F1F1" height="33.9688" rx="12.5" ry="12.5" style="stroke:#181818;stroke-width:0.5;" width="128" x="1651" y="459.2417"/><text fill="#000000" font-family="sans-serif" font-size="12" lengthAdjust="spacing" textLength="108" x="1661" y="480.3804">Display SMS Form</text><rect fill="#F1F1F1" height="33.9688" rx="12.5" ry="12.5" style="stroke:#181818;stroke-width:0.5;" width="166" x="1632" y="513.2104"/><text fill="#000000" font-family="sans-serif" font-size="12" lengthAdjust="spacing" textLength="146" x="1642" y="534.3491">User Submits SMS Form</text><rect fill="#F1F1F1" height="33.9688" rx="12.5" ry="12.5" style="stroke:#181818;stroke-width:0.5;" width="455" x="1420" y="587.1792"/><text fill="#000000" font-family="sans-serif" font-size="12" lengthAdjust="spacing" textLength="435" x="1430" y="608.3179">Display Permissions, Capture Data and Send Single Identifier to Provider</text><rect fill="#F1F1F1" height="47.9375" rx="12.5" ry="12.5" style="stroke:#181818;stroke-width:0.5;" width="352" x="1471.5" y="641.1479"/><text fill="#000000" font-family="sans-serif" font-size="12" lengthAdjust="spacing" textLength="332" x="1481.5" y="662.2866">Redirect to Provider callbackUrl with authorizationCode</text><text fill="#000000" font-family="sans-serif" font-size="12" lengthAdjust="spacing" textLength="320" x="1485.5" y="676.2554">that will resolve the createSponsoredAccountPayload</text><polygon fill="#F1F1F1" points="1174,849.7646,1186,861.7646,1174,873.7646,1162,861.7646,1174,849.7646" style="stroke:#181818;stroke-width:0.5;"/><ellipse cx="1174" cy="904.7646" fill="none" rx="11" ry="11" style="stroke:#222222;stroke-width:1.0;"/><ellipse cx="1174" cy="904.7646" fill="#222222" rx="6" ry="6" style="stroke:#222222;stroke-width:1.0;"/><line style="stroke:#181818;stroke-width:1.0;" x1="1174" x2="1174" y1="30" y2="111.2461"/><polygon fill="#181818" points="1170,101.2461,1174,111.2461,1178,101.2461,1174,105.2461" style="stroke:#181818;stroke-width:1.0;"/><line style="stroke:#181818;stroke-width:1.0;" x1="1174" x2="1174" y1="145.2148" y2="236.4609"/><polygon fill="#181818" points="1170,226.4609,1174,236.4609,1178,226.4609,1174,230.4609" style="stroke:#181818;stroke-width:1.0;"/><line style="stroke:#181818;stroke-width:1.0;" x1="582.5" x2="582.5" y1="439.2417" y2="459.2417"/><polygon fill="#181818" points="578.5,449.2417,582.5,459.2417,586.5,449.2417,582.5,453.2417" style="stroke:#181818;stroke-width:1.0;"/><line style="stroke:#181818;stroke-width:1.0;" x1="582.5" x2="582.5" y1="493.2104" y2="513.2104"/><polygon fill="#181818" points="578.5,503.2104,582.5,513.2104,586.5,503.2104,582.5,507.2104" style="stroke:#181818;stroke-width:1.0;"/><line style="stroke:#181818;stroke-width:1.0;" x1="768" x2="768" y1="439.2417" y2="459.2417"/><polygon fill="#181818" points="764,449.2417,768,459.2417,772,449.2417,768,453.2417" style="stroke:#181818;stroke-width:1.0;"/><line style="stroke:#181818;stroke-width:1.0;" x1="768" x2="768" y1="493.2104" y2="513.2104"/><polygon fill="#181818" points="764,503.2104,768,513.2104,772,503.2104,768,507.2104" style="stroke:#181818;stroke-width:1.0;"/><line style="stroke:#181818;stroke-width:1.0;" x1="582.5" x2="582.5" y1="373.5625" y2="405.2729"/><polygon fill="#181818" points="578.5,395.2729,582.5,405.2729,586.5,395.2729,582.5,399.2729" style="stroke:#181818;stroke-width:1.0;"/><line style="stroke:#181818;stroke-width:1.0;" x1="582.5" x2="582.5" y1="547.1792" y2="567.1792"/><polygon fill="#181818" points="578.5,557.1792,582.5,567.1792,586.5,557.1792,582.5,561.1792" style="stroke:#181818;stroke-width:1.0;"/><line style="stroke:#181818;stroke-width:1.0;" x1="768" x2="768" y1="373.5625" y2="405.2729"/><polygon fill="#181818" points="764,395.2729,768,405.2729,772,395.2729,768,399.2729" style="stroke:#181818;stroke-width:1.0;"/><line style="stroke:#181818;stroke-width:1.0;" x1="768" x2="768" y1="547.1792" y2="567.1792"/><polygon fill="#181818" points="764,557.1792,768,567.1792,772,557.1792,768,561.1792" style="stroke:#181818;stroke-width:1.0;"/><line style="stroke:#181818;stroke-width:1.0;" x1="614.5" x2="739.5" y1="361.5625" y2="361.5625"/><polygon fill="#181818" points="729.5,357.5625,739.5,361.5625,729.5,365.5625,733.5,361.5625" style="stroke:#181818;stroke-width:1.0;"/><line style="stroke:#181818;stroke-width:1.0;" x1="1126.5" x2="582.5" y1="317.5625" y2="317.5625"/><line style="stroke:#181818;stroke-width:1.0;" x1="582.5" x2="582.5" y1="317.5625" y2="349.5625"/><polygon fill="#181818" points="578.5,339.5625,582.5,349.5625,586.5,339.5625,582.5,343.5625" style="stroke:#181818;stroke-width:1.0;"/><line style="stroke:#181818;stroke-width:1.0;" x1="796.5" x2="886" y1="361.5625" y2="361.5625"/><line style="stroke:#181818;stroke-width:1.0;" x1="886" x2="886" y1="361.5625" y2="567.1792"/><polygon fill="#181818" points="882,557.1792,886,567.1792,890,557.1792,886,561.1792" style="stroke:#181818;stroke-width:1.0;"/><line style="stroke:#181818;stroke-width:1.0;" x1="582.5" x2="886" y1="567.1792" y2="567.1792"/><line style="stroke:#181818;stroke-width:1.0;" x1="700.5" x2="700.5" y1="567.1792" y2="587.1792"/><polygon fill="#181818" points="696.5,577.1792,700.5,587.1792,704.5,577.1792,700.5,581.1792" style="stroke:#181818;stroke-width:1.0;"/><line style="stroke:#181818;stroke-width:1.0;" x1="187" x2="187" y1="755.8271" y2="775.8271"/><polygon fill="#181818" points="183,765.8271,187,775.8271,191,765.8271,187,769.8271" style="stroke:#181818;stroke-width:1.0;"/><line style="stroke:#181818;stroke-width:1.0;" x1="607.5" x2="607.5" y1="755.8271" y2="775.8271"/><polygon fill="#181818" points="603.5,765.8271,607.5,775.8271,611.5,765.8271,607.5,769.8271" style="stroke:#181818;stroke-width:1.0;"/><line style="stroke:#181818;stroke-width:1.0;" x1="1106" x2="1106" y1="755.8271" y2="775.8271"/><polygon fill="#181818" points="1102,765.8271,1106,775.8271,1110,765.8271,1106,769.8271" style="stroke:#181818;stroke-width:1.0;"/><line style="stroke:#181818;stroke-width:1.0;" x1="187" x2="187" y1="690.1479" y2="721.8584"/><polygon fill="#181818" points="183,711.8584,187,721.8584,191,711.8584,187,715.8584" style="stroke:#181818;stroke-width:1.0;"/><line style="stroke:#181818;stroke-width:1.0;" x1="187" x2="187" y1="823.7646" y2="843.7646"/><polygon fill="#181818" points="183,833.7646,187,843.7646,191,833.7646,187,837.7646" style="stroke:#181818;stroke-width:1.0;"/><line style="stroke:#181818;stroke-width:1.0;" x1="607.5" x2="607.5" y1="690.1479" y2="721.8584"/><polygon fill="#181818" points="603.5,711.8584,607.5,721.8584,611.5,711.8584,607.5,715.8584" style="stroke:#181818;stroke-width:1.0;"/><line style="stroke:#181818;stroke-width:1.0;" x1="607.5" x2="607.5" y1="823.7646" y2="843.7646"/><polygon fill="#181818" points="603.5,833.7646,607.5,843.7646,611.5,833.7646,607.5,837.7646" style="stroke:#181818;stroke-width:1.0;"/><line style="stroke:#181818;stroke-width:1.0;" x1="1106" x2="1106" y1="690.1479" y2="721.8584"/><polygon fill="#181818" points="1102,711.8584,1106,721.8584,1110,711.8584,1106,715.8584" style="stroke:#181818;stroke-width:1.0;"/><line style="stroke:#181818;stroke-width:1.0;" x1="1106" x2="1106" y1="823.7646" y2="843.7646"/><polygon fill="#181818" points="1102,833.7646,1106,843.7646,1110,833.7646,1106,837.7646" style="stroke:#181818;stroke-width:1.0;"/><line style="stroke:#181818;stroke-width:1.0;" x1="291.5" x2="531" y1="678.1479" y2="678.1479"/><polygon fill="#181818" points="521,674.1479,531,678.1479,521,682.1479,525,678.1479" style="stroke:#181818;stroke-width:1.0;"/><line style="stroke:#181818;stroke-width:1.0;" x1="684" x2="1050" y1="678.1479" y2="678.1479"/><polygon fill="#181818" points="1040,674.1479,1050,678.1479,1040,682.1479,1044,678.1479" style="stroke:#181818;stroke-width:1.0;"/><line style="stroke:#181818;stroke-width:1.0;" x1="700.5" x2="700.5" y1="621.1479" y2="641.1479"/><line style="stroke:#181818;stroke-width:1.0;" x1="700.5" x2="187" y1="641.1479" y2="641.1479"/><line style="stroke:#181818;stroke-width:1.0;" x1="187" x2="187" y1="641.1479" y2="666.1479"/><polygon fill="#181818" points="183,656.1479,187,666.1479,191,656.1479,187,660.1479" style="stroke:#181818;stroke-width:1.0;"/><line style="stroke:#181818;stroke-width:1.0;" x1="1162" x2="1385" y1="678.1479" y2="678.1479"/><line style="stroke:#181818;stroke-width:1.0;" x1="1385" x2="1385" y1="678.1479" y2="843.7646"/><polygon fill="#181818" points="1381,833.7646,1385,843.7646,1389,833.7646,1385,837.7646" style="stroke:#181818;stroke-width:1.0;"/><line style="stroke:#181818;stroke-width:1.0;" x1="187" x2="1385" y1="843.7646" y2="843.7646"/><line style="stroke:#181818;stroke-width:1.0;" x1="1529.5" x2="1529.5" y1="439.2417" y2="459.2417"/><polygon fill="#181818" points="1525.5,449.2417,1529.5,459.2417,1533.5,449.2417,1529.5,453.2417" style="stroke:#181818;stroke-width:1.0;"/><line style="stroke:#181818;stroke-width:1.0;" x1="1529.5" x2="1529.5" y1="493.2104" y2="513.2104"/><polygon fill="#181818" points="1525.5,503.2104,1529.5,513.2104,1533.5,503.2104,1529.5,507.2104" style="stroke:#181818;stroke-width:1.0;"/><line style="stroke:#181818;stroke-width:1.0;" x1="1715" x2="1715" y1="439.2417" y2="459.2417"/><polygon fill="#181818" points="1711,449.2417,1715,459.2417,1719,449.2417,1715,453.2417" style="stroke:#181818;stroke-width:1.0;"/><line style="stroke:#181818;stroke-width:1.0;" x1="1715" x2="1715" y1="493.2104" y2="513.2104"/><polygon fill="#181818" points="1711,503.2104,1715,513.2104,1719,503.2104,1715,507.2104" style="stroke:#181818;stroke-width:1.0;"/><line style="stroke:#181818;stroke-width:1.0;" x1="1529.5" x2="1529.5" y1="373.5625" y2="405.2729"/><polygon fill="#181818" points="1525.5,395.2729,1529.5,405.2729,1533.5,395.2729,1529.5,399.2729" style="stroke:#181818;stroke-width:1.0;"/><line style="stroke:#181818;stroke-width:1.0;" x1="1529.5" x2="1529.5" y1="547.1792" y2="567.1792"/><polygon fill="#181818" points="1525.5,557.1792,1529.5,567.1792,1533.5,557.1792,1529.5,561.1792" style="stroke:#181818;stroke-width:1.0;"/><line style="stroke:#181818;stroke-width:1.0;" x1="1715" x2="1715" y1="373.5625" y2="405.2729"/><polygon fill="#181818" points="1711,395.2729,1715,405.2729,1719,395.2729,1715,399.2729" style="stroke:#181818;stroke-width:1.0;"/><line style="stroke:#181818;stroke-width:1.0;" x1="1715" x2="1715" y1="547.1792" y2="567.1792"/><polygon fill="#181818" points="1711,557.1792,1715,567.1792,1719,557.1792,1715,561.1792" style="stroke:#181818;stroke-width:1.0;"/><line style="stroke:#181818;stroke-width:1.0;" x1="1561.5" x2="1686.5" y1="361.5625" y2="361.5625"/><polygon fill="#181818" points="1676.5,357.5625,1686.5,361.5625,1676.5,365.5625,1680.5,361.5625" style="stroke:#181818;stroke-width:1.0;"/><line style="stroke:#181818;stroke-width:1.0;" x1="1221.5" x2="1529.5" y1="317.5625" y2="317.5625"/><line style="stroke:#181818;stroke-width:1.0;" x1="1529.5" x2="1529.5" y1="317.5625" y2="349.5625"/><polygon fill="#181818" points="1525.5,339.5625,1529.5,349.5625,1533.5,339.5625,1529.5,343.5625" style="stroke:#181818;stroke-width:1.0;"/><line style="stroke:#181818;stroke-width:1.0;" x1="1743.5" x2="1833" y1="361.5625" y2="361.5625"/><line style="stroke:#181818;stroke-width:1.0;" x1="1833" x2="1833" y1="361.5625" y2="567.1792"/><polygon fill="#181818" points="1829,557.1792,1833,567.1792,1837,557.1792,1833,561.1792" style="stroke:#181818;stroke-width:1.0;"/><line style="stroke:#181818;stroke-width:1.0;" x1="1529.5" x2="1833" y1="567.1792" y2="567.1792"/><line style="stroke:#181818;stroke-width:1.0;" x1="1647.5" x2="1647.5" y1="567.1792" y2="587.1792"/><polygon fill="#181818" points="1643.5,577.1792,1647.5,587.1792,1651.5,577.1792,1647.5,581.1792" style="stroke:#181818;stroke-width:1.0;"/><line style="stroke:#181818;stroke-width:1.0;" x1="1647.5" x2="1647.5" y1="621.1479" y2="641.1479"/><polygon fill="#181818" points="1643.5,631.1479,1647.5,641.1479,1651.5,631.1479,1647.5,635.1479" style="stroke:#181818;stroke-width:1.0;"/><line style="stroke:#181818;stroke-width:1.0;" x1="700.5" x2="700.5" y1="843.7646" y2="861.7646"/><line style="stroke:#181818;stroke-width:1.0;" x1="700.5" x2="1162" y1="861.7646" y2="861.7646"/><polygon fill="#181818" points="1152,857.7646,1162,861.7646,1152,865.7646,1156,861.7646" style="stroke:#181818;stroke-width:1.0;"/><line style="stroke:#181818;stroke-width:1.0;" x1="1647.5" x2="1647.5" y1="689.0854" y2="861.7646"/><line style="stroke:#181818;stroke-width:1.0;" x1="1647.5" x2="1186" y1="861.7646" y2="861.7646"/><polygon fill="#181818" points="1196,857.7646,1186,861.7646,1196,865.7646,1192,861.7646" style="stroke:#181818;stroke-width:1.0;"/><line style="stroke:#181818;stroke-width:1.0;" x1="1174" x2="1174" y1="270.4297" y2="305.5625"/><polygon fill="#181818" points="1170,295.5625,1174,305.5625,1178,295.5625,1174,299.5625" style="stroke:#181818;stroke-width:1.0;"/><line style="stroke:#181818;stroke-width:1.0;" x1="1174" x2="1174" y1="873.7646" y2="893.7646"/><polygon fill="#181818" points="1170,883.7646,1174,893.7646,1178,883.7646,1174,887.7646" style="stroke:#181818;stroke-width:1.0;"/><!--SRC=[vLLDRnCn4BtdLupAeOcqgWIKIt90KTEAYXP5R0j2ukAiPxCcNdlns5t2hsViJPfDbHQG44B2YXJ7y-4txyquv8NpW_7SsJibqG6XaGI1UDjM5beRj0IjLWZUGgu-Ji7Xru3aXqrOQ5MynNLM2AqNebZTEfqrw6f5fAoXp5XJO4PgQOGF3aUJWR4UGMFf1y3hode2Mq9XZLIUGuGcM0GFWg0KBduTKU4G3Hs1S1WT2tG6PGht5HAcSzv1C8fnWJL8oVhy16vZ5UV6eoDG1ivheJHO1_brdbnUdC1CKQF5UcFBqNYOYoKcyykTcIFWmhewdP-Um7nN9KoB0Xil61da2Im88s4cl8YKBJ1Iwg6h8yM_selFu4mqaPukv2UnlDfA5HKeOY6OzpLy2SICGIG-U15fZ9m-EnsaW9kAFVcJl2hRmkNn7K8jcWPbvAs6aXdnqKlQ8jHyNvO2MIgGgeWPpHAKZsYIMolM6TJebfo0GvaWDeg6smX24s5BZ98Fk95Y4XoCdz1XCb3byFoR8fzC5zFNeuZA33yXZH8EjYjA8GyjSOtpU4qoJtQ7ZwZQyqYGphX_LxJnkb9crJcW9aotvZKzVYSR3zouRPI7L-LXKIkkST_EULIPTkDBoIXLgTZt0xguaPEj3hYPbYKpnBHTHvaH4cjH6nx1RRQTDnVmXkTdglLUi_BTi9trJMqtBc06b-pRNJ4wK1LgBBQTzR0xURlDsAlwFKhbEAXlXjv30Qto5OZWA-lKzzIsPrRYPyEWX6Sh0tT8LjzruwqZjBbOQolaJgPjcRcjiL_dfhIfb94WhjbXpHXuttkV3XJwz5ndq2dFUJH2Jx6_Gu6GieVl81Vli8KPYxLCsJOix0xIh1lskM-1twKWFa__B0bfcY8Lmvb5CiU-cv7H_Hpj_dhYYcHTJ6EHDl2hbtu_Dal_mnDqe0CE_3dzglf_N7bkG7xsyePXMOTo8zjz1tI5aBVD3m00]--></g></svg>