<?xml version="1.0" encoding="us-ascii" standalone="no"?><svg xmlns="http://www.w3.org/2000/svg" xmlns:xlink="http://www.w3.org/1999/xlink" contentStyleType="text/css" height="830px" preserveAspectRatio="none" style="width:1386px;height:830px;background:#FFFFFF;" version="1.1" viewBox="0 0 1386 830" width="1386px" zoomAndPan="magnify"><defs/><g><text fill="#000000" font-family="sans-serif" font-size="14" font-weight="bold" lengthAdjust="spacing" textLength="325" x="529.75" y="27.9951">SIWA Migration or Add Permissions Flow</text><line style="stroke:#181818;stroke-width:0.5;stroke-dasharray:5.0,5.0;" x1="35" x2="35" y1="118.5938" y2="750.1172"/><line style="stroke:#181818;stroke-width:0.5;stroke-dasharray:5.0,5.0;" x1="108" x2="108" y1="118.5938" y2="750.1172"/><line style="stroke:#181818;stroke-width:0.5;stroke-dasharray:5.0,5.0;" x1="259.5" x2="259.5" y1="118.5938" y2="750.1172"/><line style="stroke:#181818;stroke-width:0.5;stroke-dasharray:5.0,5.0;" x1="738.5" x2="738.5" y1="118.5938" y2="750.1172"/><line style="stroke:#181818;stroke-width:0.5;stroke-dasharray:5.0,5.0;" x1="1102.5" x2="1102.5" y1="118.5938" y2="750.1172"/><line style="stroke:#181818;stroke-width:0.5;stroke-dasharray:5.0,5.0;" x1="1179.5" x2="1179.5" y1="118.5938" y2="750.1172"/><line style="stroke:#181818;stroke-width:0.5;stroke-dasharray:5.0,5.0;" x1="1254.5" x2="1254.5" y1="118.5938" y2="750.1172"/><line style="stroke:#181818;stroke-width:0.5;stroke-dasharray:5.0,5.0;" x1="1332.5" x2="1332.5" y1="118.5938" y2="750.1172"/><text fill="#000000" font-family="sans-serif" font-size="14" lengthAdjust="spacing" textLength="32" x="16" y="115.292">User</text><ellipse cx="35" cy="50.7969" fill="#E2E2F0" rx="8" ry="8" style="stroke:#181818;stroke-width:0.5;"/><path d="M35,58.7969 L35,85.7969 M22,66.7969 L48,66.7969 M35,85.7969 L22,100.7969 M35,85.7969 L48,100.7969 " fill="none" style="stroke:#181818;stroke-width:0.5;"/><text fill="#000000" font-family="sans-serif" font-size="14" lengthAdjust="spacing" textLength="32" x="16" y="762.1123">User</text><ellipse cx="35" cy="773.9141" fill="#E2E2F0" rx="8" ry="8" style="stroke:#181818;stroke-width:0.5;"/><path d="M35,781.9141 L35,808.9141 M22,789.9141 L48,789.9141 M35,808.9141 L22,823.9141 M35,808.9141 L48,823.9141 " fill="none" style="stroke:#181818;stroke-width:0.5;"/><rect fill="#E2E2F0" height="30.2969" rx="2.5" ry="2.5" style="stroke:#181818;stroke-width:0.5;" width="88" x="64" y="87.2969"/><text fill="#000000" font-family="sans-serif" font-size="14" lengthAdjust="spacing" textLength="74" x="71" y="107.292">UserAgent</text><rect fill="#E2E2F0" height="30.2969" rx="2.5" ry="2.5" style="stroke:#181818;stroke-width:0.5;" width="88" x="64" y="749.1172"/><text fill="#000000" font-family="sans-serif" font-size="14" lengthAdjust="spacing" textLength="74" x="71" y="769.1123">UserAgent</text><rect fill="#E2E2F0" height="30.2969" rx="2.5" ry="2.5" style="stroke:#181818;stroke-width:0.5;" width="73" x="223.5" y="87.2969"/><text fill="#000000" font-family="sans-serif" font-size="14" lengthAdjust="spacing" textLength="59" x="230.5" y="107.292">Provider</text><rect fill="#E2E2F0" height="30.2969" rx="2.5" ry="2.5" style="stroke:#181818;stroke-width:0.5;" width="73" x="223.5" y="749.1172"/><text fill="#000000" font-family="sans-serif" font-size="14" lengthAdjust="spacing" textLength="59" x="230.5" y="769.1123">Provider</text><rect fill="#E2E2F0" height="46.5938" rx="2.5" ry="2.5" style="stroke:#181818;stroke-width:0.5;" width="89" x="694.5" y="71"/><text fill="#000000" font-family="sans-serif" font-size="14" lengthAdjust="spacing" textLength="75" x="701.5" y="90.9951">Frequency</text><text fill="#000000" font-family="sans-serif" font-size="14" lengthAdjust="spacing" textLength="49" x="714.5" y="107.292">Access</text><rect fill="#E2E2F0" height="46.5938" rx="2.5" ry="2.5" style="stroke:#181818;stroke-width:0.5;" width="89" x="694.5" y="749.1172"/><text fill="#000000" font-family="sans-serif" font-size="14" lengthAdjust="spacing" textLength="75" x="701.5" y="769.1123">Frequency</text><text fill="#000000" font-family="sans-serif" font-size="14" lengthAdjust="spacing" textLength="49" x="714.5" y="785.4092">Access</text><text fill="#000000" font-family="sans-serif" font-size="14" lengthAdjust="spacing" textLength="39" x="1080.5" y="115.292">Redis</text><path d="M1085,66.2969 C1085,56.2969 1103,56.2969 1103,56.2969 C1103,56.2969 1121,56.2969 1121,66.2969 L1121,92.2969 C1121,102.2969 1103,102.2969 1103,102.2969 C1103,102.2969 1085,102.2969 1085,92.2969 L1085,66.2969 " fill="#E2E2F0" style="stroke:#181818;stroke-width:1.5;"/><path d="M1085,66.2969 C1085,76.2969 1103,76.2969 1103,76.2969 C1103,76.2969 1121,76.2969 1121,66.2969 " fill="none" style="stroke:#181818;stroke-width:1.5;"/><text fill="#000000" font-family="sans-serif" font-size="14" lengthAdjust="spacing" textLength="39" x="1080.5" y="762.1123">Redis</text><path d="M1085,775.4141 C1085,765.4141 1103,765.4141 1103,765.4141 C1103,765.4141 1121,765.4141 1121,775.4141 L1121,801.4141 C1121,811.4141 1103,811.4141 1103,811.4141 C1103,811.4141 1085,811.4141 1085,801.4141 L1085,775.4141 " fill="#E2E2F0" style="stroke:#181818;stroke-width:1.5;"/><path d="M1085,775.4141 C1085,785.4141 1103,785.4141 1103,785.4141 C1103,785.4141 1121,785.4141 1121,775.4141 " fill="none" style="stroke:#181818;stroke-width:1.5;"/><rect fill="#E2E2F0" height="30.2969" rx="2.5" ry="2.5" style="stroke:#181818;stroke-width:0.5;" width="89" x="1135.5" y="87.2969"/><text fill="#000000" font-family="sans-serif" font-size="14" lengthAdjust="spacing" textLength="75" x="1142.5" y="107.292">Frequency</text><rect fill="#E2E2F0" height="30.2969" rx="2.5" ry="2.5" style="stroke:#181818;stroke-width:0.5;" width="89" x="1135.5" y="749.1172"/><text fill="#000000" font-family="sans-serif" font-size="14" lengthAdjust="spacing" textLength="75" x="1142.5" y="769.1123">Frequency</text><rect fill="#E2E2F0" height="30.2969" rx="2.5" ry="2.5" style="stroke:#181818;stroke-width:0.5;" width="41" x="1234.5" y="87.2969"/><text fill="#000000" font-family="sans-serif" font-size="14" lengthAdjust="spacing" textLength="27" x="1241.5" y="107.292">SES</text><rect fill="#E2E2F0" height="30.2969" rx="2.5" ry="2.5" style="stroke:#181818;stroke-width:0.5;" width="41" x="1234.5" y="749.1172"/><text fill="#000000" font-family="sans-serif" font-size="14" lengthAdjust="spacing" textLength="27" x="1241.5" y="769.1123">SES</text><rect fill="#E2E2F0" height="46.5938" rx="2.5" ry="2.5" style="stroke:#181818;stroke-width:0.5;" width="95" x="1285.5" y="71"/><text fill="#000000" font-family="sans-serif" font-size="14" lengthAdjust="spacing" textLength="81" x="1292.5" y="90.9951">Notification</text><text fill="#000000" font-family="sans-serif" font-size="14" lengthAdjust="spacing" textLength="53" x="1306.5" y="107.292">Service</text><rect fill="#E2E2F0" height="46.5938" rx="2.5" ry="2.5" style="stroke:#181818;stroke-width:0.5;" width="95" x="1285.5" y="749.1172"/><text fill="#000000" font-family="sans-serif" font-size="14" lengthAdjust="spacing" textLength="81" x="1292.5" y="769.1123">Notification</text><text fill="#000000" font-family="sans-serif" font-size="14" lengthAdjust="spacing" textLength="53" x="1306.5" y="785.4092">Service</text><path d="M5,133.5938 L5,158.5938 L1364,158.5938 L1364,143.5938 L1354,133.5938 L5,133.5938 " fill="#FEFFDD" style="stroke:#181818;stroke-width:0.5;"/><path d="M1354,133.5938 L1354,143.5938 L1364,143.5938 L1354,133.5938 " fill="#FEFFDD" style="stroke:#181818;stroke-width:0.5;"/><text fill="#000000" font-family="sans-serif" font-size="13" lengthAdjust="spacing" textLength="297" x="531.75" y="150.6606">Assumes you are coming from the Login Flow</text><polygon fill="#181818" points="1168,180.8594,1178,184.8594,1168,188.8594,1172,184.8594" style="stroke:#181818;stroke-width:1.0;"/><line style="stroke:#181818;stroke-width:1.0;" x1="739" x2="1174" y1="184.8594" y2="184.8594"/><text fill="#000000" font-family="sans-serif" font-size="13" font-weight="bold" lengthAdjust="spacing" textLength="9" x="746" y="179.7935">1</text><text fill="#000000" font-family="sans-serif" font-size="13" lengthAdjust="spacing" textLength="270" x="759" y="179.7935">get permissions for userMsaId, providerId</text><polygon fill="#181818" points="750,209.9922,740,213.9922,750,217.9922,746,213.9922" style="stroke:#181818;stroke-width:1.0;"/><line style="stroke:#181818;stroke-width:1.0;stroke-dasharray:2.0,2.0;" x1="744" x2="1179" y1="213.9922" y2="213.9922"/><text fill="#000000" font-family="sans-serif" font-size="13" font-weight="bold" lengthAdjust="spacing" textLength="9" x="756" y="208.9263">2</text><text fill="#000000" font-family="sans-serif" font-size="13" lengthAdjust="spacing" textLength="159" x="769" y="208.9263">Permissions for Provider</text><polygon fill="#181818" points="119,239.125,109,243.125,119,247.125,115,243.125" style="stroke:#181818;stroke-width:1.0;"/><line style="stroke:#181818;stroke-width:1.0;" x1="113" x2="738" y1="243.125" y2="243.125"/><text fill="#000000" font-family="sans-serif" font-size="13" font-weight="bold" lengthAdjust="spacing" textLength="9" x="125" y="238.0591">3</text><text fill="#000000" font-family="sans-serif" font-size="13" lengthAdjust="spacing" textLength="594" x="138" y="238.0591">Render Permissions Screen for all requested permissions for provider and identifier to send</text><polygon fill="#181818" points="727,268.2578,737,272.2578,727,276.2578,731,272.2578" style="stroke:#181818;stroke-width:1.0;"/><line style="stroke:#181818;stroke-width:1.0;" x1="108" x2="733" y1="272.2578" y2="272.2578"/><text fill="#000000" font-family="sans-serif" font-size="13" font-weight="bold" lengthAdjust="spacing" textLength="9" x="115" y="267.1919">4</text><text fill="#000000" font-family="sans-serif" font-size="13" lengthAdjust="spacing" textLength="255" x="128" y="267.1919">Accepts w/Single UserIdentifier to send</text><polygon fill="#181818" points="1091,297.3906,1101,301.3906,1091,305.3906,1095,301.3906" style="stroke:#181818;stroke-width:1.0;"/><line style="stroke:#181818;stroke-width:1.0;" x1="739" x2="1097" y1="301.3906" y2="301.3906"/><text fill="#000000" font-family="sans-serif" font-size="13" font-weight="bold" lengthAdjust="spacing" textLength="9" x="746" y="296.3247">5</text><text fill="#000000" font-family="sans-serif" font-size="13" lengthAdjust="spacing" textLength="117" x="759" y="296.3247">Find Session by id</text><polygon fill="#181818" points="750,326.5234,740,330.5234,750,334.5234,746,330.5234" style="stroke:#181818;stroke-width:1.0;"/><line style="stroke:#181818;stroke-width:1.0;stroke-dasharray:2.0,2.0;" x1="744" x2="1102" y1="330.5234" y2="330.5234"/><text fill="#000000" font-family="sans-serif" font-size="13" font-weight="bold" lengthAdjust="spacing" textLength="9" x="756" y="325.4575">6</text><text fill="#000000" font-family="sans-serif" font-size="13" lengthAdjust="spacing" textLength="50" x="769" y="325.4575">Session</text><line style="stroke:#181818;stroke-width:1.0;" x1="739" x2="781" y1="359.6563" y2="359.6563"/><line style="stroke:#181818;stroke-width:1.0;" x1="781" x2="781" y1="359.6563" y2="372.6563"/><line style="stroke:#181818;stroke-width:1.0;" x1="740" x2="781" y1="372.6563" y2="372.6563"/><polygon fill="#181818" points="750,368.6563,740,372.6563,750,376.6563,746,372.6563" style="stroke:#181818;stroke-width:1.0;"/><text fill="#000000" font-family="sans-serif" font-size="13" font-weight="bold" lengthAdjust="spacing" textLength="9" x="746" y="354.5903">7</text><text fill="#000000" font-family="sans-serif" font-size="13" lengthAdjust="spacing" textLength="337" x="759" y="354.5903">create and sign addPermissionsPayload chosen key</text><line style="stroke:#181818;stroke-width:1.0;" x1="739" x2="781" y1="401.7891" y2="401.7891"/><line style="stroke:#181818;stroke-width:1.0;" x1="781" x2="781" y1="401.7891" y2="414.7891"/><line style="stroke:#181818;stroke-width:1.0;" x1="740" x2="781" y1="414.7891" y2="414.7891"/><polygon fill="#181818" points="750,410.7891,740,414.7891,750,418.7891,746,414.7891" style="stroke:#181818;stroke-width:1.0;"/><text fill="#000000" font-family="sans-serif" font-size="13" font-weight="bold" lengthAdjust="spacing" textLength="9" x="746" y="396.7231">8</text><text fill="#000000" font-family="sans-serif" font-size="13" lengthAdjust="spacing" textLength="255" x="759" y="396.7231">Add addPermissionsPayload to Session</text><line style="stroke:#181818;stroke-width:1.0;" x1="739" x2="781" y1="443.9219" y2="443.9219"/><line style="stroke:#181818;stroke-width:1.0;" x1="781" x2="781" y1="443.9219" y2="456.9219"/><line style="stroke:#181818;stroke-width:1.0;" x1="740" x2="781" y1="456.9219" y2="456.9219"/><polygon fill="#181818" points="750,452.9219,740,456.9219,750,460.9219,746,456.9219" style="stroke:#181818;stroke-width:1.0;"/><text fill="#000000" font-family="sans-serif" font-size="13" font-weight="bold" lengthAdjust="spacing" textLength="9" x="746" y="438.856">9</text><text fill="#000000" font-family="sans-serif" font-size="13" lengthAdjust="spacing" textLength="211" x="759" y="438.856">Add Identifier to send to Session</text><line style="stroke:#181818;stroke-width:1.0;" x1="739" x2="781" y1="486.0547" y2="486.0547"/><line style="stroke:#181818;stroke-width:1.0;" x1="781" x2="781" y1="486.0547" y2="499.0547"/><line style="stroke:#181818;stroke-width:1.0;" x1="740" x2="781" y1="499.0547" y2="499.0547"/><polygon fill="#181818" points="750,495.0547,740,499.0547,750,503.0547,746,499.0547" style="stroke:#181818;stroke-width:1.0;"/><text fill="#000000" font-family="sans-serif" font-size="13" font-weight="bold" lengthAdjust="spacing" textLength="18" x="746" y="480.9888">10</text><text fill="#000000" font-family="sans-serif" font-size="13" lengthAdjust="spacing" textLength="183" x="768" y="480.9888">Generate authorizationCode</text><polygon fill="#181818" points="1091,524.1875,1101,528.1875,1091,532.1875,1095,528.1875" style="stroke:#181818;stroke-width:1.0;"/><line style="stroke:#181818;stroke-width:1.0;" x1="739" x2="1097" y1="528.1875" y2="528.1875"/><text fill="#000000" font-family="sans-serif" font-size="13" font-weight="bold" lengthAdjust="spacing" textLength="18" x="746" y="523.1216">11</text><text fill="#000000" font-family="sans-serif" font-size="13" lengthAdjust="spacing" textLength="262" x="768" y="523.1216">update Session by id, authorizationCode</text><polygon fill="#181818" points="750,553.3203,740,557.3203,750,561.3203,746,557.3203" style="stroke:#181818;stroke-width:1.0;"/><line style="stroke:#181818;stroke-width:1.0;stroke-dasharray:2.0,2.0;" x1="744" x2="1102" y1="557.3203" y2="557.3203"/><text fill="#000000" font-family="sans-serif" font-size="13" font-weight="bold" lengthAdjust="spacing" textLength="18" x="756" y="552.2544">12</text><text fill="#000000" font-family="sans-serif" font-size="13" lengthAdjust="spacing" textLength="4" x="778" y="552.2544">&#160;</text><polygon fill="#181818" points="119,582.4531,109,586.4531,119,590.4531,115,586.4531" style="stroke:#181818;stroke-width:1.0;"/><line style="stroke:#181818;stroke-width:1.0;" x1="113" x2="738" y1="586.4531" y2="586.4531"/><text fill="#000000" font-family="sans-serif" font-size="13" font-weight="bold" lengthAdjust="spacing" textLength="18" x="125" y="581.3872">13</text><text fill="#000000" font-family="sans-serif" font-size="13" lengthAdjust="spacing" textLength="374" x="147" y="581.3872">Redirect to callback url with authorizationCode, sessionId</text><polygon fill="#181818" points="248,611.5859,258,615.5859,248,619.5859,252,615.5859" style="stroke:#181818;stroke-width:1.0;"/><line style="stroke:#181818;stroke-width:1.0;" x1="108" x2="254" y1="615.5859" y2="615.5859"/><text fill="#000000" font-family="sans-serif" font-size="13" font-weight="bold" lengthAdjust="spacing" textLength="18" x="115" y="610.52">14</text><text fill="#000000" font-family="sans-serif" font-size="13" lengthAdjust="spacing" textLength="106" x="137" y="610.52">Resolve redirect</text><polygon fill="#181818" points="727,640.7188,737,644.7188,727,648.7188,731,644.7188" style="stroke:#181818;stroke-width:1.0;"/><line style="stroke:#181818;stroke-width:1.0;" x1="260" x2="733" y1="644.7188" y2="644.7188"/><text fill="#000000" font-family="sans-serif" font-size="13" font-weight="bold" lengthAdjust="spacing" textLength="18" x="267" y="639.6528">15</text><text fill="#000000" font-family="sans-serif" font-size="13" lengthAdjust="spacing" textLength="344" x="289" y="639.6528">Resolve payload by authorizationCode and sessionId</text><polygon fill="#181818" points="1091,669.8516,1101,673.8516,1091,677.8516,1095,673.8516" style="stroke:#181818;stroke-width:1.0;"/><line style="stroke:#181818;stroke-width:1.0;" x1="739" x2="1097" y1="673.8516" y2="673.8516"/><text fill="#000000" font-family="sans-serif" font-size="13" font-weight="bold" lengthAdjust="spacing" textLength="18" x="746" y="668.7856">16</text><text fill="#000000" font-family="sans-serif" font-size="13" lengthAdjust="spacing" textLength="312" x="768" y="668.7856">find Session bt authorizationCode and sessionId</text><polygon fill="#181818" points="750,698.9844,740,702.9844,750,706.9844,746,702.9844" style="stroke:#181818;stroke-width:1.0;"/><line style="stroke:#181818;stroke-width:1.0;stroke-dasharray:2.0,2.0;" x1="744" x2="1102" y1="702.9844" y2="702.9844"/><text fill="#000000" font-family="sans-serif" font-size="13" font-weight="bold" lengthAdjust="spacing" textLength="18" x="756" y="697.9185">17</text><text fill="#000000" font-family="sans-serif" font-size="13" lengthAdjust="spacing" textLength="4" x="778" y="697.9185">&#160;</text><polygon fill="#181818" points="271,728.1172,261,732.1172,271,736.1172,267,732.1172" style="stroke:#181818;stroke-width:1.0;"/><line style="stroke:#181818;stroke-width:1.0;" x1="265" x2="738" y1="732.1172" y2="732.1172"/><text fill="#000000" font-family="sans-serif" font-size="13" font-weight="bold" lengthAdjust="spacing" textLength="18" x="277" y="727.0513">18</text><text fill="#000000" font-family="sans-serif" font-size="13" lengthAdjust="spacing" textLength="100" x="299" y="727.0513">Signed Payload</text><!--SRC=[XL91Zjim3Bpx5KJEANhFeK2mQ8e0tI9OezZBNcY9TeIr9PUK4gIlBoKxYxX9qPjDZeOpGqONUu9LlN_TmhFh6ACB7WB3rbeu40zEH2i2kpwSLnMQgBtLJo5U0GgaQaIEphWHVPpgsuvyd9gux1uud9oTNuxBtexfLo9lBcz-Qmo9552BbSM83OfgV27hfZB_usrfDcRPhR_MfIuaoyQF45thJ77yvclYapDKe5wgoeT8W8Q3o0Qs8caWWKj8W4nWmk1y1os70UAHu7led2yHLPXYy6beYAiMFtrfp0OwYZ3UHDbgX4cJUXRSspMCSonxMp75n7wHUmPVWokC2JVmGbv_5xZQC94lSEnxA95897it-JeEq5lG3vzJqDyOD29lgwGpMfsHrp16WVFdMhtgaUJbxk_nMHDlOEUKhgOo29gBCb_TpCK2pCGg57EsYXVNUK1hRumSyD87j62EGUdXdIuV3_D9FWQhbh-dPF2zsaV8R-I9Yw8KZu7Txt8HJy7IrLiQRUultAqVm2V3DrkoZid4FDJeKXeqxv2uXxEBn_ldwtoYUS1-MiAO6IJq9z9jJapLE4c-riVPlogwevi2_c2ShRIBDSN_Fhknf7fgtPUUr1px7m00]--></g></svg>