<?xml version="1.0" encoding="us-ascii" standalone="no"?><svg xmlns="http://www.w3.org/2000/svg" xmlns:xlink="http://www.w3.org/1999/xlink" contentStyleType="text/css" height="2123px" preserveAspectRatio="none" style="width:1750px;height:2123px;background:#FFFFFF;" version="1.1" viewBox="0 0 1750 2123" width="1750px" zoomAndPan="magnify"><defs/><g><text fill="#000000" font-family="sans-serif" font-size="14" font-weight="bold" lengthAdjust="spacing" textLength="133" x="809.5" y="27.9951">SIWA Login Flow</text><rect fill="none" height="636.2656" style="stroke:#000000;stroke-width:1.5;" width="1733" x="10" y="540.3203"/><rect fill="none" height="513.0625" style="stroke:#000000;stroke-width:1.5;" width="1713" x="20" y="656.5234"/><rect fill="none" height="381.5313" style="stroke:#000000;stroke-width:1.5;" width="1693" x="30" y="781.0547"/><rect fill="none" height="443.3359" style="stroke:#000000;stroke-width:1.5;" width="1688" x="18" y="1407.5156"/><rect fill="none" height="261.8672" style="stroke:#000000;stroke-width:1.5;" width="1208" x="260" y="1481.5859"/><line style="stroke:#181818;stroke-width:0.5;stroke-dasharray:5.0,5.0;" x1="59" x2="59" y1="118.5938" y2="2042.6484"/><line style="stroke:#181818;stroke-width:0.5;stroke-dasharray:5.0,5.0;" x1="314" x2="314" y1="118.5938" y2="2042.6484"/><line style="stroke:#181818;stroke-width:0.5;stroke-dasharray:5.0,5.0;" x1="469.5" x2="469.5" y1="118.5938" y2="2042.6484"/><line style="stroke:#181818;stroke-width:0.5;stroke-dasharray:5.0,5.0;" x1="996.5" x2="996.5" y1="118.5938" y2="2042.6484"/><line style="stroke:#181818;stroke-width:0.5;stroke-dasharray:5.0,5.0;" x1="1370" x2="1370" y1="118.5938" y2="2042.6484"/><line style="stroke:#181818;stroke-width:0.5;stroke-dasharray:5.0,5.0;" x1="1435" x2="1435" y1="118.5938" y2="2042.6484"/><line style="stroke:#181818;stroke-width:0.5;stroke-dasharray:5.0,5.0;" x1="1512" x2="1512" y1="118.5938" y2="2042.6484"/><line style="stroke:#181818;stroke-width:0.5;stroke-dasharray:5.0,5.0;" x1="1587" x2="1587" y1="118.5938" y2="2042.6484"/><line style="stroke:#181818;stroke-width:0.5;stroke-dasharray:5.0,5.0;" x1="1665" x2="1665" y1="118.5938" y2="2042.6484"/><text fill="#000000" font-family="sans-serif" font-size="14" lengthAdjust="spacing" textLength="32" x="40" y="115.292">User</text><ellipse cx="59" cy="50.7969" fill="#E2E2F0" rx="8" ry="8" style="stroke:#181818;stroke-width:0.5;"/><path d="M59,58.7969 L59,85.7969 M46,66.7969 L72,66.7969 M59,85.7969 L46,100.7969 M59,85.7969 L72,100.7969 " fill="none" style="stroke:#181818;stroke-width:0.5;"/><text fill="#000000" font-family="sans-serif" font-size="14" lengthAdjust="spacing" textLength="32" x="40" y="2054.6436">User</text><ellipse cx="59" cy="2066.4453" fill="#E2E2F0" rx="8" ry="8" style="stroke:#181818;stroke-width:0.5;"/><path d="M59,2074.4453 L59,2101.4453 M46,2082.4453 L72,2082.4453 M59,2101.4453 L46,2116.4453 M59,2101.4453 L72,2116.4453 " fill="none" style="stroke:#181818;stroke-width:0.5;"/><rect fill="#E2E2F0" height="30.2969" rx="2.5" ry="2.5" style="stroke:#181818;stroke-width:0.5;" width="88" x="270" y="87.2969"/><text fill="#000000" font-family="sans-serif" font-size="14" lengthAdjust="spacing" textLength="74" x="277" y="107.292">UserAgent</text><rect fill="#E2E2F0" height="30.2969" rx="2.5" ry="2.5" style="stroke:#181818;stroke-width:0.5;" width="88" x="270" y="2041.6484"/><text fill="#000000" font-family="sans-serif" font-size="14" lengthAdjust="spacing" textLength="74" x="277" y="2061.6436">UserAgent</text><rect fill="#E2E2F0" height="30.2969" rx="2.5" ry="2.5" style="stroke:#181818;stroke-width:0.5;" width="73" x="433.5" y="87.2969"/><text fill="#000000" font-family="sans-serif" font-size="14" lengthAdjust="spacing" textLength="59" x="440.5" y="107.292">Provider</text><rect fill="#E2E2F0" height="30.2969" rx="2.5" ry="2.5" style="stroke:#181818;stroke-width:0.5;" width="73" x="433.5" y="2041.6484"/><text fill="#000000" font-family="sans-serif" font-size="14" lengthAdjust="spacing" textLength="59" x="440.5" y="2061.6436">Provider</text><rect fill="#E2E2F0" height="46.5938" rx="2.5" ry="2.5" style="stroke:#181818;stroke-width:0.5;" width="89" x="952.5" y="71"/><text fill="#000000" font-family="sans-serif" font-size="14" lengthAdjust="spacing" textLength="75" x="959.5" y="90.9951">Frequency</text><text fill="#000000" font-family="sans-serif" font-size="14" lengthAdjust="spacing" textLength="49" x="972.5" y="107.292">Access</text><rect fill="#E2E2F0" height="46.5938" rx="2.5" ry="2.5" style="stroke:#181818;stroke-width:0.5;" width="89" x="952.5" y="2041.6484"/><text fill="#000000" font-family="sans-serif" font-size="14" lengthAdjust="spacing" textLength="75" x="959.5" y="2061.6436">Frequency</text><text fill="#000000" font-family="sans-serif" font-size="14" lengthAdjust="spacing" textLength="49" x="972.5" y="2077.9404">Access</text><text fill="#000000" font-family="sans-serif" font-size="14" lengthAdjust="spacing" textLength="60" x="1337" y="115.292">Postgres</text><path d="M1352,66.2969 C1352,56.2969 1370,56.2969 1370,56.2969 C1370,56.2969 1388,56.2969 1388,66.2969 L1388,92.2969 C1388,102.2969 1370,102.2969 1370,102.2969 C1370,102.2969 1352,102.2969 1352,92.2969 L1352,66.2969 " fill="#E2E2F0" style="stroke:#181818;stroke-width:1.5;"/><path d="M1352,66.2969 C1352,76.2969 1370,76.2969 1370,76.2969 C1370,76.2969 1388,76.2969 1388,66.2969 " fill="none" style="stroke:#181818;stroke-width:1.5;"/><text fill="#000000" font-family="sans-serif" font-size="14" lengthAdjust="spacing" textLength="60" x="1337" y="2054.6436">Postgres</text><path d="M1352,2067.9453 C1352,2057.9453 1370,2057.9453 1370,2057.9453 C1370,2057.9453 1388,2057.9453 1388,2067.9453 L1388,2093.9453 C1388,2103.9453 1370,2103.9453 1370,2103.9453 C1370,2103.9453 1352,2103.9453 1352,2093.9453 L1352,2067.9453 " fill="#E2E2F0" style="stroke:#181818;stroke-width:1.5;"/><path d="M1352,2067.9453 C1352,2077.9453 1370,2077.9453 1370,2077.9453 C1370,2077.9453 1388,2077.9453 1388,2067.9453 " fill="none" style="stroke:#181818;stroke-width:1.5;"/><text fill="#000000" font-family="sans-serif" font-size="14" lengthAdjust="spacing" textLength="39" x="1413" y="115.292">Redis</text><path d="M1417.5,66.2969 C1417.5,56.2969 1435.5,56.2969 1435.5,56.2969 C1435.5,56.2969 1453.5,56.2969 1453.5,66.2969 L1453.5,92.2969 C1453.5,102.2969 1435.5,102.2969 1435.5,102.2969 C1435.5,102.2969 1417.5,102.2969 1417.5,92.2969 L1417.5,66.2969 " fill="#E2E2F0" style="stroke:#181818;stroke-width:1.5;"/><path d="M1417.5,66.2969 C1417.5,76.2969 1435.5,76.2969 1435.5,76.2969 C1435.5,76.2969 1453.5,76.2969 1453.5,66.2969 " fill="none" style="stroke:#181818;stroke-width:1.5;"/><text fill="#000000" font-family="sans-serif" font-size="14" lengthAdjust="spacing" textLength="39" x="1413" y="2054.6436">Redis</text><path d="M1417.5,2067.9453 C1417.5,2057.9453 1435.5,2057.9453 1435.5,2057.9453 C1435.5,2057.9453 1453.5,2057.9453 1453.5,2067.9453 L1453.5,2093.9453 C1453.5,2103.9453 1435.5,2103.9453 1435.5,2103.9453 C1435.5,2103.9453 1417.5,2103.9453 1417.5,2093.9453 L1417.5,2067.9453 " fill="#E2E2F0" style="stroke:#181818;stroke-width:1.5;"/><path d="M1417.5,2067.9453 C1417.5,2077.9453 1435.5,2077.9453 1435.5,2077.9453 C1435.5,2077.9453 1453.5,2077.9453 1453.5,2067.9453 " fill="none" style="stroke:#181818;stroke-width:1.5;"/><rect fill="#E2E2F0" height="30.2969" rx="2.5" ry="2.5" style="stroke:#181818;stroke-width:0.5;" width="89" x="1468" y="87.2969"/><text fill="#000000" font-family="sans-serif" font-size="14" lengthAdjust="spacing" textLength="75" x="1475" y="107.292">Frequency</text><rect fill="#E2E2F0" height="30.2969" rx="2.5" ry="2.5" style="stroke:#181818;stroke-width:0.5;" width="89" x="1468" y="2041.6484"/><text fill="#000000" font-family="sans-serif" font-size="14" lengthAdjust="spacing" textLength="75" x="1475" y="2061.6436">Frequency</text><rect fill="#E2E2F0" height="30.2969" rx="2.5" ry="2.5" style="stroke:#181818;stroke-width:0.5;" width="41" x="1567" y="87.2969"/><text fill="#000000" font-family="sans-serif" font-size="14" lengthAdjust="spacing" textLength="27" x="1574" y="107.292">SES</text><rect fill="#E2E2F0" height="30.2969" rx="2.5" ry="2.5" style="stroke:#181818;stroke-width:0.5;" width="41" x="1567" y="2041.6484"/><text fill="#000000" font-family="sans-serif" font-size="14" lengthAdjust="spacing" textLength="27" x="1574" y="2061.6436">SES</text><rect fill="#E2E2F0" height="46.5938" rx="2.5" ry="2.5" style="stroke:#181818;stroke-width:0.5;" width="95" x="1618" y="71"/><text fill="#000000" font-family="sans-serif" font-size="14" lengthAdjust="spacing" textLength="81" x="1625" y="90.9951">Notification</text><text fill="#000000" font-family="sans-serif" font-size="14" lengthAdjust="spacing" textLength="53" x="1639" y="107.292">Service</text><rect fill="#E2E2F0" height="46.5938" rx="2.5" ry="2.5" style="stroke:#181818;stroke-width:0.5;" width="95" x="1618" y="2041.6484"/><text fill="#000000" font-family="sans-serif" font-size="14" lengthAdjust="spacing" textLength="81" x="1625" y="2061.6436">Notification</text><text fill="#000000" font-family="sans-serif" font-size="14" lengthAdjust="spacing" textLength="53" x="1639" y="2077.9404">Service</text><polygon fill="#181818" points="302,145.7266,312,149.7266,302,153.7266,306,149.7266" style="stroke:#181818;stroke-width:1.0;"/><line style="stroke:#181818;stroke-width:1.0;" x1="59" x2="308" y1="149.7266" y2="149.7266"/><text fill="#000000" font-family="sans-serif" font-size="13" font-weight="bold" lengthAdjust="spacing" textLength="9" x="66" y="144.6606">1</text><text fill="#000000" font-family="sans-serif" font-size="13" lengthAdjust="spacing" textLength="218" x="79" y="144.6606">User would like to login or signup</text><polygon fill="#181818" points="458,174.8594,468,178.8594,458,182.8594,462,178.8594" style="stroke:#181818;stroke-width:1.0;"/><line style="stroke:#181818;stroke-width:1.0;" x1="314" x2="464" y1="178.8594" y2="178.8594"/><text fill="#000000" font-family="sans-serif" font-size="13" font-weight="bold" lengthAdjust="spacing" textLength="9" x="321" y="173.7935">2</text><text fill="#000000" font-family="sans-serif" font-size="13" lengthAdjust="spacing" textLength="119" x="334" y="173.7935">SIWA Button POST</text><polygon fill="#181818" points="985,203.9922,995,207.9922,985,211.9922,989,207.9922" style="stroke:#181818;stroke-width:1.0;"/><line style="stroke:#181818;stroke-width:1.0;" x1="470" x2="991" y1="207.9922" y2="207.9922"/><text fill="#000000" font-family="sans-serif" font-size="13" font-weight="bold" lengthAdjust="spacing" textLength="9" x="477" y="202.9263">3</text><text fill="#000000" font-family="sans-serif" font-size="13" lengthAdjust="spacing" textLength="458" x="490" y="202.9263">POST SignedRequest(publicKey,signature,nonce,callback,permissions)</text><line style="stroke:#181818;stroke-width:1.0;" x1="997" x2="1039" y1="237.125" y2="237.125"/><line style="stroke:#181818;stroke-width:1.0;" x1="1039" x2="1039" y1="237.125" y2="250.125"/><line style="stroke:#181818;stroke-width:1.0;" x1="998" x2="1039" y1="250.125" y2="250.125"/><polygon fill="#181818" points="1008,246.125,998,250.125,1008,254.125,1004,250.125" style="stroke:#181818;stroke-width:1.0;"/><text fill="#000000" font-family="sans-serif" font-size="13" font-weight="bold" lengthAdjust="spacing" textLength="9" x="1004" y="232.0591">4</text><text fill="#000000" font-family="sans-serif" font-size="13" lengthAdjust="spacing" textLength="120" x="1017" y="232.0591">Validate Signature</text><polygon fill="#181818" points="1500.5,275.2578,1510.5,279.2578,1500.5,283.2578,1504.5,279.2578" style="stroke:#181818;stroke-width:1.0;"/><line style="stroke:#181818;stroke-width:1.0;" x1="997" x2="1506.5" y1="279.2578" y2="279.2578"/><text fill="#000000" font-family="sans-serif" font-size="13" font-weight="bold" lengthAdjust="spacing" textLength="9" x="1004" y="274.1919">5</text><text fill="#000000" font-family="sans-serif" font-size="13" lengthAdjust="spacing" textLength="174" x="1017" y="274.1919">retrieve msa by public key</text><polygon fill="#181818" points="1008,304.3906,998,308.3906,1008,312.3906,1004,308.3906" style="stroke:#181818;stroke-width:1.0;"/><line style="stroke:#181818;stroke-width:1.0;stroke-dasharray:2.0,2.0;" x1="1002" x2="1511.5" y1="308.3906" y2="308.3906"/><text fill="#000000" font-family="sans-serif" font-size="13" font-weight="bold" lengthAdjust="spacing" textLength="9" x="1014" y="303.3247">6</text><text fill="#000000" font-family="sans-serif" font-size="13" lengthAdjust="spacing" textLength="92" x="1027" y="303.3247">providerMsaId</text><line style="stroke:#181818;stroke-width:1.0;" x1="997" x2="1039" y1="337.5234" y2="337.5234"/><line style="stroke:#181818;stroke-width:1.0;" x1="1039" x2="1039" y1="337.5234" y2="350.5234"/><line style="stroke:#181818;stroke-width:1.0;" x1="998" x2="1039" y1="350.5234" y2="350.5234"/><polygon fill="#181818" points="1008,346.5234,998,350.5234,1008,354.5234,1004,350.5234" style="stroke:#181818;stroke-width:1.0;"/><text fill="#000000" font-family="sans-serif" font-size="13" font-weight="bold" lengthAdjust="spacing" textLength="9" x="1004" y="332.4575">7</text><text fill="#000000" font-family="sans-serif" font-size="13" lengthAdjust="spacing" textLength="210" x="1017" y="332.4575">check whitelisted providerMsaId</text><polygon fill="#181818" points="1423.5,375.6563,1433.5,379.6563,1423.5,383.6563,1427.5,379.6563" style="stroke:#181818;stroke-width:1.0;"/><line style="stroke:#181818;stroke-width:1.0;" x1="997" x2="1429.5" y1="379.6563" y2="379.6563"/><text fill="#000000" font-family="sans-serif" font-size="13" font-weight="bold" lengthAdjust="spacing" textLength="9" x="1004" y="374.5903">8</text><text fill="#000000" font-family="sans-serif" font-size="13" lengthAdjust="spacing" textLength="365" x="1017" y="374.5903">Persist Session by sessionId {sessionId,SignedRequest}</text><polygon fill="#181818" points="1008,404.7891,998,408.7891,1008,412.7891,1004,408.7891" style="stroke:#181818;stroke-width:1.0;"/><line style="stroke:#181818;stroke-width:1.0;stroke-dasharray:2.0,2.0;" x1="1002" x2="1434.5" y1="408.7891" y2="408.7891"/><text fill="#000000" font-family="sans-serif" font-size="13" font-weight="bold" lengthAdjust="spacing" textLength="9" x="1014" y="403.7231">9</text><text fill="#000000" font-family="sans-serif" font-size="13" lengthAdjust="spacing" textLength="4" x="1027" y="403.7231">&#160;</text><polygon fill="#181818" points="325,433.9219,315,437.9219,325,441.9219,321,437.9219" style="stroke:#181818;stroke-width:1.0;"/><line style="stroke:#181818;stroke-width:1.0;" x1="319" x2="996" y1="437.9219" y2="437.9219"/><text fill="#000000" font-family="sans-serif" font-size="13" font-weight="bold" lengthAdjust="spacing" textLength="18" x="331" y="432.856">10</text><text fill="#000000" font-family="sans-serif" font-size="13" lengthAdjust="spacing" textLength="268" x="353" y="432.856">Render SIWA UserIdentifier Capture Page</text><polygon fill="#181818" points="985,463.0547,995,467.0547,985,471.0547,989,467.0547" style="stroke:#181818;stroke-width:1.0;"/><line style="stroke:#181818;stroke-width:1.0;" x1="314" x2="991" y1="467.0547" y2="467.0547"/><text fill="#000000" font-family="sans-serif" font-size="13" font-weight="bold" lengthAdjust="spacing" textLength="18" x="321" y="461.9888">11</text><text fill="#000000" font-family="sans-serif" font-size="13" lengthAdjust="spacing" textLength="168" x="343" y="461.9888">Submit Identifier to verify</text><polygon fill="#181818" points="1358,492.1875,1368,496.1875,1358,500.1875,1362,496.1875" style="stroke:#181818;stroke-width:1.0;"/><line style="stroke:#181818;stroke-width:1.0;" x1="997" x2="1364" y1="496.1875" y2="496.1875"/><text fill="#000000" font-family="sans-serif" font-size="13" font-weight="bold" lengthAdjust="spacing" textLength="18" x="1004" y="491.1216">12</text><text fill="#000000" font-family="sans-serif" font-size="13" lengthAdjust="spacing" textLength="224" x="1026" y="491.1216">Find UserAccount by userIdentifier</text><polygon fill="#181818" points="1008,521.3203,998,525.3203,1008,529.3203,1004,525.3203" style="stroke:#181818;stroke-width:1.0;"/><line style="stroke:#181818;stroke-width:1.0;stroke-dasharray:2.0,2.0;" x1="1002" x2="1369" y1="525.3203" y2="525.3203"/><text fill="#000000" font-family="sans-serif" font-size="13" font-weight="bold" lengthAdjust="spacing" textLength="18" x="1014" y="520.2544">13</text><text fill="#000000" font-family="sans-serif" font-size="13" lengthAdjust="spacing" textLength="82" x="1036" y="520.2544">UserAccount</text><path d="M10,540.3203 L74,540.3203 L74,547.4531 L64,557.4531 L10,557.4531 L10,540.3203 " fill="#EEEEEE" style="stroke:#000000;stroke-width:1.5;"/><rect fill="none" height="636.2656" style="stroke:#000000;stroke-width:1.5;" width="1733" x="10" y="540.3203"/><text fill="#000000" font-family="sans-serif" font-size="13" font-weight="bold" lengthAdjust="spacing" textLength="19" x="25" y="553.3872">alt</text><text fill="#000000" font-family="sans-serif" font-size="11" font-weight="bold" lengthAdjust="spacing" textLength="160" x="89" y="552.5308">[UserAccount Not Found]</text><path d="M28,562.4531 L28,587.4531 L1696,587.4531 L1696,572.4531 L1686,562.4531 L28,562.4531 " fill="#FEFFDD" style="stroke:#181818;stroke-width:0.5;"/><path d="M1686,562.4531 L1686,572.4531 L1696,572.4531 L1686,562.4531 " fill="#FEFFDD" style="stroke:#181818;stroke-width:0.5;"/><text fill="#000000" font-family="sans-serif" font-size="13" lengthAdjust="spacing" textLength="125" x="795" y="579.52">See New User Flow</text><line style="stroke:#000000;stroke-width:1.0;stroke-dasharray:2.0,2.0;" x1="10" x2="1743" y1="593.5859" y2="593.5859"/><text fill="#000000" font-family="sans-serif" font-size="11" font-weight="bold" lengthAdjust="spacing" textLength="134" x="15" y="603.7964">[UserAccount Found]</text><line style="stroke:#181818;stroke-width:1.0;" x1="997" x2="1039" y1="628.5234" y2="628.5234"/><line style="stroke:#181818;stroke-width:1.0;" x1="1039" x2="1039" y1="628.5234" y2="641.5234"/><line style="stroke:#181818;stroke-width:1.0;" x1="998" x2="1039" y1="641.5234" y2="641.5234"/><polygon fill="#181818" points="1008,637.5234,998,641.5234,1008,645.5234,1004,641.5234" style="stroke:#181818;stroke-width:1.0;"/><text fill="#000000" font-family="sans-serif" font-size="13" font-weight="bold" lengthAdjust="spacing" textLength="18" x="1004" y="623.4575">14</text><text fill="#000000" font-family="sans-serif" font-size="13" lengthAdjust="spacing" textLength="181" x="1026" y="623.4575">add UserAccount to Session</text><path d="M20,656.5234 L221,656.5234 L221,663.6563 L211,673.6563 L20,673.6563 L20,656.5234 " fill="#EEEEEE" style="stroke:#000000;stroke-width:1.5;"/><rect fill="none" height="513.0625" style="stroke:#000000;stroke-width:1.5;" width="1713" x="20" y="656.5234"/><text fill="#000000" font-family="sans-serif" font-size="13" font-weight="bold" lengthAdjust="spacing" textLength="156" x="35" y="669.5903">Identifier Verification</text><line style="stroke:#181818;stroke-width:1.0;" x1="997" x2="1039" y1="694.7891" y2="694.7891"/><line style="stroke:#181818;stroke-width:1.0;" x1="1039" x2="1039" y1="694.7891" y2="707.7891"/><line style="stroke:#181818;stroke-width:1.0;" x1="998" x2="1039" y1="707.7891" y2="707.7891"/><polygon fill="#181818" points="1008,703.7891,998,707.7891,1008,711.7891,1004,707.7891" style="stroke:#181818;stroke-width:1.0;"/><text fill="#000000" font-family="sans-serif" font-size="13" font-weight="bold" lengthAdjust="spacing" textLength="18" x="1004" y="689.7231">15</text><text fill="#000000" font-family="sans-serif" font-size="13" lengthAdjust="spacing" textLength="191" x="1026" y="689.7231">Generate authenticationCode</text><polygon fill="#181818" points="1423.5,732.9219,1433.5,736.9219,1423.5,740.9219,1427.5,736.9219" style="stroke:#181818;stroke-width:1.0;"/><line style="stroke:#181818;stroke-width:1.0;" x1="997" x2="1429.5" y1="736.9219" y2="736.9219"/><text fill="#000000" font-family="sans-serif" font-size="13" font-weight="bold" lengthAdjust="spacing" textLength="18" x="1004" y="731.856">16</text><text fill="#000000" font-family="sans-serif" font-size="13" lengthAdjust="spacing" textLength="342" x="1026" y="731.856">Persist Session by authenticationCode and sessionId</text><polygon fill="#181818" points="1008,762.0547,998,766.0547,1008,770.0547,1004,766.0547" style="stroke:#181818;stroke-width:1.0;"/><line style="stroke:#181818;stroke-width:1.0;stroke-dasharray:2.0,2.0;" x1="1002" x2="1434.5" y1="766.0547" y2="766.0547"/><text fill="#000000" font-family="sans-serif" font-size="13" font-weight="bold" lengthAdjust="spacing" textLength="18" x="1014" y="760.9888">17</text><text fill="#000000" font-family="sans-serif" font-size="13" lengthAdjust="spacing" textLength="4" x="1036" y="760.9888">&#160;</text><path d="M30,781.0547 L94,781.0547 L94,788.1875 L84,798.1875 L30,798.1875 L30,781.0547 " fill="#EEEEEE" style="stroke:#000000;stroke-width:1.5;"/><rect fill="none" height="381.5313" style="stroke:#000000;stroke-width:1.5;" width="1693" x="30" y="781.0547"/><text fill="#000000" font-family="sans-serif" font-size="13" font-weight="bold" lengthAdjust="spacing" textLength="19" x="45" y="794.1216">alt</text><text fill="#000000" font-family="sans-serif" font-size="11" font-weight="bold" lengthAdjust="spacing" textLength="55" x="109" y="793.2651">[isEmail]</text><polygon fill="#181818" points="1575.5,815.3203,1585.5,819.3203,1575.5,823.3203,1579.5,819.3203" style="stroke:#181818;stroke-width:1.0;"/><line style="stroke:#181818;stroke-width:1.0;" x1="997" x2="1581.5" y1="819.3203" y2="819.3203"/><text fill="#000000" font-family="sans-serif" font-size="13" font-weight="bold" lengthAdjust="spacing" textLength="18" x="1004" y="814.2544">18</text><text fill="#000000" font-family="sans-serif" font-size="13" lengthAdjust="spacing" textLength="307" x="1026" y="814.2544">Send Email (sessionId and authenticationCode)</text><polygon fill="#181818" points="70,844.4531,60,848.4531,70,852.4531,66,848.4531" style="stroke:#181818;stroke-width:1.0;"/><line style="stroke:#181818;stroke-width:1.0;" x1="64" x2="1586.5" y1="848.4531" y2="848.4531"/><text fill="#000000" font-family="sans-serif" font-size="13" font-weight="bold" lengthAdjust="spacing" textLength="18" x="76" y="843.3872">19</text><text fill="#000000" font-family="sans-serif" font-size="13" lengthAdjust="spacing" textLength="69" x="98" y="843.3872">Email sent</text><polygon fill="#181818" points="985,873.5859,995,877.5859,985,881.5859,989,877.5859" style="stroke:#181818;stroke-width:1.0;"/><line style="stroke:#181818;stroke-width:1.0;" x1="59" x2="991" y1="877.5859" y2="877.5859"/><text fill="#000000" font-family="sans-serif" font-size="13" font-weight="bold" lengthAdjust="spacing" textLength="18" x="66" y="872.52">20</text><text fill="#000000" font-family="sans-serif" font-size="13" lengthAdjust="spacing" textLength="114" x="88" y="872.52">User Clicks Email</text><polygon fill="#181818" points="1423.5,902.7188,1433.5,906.7188,1423.5,910.7188,1427.5,906.7188" style="stroke:#181818;stroke-width:1.0;"/><line style="stroke:#181818;stroke-width:1.0;" x1="997" x2="1429.5" y1="906.7188" y2="906.7188"/><text fill="#000000" font-family="sans-serif" font-size="13" font-weight="bold" lengthAdjust="spacing" textLength="18" x="1004" y="901.6528">21</text><text fill="#000000" font-family="sans-serif" font-size="13" lengthAdjust="spacing" textLength="323" x="1026" y="901.6528">find Session by authenticationCode and sessionId</text><polygon fill="#181818" points="1008,931.8516,998,935.8516,1008,939.8516,1004,935.8516" style="stroke:#181818;stroke-width:1.0;"/><line style="stroke:#181818;stroke-width:1.0;stroke-dasharray:2.0,2.0;" x1="1002" x2="1434.5" y1="935.8516" y2="935.8516"/><text fill="#000000" font-family="sans-serif" font-size="13" font-weight="bold" lengthAdjust="spacing" textLength="18" x="1014" y="930.7856">22</text><text fill="#000000" font-family="sans-serif" font-size="13" lengthAdjust="spacing" textLength="50" x="1036" y="930.7856">Session</text><line style="stroke:#000000;stroke-width:1.0;stroke-dasharray:2.0,2.0;" x1="30" x2="1723" y1="944.8516" y2="944.8516"/><text fill="#000000" font-family="sans-serif" font-size="11" font-weight="bold" lengthAdjust="spacing" textLength="47" x="35" y="955.062">[isSms]</text><polygon fill="#181818" points="1653.5,975.7891,1663.5,979.7891,1653.5,983.7891,1657.5,979.7891" style="stroke:#181818;stroke-width:1.0;"/><line style="stroke:#181818;stroke-width:1.0;" x1="997" x2="1659.5" y1="979.7891" y2="979.7891"/><text fill="#000000" font-family="sans-serif" font-size="13" font-weight="bold" lengthAdjust="spacing" textLength="18" x="1004" y="974.7231">23</text><text fill="#000000" font-family="sans-serif" font-size="13" lengthAdjust="spacing" textLength="63" x="1026" y="974.7231">Send SMS</text><polygon fill="#181818" points="325,1004.9219,315,1008.9219,325,1012.9219,321,1008.9219" style="stroke:#181818;stroke-width:1.0;"/><line style="stroke:#181818;stroke-width:1.0;" x1="319" x2="996" y1="1008.9219" y2="1008.9219"/><text fill="#000000" font-family="sans-serif" font-size="13" font-weight="bold" lengthAdjust="spacing" textLength="18" x="331" y="1003.856">24</text><text fill="#000000" font-family="sans-serif" font-size="13" lengthAdjust="spacing" textLength="117" x="353" y="1003.856">Display SMS Form</text><polygon fill="#181818" points="70,1034.0547,60,1038.0547,70,1042.0547,66,1038.0547" style="stroke:#181818;stroke-width:1.0;"/><line style="stroke:#181818;stroke-width:1.0;" x1="64" x2="1664.5" y1="1038.0547" y2="1038.0547"/><text fill="#000000" font-family="sans-serif" font-size="13" font-weight="bold" lengthAdjust="spacing" textLength="18" x="76" y="1032.9888">25</text><text fill="#000000" font-family="sans-serif" font-size="13" lengthAdjust="spacing" textLength="149" x="98" y="1032.9888">Sms Message received</text><polygon fill="#181818" points="302,1063.1875,312,1067.1875,302,1071.1875,306,1067.1875" style="stroke:#181818;stroke-width:1.0;"/><line style="stroke:#181818;stroke-width:1.0;" x1="59" x2="308" y1="1067.1875" y2="1067.1875"/><text fill="#000000" font-family="sans-serif" font-size="13" font-weight="bold" lengthAdjust="spacing" textLength="18" x="66" y="1062.1216">26</text><text fill="#000000" font-family="sans-serif" font-size="13" lengthAdjust="spacing" textLength="172" x="88" y="1062.1216">Enters authenticationCode</text><polygon fill="#181818" points="985,1092.3203,995,1096.3203,985,1100.3203,989,1096.3203" style="stroke:#181818;stroke-width:1.0;"/><line style="stroke:#181818;stroke-width:1.0;" x1="314" x2="991" y1="1096.3203" y2="1096.3203"/><text fill="#000000" font-family="sans-serif" font-size="13" font-weight="bold" lengthAdjust="spacing" textLength="18" x="321" y="1091.2544">27</text><text fill="#000000" font-family="sans-serif" font-size="13" lengthAdjust="spacing" textLength="184" x="343" y="1091.2544">Submits authenticationCode</text><polygon fill="#181818" points="1423.5,1121.4531,1433.5,1125.4531,1423.5,1129.4531,1427.5,1125.4531" style="stroke:#181818;stroke-width:1.0;"/><line style="stroke:#181818;stroke-width:1.0;" x1="997" x2="1429.5" y1="1125.4531" y2="1125.4531"/><text fill="#000000" font-family="sans-serif" font-size="13" font-weight="bold" lengthAdjust="spacing" textLength="18" x="1004" y="1120.3872">28</text><text fill="#000000" font-family="sans-serif" font-size="13" lengthAdjust="spacing" textLength="323" x="1026" y="1120.3872">find Session by authenticationCode and sessionId</text><polygon fill="#181818" points="1008,1150.5859,998,1154.5859,1008,1158.5859,1004,1154.5859" style="stroke:#181818;stroke-width:1.0;"/><line style="stroke:#181818;stroke-width:1.0;stroke-dasharray:2.0,2.0;" x1="1002" x2="1434.5" y1="1154.5859" y2="1154.5859"/><text fill="#000000" font-family="sans-serif" font-size="13" font-weight="bold" lengthAdjust="spacing" textLength="18" x="1014" y="1149.52">29</text><text fill="#000000" font-family="sans-serif" font-size="13" lengthAdjust="spacing" textLength="50" x="1036" y="1149.52">Session</text><polygon fill="#181818" points="1423.5,1200.7188,1433.5,1204.7188,1423.5,1208.7188,1427.5,1204.7188" style="stroke:#181818;stroke-width:1.0;"/><line style="stroke:#181818;stroke-width:1.0;" x1="997" x2="1429.5" y1="1204.7188" y2="1204.7188"/><text fill="#000000" font-family="sans-serif" font-size="13" font-weight="bold" lengthAdjust="spacing" textLength="18" x="1004" y="1199.6528">30</text><text fill="#000000" font-family="sans-serif" font-size="13" lengthAdjust="spacing" textLength="115" x="1026" y="1199.6528">find Session by id</text><polygon fill="#181818" points="1008,1229.8516,998,1233.8516,1008,1237.8516,1004,1233.8516" style="stroke:#181818;stroke-width:1.0;"/><line style="stroke:#181818;stroke-width:1.0;stroke-dasharray:2.0,2.0;" x1="1002" x2="1434.5" y1="1233.8516" y2="1233.8516"/><text fill="#000000" font-family="sans-serif" font-size="13" font-weight="bold" lengthAdjust="spacing" textLength="18" x="1014" y="1228.7856">31</text><text fill="#000000" font-family="sans-serif" font-size="13" lengthAdjust="spacing" textLength="50" x="1036" y="1228.7856">Session</text><line style="stroke:#181818;stroke-width:1.0;" x1="997" x2="1039" y1="1262.9844" y2="1262.9844"/><line style="stroke:#181818;stroke-width:1.0;" x1="1039" x2="1039" y1="1262.9844" y2="1275.9844"/><line style="stroke:#181818;stroke-width:1.0;" x1="998" x2="1039" y1="1275.9844" y2="1275.9844"/><polygon fill="#181818" points="1008,1271.9844,998,1275.9844,1008,1279.9844,1004,1275.9844" style="stroke:#181818;stroke-width:1.0;"/><text fill="#000000" font-family="sans-serif" font-size="13" font-weight="bold" lengthAdjust="spacing" textLength="18" x="1004" y="1257.9185">32</text><text fill="#000000" font-family="sans-serif" font-size="13" lengthAdjust="spacing" textLength="186" x="1026" y="1257.9185">Add UserKeyData to Session</text><polygon fill="#181818" points="1423.5,1301.1172,1433.5,1305.1172,1423.5,1309.1172,1427.5,1305.1172" style="stroke:#181818;stroke-width:1.0;"/><line style="stroke:#181818;stroke-width:1.0;" x1="997" x2="1429.5" y1="1305.1172" y2="1305.1172"/><text fill="#000000" font-family="sans-serif" font-size="13" font-weight="bold" lengthAdjust="spacing" textLength="18" x="1004" y="1300.0513">33</text><text fill="#000000" font-family="sans-serif" font-size="13" lengthAdjust="spacing" textLength="137" x="1026" y="1300.0513">Update Session by id</text><polygon fill="#181818" points="1008,1330.25,998,1334.25,1008,1338.25,1004,1334.25" style="stroke:#181818;stroke-width:1.0;"/><line style="stroke:#181818;stroke-width:1.0;stroke-dasharray:2.0,2.0;" x1="1002" x2="1434.5" y1="1334.25" y2="1334.25"/><text fill="#000000" font-family="sans-serif" font-size="13" font-weight="bold" lengthAdjust="spacing" textLength="18" x="1014" y="1329.1841">34</text><text fill="#000000" font-family="sans-serif" font-size="13" lengthAdjust="spacing" textLength="4" x="1036" y="1329.1841">&#160;</text><polygon fill="#181818" points="1500.5,1359.3828,1510.5,1363.3828,1500.5,1367.3828,1504.5,1363.3828" style="stroke:#181818;stroke-width:1.0;"/><line style="stroke:#181818;stroke-width:1.0;" x1="997" x2="1506.5" y1="1363.3828" y2="1363.3828"/><text fill="#000000" font-family="sans-serif" font-size="13" font-weight="bold" lengthAdjust="spacing" textLength="18" x="1004" y="1358.3169">35</text><text fill="#000000" font-family="sans-serif" font-size="13" lengthAdjust="spacing" textLength="270" x="1026" y="1358.3169">get permissions for userMsaId, providerId</text><polygon fill="#181818" points="1008,1388.5156,998,1392.5156,1008,1396.5156,1004,1392.5156" style="stroke:#181818;stroke-width:1.0;"/><line style="stroke:#181818;stroke-width:1.0;stroke-dasharray:2.0,2.0;" x1="1002" x2="1511.5" y1="1392.5156" y2="1392.5156"/><text fill="#000000" font-family="sans-serif" font-size="13" font-weight="bold" lengthAdjust="spacing" textLength="18" x="1014" y="1387.4497">36</text><text fill="#000000" font-family="sans-serif" font-size="13" lengthAdjust="spacing" textLength="159" x="1036" y="1387.4497">Permissions for Provider</text><path d="M18,1407.5156 L82,1407.5156 L82,1414.6484 L72,1424.6484 L18,1424.6484 L18,1407.5156 " fill="#EEEEEE" style="stroke:#000000;stroke-width:1.5;"/><rect fill="none" height="443.3359" style="stroke:#000000;stroke-width:1.5;" width="1688" x="18" y="1407.5156"/><text fill="#000000" font-family="sans-serif" font-size="13" font-weight="bold" lengthAdjust="spacing" textLength="19" x="33" y="1420.5825">alt</text><text fill="#000000" font-family="sans-serif" font-size="11" font-weight="bold" lengthAdjust="spacing" textLength="185" x="97" y="1419.7261">[No Permissions for Provider]</text><path d="M28,1429.6484 L28,1454.6484 L1696,1454.6484 L1696,1439.6484 L1686,1429.6484 L28,1429.6484 " fill="#FEFFDD" style="stroke:#181818;stroke-width:0.5;"/><path d="M1686,1429.6484 L1686,1439.6484 L1696,1439.6484 L1686,1429.6484 " fill="#FEFFDD" style="stroke:#181818;stroke-width:0.5;"/><text fill="#000000" font-family="sans-serif" font-size="13" lengthAdjust="spacing" textLength="147" x="784" y="1446.7153">Go to Add Permissions</text><line style="stroke:#000000;stroke-width:1.0;stroke-dasharray:2.0,2.0;" x1="18" x2="1706" y1="1460.7813" y2="1460.7813"/><text fill="#000000" font-family="sans-serif" font-size="11" font-weight="bold" lengthAdjust="spacing" textLength="71" x="23" y="1470.9917">[Is a Login]</text><path d="M260,1481.5859 L324,1481.5859 L324,1488.7188 L314,1498.7188 L260,1498.7188 L260,1481.5859 " fill="#EEEEEE" style="stroke:#000000;stroke-width:1.5;"/><rect fill="none" height="261.8672" style="stroke:#000000;stroke-width:1.5;" width="1208" x="260" y="1481.5859"/><text fill="#000000" font-family="sans-serif" font-size="13" font-weight="bold" lengthAdjust="spacing" textLength="19" x="275" y="1494.6528">alt</text><text fill="#000000" font-family="sans-serif" font-size="11" font-weight="bold" lengthAdjust="spacing" textLength="373" x="339" y="1493.7964">[Permissions disjoint from provider requested permissions]</text><polygon fill="#181818" points="325,1515.8516,315,1519.8516,325,1523.8516,321,1519.8516" style="stroke:#181818;stroke-width:1.0;"/><line style="stroke:#181818;stroke-width:1.0;" x1="319" x2="996" y1="1519.8516" y2="1519.8516"/><text fill="#000000" font-family="sans-serif" font-size="13" font-weight="bold" lengthAdjust="spacing" textLength="18" x="331" y="1514.7856">37</text><text fill="#000000" font-family="sans-serif" font-size="13" lengthAdjust="spacing" textLength="637" x="353" y="1514.7856">Render Permissions Screen for all requested permissions for provider and single identifier to send</text><polygon fill="#181818" points="985,1544.9844,995,1548.9844,985,1552.9844,989,1548.9844" style="stroke:#181818;stroke-width:1.0;"/><line style="stroke:#181818;stroke-width:1.0;" x1="314" x2="991" y1="1548.9844" y2="1548.9844"/><text fill="#000000" font-family="sans-serif" font-size="13" font-weight="bold" lengthAdjust="spacing" textLength="18" x="321" y="1543.9185">38</text><text fill="#000000" font-family="sans-serif" font-size="13" lengthAdjust="spacing" textLength="173" x="343" y="1543.9185">Accepts w/Single Identifier</text><polygon fill="#181818" points="1423.5,1574.1172,1433.5,1578.1172,1423.5,1582.1172,1427.5,1578.1172" style="stroke:#181818;stroke-width:1.0;"/><line style="stroke:#181818;stroke-width:1.0;" x1="997" x2="1429.5" y1="1578.1172" y2="1578.1172"/><text fill="#000000" font-family="sans-serif" font-size="13" font-weight="bold" lengthAdjust="spacing" textLength="18" x="1004" y="1573.0513">39</text><text fill="#000000" font-family="sans-serif" font-size="13" lengthAdjust="spacing" textLength="117" x="1026" y="1573.0513">Find Session by id</text><polygon fill="#181818" points="1008,1603.25,998,1607.25,1008,1611.25,1004,1607.25" style="stroke:#181818;stroke-width:1.0;"/><line style="stroke:#181818;stroke-width:1.0;stroke-dasharray:2.0,2.0;" x1="1002" x2="1434.5" y1="1607.25" y2="1607.25"/><text fill="#000000" font-family="sans-serif" font-size="13" font-weight="bold" lengthAdjust="spacing" textLength="18" x="1014" y="1602.1841">40</text><text fill="#000000" font-family="sans-serif" font-size="13" lengthAdjust="spacing" textLength="50" x="1036" y="1602.1841">Session</text><line style="stroke:#181818;stroke-width:1.0;" x1="997" x2="1039" y1="1636.3828" y2="1636.3828"/><line style="stroke:#181818;stroke-width:1.0;" x1="1039" x2="1039" y1="1636.3828" y2="1649.3828"/><line style="stroke:#181818;stroke-width:1.0;" x1="998" x2="1039" y1="1649.3828" y2="1649.3828"/><polygon fill="#181818" points="1008,1645.3828,998,1649.3828,1008,1653.3828,1004,1649.3828" style="stroke:#181818;stroke-width:1.0;"/><text fill="#000000" font-family="sans-serif" font-size="13" font-weight="bold" lengthAdjust="spacing" textLength="18" x="1004" y="1631.3169">41</text><text fill="#000000" font-family="sans-serif" font-size="13" lengthAdjust="spacing" textLength="337" x="1026" y="1631.3169">create and sign addPermissionsPayload chosen key</text><line style="stroke:#181818;stroke-width:1.0;" x1="997" x2="1039" y1="1678.5156" y2="1678.5156"/><line style="stroke:#181818;stroke-width:1.0;" x1="1039" x2="1039" y1="1678.5156" y2="1691.5156"/><line style="stroke:#181818;stroke-width:1.0;" x1="998" x2="1039" y1="1691.5156" y2="1691.5156"/><polygon fill="#181818" points="1008,1687.5156,998,1691.5156,1008,1695.5156,1004,1691.5156" style="stroke:#181818;stroke-width:1.0;"/><text fill="#000000" font-family="sans-serif" font-size="13" font-weight="bold" lengthAdjust="spacing" textLength="18" x="1004" y="1673.4497">42</text><text fill="#000000" font-family="sans-serif" font-size="13" lengthAdjust="spacing" textLength="255" x="1026" y="1673.4497">Add addPermissionsPayload to Session</text><line style="stroke:#000000;stroke-width:1.0;stroke-dasharray:2.0,2.0;" x1="260" x2="1468" y1="1700.5156" y2="1700.5156"/><text fill="#000000" font-family="sans-serif" font-size="11" font-weight="bold" lengthAdjust="spacing" textLength="77" x="265" y="1710.7261">[Pure Login]</text><polygon fill="#181818" points="325,1731.4531,315,1735.4531,325,1739.4531,321,1735.4531" style="stroke:#181818;stroke-width:1.0;"/><line style="stroke:#181818;stroke-width:1.0;" x1="319" x2="996" y1="1735.4531" y2="1735.4531"/><text fill="#000000" font-family="sans-serif" font-size="13" font-weight="bold" lengthAdjust="spacing" textLength="18" x="331" y="1730.3872">43</text><text fill="#000000" font-family="sans-serif" font-size="13" lengthAdjust="spacing" textLength="161" x="353" y="1730.3872">Render identifier to send</text><line style="stroke:#181818;stroke-width:1.0;" x1="997" x2="1039" y1="1771.5859" y2="1771.5859"/><line style="stroke:#181818;stroke-width:1.0;" x1="1039" x2="1039" y1="1771.5859" y2="1784.5859"/><line style="stroke:#181818;stroke-width:1.0;" x1="998" x2="1039" y1="1784.5859" y2="1784.5859"/><polygon fill="#181818" points="1008,1780.5859,998,1784.5859,1008,1788.5859,1004,1784.5859" style="stroke:#181818;stroke-width:1.0;"/><text fill="#000000" font-family="sans-serif" font-size="13" font-weight="bold" lengthAdjust="spacing" textLength="18" x="1004" y="1766.52">44</text><text fill="#000000" font-family="sans-serif" font-size="13" lengthAdjust="spacing" textLength="183" x="1026" y="1766.52">Generate authorizationCode</text><polygon fill="#181818" points="1423.5,1809.7188,1433.5,1813.7188,1423.5,1817.7188,1427.5,1813.7188" style="stroke:#181818;stroke-width:1.0;"/><line style="stroke:#181818;stroke-width:1.0;" x1="997" x2="1429.5" y1="1813.7188" y2="1813.7188"/><text fill="#000000" font-family="sans-serif" font-size="13" font-weight="bold" lengthAdjust="spacing" textLength="18" x="1004" y="1808.6528">45</text><text fill="#000000" font-family="sans-serif" font-size="13" lengthAdjust="spacing" textLength="262" x="1026" y="1808.6528">update Session by id, authorizationCode</text><polygon fill="#181818" points="1008,1838.8516,998,1842.8516,1008,1846.8516,1004,1842.8516" style="stroke:#181818;stroke-width:1.0;"/><line style="stroke:#181818;stroke-width:1.0;stroke-dasharray:2.0,2.0;" x1="1002" x2="1434.5" y1="1842.8516" y2="1842.8516"/><text fill="#000000" font-family="sans-serif" font-size="13" font-weight="bold" lengthAdjust="spacing" textLength="18" x="1014" y="1837.7856">46</text><text fill="#000000" font-family="sans-serif" font-size="13" lengthAdjust="spacing" textLength="4" x="1036" y="1837.7856">&#160;</text><polygon fill="#181818" points="325,1874.9844,315,1878.9844,325,1882.9844,321,1878.9844" style="stroke:#181818;stroke-width:1.0;"/><line style="stroke:#181818;stroke-width:1.0;" x1="319" x2="996" y1="1878.9844" y2="1878.9844"/><text fill="#000000" font-family="sans-serif" font-size="13" font-weight="bold" lengthAdjust="spacing" textLength="18" x="331" y="1873.9185">47</text><text fill="#000000" font-family="sans-serif" font-size="13" lengthAdjust="spacing" textLength="374" x="353" y="1873.9185">Redirect to callback url with authorizationCode, sessionId</text><polygon fill="#181818" points="458,1904.1172,468,1908.1172,458,1912.1172,462,1908.1172" style="stroke:#181818;stroke-width:1.0;"/><line style="stroke:#181818;stroke-width:1.0;" x1="314" x2="464" y1="1908.1172" y2="1908.1172"/><text fill="#000000" font-family="sans-serif" font-size="13" font-weight="bold" lengthAdjust="spacing" textLength="18" x="321" y="1903.0513">48</text><text fill="#000000" font-family="sans-serif" font-size="13" lengthAdjust="spacing" textLength="106" x="343" y="1903.0513">Resolve redirect</text><polygon fill="#181818" points="985,1933.25,995,1937.25,985,1941.25,989,1937.25" style="stroke:#181818;stroke-width:1.0;"/><line style="stroke:#181818;stroke-width:1.0;" x1="470" x2="991" y1="1937.25" y2="1937.25"/><text fill="#000000" font-family="sans-serif" font-size="13" font-weight="bold" lengthAdjust="spacing" textLength="18" x="477" y="1932.1841">49</text><text fill="#000000" font-family="sans-serif" font-size="13" lengthAdjust="spacing" textLength="344" x="499" y="1932.1841">Resolve payload by authorizationCode and sessionId</text><polygon fill="#181818" points="1423.5,1962.3828,1433.5,1966.3828,1423.5,1970.3828,1427.5,1966.3828" style="stroke:#181818;stroke-width:1.0;"/><line style="stroke:#181818;stroke-width:1.0;" x1="997" x2="1429.5" y1="1966.3828" y2="1966.3828"/><text fill="#000000" font-family="sans-serif" font-size="13" font-weight="bold" lengthAdjust="spacing" textLength="18" x="1004" y="1961.3169">50</text><text fill="#000000" font-family="sans-serif" font-size="13" lengthAdjust="spacing" textLength="312" x="1026" y="1961.3169">find Session bt authorizationCode and sessionId</text><polygon fill="#181818" points="1008,1991.5156,998,1995.5156,1008,1999.5156,1004,1995.5156" style="stroke:#181818;stroke-width:1.0;"/><line style="stroke:#181818;stroke-width:1.0;stroke-dasharray:2.0,2.0;" x1="1002" x2="1434.5" y1="1995.5156" y2="1995.5156"/><text fill="#000000" font-family="sans-serif" font-size="13" font-weight="bold" lengthAdjust="spacing" textLength="18" x="1014" y="1990.4497">51</text><text fill="#000000" font-family="sans-serif" font-size="13" lengthAdjust="spacing" textLength="4" x="1036" y="1990.4497">&#160;</text><polygon fill="#181818" points="481,2020.6484,471,2024.6484,481,2028.6484,477,2024.6484" style="stroke:#181818;stroke-width:1.0;"/><line style="stroke:#181818;stroke-width:1.0;" x1="475" x2="996" y1="2024.6484" y2="2024.6484"/><text fill="#000000" font-family="sans-serif" font-size="13" font-weight="bold" lengthAdjust="spacing" textLength="18" x="487" y="2019.5825">52</text><text fill="#000000" font-family="sans-serif" font-size="13" lengthAdjust="spacing" textLength="100" x="509" y="2019.5825">Signed Payload</text><!--SRC=[jLPDRziu4BthLmnoQW47lViG89l6WR5DQaJzkFH2aME5QvdKyiE6kzZ_tY4fAQ8iDy026o28mfbvd7apVAIJha6uAjVVR-6JhgM2LQEFLmNZJXku-chHN06pu8kM6IUvR9boQVssHkMIaUNMZT47ARh8DhUj3FxjKV7J3tNBELeRdRQi4ConYbbAPgEjgmqcYwX6bcSKCYsR2wZHMF7SMjwNSTsYpGrFsicjvCn9hNwe4ir1SeokoXO5yquhlw_G5FxwnhCbXBBXg7qZe94x1AUXYQGHLrRMohU5PzStxH8YeNzuHmYm-Ln-AThhcoqXX6yeoHN5SqZPkdUjhnh9_yJJ8a0mvmqkb5OS5vmrJSNuRj6YsKjhAKlxljYo1FMDDPAemGWNmwAfuaimw8p40yBUCgXEaBQ07PuACdcZeErQz6ZPMWoG_0Nv3eulqc4ZhKCnusUe23IMp51Yp2diODFdMi0_m-SYg_FVRki84iXyHaN0YQb0x5hGF54xQEsEjQ4UsB0Q8wCXkT9NU-bWv4Rq7z38xIbYYce9Awb41AFPqfvQJAdv3BidOEHKiCPbGJGMiA8lKG3zA4qSCswqjPG48ZpXCKr2E2e5DZIPu-ZNo9vM9lAaAE-EkkXM6-tRSLtVGb7TM4QFCTW3AZIXxJIUBo4a-TrfWPdlV9_EWu0HPKFF1eYkMVs_WI9fx_TCDiDQlnC51s889jhXtUim1EppBTzd4EHD0x7iWYsvPcQVoew4tz4KxopCfq45RqFx_qkrhnLddGa_iR_IbdjxjgFgwouVopDZ6F6FqhODEmKxZONPPqugbKt0y4XxqgXJ2Xpb0SMKW81rhnorytTTZyxPONdJ_V_ahJi4uM_ulR2L5CK4e1_qs-xKa39-f1jWV6ewhAzjqhyPj44AQtGmaa_OabG7HOY2jXZqRJsaiPauzvTPL8adVTb-fXKFEkGSoXZ59BrOKsVIVLlqfskCIxVSNrgIKcoDtWyvWabA6cHv13WTkavNntWbDuWgfajNoZnEj0vRnNPBLTFZG6Q2Q_k-ZgSjtEGjJTlnGvbYHdex6RNLUV_V6AJXSZ8OPIzcLgkWggCQD-pKQ2Re2jEKOhpgfW2X4_D14q6EBTg42-YrHJCCNo069-gV2ROsycT-53jU_CmiBow4T2FUdwgKaf2a7l5kwPyDu4q3H-bUpc4MexFSlLYUqUhc43Ge8VKlbdwzxRZgv263cwZ3x55tRuQDJcvuGSN70tGj-WK0]--></g></svg>