<?xml version="1.0" encoding="us-ascii" standalone="no"?><svg xmlns="http://www.w3.org/2000/svg" xmlns:xlink="http://www.w3.org/1999/xlink" contentStyleType="text/css" height="916px" preserveAspectRatio="none" style="width:1382px;height:916px;background:#FFFFFF;" version="1.1" viewBox="0 0 1382 916" width="1382px" zoomAndPan="magnify"><defs/><g><text fill="#000000" font-family="sans-serif" font-size="14" font-weight="bold" lengthAdjust="spacing" textLength="251" x="566.75" y="27.9951">SIWA Integration for a Provider</text><rect fill="none" height="436.6641" style="stroke:#000000;stroke-width:1.5;" width="1201.5" x="174" y="381.6563"/><line style="stroke:#181818;stroke-width:0.5;stroke-dasharray:5.0,5.0;" x1="24" x2="24" y1="118.5938" y2="835.3203"/><line style="stroke:#181818;stroke-width:0.5;stroke-dasharray:5.0,5.0;" x1="228" x2="228" y1="118.5938" y2="835.3203"/><line style="stroke:#181818;stroke-width:0.5;stroke-dasharray:5.0,5.0;" x1="698.5" x2="698.5" y1="118.5938" y2="835.3203"/><line style="stroke:#181818;stroke-width:0.5;stroke-dasharray:5.0,5.0;" x1="1221.5" x2="1221.5" y1="118.5938" y2="835.3203"/><line style="stroke:#181818;stroke-width:0.5;stroke-dasharray:5.0,5.0;" x1="1320.5" x2="1320.5" y1="118.5938" y2="835.3203"/><text fill="#000000" font-family="sans-serif" font-size="14" lengthAdjust="spacing" textLength="32" x="5" y="115.292">User</text><ellipse cx="24" cy="50.7969" fill="#E2E2F0" rx="8" ry="8" style="stroke:#181818;stroke-width:0.5;"/><path d="M24,58.7969 L24,85.7969 M11,66.7969 L37,66.7969 M24,85.7969 L11,100.7969 M24,85.7969 L37,100.7969 " fill="none" style="stroke:#181818;stroke-width:0.5;"/><text fill="#000000" font-family="sans-serif" font-size="14" lengthAdjust="spacing" textLength="32" x="5" y="847.3154">User</text><ellipse cx="24" cy="859.1172" fill="#E2E2F0" rx="8" ry="8" style="stroke:#181818;stroke-width:0.5;"/><path d="M24,867.1172 L24,894.1172 M11,875.1172 L37,875.1172 M24,894.1172 L11,909.1172 M24,894.1172 L37,909.1172 " fill="none" style="stroke:#181818;stroke-width:0.5;"/><rect fill="#E2E2F0" height="30.2969" rx="2.5" ry="2.5" style="stroke:#181818;stroke-width:0.5;" width="88" x="184" y="87.2969"/><text fill="#000000" font-family="sans-serif" font-size="14" lengthAdjust="spacing" textLength="74" x="191" y="107.292">UserAgent</text><rect fill="#E2E2F0" height="30.2969" rx="2.5" ry="2.5" style="stroke:#181818;stroke-width:0.5;" width="88" x="184" y="834.3203"/><text fill="#000000" font-family="sans-serif" font-size="14" lengthAdjust="spacing" textLength="74" x="191" y="854.3154">UserAgent</text><rect fill="#E2E2F0" height="30.2969" rx="2.5" ry="2.5" style="stroke:#181818;stroke-width:0.5;" width="73" x="662.5" y="87.2969"/><text fill="#000000" font-family="sans-serif" font-size="14" lengthAdjust="spacing" textLength="59" x="669.5" y="107.292">Provider</text><rect fill="#E2E2F0" height="30.2969" rx="2.5" ry="2.5" style="stroke:#181818;stroke-width:0.5;" width="73" x="662.5" y="834.3203"/><text fill="#000000" font-family="sans-serif" font-size="14" lengthAdjust="spacing" textLength="59" x="669.5" y="854.3154">Provider</text><rect fill="#E2E2F0" height="46.5938" rx="2.5" ry="2.5" style="stroke:#181818;stroke-width:0.5;" width="89" x="1177.5" y="71"/><text fill="#000000" font-family="sans-serif" font-size="14" lengthAdjust="spacing" textLength="75" x="1184.5" y="90.9951">Frequency</text><text fill="#000000" font-family="sans-serif" font-size="14" lengthAdjust="spacing" textLength="49" x="1197.5" y="107.292">Access</text><rect fill="#E2E2F0" height="46.5938" rx="2.5" ry="2.5" style="stroke:#181818;stroke-width:0.5;" width="89" x="1177.5" y="834.3203"/><text fill="#000000" font-family="sans-serif" font-size="14" lengthAdjust="spacing" textLength="75" x="1184.5" y="854.3154">Frequency</text><text fill="#000000" font-family="sans-serif" font-size="14" lengthAdjust="spacing" textLength="49" x="1197.5" y="870.6123">Access</text><rect fill="#E2E2F0" height="30.2969" rx="2.5" ry="2.5" style="stroke:#181818;stroke-width:0.5;" width="89" x="1276.5" y="87.2969"/><text fill="#000000" font-family="sans-serif" font-size="14" lengthAdjust="spacing" textLength="75" x="1283.5" y="107.292">Frequency</text><rect fill="#E2E2F0" height="30.2969" rx="2.5" ry="2.5" style="stroke:#181818;stroke-width:0.5;" width="89" x="1276.5" y="834.3203"/><text fill="#000000" font-family="sans-serif" font-size="14" lengthAdjust="spacing" textLength="75" x="1283.5" y="854.3154">Frequency</text><polygon fill="#181818" points="216,145.7266,226,149.7266,216,153.7266,220,149.7266" style="stroke:#181818;stroke-width:1.0;"/><line style="stroke:#181818;stroke-width:1.0;" x1="24" x2="222" y1="149.7266" y2="149.7266"/><text fill="#000000" font-family="sans-serif" font-size="13" font-weight="bold" lengthAdjust="spacing" textLength="9" x="31" y="144.6606">1</text><text fill="#000000" font-family="sans-serif" font-size="13" lengthAdjust="spacing" textLength="167" x="44" y="144.6606">Clicks sign in with Access</text><polygon fill="#181818" points="687,174.8594,697,178.8594,687,182.8594,691,178.8594" style="stroke:#181818;stroke-width:1.0;"/><line style="stroke:#181818;stroke-width:1.0;" x1="228" x2="693" y1="178.8594" y2="178.8594"/><text fill="#000000" font-family="sans-serif" font-size="13" font-weight="bold" lengthAdjust="spacing" textLength="9" x="235" y="173.7935">2</text><text fill="#000000" font-family="sans-serif" font-size="13" lengthAdjust="spacing" textLength="124" x="248" y="173.7935">Sign in with access</text><polygon fill="#181818" points="1210,203.9922,1220,207.9922,1210,211.9922,1214,207.9922" style="stroke:#181818;stroke-width:1.0;"/><line style="stroke:#181818;stroke-width:1.0;" x1="699" x2="1216" y1="207.9922" y2="207.9922"/><text fill="#000000" font-family="sans-serif" font-size="13" font-weight="bold" lengthAdjust="spacing" textLength="9" x="706" y="202.9263">3</text><text fill="#000000" font-family="sans-serif" font-size="13" lengthAdjust="spacing" textLength="237" x="719" y="202.9263">POST /siwa/api/request SiwaRequest</text><polygon fill="#181818" points="710,233.125,700,237.125,710,241.125,706,237.125" style="stroke:#181818;stroke-width:1.0;"/><line style="stroke:#181818;stroke-width:1.0;stroke-dasharray:2.0,2.0;" x1="704" x2="1221" y1="237.125" y2="237.125"/><text fill="#000000" font-family="sans-serif" font-size="13" font-weight="bold" lengthAdjust="spacing" textLength="9" x="716" y="232.0591">4</text><text fill="#000000" font-family="sans-serif" font-size="13" lengthAdjust="spacing" textLength="221" x="729" y="232.0591">201 Created with Location Header</text><polygon fill="#181818" points="239,262.2578,229,266.2578,239,270.2578,235,266.2578" style="stroke:#181818;stroke-width:1.0;"/><line style="stroke:#181818;stroke-width:1.0;" x1="233" x2="698" y1="266.2578" y2="266.2578"/><text fill="#000000" font-family="sans-serif" font-size="13" font-weight="bold" lengthAdjust="spacing" textLength="9" x="245" y="261.1919">5</text><text fill="#000000" font-family="sans-serif" font-size="13" lengthAdjust="spacing" textLength="434" x="258" y="261.1919">Location in which to launch Embedded Browser or window.location</text><polygon fill="#181818" points="1210,291.3906,1220,295.3906,1210,299.3906,1214,295.3906" style="stroke:#181818;stroke-width:1.0;"/><line style="stroke:#181818;stroke-width:1.0;" x1="228" x2="1216" y1="295.3906" y2="295.3906"/><text fill="#000000" font-family="sans-serif" font-size="13" font-weight="bold" lengthAdjust="spacing" textLength="9" x="235" y="290.3247">6</text><text fill="#000000" font-family="sans-serif" font-size="13" lengthAdjust="spacing" textLength="177" x="248" y="290.3247">GET Location Header Value</text><line style="stroke:#181818;stroke-width:1.0;" x1="1222" x2="1264" y1="324.5234" y2="324.5234"/><line style="stroke:#181818;stroke-width:1.0;" x1="1264" x2="1264" y1="324.5234" y2="337.5234"/><line style="stroke:#181818;stroke-width:1.0;" x1="1223" x2="1264" y1="337.5234" y2="337.5234"/><polygon fill="#181818" points="1233,333.5234,1223,337.5234,1233,341.5234,1229,337.5234" style="stroke:#181818;stroke-width:1.0;"/><text fill="#000000" font-family="sans-serif" font-size="13" font-weight="bold" lengthAdjust="spacing" textLength="9" x="1229" y="319.4575">7</text><text fill="#000000" font-family="sans-serif" font-size="13" lengthAdjust="spacing" textLength="69" x="1242" y="319.4575">SIWA Stuff</text><polygon fill="#181818" points="239,362.6563,229,366.6563,239,370.6563,235,366.6563" style="stroke:#181818;stroke-width:1.0;"/><line style="stroke:#181818;stroke-width:1.0;" x1="233" x2="1221" y1="366.6563" y2="366.6563"/><text fill="#000000" font-family="sans-serif" font-size="13" font-weight="bold" lengthAdjust="spacing" textLength="9" x="245" y="361.5903">8</text><text fill="#000000" font-family="sans-serif" font-size="13" lengthAdjust="spacing" textLength="409" x="258" y="361.5903">Redirect to callback url in SiwaRequest with authorizationCode</text><path d="M174,381.6563 L238,381.6563 L238,388.7891 L228,398.7891 L174,398.7891 L174,381.6563 " fill="#EEEEEE" style="stroke:#000000;stroke-width:1.5;"/><rect fill="none" height="436.6641" style="stroke:#000000;stroke-width:1.5;" width="1201.5" x="174" y="381.6563"/><text fill="#000000" font-family="sans-serif" font-size="13" font-weight="bold" lengthAdjust="spacing" textLength="19" x="189" y="394.7231">alt</text><text fill="#000000" font-family="sans-serif" font-size="11" font-weight="bold" lengthAdjust="spacing" textLength="227" x="253" y="393.8667">[Provider Backend resolves payload]</text><polygon fill="#181818" points="687,415.9219,697,419.9219,687,423.9219,691,419.9219" style="stroke:#181818;stroke-width:1.0;"/><line style="stroke:#181818;stroke-width:1.0;" x1="228" x2="693" y1="419.9219" y2="419.9219"/><text fill="#000000" font-family="sans-serif" font-size="13" font-weight="bold" lengthAdjust="spacing" textLength="9" x="235" y="414.856">9</text><text fill="#000000" font-family="sans-serif" font-size="13" lengthAdjust="spacing" textLength="312" x="248" y="414.856">GET against callback url with authoricationCode</text><polygon fill="#181818" points="1210,445.0547,1220,449.0547,1210,453.0547,1214,449.0547" style="stroke:#181818;stroke-width:1.0;"/><line style="stroke:#181818;stroke-width:1.0;" x1="699" x2="1216" y1="449.0547" y2="449.0547"/><text fill="#000000" font-family="sans-serif" font-size="13" font-weight="bold" lengthAdjust="spacing" textLength="18" x="706" y="443.9888">10</text><text fill="#000000" font-family="sans-serif" font-size="13" lengthAdjust="spacing" textLength="477" x="728" y="443.9888">GET /siwa/api/payload trade authorizationCode for SiwaPayloadResponse</text><polygon fill="#181818" points="710,474.1875,700,478.1875,710,482.1875,706,478.1875" style="stroke:#181818;stroke-width:1.0;"/><line style="stroke:#181818;stroke-width:1.0;stroke-dasharray:2.0,2.0;" x1="704" x2="1221" y1="478.1875" y2="478.1875"/><text fill="#000000" font-family="sans-serif" font-size="13" font-weight="bold" lengthAdjust="spacing" textLength="18" x="716" y="473.1216">11</text><text fill="#000000" font-family="sans-serif" font-size="13" lengthAdjust="spacing" textLength="353" x="738" y="473.1216">SiwaPayloadResponse {sign payloads and credential}</text><polygon fill="#181818" points="239,503.3203,229,507.3203,239,511.3203,235,507.3203" style="stroke:#181818;stroke-width:1.0;"/><line style="stroke:#181818;stroke-width:1.0;" x1="233" x2="698" y1="507.3203" y2="507.3203"/><text fill="#000000" font-family="sans-serif" font-size="13" font-weight="bold" lengthAdjust="spacing" textLength="18" x="245" y="502.2544">12</text><text fill="#000000" font-family="sans-serif" font-size="13" lengthAdjust="spacing" textLength="114" x="267" y="502.2544">Post SIWA Screen</text><polygon fill="#181818" points="1309,532.4531,1319,536.4531,1309,540.4531,1313,536.4531" style="stroke:#181818;stroke-width:1.0;"/><line style="stroke:#181818;stroke-width:1.0;" x1="699" x2="1315" y1="536.4531" y2="536.4531"/><text fill="#000000" font-family="sans-serif" font-size="13" font-weight="bold" lengthAdjust="spacing" textLength="18" x="706" y="531.3872">13</text><text fill="#000000" font-family="sans-serif" font-size="13" lengthAdjust="spacing" textLength="295" x="728" y="531.3872">Sign and Submit Batch request with payloads</text><polygon fill="#181818" points="710,561.5859,700,565.5859,710,569.5859,706,565.5859" style="stroke:#181818;stroke-width:1.0;"/><line style="stroke:#181818;stroke-width:1.0;stroke-dasharray:2.0,2.0;" x1="704" x2="1320" y1="565.5859" y2="565.5859"/><text fill="#000000" font-family="sans-serif" font-size="13" font-weight="bold" lengthAdjust="spacing" textLength="18" x="716" y="560.52">14</text><text fill="#000000" font-family="sans-serif" font-size="13" lengthAdjust="spacing" textLength="115" x="738" y="560.52">Extrinsic statuses</text><line style="stroke:#000000;stroke-width:1.0;stroke-dasharray:2.0,2.0;" x1="174" x2="1375.5" y1="574.5859" y2="574.5859"/><text fill="#000000" font-family="sans-serif" font-size="11" font-weight="bold" lengthAdjust="spacing" textLength="184" x="179" y="584.7964">[UserAgent resolves payload]</text><line style="stroke:#181818;stroke-width:1.0;" x1="228" x2="270" y1="609.5234" y2="609.5234"/><line style="stroke:#181818;stroke-width:1.0;" x1="270" x2="270" y1="609.5234" y2="622.5234"/><line style="stroke:#181818;stroke-width:1.0;" x1="229" x2="270" y1="622.5234" y2="622.5234"/><polygon fill="#181818" points="239,618.5234,229,622.5234,239,626.5234,235,622.5234" style="stroke:#181818;stroke-width:1.0;"/><text fill="#000000" font-family="sans-serif" font-size="13" font-weight="bold" lengthAdjust="spacing" textLength="18" x="235" y="604.4575">15</text><text fill="#000000" font-family="sans-serif" font-size="13" lengthAdjust="spacing" textLength="225" x="257" y="604.4575">Pre-empted by OS (Universal Link)</text><polygon fill="#181818" points="1210,647.6563,1220,651.6563,1210,655.6563,1214,651.6563" style="stroke:#181818;stroke-width:1.0;"/><line style="stroke:#181818;stroke-width:1.0;" x1="228" x2="1216" y1="651.6563" y2="651.6563"/><text fill="#000000" font-family="sans-serif" font-size="13" font-weight="bold" lengthAdjust="spacing" textLength="18" x="235" y="646.5903">16</text><text fill="#000000" font-family="sans-serif" font-size="13" lengthAdjust="spacing" textLength="477" x="257" y="646.5903">GET /siwa/api/payload trade authorizationCode for SiwaPayloadResponse</text><polygon fill="#181818" points="239,676.7891,229,680.7891,239,684.7891,235,680.7891" style="stroke:#181818;stroke-width:1.0;"/><line style="stroke:#181818;stroke-width:1.0;stroke-dasharray:2.0,2.0;" x1="233" x2="1221" y1="680.7891" y2="680.7891"/><text fill="#000000" font-family="sans-serif" font-size="13" font-weight="bold" lengthAdjust="spacing" textLength="18" x="245" y="675.7231">17</text><text fill="#000000" font-family="sans-serif" font-size="13" lengthAdjust="spacing" textLength="353" x="267" y="675.7231">SiwaPayloadResponse {sign payloads and credential}</text><line style="stroke:#181818;stroke-width:1.0;" x1="228" x2="270" y1="709.9219" y2="709.9219"/><line style="stroke:#181818;stroke-width:1.0;" x1="270" x2="270" y1="709.9219" y2="722.9219"/><line style="stroke:#181818;stroke-width:1.0;" x1="229" x2="270" y1="722.9219" y2="722.9219"/><polygon fill="#181818" points="239,718.9219,229,722.9219,239,726.9219,235,722.9219" style="stroke:#181818;stroke-width:1.0;"/><text fill="#000000" font-family="sans-serif" font-size="13" font-weight="bold" lengthAdjust="spacing" textLength="18" x="235" y="704.856">18</text><text fill="#000000" font-family="sans-serif" font-size="13" lengthAdjust="spacing" textLength="114" x="257" y="704.856">Post SIWA Screen</text><polygon fill="#181818" points="687,748.0547,697,752.0547,687,756.0547,691,752.0547" style="stroke:#181818;stroke-width:1.0;"/><line style="stroke:#181818;stroke-width:1.0;" x1="228" x2="693" y1="752.0547" y2="752.0547"/><text fill="#000000" font-family="sans-serif" font-size="13" font-weight="bold" lengthAdjust="spacing" textLength="18" x="235" y="746.9888">19</text><text fill="#000000" font-family="sans-serif" font-size="13" lengthAdjust="spacing" textLength="137" x="257" y="746.9888">Submit to blockchain</text><polygon fill="#181818" points="1309,777.1875,1319,781.1875,1309,785.1875,1313,781.1875" style="stroke:#181818;stroke-width:1.0;"/><line style="stroke:#181818;stroke-width:1.0;" x1="699" x2="1315" y1="781.1875" y2="781.1875"/><text fill="#000000" font-family="sans-serif" font-size="13" font-weight="bold" lengthAdjust="spacing" textLength="18" x="706" y="776.1216">20</text><text fill="#000000" font-family="sans-serif" font-size="13" lengthAdjust="spacing" textLength="295" x="728" y="776.1216">Sign and Submit Batch request with payloads</text><polygon fill="#181818" points="710,806.3203,700,810.3203,710,814.3203,706,810.3203" style="stroke:#181818;stroke-width:1.0;"/><line style="stroke:#181818;stroke-width:1.0;stroke-dasharray:2.0,2.0;" x1="704" x2="1320" y1="810.3203" y2="810.3203"/><text fill="#000000" font-family="sans-serif" font-size="13" font-weight="bold" lengthAdjust="spacing" textLength="18" x="716" y="805.2544">21</text><text fill="#000000" font-family="sans-serif" font-size="13" lengthAdjust="spacing" textLength="115" x="738" y="805.2544">Extrinsic statuses</text><!--SRC=[pLF1ZjCm4BtdAqOzmQ4KEEwXKhSgiD9AMpMxSE4oSIQjLTSEzhYX8FwTSPAcAUmUaSZ9ySoyz-RDc3KRWab-zsK1TvPfwv6rir0v3mXhxuww93_9KB7SJ9w2_006Y5cDdhNIDLhkxXTRijm5yJewmAHWVHtxuEbR9AjEN-r2AGgXJQhmXQmsMgWimyZEnaD1FelJUSGRM1gjzW62tbhG5XhDE-WWiuZJUNq3-JY4NQYUpYifNZ_aZp0Bki4PrdhMqWMMYWOttJdpnD5RUF_s7Imz8LFP0TqxrNdsYL2QJ8X9pd2T27TQxO0T68nMJYlHNPO2SEjT8zQ1UDjeMxhcZUdBMir9sSVLuvyKy1bDfApgCzhXvHohghrAv1igjIV5YLEXCGMgFKHlafXHJxqJaNVEwnyjnTALbA7XOVPmAxLaI_0Kd3cIJ11Fnc6PWNoziqaaRb5RmRpY6nEe2q4ghI_zNOpliO6zDFgtidOlKmFhBcz3eNOsT83zW9u9myzsAthm02ZjA4-bBAn6y-ii9pctTcdihQEIGVOSArI_FwasZyL1ipZ3Cam_zl9CCHQq-ivUdD4A0YF7G24Z8wA6H_EojQqYJrCwr6dVYXCyvF3goUeZ-O06xhNTlnwo_oSx1_NF-Nb-ZvsDigE5hFrUxMI1_f7VjlmD]--></g></svg>