<?xml version="1.0" encoding="us-ascii" standalone="no"?><svg xmlns="http://www.w3.org/2000/svg" xmlns:xlink="http://www.w3.org/1999/xlink" contentStyleType="text/css" height="1588px" preserveAspectRatio="none" style="width:1634px;height:1588px;background:#FFFFFF;" version="1.1" viewBox="0 0 1634 1588" width="1634px" zoomAndPan="magnify"><defs/><g><text fill="#000000" font-family="sans-serif" font-size="14" font-weight="bold" lengthAdjust="spacing" textLength="119" x="759" y="27.9951">New User Flow</text><rect fill="none" height="513.0625" style="stroke:#000000;stroke-width:1.5;" width="1618" x="10" y="170.7266"/><rect fill="none" height="381.5313" style="stroke:#000000;stroke-width:1.5;" width="1598" x="20" y="295.2578"/><rect fill="none" height="618.5234" style="stroke:#000000;stroke-width:1.5;" width="1150" x="213" y="697.7891"/><line style="stroke:#181818;stroke-width:0.5;stroke-dasharray:5.0,5.0;" x1="49" x2="49" y1="118.5938" y2="1508.1094"/><line style="stroke:#181818;stroke-width:0.5;stroke-dasharray:5.0,5.0;" x1="267" x2="267" y1="118.5938" y2="1508.1094"/><line style="stroke:#181818;stroke-width:0.5;stroke-dasharray:5.0,5.0;" x1="418.5" x2="418.5" y1="118.5938" y2="1508.1094"/><line style="stroke:#181818;stroke-width:0.5;stroke-dasharray:5.0,5.0;" x1="808.5" x2="808.5" y1="118.5938" y2="1508.1094"/><line style="stroke:#181818;stroke-width:0.5;stroke-dasharray:5.0,5.0;" x1="1265" x2="1265" y1="118.5938" y2="1508.1094"/><line style="stroke:#181818;stroke-width:0.5;stroke-dasharray:5.0,5.0;" x1="1330" x2="1330" y1="118.5938" y2="1508.1094"/><line style="stroke:#181818;stroke-width:0.5;stroke-dasharray:5.0,5.0;" x1="1407" x2="1407" y1="118.5938" y2="1508.1094"/><line style="stroke:#181818;stroke-width:0.5;stroke-dasharray:5.0,5.0;" x1="1482" x2="1482" y1="118.5938" y2="1508.1094"/><line style="stroke:#181818;stroke-width:0.5;stroke-dasharray:5.0,5.0;" x1="1560" x2="1560" y1="118.5938" y2="1508.1094"/><text fill="#000000" font-family="sans-serif" font-size="14" lengthAdjust="spacing" textLength="32" x="30" y="115.292">User</text><ellipse cx="49" cy="50.7969" fill="#E2E2F0" rx="8" ry="8" style="stroke:#181818;stroke-width:0.5;"/><path d="M49,58.7969 L49,85.7969 M36,66.7969 L62,66.7969 M49,85.7969 L36,100.7969 M49,85.7969 L62,100.7969 " fill="none" style="stroke:#181818;stroke-width:0.5;"/><text fill="#000000" font-family="sans-serif" font-size="14" lengthAdjust="spacing" textLength="32" x="30" y="1520.1045">User</text><ellipse cx="49" cy="1531.9063" fill="#E2E2F0" rx="8" ry="8" style="stroke:#181818;stroke-width:0.5;"/><path d="M49,1539.9063 L49,1566.9063 M36,1547.9063 L62,1547.9063 M49,1566.9063 L36,1581.9063 M49,1566.9063 L62,1581.9063 " fill="none" style="stroke:#181818;stroke-width:0.5;"/><rect fill="#E2E2F0" height="30.2969" rx="2.5" ry="2.5" style="stroke:#181818;stroke-width:0.5;" width="88" x="223" y="87.2969"/><text fill="#000000" font-family="sans-serif" font-size="14" lengthAdjust="spacing" textLength="74" x="230" y="107.292">UserAgent</text><rect fill="#E2E2F0" height="30.2969" rx="2.5" ry="2.5" style="stroke:#181818;stroke-width:0.5;" width="88" x="223" y="1507.1094"/><text fill="#000000" font-family="sans-serif" font-size="14" lengthAdjust="spacing" textLength="74" x="230" y="1527.1045">UserAgent</text><rect fill="#E2E2F0" height="30.2969" rx="2.5" ry="2.5" style="stroke:#181818;stroke-width:0.5;" width="73" x="382.5" y="87.2969"/><text fill="#000000" font-family="sans-serif" font-size="14" lengthAdjust="spacing" textLength="59" x="389.5" y="107.292">Provider</text><rect fill="#E2E2F0" height="30.2969" rx="2.5" ry="2.5" style="stroke:#181818;stroke-width:0.5;" width="73" x="382.5" y="1507.1094"/><text fill="#000000" font-family="sans-serif" font-size="14" lengthAdjust="spacing" textLength="59" x="389.5" y="1527.1045">Provider</text><rect fill="#E2E2F0" height="46.5938" rx="2.5" ry="2.5" style="stroke:#181818;stroke-width:0.5;" width="89" x="764.5" y="71"/><text fill="#000000" font-family="sans-serif" font-size="14" lengthAdjust="spacing" textLength="75" x="771.5" y="90.9951">Frequency</text><text fill="#000000" font-family="sans-serif" font-size="14" lengthAdjust="spacing" textLength="49" x="784.5" y="107.292">Access</text><rect fill="#E2E2F0" height="46.5938" rx="2.5" ry="2.5" style="stroke:#181818;stroke-width:0.5;" width="89" x="764.5" y="1507.1094"/><text fill="#000000" font-family="sans-serif" font-size="14" lengthAdjust="spacing" textLength="75" x="771.5" y="1527.1045">Frequency</text><text fill="#000000" font-family="sans-serif" font-size="14" lengthAdjust="spacing" textLength="49" x="784.5" y="1543.4014">Access</text><text fill="#000000" font-family="sans-serif" font-size="14" lengthAdjust="spacing" textLength="60" x="1232" y="115.292">Postgres</text><path d="M1247,66.2969 C1247,56.2969 1265,56.2969 1265,56.2969 C1265,56.2969 1283,56.2969 1283,66.2969 L1283,92.2969 C1283,102.2969 1265,102.2969 1265,102.2969 C1265,102.2969 1247,102.2969 1247,92.2969 L1247,66.2969 " fill="#E2E2F0" style="stroke:#181818;stroke-width:1.5;"/><path d="M1247,66.2969 C1247,76.2969 1265,76.2969 1265,76.2969 C1265,76.2969 1283,76.2969 1283,66.2969 " fill="none" style="stroke:#181818;stroke-width:1.5;"/><text fill="#000000" font-family="sans-serif" font-size="14" lengthAdjust="spacing" textLength="60" x="1232" y="1520.1045">Postgres</text><path d="M1247,1533.4063 C1247,1523.4063 1265,1523.4063 1265,1523.4063 C1265,1523.4063 1283,1523.4063 1283,1533.4063 L1283,1559.4063 C1283,1569.4063 1265,1569.4063 1265,1569.4063 C1265,1569.4063 1247,1569.4063 1247,1559.4063 L1247,1533.4063 " fill="#E2E2F0" style="stroke:#181818;stroke-width:1.5;"/><path d="M1247,1533.4063 C1247,1543.4063 1265,1543.4063 1265,1543.4063 C1265,1543.4063 1283,1543.4063 1283,1533.4063 " fill="none" style="stroke:#181818;stroke-width:1.5;"/><text fill="#000000" font-family="sans-serif" font-size="14" lengthAdjust="spacing" textLength="39" x="1308" y="115.292">Redis</text><path d="M1312.5,66.2969 C1312.5,56.2969 1330.5,56.2969 1330.5,56.2969 C1330.5,56.2969 1348.5,56.2969 1348.5,66.2969 L1348.5,92.2969 C1348.5,102.2969 1330.5,102.2969 1330.5,102.2969 C1330.5,102.2969 1312.5,102.2969 1312.5,92.2969 L1312.5,66.2969 " fill="#E2E2F0" style="stroke:#181818;stroke-width:1.5;"/><path d="M1312.5,66.2969 C1312.5,76.2969 1330.5,76.2969 1330.5,76.2969 C1330.5,76.2969 1348.5,76.2969 1348.5,66.2969 " fill="none" style="stroke:#181818;stroke-width:1.5;"/><text fill="#000000" font-family="sans-serif" font-size="14" lengthAdjust="spacing" textLength="39" x="1308" y="1520.1045">Redis</text><path d="M1312.5,1533.4063 C1312.5,1523.4063 1330.5,1523.4063 1330.5,1523.4063 C1330.5,1523.4063 1348.5,1523.4063 1348.5,1533.4063 L1348.5,1559.4063 C1348.5,1569.4063 1330.5,1569.4063 1330.5,1569.4063 C1330.5,1569.4063 1312.5,1569.4063 1312.5,1559.4063 L1312.5,1533.4063 " fill="#E2E2F0" style="stroke:#181818;stroke-width:1.5;"/><path d="M1312.5,1533.4063 C1312.5,1543.4063 1330.5,1543.4063 1330.5,1543.4063 C1330.5,1543.4063 1348.5,1543.4063 1348.5,1533.4063 " fill="none" style="stroke:#181818;stroke-width:1.5;"/><rect fill="#E2E2F0" height="30.2969" rx="2.5" ry="2.5" style="stroke:#181818;stroke-width:0.5;" width="89" x="1363" y="87.2969"/><text fill="#000000" font-family="sans-serif" font-size="14" lengthAdjust="spacing" textLength="75" x="1370" y="107.292">Frequency</text><rect fill="#E2E2F0" height="30.2969" rx="2.5" ry="2.5" style="stroke:#181818;stroke-width:0.5;" width="89" x="1363" y="1507.1094"/><text fill="#000000" font-family="sans-serif" font-size="14" lengthAdjust="spacing" textLength="75" x="1370" y="1527.1045">Frequency</text><rect fill="#E2E2F0" height="30.2969" rx="2.5" ry="2.5" style="stroke:#181818;stroke-width:0.5;" width="41" x="1462" y="87.2969"/><text fill="#000000" font-family="sans-serif" font-size="14" lengthAdjust="spacing" textLength="27" x="1469" y="107.292">SES</text><rect fill="#E2E2F0" height="30.2969" rx="2.5" ry="2.5" style="stroke:#181818;stroke-width:0.5;" width="41" x="1462" y="1507.1094"/><text fill="#000000" font-family="sans-serif" font-size="14" lengthAdjust="spacing" textLength="27" x="1469" y="1527.1045">SES</text><rect fill="#E2E2F0" height="46.5938" rx="2.5" ry="2.5" style="stroke:#181818;stroke-width:0.5;" width="95" x="1513" y="71"/><text fill="#000000" font-family="sans-serif" font-size="14" lengthAdjust="spacing" textLength="81" x="1520" y="90.9951">Notification</text><text fill="#000000" font-family="sans-serif" font-size="14" lengthAdjust="spacing" textLength="53" x="1534" y="107.292">Service</text><rect fill="#E2E2F0" height="46.5938" rx="2.5" ry="2.5" style="stroke:#181818;stroke-width:0.5;" width="95" x="1513" y="1507.1094"/><text fill="#000000" font-family="sans-serif" font-size="14" lengthAdjust="spacing" textLength="81" x="1520" y="1527.1045">Notification</text><text fill="#000000" font-family="sans-serif" font-size="14" lengthAdjust="spacing" textLength="53" x="1534" y="1543.4014">Service</text><path d="M18,133.5938 L18,158.5938 L1591,158.5938 L1591,143.5938 L1581,133.5938 L18,133.5938 " fill="#FEFFDD" style="stroke:#181818;stroke-width:0.5;"/><path d="M1581,133.5938 L1581,143.5938 L1591,143.5938 L1581,133.5938 " fill="#FEFFDD" style="stroke:#181818;stroke-width:0.5;"/><text fill="#000000" font-family="sans-serif" font-size="13" lengthAdjust="spacing" textLength="297" x="651.5" y="150.6606">Assumes you are coming from the Login Flow</text><path d="M10,170.7266 L211,170.7266 L211,177.8594 L201,187.8594 L10,187.8594 L10,170.7266 " fill="#EEEEEE" style="stroke:#000000;stroke-width:1.5;"/><rect fill="none" height="513.0625" style="stroke:#000000;stroke-width:1.5;" width="1618" x="10" y="170.7266"/><text fill="#000000" font-family="sans-serif" font-size="13" font-weight="bold" lengthAdjust="spacing" textLength="156" x="25" y="183.7935">Identifier Verification</text><line style="stroke:#181818;stroke-width:1.0;" x1="809" x2="851" y1="208.9922" y2="208.9922"/><line style="stroke:#181818;stroke-width:1.0;" x1="851" x2="851" y1="208.9922" y2="221.9922"/><line style="stroke:#181818;stroke-width:1.0;" x1="810" x2="851" y1="221.9922" y2="221.9922"/><polygon fill="#181818" points="820,217.9922,810,221.9922,820,225.9922,816,221.9922" style="stroke:#181818;stroke-width:1.0;"/><text fill="#000000" font-family="sans-serif" font-size="13" font-weight="bold" lengthAdjust="spacing" textLength="9" x="816" y="203.9263">1</text><text fill="#000000" font-family="sans-serif" font-size="13" lengthAdjust="spacing" textLength="191" x="829" y="203.9263">Generate authenticationCode</text><polygon fill="#181818" points="1318.5,247.125,1328.5,251.125,1318.5,255.125,1322.5,251.125" style="stroke:#181818;stroke-width:1.0;"/><line style="stroke:#181818;stroke-width:1.0;" x1="809" x2="1324.5" y1="251.125" y2="251.125"/><text fill="#000000" font-family="sans-serif" font-size="13" font-weight="bold" lengthAdjust="spacing" textLength="9" x="816" y="246.0591">2</text><text fill="#000000" font-family="sans-serif" font-size="13" lengthAdjust="spacing" textLength="342" x="829" y="246.0591">Persist Session by authenticationCode and sessionId</text><polygon fill="#181818" points="820,276.2578,810,280.2578,820,284.2578,816,280.2578" style="stroke:#181818;stroke-width:1.0;"/><line style="stroke:#181818;stroke-width:1.0;stroke-dasharray:2.0,2.0;" x1="814" x2="1329.5" y1="280.2578" y2="280.2578"/><text fill="#000000" font-family="sans-serif" font-size="13" font-weight="bold" lengthAdjust="spacing" textLength="9" x="826" y="275.1919">3</text><text fill="#000000" font-family="sans-serif" font-size="13" lengthAdjust="spacing" textLength="4" x="839" y="275.1919">&#160;</text><path d="M20,295.2578 L84,295.2578 L84,302.3906 L74,312.3906 L20,312.3906 L20,295.2578 " fill="#EEEEEE" style="stroke:#000000;stroke-width:1.5;"/><rect fill="none" height="381.5313" style="stroke:#000000;stroke-width:1.5;" width="1598" x="20" y="295.2578"/><text fill="#000000" font-family="sans-serif" font-size="13" font-weight="bold" lengthAdjust="spacing" textLength="19" x="35" y="308.3247">alt</text><text fill="#000000" font-family="sans-serif" font-size="11" font-weight="bold" lengthAdjust="spacing" textLength="55" x="99" y="307.4683">[isEmail]</text><polygon fill="#181818" points="1470.5,329.5234,1480.5,333.5234,1470.5,337.5234,1474.5,333.5234" style="stroke:#181818;stroke-width:1.0;"/><line style="stroke:#181818;stroke-width:1.0;" x1="809" x2="1476.5" y1="333.5234" y2="333.5234"/><text fill="#000000" font-family="sans-serif" font-size="13" font-weight="bold" lengthAdjust="spacing" textLength="9" x="816" y="328.4575">4</text><text fill="#000000" font-family="sans-serif" font-size="13" lengthAdjust="spacing" textLength="307" x="829" y="328.4575">Send Email (sessionId and authenticationCode)</text><polygon fill="#181818" points="60,358.6563,50,362.6563,60,366.6563,56,362.6563" style="stroke:#181818;stroke-width:1.0;"/><line style="stroke:#181818;stroke-width:1.0;" x1="54" x2="1481.5" y1="362.6563" y2="362.6563"/><text fill="#000000" font-family="sans-serif" font-size="13" font-weight="bold" lengthAdjust="spacing" textLength="9" x="66" y="357.5903">5</text><text fill="#000000" font-family="sans-serif" font-size="13" lengthAdjust="spacing" textLength="69" x="79" y="357.5903">Email sent</text><polygon fill="#181818" points="797,387.7891,807,391.7891,797,395.7891,801,391.7891" style="stroke:#181818;stroke-width:1.0;"/><line style="stroke:#181818;stroke-width:1.0;" x1="49" x2="803" y1="391.7891" y2="391.7891"/><text fill="#000000" font-family="sans-serif" font-size="13" font-weight="bold" lengthAdjust="spacing" textLength="9" x="56" y="386.7231">6</text><text fill="#000000" font-family="sans-serif" font-size="13" lengthAdjust="spacing" textLength="114" x="69" y="386.7231">User Clicks Email</text><polygon fill="#181818" points="1318.5,416.9219,1328.5,420.9219,1318.5,424.9219,1322.5,420.9219" style="stroke:#181818;stroke-width:1.0;"/><line style="stroke:#181818;stroke-width:1.0;" x1="809" x2="1324.5" y1="420.9219" y2="420.9219"/><text fill="#000000" font-family="sans-serif" font-size="13" font-weight="bold" lengthAdjust="spacing" textLength="9" x="816" y="415.856">7</text><text fill="#000000" font-family="sans-serif" font-size="13" lengthAdjust="spacing" textLength="323" x="829" y="415.856">find Session by authenticationCode and sessionId</text><polygon fill="#181818" points="820,446.0547,810,450.0547,820,454.0547,816,450.0547" style="stroke:#181818;stroke-width:1.0;"/><line style="stroke:#181818;stroke-width:1.0;stroke-dasharray:2.0,2.0;" x1="814" x2="1329.5" y1="450.0547" y2="450.0547"/><text fill="#000000" font-family="sans-serif" font-size="13" font-weight="bold" lengthAdjust="spacing" textLength="9" x="826" y="444.9888">8</text><text fill="#000000" font-family="sans-serif" font-size="13" lengthAdjust="spacing" textLength="50" x="839" y="444.9888">Session</text><line style="stroke:#000000;stroke-width:1.0;stroke-dasharray:2.0,2.0;" x1="20" x2="1618" y1="459.0547" y2="459.0547"/><text fill="#000000" font-family="sans-serif" font-size="11" font-weight="bold" lengthAdjust="spacing" textLength="47" x="25" y="469.2651">[isSms]</text><polygon fill="#181818" points="1548.5,489.9922,1558.5,493.9922,1548.5,497.9922,1552.5,493.9922" style="stroke:#181818;stroke-width:1.0;"/><line style="stroke:#181818;stroke-width:1.0;" x1="809" x2="1554.5" y1="493.9922" y2="493.9922"/><text fill="#000000" font-family="sans-serif" font-size="13" font-weight="bold" lengthAdjust="spacing" textLength="9" x="816" y="488.9263">9</text><text fill="#000000" font-family="sans-serif" font-size="13" lengthAdjust="spacing" textLength="63" x="829" y="488.9263">Send SMS</text><polygon fill="#181818" points="278,519.125,268,523.125,278,527.125,274,523.125" style="stroke:#181818;stroke-width:1.0;"/><line style="stroke:#181818;stroke-width:1.0;" x1="272" x2="808" y1="523.125" y2="523.125"/><text fill="#000000" font-family="sans-serif" font-size="13" font-weight="bold" lengthAdjust="spacing" textLength="18" x="284" y="518.0591">10</text><text fill="#000000" font-family="sans-serif" font-size="13" lengthAdjust="spacing" textLength="117" x="306" y="518.0591">Display SMS Form</text><polygon fill="#181818" points="60,548.2578,50,552.2578,60,556.2578,56,552.2578" style="stroke:#181818;stroke-width:1.0;"/><line style="stroke:#181818;stroke-width:1.0;" x1="54" x2="1559.5" y1="552.2578" y2="552.2578"/><text fill="#000000" font-family="sans-serif" font-size="13" font-weight="bold" lengthAdjust="spacing" textLength="18" x="66" y="547.1919">11</text><text fill="#000000" font-family="sans-serif" font-size="13" lengthAdjust="spacing" textLength="149" x="88" y="547.1919">Sms Message received</text><polygon fill="#181818" points="255,577.3906,265,581.3906,255,585.3906,259,581.3906" style="stroke:#181818;stroke-width:1.0;"/><line style="stroke:#181818;stroke-width:1.0;" x1="49" x2="261" y1="581.3906" y2="581.3906"/><text fill="#000000" font-family="sans-serif" font-size="13" font-weight="bold" lengthAdjust="spacing" textLength="18" x="56" y="576.3247">12</text><text fill="#000000" font-family="sans-serif" font-size="13" lengthAdjust="spacing" textLength="172" x="78" y="576.3247">Enters authenticationCode</text><polygon fill="#181818" points="797,606.5234,807,610.5234,797,614.5234,801,610.5234" style="stroke:#181818;stroke-width:1.0;"/><line style="stroke:#181818;stroke-width:1.0;" x1="267" x2="803" y1="610.5234" y2="610.5234"/><text fill="#000000" font-family="sans-serif" font-size="13" font-weight="bold" lengthAdjust="spacing" textLength="18" x="274" y="605.4575">13</text><text fill="#000000" font-family="sans-serif" font-size="13" lengthAdjust="spacing" textLength="184" x="296" y="605.4575">Submits authenticationCode</text><polygon fill="#181818" points="1318.5,635.6563,1328.5,639.6563,1318.5,643.6563,1322.5,639.6563" style="stroke:#181818;stroke-width:1.0;"/><line style="stroke:#181818;stroke-width:1.0;" x1="809" x2="1324.5" y1="639.6563" y2="639.6563"/><text fill="#000000" font-family="sans-serif" font-size="13" font-weight="bold" lengthAdjust="spacing" textLength="18" x="816" y="634.5903">14</text><text fill="#000000" font-family="sans-serif" font-size="13" lengthAdjust="spacing" textLength="323" x="838" y="634.5903">find Session by authenticationCode and sessionId</text><polygon fill="#181818" points="820,664.7891,810,668.7891,820,672.7891,816,668.7891" style="stroke:#181818;stroke-width:1.0;"/><line style="stroke:#181818;stroke-width:1.0;stroke-dasharray:2.0,2.0;" x1="814" x2="1329.5" y1="668.7891" y2="668.7891"/><text fill="#000000" font-family="sans-serif" font-size="13" font-weight="bold" lengthAdjust="spacing" textLength="18" x="826" y="663.7231">15</text><text fill="#000000" font-family="sans-serif" font-size="13" lengthAdjust="spacing" textLength="50" x="848" y="663.7231">Session</text><path d="M213,697.7891 L404,697.7891 L404,704.9219 L394,714.9219 L213,714.9219 L213,697.7891 " fill="#EEEEEE" style="stroke:#000000;stroke-width:1.5;"/><rect fill="none" height="618.5234" style="stroke:#000000;stroke-width:1.5;" width="1150" x="213" y="697.7891"/><text fill="#000000" font-family="sans-serif" font-size="13" font-weight="bold" lengthAdjust="spacing" textLength="146" x="228" y="710.856">Captured Data Path</text><line style="stroke:#181818;stroke-width:1.0;" x1="809" x2="851" y1="736.0547" y2="736.0547"/><line style="stroke:#181818;stroke-width:1.0;" x1="851" x2="851" y1="736.0547" y2="749.0547"/><line style="stroke:#181818;stroke-width:1.0;" x1="810" x2="851" y1="749.0547" y2="749.0547"/><polygon fill="#181818" points="820,745.0547,810,749.0547,820,753.0547,816,749.0547" style="stroke:#181818;stroke-width:1.0;"/><text fill="#000000" font-family="sans-serif" font-size="13" font-weight="bold" lengthAdjust="spacing" textLength="18" x="816" y="730.9888">16</text><text fill="#000000" font-family="sans-serif" font-size="13" lengthAdjust="spacing" textLength="358" x="838" y="730.9888">Single Selection of UserIdentifier to be sent to Provider</text><line style="stroke:#181818;stroke-width:1.0;" x1="809" x2="851" y1="778.1875" y2="778.1875"/><line style="stroke:#181818;stroke-width:1.0;" x1="851" x2="851" y1="778.1875" y2="791.1875"/><line style="stroke:#181818;stroke-width:1.0;" x1="810" x2="851" y1="791.1875" y2="791.1875"/><polygon fill="#181818" points="820,787.1875,810,791.1875,820,795.1875,816,791.1875" style="stroke:#181818;stroke-width:1.0;"/><text fill="#000000" font-family="sans-serif" font-size="13" font-weight="bold" lengthAdjust="spacing" textLength="18" x="816" y="773.1216">17</text><text fill="#000000" font-family="sans-serif" font-size="13" lengthAdjust="spacing" textLength="276" x="838" y="773.1216">Dereference permissions to I18N Verbiage</text><polygon fill="#181818" points="278,816.3203,268,820.3203,278,824.3203,274,820.3203" style="stroke:#181818;stroke-width:1.0;"/><line style="stroke:#181818;stroke-width:1.0;" x1="272" x2="808" y1="820.3203" y2="820.3203"/><text fill="#000000" font-family="sans-serif" font-size="13" font-weight="bold" lengthAdjust="spacing" textLength="18" x="284" y="815.2544">18</text><text fill="#000000" font-family="sans-serif" font-size="13" lengthAdjust="spacing" textLength="478" x="306" y="815.2544">Capture Form and Permissions with data identifiers to be sent to provider</text><polygon fill="#181818" points="797,845.4531,807,849.4531,797,853.4531,801,849.4531" style="stroke:#181818;stroke-width:1.0;"/><line style="stroke:#181818;stroke-width:1.0;" x1="267" x2="803" y1="849.4531" y2="849.4531"/><text fill="#000000" font-family="sans-serif" font-size="13" font-weight="bold" lengthAdjust="spacing" textLength="18" x="274" y="844.3872">19</text><text fill="#000000" font-family="sans-serif" font-size="13" lengthAdjust="spacing" textLength="318" x="296" y="844.3872">Acceptance and Submit Data w/Identifier to send</text><polygon fill="#181818" points="1318.5,874.5859,1328.5,878.5859,1318.5,882.5859,1322.5,878.5859" style="stroke:#181818;stroke-width:1.0;"/><line style="stroke:#181818;stroke-width:1.0;" x1="809" x2="1324.5" y1="878.5859" y2="878.5859"/><text fill="#000000" font-family="sans-serif" font-size="13" font-weight="bold" lengthAdjust="spacing" textLength="18" x="816" y="873.52">20</text><text fill="#000000" font-family="sans-serif" font-size="13" lengthAdjust="spacing" textLength="115" x="838" y="873.52">find Session by Id</text><polygon fill="#181818" points="820,903.7188,810,907.7188,820,911.7188,816,907.7188" style="stroke:#181818;stroke-width:1.0;"/><line style="stroke:#181818;stroke-width:1.0;stroke-dasharray:2.0,2.0;" x1="814" x2="1329.5" y1="907.7188" y2="907.7188"/><text fill="#000000" font-family="sans-serif" font-size="13" font-weight="bold" lengthAdjust="spacing" textLength="18" x="826" y="902.6528">21</text><text fill="#000000" font-family="sans-serif" font-size="13" lengthAdjust="spacing" textLength="50" x="848" y="902.6528">Session</text><line style="stroke:#181818;stroke-width:1.0;" x1="809" x2="851" y1="936.8516" y2="936.8516"/><line style="stroke:#181818;stroke-width:1.0;" x1="851" x2="851" y1="936.8516" y2="949.8516"/><line style="stroke:#181818;stroke-width:1.0;" x1="810" x2="851" y1="949.8516" y2="949.8516"/><polygon fill="#181818" points="820,945.8516,810,949.8516,820,953.8516,816,949.8516" style="stroke:#181818;stroke-width:1.0;"/><text fill="#000000" font-family="sans-serif" font-size="13" font-weight="bold" lengthAdjust="spacing" textLength="18" x="816" y="931.7856">22</text><text fill="#000000" font-family="sans-serif" font-size="13" lengthAdjust="spacing" textLength="236" x="838" y="931.7856">saveNewUserData for UserIdentifier</text><polygon fill="#181818" points="1253,974.9844,1263,978.9844,1253,982.9844,1257,978.9844" style="stroke:#181818;stroke-width:1.0;"/><line style="stroke:#181818;stroke-width:1.0;" x1="809" x2="1259" y1="978.9844" y2="978.9844"/><text fill="#000000" font-family="sans-serif" font-size="13" font-weight="bold" lengthAdjust="spacing" textLength="18" x="816" y="973.9185">23</text><text fill="#000000" font-family="sans-serif" font-size="13" lengthAdjust="spacing" textLength="302" x="838" y="973.9185">creates a new FA Account and associated data</text><polygon fill="#181818" points="820,1004.1172,810,1008.1172,820,1012.1172,816,1008.1172" style="stroke:#181818;stroke-width:1.0;"/><line style="stroke:#181818;stroke-width:1.0;stroke-dasharray:2.0,2.0;" x1="814" x2="1264" y1="1008.1172" y2="1008.1172"/><text fill="#000000" font-family="sans-serif" font-size="13" font-weight="bold" lengthAdjust="spacing" textLength="18" x="826" y="1003.0513">24</text><text fill="#000000" font-family="sans-serif" font-size="13" lengthAdjust="spacing" textLength="84" x="848" y="1003.0513">userKeyData</text><line style="stroke:#181818;stroke-width:1.0;" x1="809" x2="851" y1="1052.3828" y2="1052.3828"/><line style="stroke:#181818;stroke-width:1.0;" x1="851" x2="851" y1="1052.3828" y2="1065.3828"/><line style="stroke:#181818;stroke-width:1.0;" x1="810" x2="851" y1="1065.3828" y2="1065.3828"/><polygon fill="#181818" points="820,1061.3828,810,1065.3828,820,1069.3828,816,1065.3828" style="stroke:#181818;stroke-width:1.0;"/><text fill="#000000" font-family="sans-serif" font-size="13" font-weight="bold" lengthAdjust="spacing" textLength="18" x="816" y="1039.7505">25</text><text fill="#000000" font-family="sans-serif" font-size="13" lengthAdjust="spacing" textLength="310" x="838" y="1032.1841">Using UserKeyData create and sign appropriate</text><text fill="#000000" font-family="sans-serif" font-size="13" lengthAdjust="spacing" textLength="164" x="842" y="1047.3169">payloads for permissions</text><line style="stroke:#181818;stroke-width:1.0;" x1="809" x2="851" y1="1094.5156" y2="1094.5156"/><line style="stroke:#181818;stroke-width:1.0;" x1="851" x2="851" y1="1094.5156" y2="1107.5156"/><line style="stroke:#181818;stroke-width:1.0;" x1="810" x2="851" y1="1107.5156" y2="1107.5156"/><polygon fill="#181818" points="820,1103.5156,810,1107.5156,820,1111.5156,816,1107.5156" style="stroke:#181818;stroke-width:1.0;"/><text fill="#000000" font-family="sans-serif" font-size="13" font-weight="bold" lengthAdjust="spacing" textLength="18" x="816" y="1089.4497">26</text><text fill="#000000" font-family="sans-serif" font-size="13" lengthAdjust="spacing" textLength="202" x="838" y="1089.4497">Add signedPayloads to Session</text><polygon fill="#181818" points="1318.5,1132.6484,1328.5,1136.6484,1318.5,1140.6484,1322.5,1136.6484" style="stroke:#181818;stroke-width:1.0;"/><line style="stroke:#181818;stroke-width:1.0;" x1="809" x2="1324.5" y1="1136.6484" y2="1136.6484"/><text fill="#000000" font-family="sans-serif" font-size="13" font-weight="bold" lengthAdjust="spacing" textLength="18" x="816" y="1131.5825">27</text><text fill="#000000" font-family="sans-serif" font-size="13" lengthAdjust="spacing" textLength="137" x="838" y="1131.5825">Update Session by Id</text><polygon fill="#181818" points="820,1161.7813,810,1165.7813,820,1169.7813,816,1165.7813" style="stroke:#181818;stroke-width:1.0;"/><line style="stroke:#181818;stroke-width:1.0;stroke-dasharray:2.0,2.0;" x1="814" x2="1329.5" y1="1165.7813" y2="1165.7813"/><text fill="#000000" font-family="sans-serif" font-size="13" font-weight="bold" lengthAdjust="spacing" textLength="18" x="826" y="1160.7153">28</text><text fill="#000000" font-family="sans-serif" font-size="13" lengthAdjust="spacing" textLength="4" x="848" y="1160.7153">&#160;</text><line style="stroke:#181818;stroke-width:1.0;" x1="809" x2="851" y1="1194.9141" y2="1194.9141"/><line style="stroke:#181818;stroke-width:1.0;" x1="851" x2="851" y1="1194.9141" y2="1207.9141"/><line style="stroke:#181818;stroke-width:1.0;" x1="810" x2="851" y1="1207.9141" y2="1207.9141"/><polygon fill="#181818" points="820,1203.9141,810,1207.9141,820,1211.9141,816,1207.9141" style="stroke:#181818;stroke-width:1.0;"/><text fill="#000000" font-family="sans-serif" font-size="13" font-weight="bold" lengthAdjust="spacing" textLength="18" x="816" y="1189.8481">29</text><text fill="#000000" font-family="sans-serif" font-size="13" lengthAdjust="spacing" textLength="420" x="838" y="1189.8481">Single Selection of UserIdentifier to return to Provider to Session</text><line style="stroke:#181818;stroke-width:1.0;" x1="809" x2="851" y1="1237.0469" y2="1237.0469"/><line style="stroke:#181818;stroke-width:1.0;" x1="851" x2="851" y1="1237.0469" y2="1250.0469"/><line style="stroke:#181818;stroke-width:1.0;" x1="810" x2="851" y1="1250.0469" y2="1250.0469"/><polygon fill="#181818" points="820,1246.0469,810,1250.0469,820,1254.0469,816,1250.0469" style="stroke:#181818;stroke-width:1.0;"/><text fill="#000000" font-family="sans-serif" font-size="13" font-weight="bold" lengthAdjust="spacing" textLength="18" x="816" y="1231.981">30</text><text fill="#000000" font-family="sans-serif" font-size="13" lengthAdjust="spacing" textLength="183" x="838" y="1231.981">Generate authorizationCode</text><polygon fill="#181818" points="1318.5,1275.1797,1328.5,1279.1797,1318.5,1283.1797,1322.5,1279.1797" style="stroke:#181818;stroke-width:1.0;"/><line style="stroke:#181818;stroke-width:1.0;" x1="809" x2="1324.5" y1="1279.1797" y2="1279.1797"/><text fill="#000000" font-family="sans-serif" font-size="13" font-weight="bold" lengthAdjust="spacing" textLength="18" x="816" y="1274.1138">31</text><text fill="#000000" font-family="sans-serif" font-size="13" lengthAdjust="spacing" textLength="262" x="838" y="1274.1138">update Session by id, authorizationCode</text><polygon fill="#181818" points="820,1304.3125,810,1308.3125,820,1312.3125,816,1308.3125" style="stroke:#181818;stroke-width:1.0;"/><line style="stroke:#181818;stroke-width:1.0;stroke-dasharray:2.0,2.0;" x1="814" x2="1329.5" y1="1308.3125" y2="1308.3125"/><text fill="#000000" font-family="sans-serif" font-size="13" font-weight="bold" lengthAdjust="spacing" textLength="18" x="826" y="1303.2466">32</text><text fill="#000000" font-family="sans-serif" font-size="13" lengthAdjust="spacing" textLength="4" x="848" y="1303.2466">&#160;</text><polygon fill="#181818" points="278,1340.4453,268,1344.4453,278,1348.4453,274,1344.4453" style="stroke:#181818;stroke-width:1.0;"/><line style="stroke:#181818;stroke-width:1.0;" x1="272" x2="808" y1="1344.4453" y2="1344.4453"/><text fill="#000000" font-family="sans-serif" font-size="13" font-weight="bold" lengthAdjust="spacing" textLength="18" x="284" y="1339.3794">33</text><text fill="#000000" font-family="sans-serif" font-size="13" lengthAdjust="spacing" textLength="374" x="306" y="1339.3794">Redirect to callback url with authorizationCode, sessionId</text><polygon fill="#181818" points="407,1369.5781,417,1373.5781,407,1377.5781,411,1373.5781" style="stroke:#181818;stroke-width:1.0;"/><line style="stroke:#181818;stroke-width:1.0;" x1="267" x2="413" y1="1373.5781" y2="1373.5781"/><text fill="#000000" font-family="sans-serif" font-size="13" font-weight="bold" lengthAdjust="spacing" textLength="18" x="274" y="1368.5122">34</text><text fill="#000000" font-family="sans-serif" font-size="13" lengthAdjust="spacing" textLength="106" x="296" y="1368.5122">Resolve redirect</text><polygon fill="#181818" points="797,1398.7109,807,1402.7109,797,1406.7109,801,1402.7109" style="stroke:#181818;stroke-width:1.0;"/><line style="stroke:#181818;stroke-width:1.0;" x1="419" x2="803" y1="1402.7109" y2="1402.7109"/><text fill="#000000" font-family="sans-serif" font-size="13" font-weight="bold" lengthAdjust="spacing" textLength="18" x="426" y="1397.645">35</text><text fill="#000000" font-family="sans-serif" font-size="13" lengthAdjust="spacing" textLength="344" x="448" y="1397.645">Resolve payload by authorizationCode and sessionId</text><polygon fill="#181818" points="1318.5,1427.8438,1328.5,1431.8438,1318.5,1435.8438,1322.5,1431.8438" style="stroke:#181818;stroke-width:1.0;"/><line style="stroke:#181818;stroke-width:1.0;" x1="809" x2="1324.5" y1="1431.8438" y2="1431.8438"/><text fill="#000000" font-family="sans-serif" font-size="13" font-weight="bold" lengthAdjust="spacing" textLength="18" x="816" y="1426.7778">36</text><text fill="#000000" font-family="sans-serif" font-size="13" lengthAdjust="spacing" textLength="312" x="838" y="1426.7778">find Session bt authorizationCode and sessionId</text><polygon fill="#181818" points="820,1456.9766,810,1460.9766,820,1464.9766,816,1460.9766" style="stroke:#181818;stroke-width:1.0;"/><line style="stroke:#181818;stroke-width:1.0;stroke-dasharray:2.0,2.0;" x1="814" x2="1329.5" y1="1460.9766" y2="1460.9766"/><text fill="#000000" font-family="sans-serif" font-size="13" font-weight="bold" lengthAdjust="spacing" textLength="18" x="826" y="1455.9106">37</text><text fill="#000000" font-family="sans-serif" font-size="13" lengthAdjust="spacing" textLength="4" x="848" y="1455.9106">&#160;</text><polygon fill="#181818" points="430,1486.1094,420,1490.1094,430,1494.1094,426,1490.1094" style="stroke:#181818;stroke-width:1.0;"/><line style="stroke:#181818;stroke-width:1.0;" x1="424" x2="808" y1="1490.1094" y2="1490.1094"/><text fill="#000000" font-family="sans-serif" font-size="13" font-weight="bold" lengthAdjust="spacing" textLength="18" x="436" y="1485.0435">38</text><text fill="#000000" font-family="sans-serif" font-size="13" lengthAdjust="spacing" textLength="100" x="458" y="1485.0435">Signed Payload</text><!--SRC=[jLLDRzim3BtxLn0vRK2BORSXXm91qmp5rYAOaPrwaIKw5MfBcZuIPBz-b6IdTfncGu4525A8v2Fv-CXwwHk4sIFkOUFGmghH-rd1kDSMPl5b1in1A0opNd9fcFBvVR55vREHZQrhgtTIT95cR5jP_1LGySEJMd2EpYMdcXM2ULOnHwMijVDRYzaYge7b1mgPd-qRgCbOyR6rl2lJkqCtDZngBsl9cPTQFQaIxKvoJAxA5ONI7e5ngvsRmyAvqAA3Wmx0B0BNhLHRgArkmJyZVDTRgH9v1GjUgz1MQ0k8dwtLmS2z8Bee6r7y4-qnRNQXJyskRsesXw-eqBAOEH0kXMI_Mormv6ldi4RhfFDG4eta0jNXJ10m9MBdqUDU724i-c1VixF6WtHtBPFDyQtFHC5poa4moGuVZcW9UvhoumY2lAzlmhmBTkGwCeVSTjBURIFvYuFpPL33jQHyx-dsjUC-_6Z2XfGbNTcwIKRLzrq-b1DZeAANqfc67Q8TLjgs8oULsoPWUA2SR8jK0aUvGt5AGCIwKvx6UMdgoRbJIHcgLlg_klzFtbHswt-poc-P8MyKiAIbXJNppnE1bxGtT75AR937zA3hDFt1WdWD5IQfn3_xSp91MgB5chwA8nYqhKmLkXXp__dBOzopIXBlnUdSkYhJp5Bdwq7qNlfdY3S7vB4YTrAIEIsfdqkyQSQpM574pMFAPEm_ZJjqFNCN1ZLPsCaOUYuSso7Ty4XaobRJ-HwpEWeHrHouHRepf25GTFnNYrYy3jHWschdD9Ta5ucBqp8W4FOtF2o7jhwMZOkdSVFgqQNA8fDR1SmGWyP6_2S5XXqQpOHBHGy6EG5UY1oFOjs7497dA24kDqR4d9VOVASsEmu6qdohZCb1rrR-VlEUXqd5KbnT21iqqMkfLtZyJqdN9ecLiwQf67-1O9kixWdarSdkHpcRYE9qiujtAwCbcybjzRPkUFrP6S6UkIfdXUx_ANJGRfthAvCMe1F37m00]--></g></svg>