<?xml version="1.0" encoding="us-ascii" standalone="no"?><svg xmlns="http://www.w3.org/2000/svg" xmlns:xlink="http://www.w3.org/1999/xlink" contentStyleType="text/css" height="1287px" preserveAspectRatio="none" style="width:1616px;height:1287px;background:#FFFFFF;" version="1.1" viewBox="0 0 1616 1287" width="1616px" zoomAndPan="magnify"><defs/><g><ellipse cx="1049.125" cy="20" fill="#222222" rx="10" ry="10" style="stroke:#222222;stroke-width:1.0;"/><path d="M243.125,40 L243.125,246.7266 A0,0 0 0 0 243.125,246.7266 L705.125,246.7266 A0,0 0 0 0 705.125,246.7266 L705.125,147.3633 L725.125,143.3633 L705.125,139.3633 L705.125,50 L695.125,40 L243.125,40 A0,0 0 0 0 243.125,40 " fill="#FEFFDD" style="stroke:#181818;stroke-width:0.5;"/><path d="M695.125,40 L695.125,50 L705.125,50 L695.125,40 " fill="#FEFFDD" style="stroke:#181818;stroke-width:0.5;"/><text fill="#000000" font-family="sans-serif" font-size="13" lengthAdjust="spacing" textLength="374" x="249.125" y="57.0669">Lots of conditionals but as far as "screens" are concerned</text><text fill="#000000" font-family="sans-serif" font-size="13" lengthAdjust="spacing" textLength="169" x="249.125" y="72.1997">these are the unique ones</text><text fill="#000000" font-family="sans-serif" font-size="13" lengthAdjust="spacing" textLength="196" x="249.125" y="87.3325">1. User Enters in Email or SMS</text><text fill="#000000" font-family="sans-serif" font-size="13" lengthAdjust="spacing" textLength="175" x="249.125" y="102.4653">2. Display Email Sent Page</text><text fill="#000000" font-family="sans-serif" font-size="13" lengthAdjust="spacing" textLength="133" x="249.125" y="117.5981">3. Display SMS Form</text><text fill="#000000" font-family="sans-serif" font-size="13" lengthAdjust="spacing" textLength="441" x="249.125" y="132.731">4. Display List of Keys with Provider Delegations w/New Key Option</text><text fill="#000000" font-family="sans-serif" font-size="13" lengthAdjust="spacing" textLength="325" x="249.125" y="147.8638">5. Display Selection of Data to be sent to Provider</text><text fill="#000000" font-family="sans-serif" font-size="13" lengthAdjust="spacing" textLength="275" x="249.125" y="162.9966">6. Display Permissions Acceptance Screen</text><text fill="#000000" font-family="sans-serif" font-size="13" lengthAdjust="spacing" textLength="393" x="249.125" y="178.1294">7. Display Permissions Acceptance Screen and Capture Data</text><text fill="#000000" font-family="sans-serif" font-size="13" lengthAdjust="spacing" textLength="258" x="261.125" y="193.2622">which is really just a permutation of #6</text><text fill="#000000" font-family="sans-serif" font-size="13" lengthAdjust="spacing" textLength="4" x="249.125" y="208.395">&#160;</text><text fill="#000000" font-family="sans-serif" font-size="13" lengthAdjust="spacing" textLength="347" x="249.125" y="223.5278">This is just how I've mapped them for this document,</text><text fill="#000000" font-family="sans-serif" font-size="13" lengthAdjust="spacing" textLength="403" x="249.125" y="238.6606">not dictating it be this way, merged or split apart up to design</text><rect fill="#F1F1F1" height="33.9688" rx="12.5" ry="12.5" style="stroke:#181818;stroke-width:0.5;" width="648" x="725.125" y="126.3789"/><text fill="#000000" font-family="sans-serif" font-size="12" lengthAdjust="spacing" textLength="628" x="735.125" y="147.5176">Provider sends user who would like to SiWA request(publicKey,callbackUrl,permissions,nonce,signature)</text><rect fill="#F1F1F1" height="33.9688" rx="12.5" ry="12.5" style="stroke:#181818;stroke-width:0.5;" width="188" x="955.125" y="266.7266"/><text fill="#000000" font-family="sans-serif" font-size="12" lengthAdjust="spacing" textLength="168" x="965.125" y="287.8652">User Enters in Email or SMS</text><path d="M809.625,310.6953 L809.625,335.8281 L1001.625,335.8281 L1001.625,320.6953 L991.625,310.6953 L809.625,310.6953 " fill="#FEFFDD" style="stroke:#181818;stroke-width:0.5;"/><path d="M991.625,310.6953 L991.625,320.6953 L1001.625,320.6953 L991.625,310.6953 " fill="#FEFFDD" style="stroke:#181818;stroke-width:0.5;"/><text fill="#000000" font-family="sans-serif" font-size="13" lengthAdjust="spacing" textLength="171" x="815.625" y="327.7622">New FA Account, New Key</text><polygon fill="#F1F1F1" points="1013.625,335.8281,1084.625,335.8281,1096.625,347.8281,1084.625,359.8281,1013.625,359.8281,1001.625,347.8281,1013.625,335.8281" style="stroke:#181818;stroke-width:0.5;"/><text fill="#000000" font-family="sans-serif" font-size="11" lengthAdjust="spacing" textLength="71" x="1013.625" y="351.6362">Exists in FA?</text><text fill="#000000" font-family="sans-serif" font-size="11" lengthAdjust="spacing" textLength="20" x="981.625" y="345.2339">Yes</text><text fill="#000000" font-family="sans-serif" font-size="11" lengthAdjust="spacing" textLength="73" x="1096.625" y="345.2339">Doesn't Exist</text><polygon fill="#F1F1F1" points="555.75,379.8281,595.75,379.8281,607.75,391.8281,595.75,403.8281,555.75,403.8281,543.75,391.8281,555.75,379.8281" style="stroke:#181818;stroke-width:0.5;"/><text fill="#000000" font-family="sans-serif" font-size="11" lengthAdjust="spacing" textLength="20" x="579.75" y="414.0386">Yes</text><text fill="#000000" font-family="sans-serif" font-size="11" lengthAdjust="spacing" textLength="40" x="555.75" y="395.6362">isEmail</text><rect fill="#F1F1F1" height="33.9688" rx="12.5" ry="12.5" style="stroke:#181818;stroke-width:0.5;" width="88" x="531.75" y="435.5386"/><text fill="#000000" font-family="sans-serif" font-size="12" lengthAdjust="spacing" textLength="68" x="541.75" y="456.6772">Send Email</text><rect fill="#F1F1F1" height="33.9688" rx="12.5" ry="12.5" style="stroke:#181818;stroke-width:0.5;" width="165" x="493.25" y="489.5073"/><text fill="#000000" font-family="sans-serif" font-size="12" lengthAdjust="spacing" textLength="145" x="503.25" y="510.646">Display Email Sent Page</text><rect fill="#F1F1F1" height="33.9688" rx="12.5" ry="12.5" style="stroke:#181818;stroke-width:0.5;" width="151" x="500.25" y="543.4761"/><text fill="#000000" font-family="sans-serif" font-size="12" lengthAdjust="spacing" textLength="131" x="510.25" y="564.6147">User Clicks Email Link</text><polygon fill="#F1F1F1" points="744.75,379.8281,777.75,379.8281,789.75,391.8281,777.75,403.8281,744.75,403.8281,732.75,391.8281,744.75,379.8281" style="stroke:#181818;stroke-width:0.5;"/><text fill="#000000" font-family="sans-serif" font-size="11" lengthAdjust="spacing" textLength="20" x="765.25" y="414.0386">Yes</text><text fill="#000000" font-family="sans-serif" font-size="11" lengthAdjust="spacing" textLength="33" x="744.75" y="395.6362">isSms</text><rect fill="#F1F1F1" height="33.9688" rx="12.5" ry="12.5" style="stroke:#181818;stroke-width:0.5;" width="81" x="720.75" y="435.5386"/><text fill="#000000" font-family="sans-serif" font-size="12" lengthAdjust="spacing" textLength="61" x="730.75" y="456.6772">Send Sms</text><rect fill="#F1F1F1" height="33.9688" rx="12.5" ry="12.5" style="stroke:#181818;stroke-width:0.5;" width="128" x="697.25" y="489.5073"/><text fill="#000000" font-family="sans-serif" font-size="12" lengthAdjust="spacing" textLength="108" x="707.25" y="510.646">Display SMS Form</text><rect fill="#F1F1F1" height="33.9688" rx="12.5" ry="12.5" style="stroke:#181818;stroke-width:0.5;" width="166" x="678.25" y="543.4761"/><text fill="#000000" font-family="sans-serif" font-size="12" lengthAdjust="spacing" textLength="146" x="688.25" y="564.6147">User Submits SMS Form</text><rect fill="#F1F1F1" height="33.9688" rx="12.5" ry="12.5" style="stroke:#181818;stroke-width:0.5;" width="123" x="632.25" y="617.4448"/><text fill="#000000" font-family="sans-serif" font-size="12" lengthAdjust="spacing" textLength="103" x="642.25" y="638.5835">Identifier Verified</text><path d="M76.75,671.4136 L76.75,832.7417 A0,0 0 0 0 76.75,832.7417 L470.75,832.7417 A0,0 0 0 0 470.75,832.7417 L470.75,756.0776 L490.75,752.0776 L470.75,748.0776 L470.75,681.4136 L460.75,671.4136 L76.75,671.4136 A0,0 0 0 0 76.75,671.4136 " fill="#FEFFDD" style="stroke:#181818;stroke-width:0.5;"/><path d="M460.75,671.4136 L460.75,681.4136 L470.75,681.4136 L460.75,671.4136 " fill="#FEFFDD" style="stroke:#181818;stroke-width:0.5;"/><text fill="#000000" font-family="sans-serif" font-size="13" lengthAdjust="spacing" textLength="178" x="82.75" y="688.4805">There is a lot going on here</text><text fill="#000000" font-family="sans-serif" font-size="13" lengthAdjust="spacing" textLength="259" x="82.75" y="703.6133">1. Choose the Existing Key to login with</text><text fill="#000000" font-family="sans-serif" font-size="13" lengthAdjust="spacing" textLength="373" x="82.75" y="718.7461">2. Changing Permissions for this Provider on Existing Key</text><text fill="#000000" font-family="sans-serif" font-size="13" lengthAdjust="spacing" textLength="191" x="94.75" y="733.8789">May just be passive with #1?</text><text fill="#000000" font-family="sans-serif" font-size="13" lengthAdjust="spacing" textLength="229" x="82.75" y="749.0117">3. Add this Provider to Existing Key</text><text fill="#000000" font-family="sans-serif" font-size="13" lengthAdjust="spacing" textLength="218" x="82.75" y="764.1445">4. Add this Provider to a New Key</text><text fill="#000000" font-family="sans-serif" font-size="13" lengthAdjust="spacing" textLength="226" x="82.75" y="779.2773">- Changing permissions, I think it's</text><text fill="#000000" font-family="sans-serif" font-size="13" lengthAdjust="spacing" textLength="180" x="82.75" y="794.4102">just a path for "login" state.</text><text fill="#000000" font-family="sans-serif" font-size="13" lengthAdjust="spacing" textLength="214" x="82.75" y="809.543">- New Key is an overt interaction</text><text fill="#000000" font-family="sans-serif" font-size="13" lengthAdjust="spacing" textLength="322" x="82.75" y="824.6758">- Adding to an existing key is an overt interaction</text><rect fill="#F1F1F1" height="33.9688" rx="12.5" ry="12.5" style="stroke:#181818;stroke-width:0.5;" width="406" x="490.75" y="735.0933"/><text fill="#000000" font-family="sans-serif" font-size="12" lengthAdjust="spacing" textLength="386" x="500.75" y="756.2319">Display List of Keys with Provider Delegations w/New Key Option</text><path d="M432.25,842.7417 L432.25,867.8745 L639.25,867.8745 L639.25,852.7417 L629.25,842.7417 L432.25,842.7417 " fill="#FEFFDD" style="stroke:#181818;stroke-width:0.5;"/><path d="M629.25,842.7417 L629.25,852.7417 L639.25,852.7417 L629.25,842.7417 " fill="#FEFFDD" style="stroke:#181818;stroke-width:0.5;"/><text fill="#000000" font-family="sans-serif" font-size="13" lengthAdjust="spacing" textLength="186" x="438.25" y="859.8086">Login or Mutate Existing Key</text><path d="M748.25,842.7417 L748.25,867.8745 L963.25,867.8745 L963.25,852.7417 L953.25,842.7417 L748.25,842.7417 " fill="#FEFFDD" style="stroke:#181818;stroke-width:0.5;"/><path d="M953.25,842.7417 L953.25,852.7417 L963.25,852.7417 L953.25,842.7417 " fill="#FEFFDD" style="stroke:#181818;stroke-width:0.5;"/><text fill="#000000" font-family="sans-serif" font-size="13" lengthAdjust="spacing" textLength="194" x="754.25" y="859.8086">Existing FA Account, New Key</text><polygon fill="#F1F1F1" points="651.25,867.8745,736.25,867.8745,748.25,879.8745,736.25,891.8745,651.25,891.8745,639.25,879.8745,651.25,867.8745" style="stroke:#181818;stroke-width:0.5;"/><text fill="#000000" font-family="sans-serif" font-size="11" lengthAdjust="spacing" textLength="85" x="651.25" y="883.6826">useExistingKey</text><text fill="#000000" font-family="sans-serif" font-size="11" lengthAdjust="spacing" textLength="20" x="619.25" y="877.2803">Yes</text><text fill="#000000" font-family="sans-serif" font-size="11" lengthAdjust="spacing" textLength="72" x="748.25" y="877.2803">No, New Key</text><polygon fill="#F1F1F1" points="94.5,926.8745,279.5,926.8745,291.5,938.8745,279.5,950.8745,94.5,950.8745,82.5,938.8745,94.5,926.8745" style="stroke:#181818;stroke-width:0.5;"/><text fill="#000000" font-family="sans-serif" font-size="11" lengthAdjust="spacing" textLength="89" x="191" y="961.085">True, Is A Login</text><text fill="#000000" font-family="sans-serif" font-size="11" lengthAdjust="spacing" textLength="185" x="94.5" y="942.6826">Has All Permissions For Provider</text><rect fill="#F1F1F1" height="33.9688" rx="12.5" ry="12.5" style="stroke:#181818;stroke-width:0.5;" width="303" x="35.5" y="983.6792"/><text fill="#000000" font-family="sans-serif" font-size="12" lengthAdjust="spacing" textLength="283" x="45.5" y="1004.8179">Display Selection of Data to be sent to Provider</text><rect fill="#F1F1F1" height="47.9375" rx="12.5" ry="12.5" style="stroke:#181818;stroke-width:0.5;" width="352" x="11" y="1050.4839"/><text fill="#000000" font-family="sans-serif" font-size="12" lengthAdjust="spacing" textLength="332" x="21" y="1071.6226">Redirect to Provider callbackUrl with authorizationCode</text><text fill="#000000" font-family="sans-serif" font-size="12" lengthAdjust="spacing" textLength="197" x="25" y="1085.5913">that will resolve the loginPayload</text><polygon fill="#F1F1F1" points="494.5,926.8745,623.5,926.8745,635.5,938.8745,623.5,950.8745,494.5,950.8745,482.5,938.8745,494.5,926.8745" style="stroke:#181818;stroke-width:0.5;"/><text fill="#000000" font-family="sans-serif" font-size="11" lengthAdjust="spacing" textLength="129" x="494.5" y="942.6826">Has Some Permissions</text><rect fill="#F1F1F1" height="33.9688" rx="12.5" ry="12.5" style="stroke:#181818;stroke-width:0.5;" width="258" x="430" y="970.8745"/><text fill="#000000" font-family="sans-serif" font-size="12" lengthAdjust="spacing" textLength="238" x="440" y="992.0132">Display Permissions Acceptance Screen</text><rect fill="#F1F1F1" height="33.9688" rx="12.5" ry="12.5" style="stroke:#181818;stroke-width:0.5;" width="303" x="407.5" y="1037.6792"/><text fill="#000000" font-family="sans-serif" font-size="12" lengthAdjust="spacing" textLength="283" x="417.5" y="1058.8179">Display Selection of Data to be sent to Provider</text><rect fill="#F1F1F1" height="47.9375" rx="12.5" ry="12.5" style="stroke:#181818;stroke-width:0.5;" width="352" x="383" y="1106.6479"/><text fill="#000000" font-family="sans-serif" font-size="12" lengthAdjust="spacing" textLength="332" x="393" y="1127.7866">Redirect to Provider callbackUrl with authorizationCode</text><text fill="#000000" font-family="sans-serif" font-size="12" lengthAdjust="spacing" textLength="261" x="397" y="1141.7554">that will resolve the addPermissionsPayload</text><rect fill="#F1F1F1" height="33.9688" rx="12.5" ry="12.5" style="stroke:#181818;stroke-width:0.5;" width="369" x="805" y="901.8745"/><text fill="#000000" font-family="sans-serif" font-size="12" lengthAdjust="spacing" textLength="349" x="815" y="923.0132">Display Permissions Acceptance Screen and Capture Data</text><rect fill="#F1F1F1" height="33.9688" rx="12.5" ry="12.5" style="stroke:#181818;stroke-width:0.5;" width="303" x="838" y="970.8433"/><text fill="#000000" font-family="sans-serif" font-size="12" lengthAdjust="spacing" textLength="283" x="848" y="991.9819">Display Selection of Data to be sent to Provider</text><rect fill="#F1F1F1" height="47.9375" rx="12.5" ry="12.5" style="stroke:#181818;stroke-width:0.5;" width="352" x="813.5" y="1037.6479"/><text fill="#000000" font-family="sans-serif" font-size="12" lengthAdjust="spacing" textLength="332" x="823.5" y="1058.7866">Redirect to Provider callbackUrl with authorizationCode</text><text fill="#000000" font-family="sans-serif" font-size="12" lengthAdjust="spacing" textLength="320" x="827.5" y="1072.7554">that will resolve the createSponsoredAccountPayload</text><polygon fill="#F1F1F1" points="693.75,1180.5854,705.75,1192.5854,693.75,1204.5854,681.75,1192.5854,693.75,1180.5854" style="stroke:#181818;stroke-width:0.5;"/><polygon fill="#F1F1F1" points="1266.5,379.8281,1306.5,379.8281,1318.5,391.8281,1306.5,403.8281,1266.5,403.8281,1254.5,391.8281,1266.5,379.8281" style="stroke:#181818;stroke-width:0.5;"/><text fill="#000000" font-family="sans-serif" font-size="11" lengthAdjust="spacing" textLength="20" x="1290.5" y="414.0386">Yes</text><text fill="#000000" font-family="sans-serif" font-size="11" lengthAdjust="spacing" textLength="40" x="1266.5" y="395.6362">isEmail</text><rect fill="#F1F1F1" height="33.9688" rx="12.5" ry="12.5" style="stroke:#181818;stroke-width:0.5;" width="88" x="1242.5" y="435.5386"/><text fill="#000000" font-family="sans-serif" font-size="12" lengthAdjust="spacing" textLength="68" x="1252.5" y="456.6772">Send Email</text><rect fill="#F1F1F1" height="33.9688" rx="12.5" ry="12.5" style="stroke:#181818;stroke-width:0.5;" width="165" x="1204" y="489.5073"/><text fill="#000000" font-family="sans-serif" font-size="12" lengthAdjust="spacing" textLength="145" x="1214" y="510.646">Display Email Sent Page</text><rect fill="#F1F1F1" height="33.9688" rx="12.5" ry="12.5" style="stroke:#181818;stroke-width:0.5;" width="151" x="1211" y="543.4761"/><text fill="#000000" font-family="sans-serif" font-size="12" lengthAdjust="spacing" textLength="131" x="1221" y="564.6147">User Clicks Email Link</text><polygon fill="#F1F1F1" points="1455.5,379.8281,1488.5,379.8281,1500.5,391.8281,1488.5,403.8281,1455.5,403.8281,1443.5,391.8281,1455.5,379.8281" style="stroke:#181818;stroke-width:0.5;"/><text fill="#000000" font-family="sans-serif" font-size="11" lengthAdjust="spacing" textLength="20" x="1476" y="414.0386">Yes</text><text fill="#000000" font-family="sans-serif" font-size="11" lengthAdjust="spacing" textLength="33" x="1455.5" y="395.6362">isSms</text><rect fill="#F1F1F1" height="33.9688" rx="12.5" ry="12.5" style="stroke:#181818;stroke-width:0.5;" width="81" x="1431.5" y="435.5386"/><text fill="#000000" font-family="sans-serif" font-size="12" lengthAdjust="spacing" textLength="61" x="1441.5" y="456.6772">Send Sms</text><rect fill="#F1F1F1" height="33.9688" rx="12.5" ry="12.5" style="stroke:#181818;stroke-width:0.5;" width="128" x="1408" y="489.5073"/><text fill="#000000" font-family="sans-serif" font-size="12" lengthAdjust="spacing" textLength="108" x="1418" y="510.646">Display SMS Form</text><rect fill="#F1F1F1" height="33.9688" rx="12.5" ry="12.5" style="stroke:#181818;stroke-width:0.5;" width="166" x="1389" y="543.4761"/><text fill="#000000" font-family="sans-serif" font-size="12" lengthAdjust="spacing" textLength="146" x="1399" y="564.6147">User Submits SMS Form</text><rect fill="#F1F1F1" height="33.9688" rx="12.5" ry="12.5" style="stroke:#181818;stroke-width:0.5;" width="369" x="1220" y="617.4448"/><text fill="#000000" font-family="sans-serif" font-size="12" lengthAdjust="spacing" textLength="349" x="1230" y="638.5835">Display Permissions Acceptance Screen and Capture Data</text><rect fill="#F1F1F1" height="33.9688" rx="12.5" ry="12.5" style="stroke:#181818;stroke-width:0.5;" width="303" x="1253" y="671.4136"/><text fill="#000000" font-family="sans-serif" font-size="12" lengthAdjust="spacing" textLength="283" x="1263" y="692.5522">Display Selection of Data to be sent to Provider</text><rect fill="#F1F1F1" height="47.9375" rx="12.5" ry="12.5" style="stroke:#181818;stroke-width:0.5;" width="352" x="1228.5" y="740.3823"/><text fill="#000000" font-family="sans-serif" font-size="12" lengthAdjust="spacing" textLength="332" x="1238.5" y="761.521">Redirect to Provider callbackUrl with authorizationCode</text><text fill="#000000" font-family="sans-serif" font-size="12" lengthAdjust="spacing" textLength="320" x="1242.5" y="775.4897">that will resolve the createSponsoredAccountPayload</text><polygon fill="#F1F1F1" points="1049.125,1210.5854,1061.125,1222.5854,1049.125,1234.5854,1037.125,1222.5854,1049.125,1210.5854" style="stroke:#181818;stroke-width:0.5;"/><ellipse cx="1049.125" cy="1265.5854" fill="none" rx="11" ry="11" style="stroke:#222222;stroke-width:1.0;"/><ellipse cx="1049.125" cy="1265.5854" fill="#222222" rx="6" ry="6" style="stroke:#222222;stroke-width:1.0;"/><line style="stroke:#181818;stroke-width:1.0;" x1="1049.125" x2="1049.125" y1="30" y2="126.3789"/><polygon fill="#181818" points="1045.125,116.3789,1049.125,126.3789,1053.125,116.3789,1049.125,120.3789" style="stroke:#181818;stroke-width:1.0;"/><line style="stroke:#181818;stroke-width:1.0;" x1="1049.125" x2="1049.125" y1="160.3477" y2="266.7266"/><polygon fill="#181818" points="1045.125,256.7266,1049.125,266.7266,1053.125,256.7266,1049.125,260.7266" style="stroke:#181818;stroke-width:1.0;"/><line style="stroke:#181818;stroke-width:1.0;" x1="575.75" x2="575.75" y1="469.5073" y2="489.5073"/><polygon fill="#181818" points="571.75,479.5073,575.75,489.5073,579.75,479.5073,575.75,483.5073" style="stroke:#181818;stroke-width:1.0;"/><line style="stroke:#181818;stroke-width:1.0;" x1="575.75" x2="575.75" y1="523.4761" y2="543.4761"/><polygon fill="#181818" points="571.75,533.4761,575.75,543.4761,579.75,533.4761,575.75,537.4761" style="stroke:#181818;stroke-width:1.0;"/><line style="stroke:#181818;stroke-width:1.0;" x1="761.25" x2="761.25" y1="469.5073" y2="489.5073"/><polygon fill="#181818" points="757.25,479.5073,761.25,489.5073,765.25,479.5073,761.25,483.5073" style="stroke:#181818;stroke-width:1.0;"/><line style="stroke:#181818;stroke-width:1.0;" x1="761.25" x2="761.25" y1="523.4761" y2="543.4761"/><polygon fill="#181818" points="757.25,533.4761,761.25,543.4761,765.25,533.4761,761.25,537.4761" style="stroke:#181818;stroke-width:1.0;"/><line style="stroke:#181818;stroke-width:1.0;" x1="575.75" x2="575.75" y1="403.8281" y2="435.5386"/><polygon fill="#181818" points="571.75,425.5386,575.75,435.5386,579.75,425.5386,575.75,429.5386" style="stroke:#181818;stroke-width:1.0;"/><line style="stroke:#181818;stroke-width:1.0;" x1="575.75" x2="575.75" y1="577.4448" y2="597.4448"/><polygon fill="#181818" points="571.75,587.4448,575.75,597.4448,579.75,587.4448,575.75,591.4448" style="stroke:#181818;stroke-width:1.0;"/><line style="stroke:#181818;stroke-width:1.0;" x1="761.25" x2="761.25" y1="403.8281" y2="435.5386"/><polygon fill="#181818" points="757.25,425.5386,761.25,435.5386,765.25,425.5386,761.25,429.5386" style="stroke:#181818;stroke-width:1.0;"/><line style="stroke:#181818;stroke-width:1.0;" x1="761.25" x2="761.25" y1="577.4448" y2="597.4448"/><polygon fill="#181818" points="757.25,587.4448,761.25,597.4448,765.25,587.4448,761.25,591.4448" style="stroke:#181818;stroke-width:1.0;"/><line style="stroke:#181818;stroke-width:1.0;" x1="607.75" x2="732.75" y1="391.8281" y2="391.8281"/><polygon fill="#181818" points="722.75,387.8281,732.75,391.8281,722.75,395.8281,726.75,391.8281" style="stroke:#181818;stroke-width:1.0;"/><line style="stroke:#181818;stroke-width:1.0;" x1="1001.625" x2="575.75" y1="347.8281" y2="347.8281"/><line style="stroke:#181818;stroke-width:1.0;" x1="575.75" x2="575.75" y1="347.8281" y2="379.8281"/><polygon fill="#181818" points="571.75,369.8281,575.75,379.8281,579.75,369.8281,575.75,373.8281" style="stroke:#181818;stroke-width:1.0;"/><line style="stroke:#181818;stroke-width:1.0;" x1="789.75" x2="879.25" y1="391.8281" y2="391.8281"/><line style="stroke:#181818;stroke-width:1.0;" x1="879.25" x2="879.25" y1="391.8281" y2="597.4448"/><polygon fill="#181818" points="875.25,587.4448,879.25,597.4448,883.25,587.4448,879.25,591.4448" style="stroke:#181818;stroke-width:1.0;"/><line style="stroke:#181818;stroke-width:1.0;" x1="575.75" x2="879.25" y1="597.4448" y2="597.4448"/><line style="stroke:#181818;stroke-width:1.0;" x1="693.75" x2="693.75" y1="597.4448" y2="617.4448"/><polygon fill="#181818" points="689.75,607.4448,693.75,617.4448,697.75,607.4448,693.75,611.4448" style="stroke:#181818;stroke-width:1.0;"/><line style="stroke:#181818;stroke-width:1.0;" x1="693.75" x2="693.75" y1="651.4136" y2="735.0933"/><polygon fill="#181818" points="689.75,725.0933,693.75,735.0933,697.75,725.0933,693.75,729.0933" style="stroke:#181818;stroke-width:1.0;"/><line style="stroke:#181818;stroke-width:1.0;" x1="187" x2="187" y1="1017.6479" y2="1050.4839"/><polygon fill="#181818" points="183,1040.4839,187,1050.4839,191,1040.4839,187,1044.4839" style="stroke:#181818;stroke-width:1.0;"/><line style="stroke:#181818;stroke-width:1.0;" x1="559" x2="559" y1="1004.8433" y2="1037.6792"/><polygon fill="#181818" points="555,1027.6792,559,1037.6792,563,1027.6792,559,1031.6792" style="stroke:#181818;stroke-width:1.0;"/><line style="stroke:#181818;stroke-width:1.0;" x1="559" x2="559" y1="1071.6479" y2="1106.6479"/><polygon fill="#181818" points="555,1096.6479,559,1106.6479,563,1096.6479,559,1100.6479" style="stroke:#181818;stroke-width:1.0;"/><line style="stroke:#181818;stroke-width:1.0;" x1="187" x2="187" y1="950.8745" y2="983.6792"/><polygon fill="#181818" points="183,973.6792,187,983.6792,191,973.6792,187,977.6792" style="stroke:#181818;stroke-width:1.0;"/><line style="stroke:#181818;stroke-width:1.0;" x1="187" x2="187" y1="1098.4214" y2="1174.5854"/><polygon fill="#181818" points="183,1164.5854,187,1174.5854,191,1164.5854,187,1168.5854" style="stroke:#181818;stroke-width:1.0;"/><line style="stroke:#181818;stroke-width:1.0;" x1="559" x2="559" y1="950.8745" y2="970.8745"/><polygon fill="#181818" points="555,960.8745,559,970.8745,563,960.8745,559,964.8745" style="stroke:#181818;stroke-width:1.0;"/><line style="stroke:#181818;stroke-width:1.0;" x1="559" x2="559" y1="1154.5854" y2="1174.5854"/><polygon fill="#181818" points="555,1164.5854,559,1174.5854,563,1164.5854,559,1168.5854" style="stroke:#181818;stroke-width:1.0;"/><line style="stroke:#181818;stroke-width:1.0;" x1="291.5" x2="482.5" y1="938.8745" y2="938.8745"/><polygon fill="#181818" points="472.5,934.8745,482.5,938.8745,472.5,942.8745,476.5,938.8745" style="stroke:#181818;stroke-width:1.0;"/><line style="stroke:#181818;stroke-width:1.0;" x1="639.25" x2="187" y1="879.8745" y2="879.8745"/><line style="stroke:#181818;stroke-width:1.0;" x1="187" x2="187" y1="879.8745" y2="926.8745"/><polygon fill="#181818" points="183,916.8745,187,926.8745,191,916.8745,187,920.8745" style="stroke:#181818;stroke-width:1.0;"/><line style="stroke:#181818;stroke-width:1.0;" x1="635.5" x2="770" y1="938.8745" y2="938.8745"/><line style="stroke:#181818;stroke-width:1.0;" x1="770" x2="770" y1="938.8745" y2="1174.5854"/><polygon fill="#181818" points="766,1164.5854,770,1174.5854,774,1164.5854,770,1168.5854" style="stroke:#181818;stroke-width:1.0;"/><line style="stroke:#181818;stroke-width:1.0;" x1="187" x2="770" y1="1174.5854" y2="1174.5854"/><line style="stroke:#181818;stroke-width:1.0;" x1="989.5" x2="989.5" y1="935.8433" y2="970.8433"/><polygon fill="#181818" points="985.5,960.8433,989.5,970.8433,993.5,960.8433,989.5,964.8433" style="stroke:#181818;stroke-width:1.0;"/><line style="stroke:#181818;stroke-width:1.0;" x1="989.5" x2="989.5" y1="1004.812" y2="1037.6479"/><polygon fill="#181818" points="985.5,1027.6479,989.5,1037.6479,993.5,1027.6479,989.5,1031.6479" style="stroke:#181818;stroke-width:1.0;"/><line style="stroke:#181818;stroke-width:1.0;" x1="748.25" x2="989.5" y1="879.8745" y2="879.8745"/><line style="stroke:#181818;stroke-width:1.0;" x1="989.5" x2="989.5" y1="879.8745" y2="901.8745"/><polygon fill="#181818" points="985.5,891.8745,989.5,901.8745,993.5,891.8745,989.5,895.8745" style="stroke:#181818;stroke-width:1.0;"/><line style="stroke:#181818;stroke-width:1.0;" x1="398" x2="398" y1="1174.5854" y2="1192.5854"/><line style="stroke:#181818;stroke-width:1.0;" x1="398" x2="681.75" y1="1192.5854" y2="1192.5854"/><polygon fill="#181818" points="671.75,1188.5854,681.75,1192.5854,671.75,1196.5854,675.75,1192.5854" style="stroke:#181818;stroke-width:1.0;"/><line style="stroke:#181818;stroke-width:1.0;" x1="989.5" x2="989.5" y1="1085.5854" y2="1192.5854"/><line style="stroke:#181818;stroke-width:1.0;" x1="989.5" x2="705.75" y1="1192.5854" y2="1192.5854"/><polygon fill="#181818" points="715.75,1188.5854,705.75,1192.5854,715.75,1196.5854,711.75,1192.5854" style="stroke:#181818;stroke-width:1.0;"/><line style="stroke:#181818;stroke-width:1.0;" x1="693.75" x2="693.75" y1="769.062" y2="867.8745"/><polygon fill="#181818" points="689.75,857.8745,693.75,867.8745,697.75,857.8745,693.75,861.8745" style="stroke:#181818;stroke-width:1.0;"/><line style="stroke:#181818;stroke-width:1.0;" x1="1286.5" x2="1286.5" y1="469.5073" y2="489.5073"/><polygon fill="#181818" points="1282.5,479.5073,1286.5,489.5073,1290.5,479.5073,1286.5,483.5073" style="stroke:#181818;stroke-width:1.0;"/><line style="stroke:#181818;stroke-width:1.0;" x1="1286.5" x2="1286.5" y1="523.4761" y2="543.4761"/><polygon fill="#181818" points="1282.5,533.4761,1286.5,543.4761,1290.5,533.4761,1286.5,537.4761" style="stroke:#181818;stroke-width:1.0;"/><line style="stroke:#181818;stroke-width:1.0;" x1="1472" x2="1472" y1="469.5073" y2="489.5073"/><polygon fill="#181818" points="1468,479.5073,1472,489.5073,1476,479.5073,1472,483.5073" style="stroke:#181818;stroke-width:1.0;"/><line style="stroke:#181818;stroke-width:1.0;" x1="1472" x2="1472" y1="523.4761" y2="543.4761"/><polygon fill="#181818" points="1468,533.4761,1472,543.4761,1476,533.4761,1472,537.4761" style="stroke:#181818;stroke-width:1.0;"/><line style="stroke:#181818;stroke-width:1.0;" x1="1286.5" x2="1286.5" y1="403.8281" y2="435.5386"/><polygon fill="#181818" points="1282.5,425.5386,1286.5,435.5386,1290.5,425.5386,1286.5,429.5386" style="stroke:#181818;stroke-width:1.0;"/><line style="stroke:#181818;stroke-width:1.0;" x1="1286.5" x2="1286.5" y1="577.4448" y2="597.4448"/><polygon fill="#181818" points="1282.5,587.4448,1286.5,597.4448,1290.5,587.4448,1286.5,591.4448" style="stroke:#181818;stroke-width:1.0;"/><line style="stroke:#181818;stroke-width:1.0;" x1="1472" x2="1472" y1="403.8281" y2="435.5386"/><polygon fill="#181818" points="1468,425.5386,1472,435.5386,1476,425.5386,1472,429.5386" style="stroke:#181818;stroke-width:1.0;"/><line style="stroke:#181818;stroke-width:1.0;" x1="1472" x2="1472" y1="577.4448" y2="597.4448"/><polygon fill="#181818" points="1468,587.4448,1472,597.4448,1476,587.4448,1472,591.4448" style="stroke:#181818;stroke-width:1.0;"/><line style="stroke:#181818;stroke-width:1.0;" x1="1318.5" x2="1443.5" y1="391.8281" y2="391.8281"/><polygon fill="#181818" points="1433.5,387.8281,1443.5,391.8281,1433.5,395.8281,1437.5,391.8281" style="stroke:#181818;stroke-width:1.0;"/><line style="stroke:#181818;stroke-width:1.0;" x1="1096.625" x2="1286.5" y1="347.8281" y2="347.8281"/><line style="stroke:#181818;stroke-width:1.0;" x1="1286.5" x2="1286.5" y1="347.8281" y2="379.8281"/><polygon fill="#181818" points="1282.5,369.8281,1286.5,379.8281,1290.5,369.8281,1286.5,373.8281" style="stroke:#181818;stroke-width:1.0;"/><line style="stroke:#181818;stroke-width:1.0;" x1="1500.5" x2="1590" y1="391.8281" y2="391.8281"/><line style="stroke:#181818;stroke-width:1.0;" x1="1590" x2="1590" y1="391.8281" y2="597.4448"/><polygon fill="#181818" points="1586,587.4448,1590,597.4448,1594,587.4448,1590,591.4448" style="stroke:#181818;stroke-width:1.0;"/><line style="stroke:#181818;stroke-width:1.0;" x1="1286.5" x2="1590" y1="597.4448" y2="597.4448"/><line style="stroke:#181818;stroke-width:1.0;" x1="1404.5" x2="1404.5" y1="597.4448" y2="617.4448"/><polygon fill="#181818" points="1400.5,607.4448,1404.5,617.4448,1408.5,607.4448,1404.5,611.4448" style="stroke:#181818;stroke-width:1.0;"/><line style="stroke:#181818;stroke-width:1.0;" x1="1404.5" x2="1404.5" y1="651.4136" y2="671.4136"/><polygon fill="#181818" points="1400.5,661.4136,1404.5,671.4136,1408.5,661.4136,1404.5,665.4136" style="stroke:#181818;stroke-width:1.0;"/><line style="stroke:#181818;stroke-width:1.0;" x1="1404.5" x2="1404.5" y1="705.3823" y2="740.3823"/><polygon fill="#181818" points="1400.5,730.3823,1404.5,740.3823,1408.5,730.3823,1404.5,734.3823" style="stroke:#181818;stroke-width:1.0;"/><line style="stroke:#181818;stroke-width:1.0;" x1="693.75" x2="693.75" y1="1204.5854" y2="1222.5854"/><line style="stroke:#181818;stroke-width:1.0;" x1="693.75" x2="1037.125" y1="1222.5854" y2="1222.5854"/><polygon fill="#181818" points="1027.125,1218.5854,1037.125,1222.5854,1027.125,1226.5854,1031.125,1222.5854" style="stroke:#181818;stroke-width:1.0;"/><line style="stroke:#181818;stroke-width:1.0;" x1="1404.5" x2="1404.5" y1="788.3198" y2="1222.5854"/><line style="stroke:#181818;stroke-width:1.0;" x1="1404.5" x2="1061.125" y1="1222.5854" y2="1222.5854"/><polygon fill="#181818" points="1071.125,1218.5854,1061.125,1222.5854,1071.125,1226.5854,1067.125,1222.5854" style="stroke:#181818;stroke-width:1.0;"/><line style="stroke:#181818;stroke-width:1.0;" x1="1049.125" x2="1049.125" y1="300.6953" y2="335.8281"/><polygon fill="#181818" points="1045.125,325.8281,1049.125,335.8281,1053.125,325.8281,1049.125,329.8281" style="stroke:#181818;stroke-width:1.0;"/><line style="stroke:#181818;stroke-width:1.0;" x1="1049.125" x2="1049.125" y1="1234.5854" y2="1254.5854"/><polygon fill="#181818" points="1045.125,1244.5854,1049.125,1254.5854,1053.125,1244.5854,1049.125,1248.5854" style="stroke:#181818;stroke-width:1.0;"/><!--SRC=[vLPjR-D44FwUNp7gVMWZXQ8xZaDAFfoYleYAzgXm3uJ4bubtOYzPxvhTTKFuzSoiOyTfa-EuGmW9gr8jppDlppopcn3Hnz7qthj7hSX38Ai2D85VrwM3jMkC0gDN1D51fd-QWwVV6Whnh6uMHkVVqMQIep4Bp5VllPdKv2iTWdOsJAopEKs2BYp6njDuDh8k4XXQnX7mS-jY0BU4t5cb8xkW2R1e8c209NhvTn9oJsJ32Q0d0URaBQda7aiAbBxp6pHMSrtWB8LaVNaExwMBAnl91z0MhYhK1fo7x2vBa5VdSAb3RN2pjMLa8znZGSdyrSxC7d3jV9M-lzvzlzKXIWVCGe2rZYNqH5wIeGAbAxPy-OxM0eBlQ_cImdmz2C_ON0mIwn8Z2jaBac54UUs29hytEx_x7TamptEg8p91a2NE4lYRZmG3MWKNMCkSKWN9cvzrgVCITE2nyvGty6l37IF8c9k8NSqlteoImqF9IFvBgDAjuURqaQ32kYObKwfWoVn7GIcNDnNtDqcEB0nGEfU8jW0TfVi4M-Dc0XNvWWEmAxV2HgnPjD3KmeqY4TY8PIj1Q3JzmDHd8xqyk_gTXvPCr_EtOwdAdlrCOPpgOBiEoUMfHPvf9ccIURRxU4H30qGgwOAtPHMsg5jjLos0JA2KDQl2yPniF92na-NJL5cpg3Jtk6_dE7gPtgOtYglKIytO7ydBYsenqyzKzgoR9lKbFPJ4ck9H8XYUSk5amYmR-To3U5ilIkT2kyjfH0AJm3nZumeUbrJHExmI1xI5e8RAxlNLbykfXl7w2FpSuLRGhBOQEGABDVNwukNR7iV7m5of9q6vg8D1Nny18snvwf5VxEeVdfbm8yvsnJjm6dfmjtN8jKc79ucH4mYyC7G-YDbDG-ZcpNmatXCjku1vV_2qI2vJSajj5gZhPVKNllsQRPU5BugE1qvxIBzxMhXDW-G6xkJmeCCSxkNOvlcMxuAvCNkZPcNt76ypF_Y6c4B6jgd6msaFzkOZpzlPlliFfBHdno441fTVgnriOkcy_YDjo8LJz8lbuZ2obHlm59nvR6MUXdYF6-DGxLB9WT2rdBcAXZqVwUU3H_liFyq1AZMe_ZaP_Pabj9ozSvDEuliA0w-BCkwLsclhUYwak8RlccTR-4nhqq-xBWyTpd-Ru7-SNAwLjoohkGVdIMrPs2Ev9JYHU-aesDFO4ZVk3_BTxpLvXC1ZX3uz7FuFD-ddoEKJfV9lowJjDaHN_ma0]--></g></svg>