<?xml version="1.0" encoding="us-ascii" standalone="no"?><svg xmlns="http://www.w3.org/2000/svg" xmlns:xlink="http://www.w3.org/1999/xlink" contentStyleType="text/css" height="1464px" preserveAspectRatio="none" style="width:1511px;height:1464px;background:#FFFFFF;" version="1.1" viewBox="0 0 1511 1464" width="1511px" zoomAndPan="magnify"><defs/><g><text fill="#000000" font-family="sans-serif" font-size="14" font-weight="bold" lengthAdjust="spacing" textLength="297" x="608" y="28.5352">SIWA Migration or Add Permissions Flow</text><rect fill="none" height="1019.8477" style="stroke:#000000;stroke-width:1.5;" width="1494" x="10" y="229.9082"/><rect fill="none" height="277.7949" style="stroke:#000000;stroke-width:1.5;" width="1115.5" x="217.5" y="254.2188"/><rect fill="none" height="545.5449" style="stroke:#000000;stroke-width:1.5;" width="1474" x="20" y="661.9004"/><rect fill="none" height="383.9922" style="stroke:#000000;stroke-width:1.5;" width="1454" x="30" y="787.1426"/><line style="stroke:#181818;stroke-width:0.5;stroke-dasharray:5.0,5.0;" x1="58" x2="58" y1="118.9766" y2="1383.998"/><line style="stroke:#181818;stroke-width:0.5;stroke-dasharray:5.0,5.0;" x1="270.5" x2="270.5" y1="118.9766" y2="1383.998"/><line style="stroke:#181818;stroke-width:0.5;stroke-dasharray:5.0,5.0;" x1="416" x2="416" y1="118.9766" y2="1383.998"/><line style="stroke:#181818;stroke-width:0.5;stroke-dasharray:5.0,5.0;" x1="793" x2="793" y1="118.9766" y2="1383.998"/><line style="stroke:#181818;stroke-width:0.5;stroke-dasharray:5.0,5.0;" x1="1142" x2="1142" y1="118.9766" y2="1383.998"/><line style="stroke:#181818;stroke-width:0.5;stroke-dasharray:5.0,5.0;" x1="1206" x2="1206" y1="118.9766" y2="1383.998"/><line style="stroke:#181818;stroke-width:0.5;stroke-dasharray:5.0,5.0;" x1="1280" x2="1280" y1="118.9766" y2="1383.998"/><line style="stroke:#181818;stroke-width:0.5;stroke-dasharray:5.0,5.0;" x1="1352" x2="1352" y1="118.9766" y2="1383.998"/><line style="stroke:#181818;stroke-width:0.5;stroke-dasharray:5.0,5.0;" x1="1427" x2="1427" y1="118.9766" y2="1383.998"/><text fill="#000000" font-family="sans-serif" font-size="14" lengthAdjust="spacing" textLength="31" x="40" y="116.0234">User</text><ellipse cx="58.5" cy="50.9883" fill="#E2E2F0" rx="8" ry="8" style="stroke:#181818;stroke-width:0.5;"/><path d="M58.5,58.9883 L58.5,85.9883 M45.5,66.9883 L71.5,66.9883 M58.5,85.9883 L45.5,100.9883 M58.5,85.9883 L71.5,100.9883 " fill="none" style="stroke:#181818;stroke-width:0.5;"/><text fill="#000000" font-family="sans-serif" font-size="14" lengthAdjust="spacing" textLength="31" x="40" y="1396.5332">User</text><ellipse cx="58.5" cy="1407.9863" fill="#E2E2F0" rx="8" ry="8" style="stroke:#181818;stroke-width:0.5;"/><path d="M58.5,1415.9863 L58.5,1442.9863 M45.5,1423.9863 L71.5,1423.9863 M58.5,1442.9863 L45.5,1457.9863 M58.5,1442.9863 L71.5,1457.9863 " fill="none" style="stroke:#181818;stroke-width:0.5;"/><rect fill="#E2E2F0" height="30.4883" rx="2.5" ry="2.5" style="stroke:#181818;stroke-width:0.5;" width="86" x="227.5" y="87.4883"/><text fill="#000000" font-family="sans-serif" font-size="14" lengthAdjust="spacing" textLength="72" x="234.5" y="108.0234">UserAgent</text><rect fill="#E2E2F0" height="30.4883" rx="2.5" ry="2.5" style="stroke:#181818;stroke-width:0.5;" width="86" x="227.5" y="1382.998"/><text fill="#000000" font-family="sans-serif" font-size="14" lengthAdjust="spacing" textLength="72" x="234.5" y="1403.5332">UserAgent</text><rect fill="#E2E2F0" height="30.4883" rx="2.5" ry="2.5" style="stroke:#181818;stroke-width:0.5;" width="71" x="381" y="87.4883"/><text fill="#000000" font-family="sans-serif" font-size="14" lengthAdjust="spacing" textLength="57" x="388" y="108.0234">Provider</text><rect fill="#E2E2F0" height="30.4883" rx="2.5" ry="2.5" style="stroke:#181818;stroke-width:0.5;" width="71" x="381" y="1382.998"/><text fill="#000000" font-family="sans-serif" font-size="14" lengthAdjust="spacing" textLength="57" x="388" y="1403.5332">Provider</text><rect fill="#E2E2F0" height="46.9766" rx="2.5" ry="2.5" style="stroke:#181818;stroke-width:0.5;" width="85" x="751" y="71"/><text fill="#000000" font-family="sans-serif" font-size="14" lengthAdjust="spacing" textLength="71" x="758" y="91.5352">Frequency</text><text fill="#000000" font-family="sans-serif" font-size="14" lengthAdjust="spacing" textLength="46" x="770.5" y="108.0234">Access</text><rect fill="#E2E2F0" height="46.9766" rx="2.5" ry="2.5" style="stroke:#181818;stroke-width:0.5;" width="85" x="751" y="1382.998"/><text fill="#000000" font-family="sans-serif" font-size="14" lengthAdjust="spacing" textLength="71" x="758" y="1403.5332">Frequency</text><text fill="#000000" font-family="sans-serif" font-size="14" lengthAdjust="spacing" textLength="46" x="770.5" y="1420.0215">Access</text><text fill="#000000" font-family="sans-serif" font-size="14" lengthAdjust="spacing" textLength="59" x="1110" y="116.0234">Postgres</text><path d="M1124.5,66.4883 C1124.5,56.4883 1142.5,56.4883 1142.5,56.4883 C1142.5,56.4883 1160.5,56.4883 1160.5,66.4883 L1160.5,92.4883 C1160.5,102.4883 1142.5,102.4883 1142.5,102.4883 C1142.5,102.4883 1124.5,102.4883 1124.5,92.4883 L1124.5,66.4883 " fill="#E2E2F0" style="stroke:#181818;stroke-width:1.5;"/><path d="M1124.5,66.4883 C1124.5,76.4883 1142.5,76.4883 1142.5,76.4883 C1142.5,76.4883 1160.5,76.4883 1160.5,66.4883 " fill="none" style="stroke:#181818;stroke-width:1.5;"/><text fill="#000000" font-family="sans-serif" font-size="14" lengthAdjust="spacing" textLength="59" x="1110" y="1396.5332">Postgres</text><path d="M1124.5,1409.4863 C1124.5,1399.4863 1142.5,1399.4863 1142.5,1399.4863 C1142.5,1399.4863 1160.5,1399.4863 1160.5,1409.4863 L1160.5,1435.4863 C1160.5,1445.4863 1142.5,1445.4863 1142.5,1445.4863 C1142.5,1445.4863 1124.5,1445.4863 1124.5,1435.4863 L1124.5,1409.4863 " fill="#E2E2F0" style="stroke:#181818;stroke-width:1.5;"/><path d="M1124.5,1409.4863 C1124.5,1419.4863 1142.5,1419.4863 1142.5,1419.4863 C1142.5,1419.4863 1160.5,1419.4863 1160.5,1409.4863 " fill="none" style="stroke:#181818;stroke-width:1.5;"/><text fill="#000000" font-family="sans-serif" font-size="14" lengthAdjust="spacing" textLength="37" x="1185" y="116.0234">Redis</text><path d="M1188.5,66.4883 C1188.5,56.4883 1206.5,56.4883 1206.5,56.4883 C1206.5,56.4883 1224.5,56.4883 1224.5,66.4883 L1224.5,92.4883 C1224.5,102.4883 1206.5,102.4883 1206.5,102.4883 C1206.5,102.4883 1188.5,102.4883 1188.5,92.4883 L1188.5,66.4883 " fill="#E2E2F0" style="stroke:#181818;stroke-width:1.5;"/><path d="M1188.5,66.4883 C1188.5,76.4883 1206.5,76.4883 1206.5,76.4883 C1206.5,76.4883 1224.5,76.4883 1224.5,66.4883 " fill="none" style="stroke:#181818;stroke-width:1.5;"/><text fill="#000000" font-family="sans-serif" font-size="14" lengthAdjust="spacing" textLength="37" x="1185" y="1396.5332">Redis</text><path d="M1188.5,1409.4863 C1188.5,1399.4863 1206.5,1399.4863 1206.5,1399.4863 C1206.5,1399.4863 1224.5,1399.4863 1224.5,1409.4863 L1224.5,1435.4863 C1224.5,1445.4863 1206.5,1445.4863 1206.5,1445.4863 C1206.5,1445.4863 1188.5,1445.4863 1188.5,1435.4863 L1188.5,1409.4863 " fill="#E2E2F0" style="stroke:#181818;stroke-width:1.5;"/><path d="M1188.5,1409.4863 C1188.5,1419.4863 1206.5,1419.4863 1206.5,1419.4863 C1206.5,1419.4863 1224.5,1419.4863 1224.5,1409.4863 " fill="none" style="stroke:#181818;stroke-width:1.5;"/><rect fill="#E2E2F0" height="30.4883" rx="2.5" ry="2.5" style="stroke:#181818;stroke-width:0.5;" width="85" x="1238" y="87.4883"/><text fill="#000000" font-family="sans-serif" font-size="14" lengthAdjust="spacing" textLength="71" x="1245" y="108.0234">Frequency</text><rect fill="#E2E2F0" height="30.4883" rx="2.5" ry="2.5" style="stroke:#181818;stroke-width:0.5;" width="85" x="1238" y="1382.998"/><text fill="#000000" font-family="sans-serif" font-size="14" lengthAdjust="spacing" textLength="71" x="1245" y="1403.5332">Frequency</text><rect fill="#E2E2F0" height="30.4883" rx="2.5" ry="2.5" style="stroke:#181818;stroke-width:0.5;" width="38" x="1333" y="87.4883"/><text fill="#000000" font-family="sans-serif" font-size="14" lengthAdjust="spacing" textLength="24" x="1340" y="108.0234">SES</text><rect fill="#E2E2F0" height="30.4883" rx="2.5" ry="2.5" style="stroke:#181818;stroke-width:0.5;" width="38" x="1333" y="1382.998"/><text fill="#000000" font-family="sans-serif" font-size="14" lengthAdjust="spacing" textLength="24" x="1340" y="1403.5332">SES</text><rect fill="#E2E2F0" height="46.9766" rx="2.5" ry="2.5" style="stroke:#181818;stroke-width:0.5;" width="93" x="1381" y="71"/><text fill="#000000" font-family="sans-serif" font-size="14" lengthAdjust="spacing" textLength="79" x="1388" y="91.5352">Notification</text><text fill="#000000" font-family="sans-serif" font-size="14" lengthAdjust="spacing" textLength="48" x="1403.5" y="108.0234">Service</text><rect fill="#E2E2F0" height="46.9766" rx="2.5" ry="2.5" style="stroke:#181818;stroke-width:0.5;" width="93" x="1381" y="1382.998"/><text fill="#000000" font-family="sans-serif" font-size="14" lengthAdjust="spacing" textLength="79" x="1388" y="1403.5332">Notification</text><text fill="#000000" font-family="sans-serif" font-size="14" lengthAdjust="spacing" textLength="48" x="1403.5" y="1420.0215">Service</text><path d="M28,133.9766 L28,158.9766 L1457,158.9766 L1457,143.9766 L1447,133.9766 L28,133.9766 " fill="#FEFFDD" style="stroke:#181818;stroke-width:0.5;"/><path d="M1447,133.9766 L1447,143.9766 L1457,143.9766 L1447,133.9766 " fill="#FEFFDD" style="stroke:#181818;stroke-width:0.5;"/><text fill="#000000" font-family="sans-serif" font-size="13" lengthAdjust="spacing" textLength="288" x="594" y="151.5449">Assumes you are coming from the Login Flow</text><polygon fill="#181818" points="427.5,181.5977,417.5,185.5977,427.5,189.5977,423.5,185.5977" style="stroke:#181818;stroke-width:1.0;"/><line style="stroke:#181818;stroke-width:1.0;" x1="421.5" x2="792.5" y1="185.5977" y2="185.5977"/><text fill="#000000" font-family="sans-serif" font-size="13" font-weight="bold" lengthAdjust="spacing" textLength="9" x="433.5" y="180.8555">1</text><text fill="#000000" font-family="sans-serif" font-size="13" lengthAdjust="spacing" textLength="152" x="446.5" y="180.8555">Callback for identifier(s)</text><polygon fill="#181818" points="781.5,210.9082,791.5,214.9082,781.5,218.9082,785.5,214.9082" style="stroke:#181818;stroke-width:1.0;"/><line style="stroke:#181818;stroke-width:1.0;stroke-dasharray:2.0,2.0;" x1="416.5" x2="787.5" y1="214.9082" y2="214.9082"/><text fill="#000000" font-family="sans-serif" font-size="13" font-weight="bold" lengthAdjust="spacing" textLength="9" x="423.5" y="210.166">2</text><text fill="#000000" font-family="sans-serif" font-size="13" lengthAdjust="spacing" textLength="234" x="436.5" y="210.166">Other Identifiers associated or Empty</text><path d="M10,229.9082 L72,229.9082 L72,237.2188 L62,247.2188 L10,247.2188 L10,229.9082 " fill="#EEEEEE" style="stroke:#000000;stroke-width:1.5;"/><rect fill="none" height="1019.8477" style="stroke:#000000;stroke-width:1.5;" width="1494" x="10" y="229.9082"/><text fill="#000000" font-family="sans-serif" font-size="13" font-weight="bold" lengthAdjust="spacing" textLength="17" x="25" y="243.4766">alt</text><text fill="#000000" font-family="sans-serif" font-size="11" font-weight="bold" lengthAdjust="spacing" textLength="194" x="87" y="242.543">[Empty or just the same identifier]</text><path d="M217.5,254.2188 L375.5,254.2188 L375.5,261.5293 L365.5,271.5293 L217.5,271.5293 L217.5,254.2188 " fill="#EEEEEE" style="stroke:#000000;stroke-width:1.5;"/><rect fill="none" height="277.7949" style="stroke:#000000;stroke-width:1.5;" width="1115.5" x="217.5" y="254.2188"/><text fill="#000000" font-family="sans-serif" font-size="13" font-weight="bold" lengthAdjust="spacing" textLength="113" x="232.5" y="267.7871">Add Permissions</text><polygon fill="#181818" points="1268.5,288.8398,1278.5,292.8398,1268.5,296.8398,1272.5,292.8398" style="stroke:#181818;stroke-width:1.0;"/><line style="stroke:#181818;stroke-width:1.0;" x1="793.5" x2="1274.5" y1="292.8398" y2="292.8398"/><text fill="#000000" font-family="sans-serif" font-size="13" font-weight="bold" lengthAdjust="spacing" textLength="9" x="800.5" y="288.0977">3</text><text fill="#000000" font-family="sans-serif" font-size="13" lengthAdjust="spacing" textLength="263" x="813.5" y="288.0977">get permissions for userMsaId, providerId</text><polygon fill="#181818" points="804.5,318.1504,794.5,322.1504,804.5,326.1504,800.5,322.1504" style="stroke:#181818;stroke-width:1.0;"/><line style="stroke:#181818;stroke-width:1.0;stroke-dasharray:2.0,2.0;" x1="798.5" x2="1279.5" y1="322.1504" y2="322.1504"/><text fill="#000000" font-family="sans-serif" font-size="13" font-weight="bold" lengthAdjust="spacing" textLength="9" x="810.5" y="317.4082">4</text><text fill="#000000" font-family="sans-serif" font-size="13" lengthAdjust="spacing" textLength="153" x="823.5" y="317.4082">Permissions for Provider</text><polygon fill="#181818" points="281.5,347.4609,271.5,351.4609,281.5,355.4609,277.5,351.4609" style="stroke:#181818;stroke-width:1.0;"/><line style="stroke:#181818;stroke-width:1.0;" x1="275.5" x2="792.5" y1="351.4609" y2="351.4609"/><text fill="#000000" font-family="sans-serif" font-size="13" font-weight="bold" lengthAdjust="spacing" textLength="9" x="287.5" y="346.7188">5</text><text fill="#000000" font-family="sans-serif" font-size="13" lengthAdjust="spacing" textLength="434" x="300.5" y="346.7188">Render Permissions Screen for all requested permissions for provider</text><polygon fill="#181818" points="781.5,376.7715,791.5,380.7715,781.5,384.7715,785.5,380.7715" style="stroke:#181818;stroke-width:1.0;"/><line style="stroke:#181818;stroke-width:1.0;" x1="270.5" x2="787.5" y1="380.7715" y2="380.7715"/><text fill="#000000" font-family="sans-serif" font-size="13" font-weight="bold" lengthAdjust="spacing" textLength="9" x="277.5" y="376.0293">6</text><text fill="#000000" font-family="sans-serif" font-size="13" lengthAdjust="spacing" textLength="50" x="290.5" y="376.0293">Accepts</text><polygon fill="#181818" points="1194.5,406.082,1204.5,410.082,1194.5,414.082,1198.5,410.082" style="stroke:#181818;stroke-width:1.0;"/><line style="stroke:#181818;stroke-width:1.0;" x1="793.5" x2="1200.5" y1="410.082" y2="410.082"/><text fill="#000000" font-family="sans-serif" font-size="13" font-weight="bold" lengthAdjust="spacing" textLength="9" x="800.5" y="405.3398">7</text><text fill="#000000" font-family="sans-serif" font-size="13" lengthAdjust="spacing" textLength="114" x="813.5" y="405.3398">Find Session by id</text><polygon fill="#181818" points="804.5,435.3926,794.5,439.3926,804.5,443.3926,800.5,439.3926" style="stroke:#181818;stroke-width:1.0;"/><line style="stroke:#181818;stroke-width:1.0;stroke-dasharray:2.0,2.0;" x1="798.5" x2="1205.5" y1="439.3926" y2="439.3926"/><text fill="#000000" font-family="sans-serif" font-size="13" font-weight="bold" lengthAdjust="spacing" textLength="9" x="810.5" y="434.6504">8</text><text fill="#000000" font-family="sans-serif" font-size="13" lengthAdjust="spacing" textLength="48" x="823.5" y="434.6504">Session</text><line style="stroke:#181818;stroke-width:1.0;" x1="793.5" x2="835.5" y1="468.7031" y2="468.7031"/><line style="stroke:#181818;stroke-width:1.0;" x1="835.5" x2="835.5" y1="468.7031" y2="481.7031"/><line style="stroke:#181818;stroke-width:1.0;" x1="794.5" x2="835.5" y1="481.7031" y2="481.7031"/><polygon fill="#181818" points="804.5,477.7031,794.5,481.7031,804.5,485.7031,800.5,481.7031" style="stroke:#181818;stroke-width:1.0;"/><text fill="#000000" font-family="sans-serif" font-size="13" font-weight="bold" lengthAdjust="spacing" textLength="9" x="800.5" y="463.9609">9</text><text fill="#000000" font-family="sans-serif" font-size="13" lengthAdjust="spacing" textLength="322" x="813.5" y="463.9609">create and sign addPermissionsPayload chosen key</text><line style="stroke:#181818;stroke-width:1.0;" x1="793.5" x2="835.5" y1="511.0137" y2="511.0137"/><line style="stroke:#181818;stroke-width:1.0;" x1="835.5" x2="835.5" y1="511.0137" y2="524.0137"/><line style="stroke:#181818;stroke-width:1.0;" x1="794.5" x2="835.5" y1="524.0137" y2="524.0137"/><polygon fill="#181818" points="804.5,520.0137,794.5,524.0137,804.5,528.0137,800.5,524.0137" style="stroke:#181818;stroke-width:1.0;"/><text fill="#000000" font-family="sans-serif" font-size="13" font-weight="bold" lengthAdjust="spacing" textLength="18" x="800.5" y="506.2715">10</text><text fill="#000000" font-family="sans-serif" font-size="13" lengthAdjust="spacing" textLength="245" x="822.5" y="506.2715">Add addPermissionsPayload to Session</text><line style="stroke:#000000;stroke-width:1.0;stroke-dasharray:2.0,2.0;" x1="10" x2="1504" y1="540.0137" y2="540.0137"/><text fill="#000000" font-family="sans-serif" font-size="11" font-weight="bold" lengthAdjust="spacing" textLength="95" x="15" y="550.6484">[Delta Migration]</text><line style="stroke:#181818;stroke-width:1.0;" x1="793.5" x2="835.5" y1="575.2793" y2="575.2793"/><line style="stroke:#181818;stroke-width:1.0;" x1="835.5" x2="835.5" y1="575.2793" y2="588.2793"/><line style="stroke:#181818;stroke-width:1.0;" x1="794.5" x2="835.5" y1="588.2793" y2="588.2793"/><polygon fill="#181818" points="804.5,584.2793,794.5,588.2793,804.5,592.2793,800.5,588.2793" style="stroke:#181818;stroke-width:1.0;"/><text fill="#000000" font-family="sans-serif" font-size="13" font-weight="bold" lengthAdjust="spacing" textLength="18" x="800.5" y="570.5371">11</text><text fill="#000000" font-family="sans-serif" font-size="13" lengthAdjust="spacing" textLength="252" x="822.5" y="570.5371">Determine disjoint Set&lt;UserIdentifiers&gt;</text><polygon fill="#181818" points="281.5,613.5898,271.5,617.5898,281.5,621.5898,277.5,617.5898" style="stroke:#181818;stroke-width:1.0;"/><line style="stroke:#181818;stroke-width:1.0;" x1="275.5" x2="792.5" y1="617.5898" y2="617.5898"/><text fill="#000000" font-family="sans-serif" font-size="13" font-weight="bold" lengthAdjust="spacing" textLength="18" x="287.5" y="612.8477">12</text><text fill="#000000" font-family="sans-serif" font-size="13" lengthAdjust="spacing" textLength="237" x="309.5" y="612.8477">Ask which of the disjoint Set to verify</text><polygon fill="#181818" points="781.5,642.9004,791.5,646.9004,781.5,650.9004,785.5,646.9004" style="stroke:#181818;stroke-width:1.0;"/><line style="stroke:#181818;stroke-width:1.0;" x1="270.5" x2="787.5" y1="646.9004" y2="646.9004"/><text fill="#000000" font-family="sans-serif" font-size="13" font-weight="bold" lengthAdjust="spacing" textLength="18" x="277.5" y="642.1582">13</text><text fill="#000000" font-family="sans-serif" font-size="13" lengthAdjust="spacing" textLength="85" x="299.5" y="642.1582">UserIdentifier</text><path d="M20,661.9004 L208,661.9004 L208,669.2109 L198,679.2109 L20,679.2109 L20,661.9004 " fill="#EEEEEE" style="stroke:#000000;stroke-width:1.5;"/><rect fill="none" height="545.5449" style="stroke:#000000;stroke-width:1.5;" width="1474" x="20" y="661.9004"/><text fill="#000000" font-family="sans-serif" font-size="13" font-weight="bold" lengthAdjust="spacing" textLength="143" x="35" y="675.4688">Identifier Verification</text><line style="stroke:#181818;stroke-width:1.0;" x1="793.5" x2="835.5" y1="700.5215" y2="700.5215"/><line style="stroke:#181818;stroke-width:1.0;" x1="835.5" x2="835.5" y1="700.5215" y2="713.5215"/><line style="stroke:#181818;stroke-width:1.0;" x1="794.5" x2="835.5" y1="713.5215" y2="713.5215"/><polygon fill="#181818" points="804.5,709.5215,794.5,713.5215,804.5,717.5215,800.5,713.5215" style="stroke:#181818;stroke-width:1.0;"/><text fill="#000000" font-family="sans-serif" font-size="13" font-weight="bold" lengthAdjust="spacing" textLength="18" x="800.5" y="695.7793">14</text><text fill="#000000" font-family="sans-serif" font-size="13" lengthAdjust="spacing" textLength="182" x="822.5" y="695.7793">Generate authenticationCode</text><polygon fill="#181818" points="1194.5,738.832,1204.5,742.832,1194.5,746.832,1198.5,742.832" style="stroke:#181818;stroke-width:1.0;"/><line style="stroke:#181818;stroke-width:1.0;" x1="793.5" x2="1200.5" y1="742.832" y2="742.832"/><text fill="#000000" font-family="sans-serif" font-size="13" font-weight="bold" lengthAdjust="spacing" textLength="18" x="800.5" y="738.0898">15</text><text fill="#000000" font-family="sans-serif" font-size="13" lengthAdjust="spacing" textLength="331" x="822.5" y="738.0898">Persist Session by authenticationCode and sessionId</text><polygon fill="#181818" points="804.5,768.1426,794.5,772.1426,804.5,776.1426,800.5,772.1426" style="stroke:#181818;stroke-width:1.0;"/><line style="stroke:#181818;stroke-width:1.0;stroke-dasharray:2.0,2.0;" x1="798.5" x2="1205.5" y1="772.1426" y2="772.1426"/><text fill="#000000" font-family="sans-serif" font-size="13" font-weight="bold" lengthAdjust="spacing" textLength="18" x="810.5" y="767.4004">16</text><text fill="#000000" font-family="sans-serif" font-size="13" lengthAdjust="spacing" textLength="4" x="832.5" y="767.4004">&#160;</text><path d="M30,787.1426 L92,787.1426 L92,794.4531 L82,804.4531 L30,804.4531 L30,787.1426 " fill="#EEEEEE" style="stroke:#000000;stroke-width:1.5;"/><rect fill="none" height="383.9922" style="stroke:#000000;stroke-width:1.5;" width="1454" x="30" y="787.1426"/><text fill="#000000" font-family="sans-serif" font-size="13" font-weight="bold" lengthAdjust="spacing" textLength="17" x="45" y="800.7109">alt</text><text fill="#000000" font-family="sans-serif" font-size="11" font-weight="bold" lengthAdjust="spacing" textLength="50" x="107" y="799.7773">[isEmail]</text><polygon fill="#181818" points="1340,821.7637,1350,825.7637,1340,829.7637,1344,825.7637" style="stroke:#181818;stroke-width:1.0;"/><line style="stroke:#181818;stroke-width:1.0;" x1="793.5" x2="1346" y1="825.7637" y2="825.7637"/><text fill="#000000" font-family="sans-serif" font-size="13" font-weight="bold" lengthAdjust="spacing" textLength="18" x="800.5" y="821.0215">17</text><text fill="#000000" font-family="sans-serif" font-size="13" lengthAdjust="spacing" textLength="294" x="822.5" y="821.0215">Send Email (sessionId and authenticationCode)</text><polygon fill="#181818" points="69.5,851.0742,59.5,855.0742,69.5,859.0742,65.5,855.0742" style="stroke:#181818;stroke-width:1.0;"/><line style="stroke:#181818;stroke-width:1.0;" x1="63.5" x2="1351" y1="855.0742" y2="855.0742"/><text fill="#000000" font-family="sans-serif" font-size="13" font-weight="bold" lengthAdjust="spacing" textLength="18" x="75.5" y="850.332">18</text><text fill="#000000" font-family="sans-serif" font-size="13" lengthAdjust="spacing" textLength="65" x="97.5" y="850.332">Email sent</text><polygon fill="#181818" points="781.5,880.3848,791.5,884.3848,781.5,888.3848,785.5,884.3848" style="stroke:#181818;stroke-width:1.0;"/><line style="stroke:#181818;stroke-width:1.0;" x1="58.5" x2="787.5" y1="884.3848" y2="884.3848"/><text fill="#000000" font-family="sans-serif" font-size="13" font-weight="bold" lengthAdjust="spacing" textLength="18" x="65.5" y="879.6426">19</text><text fill="#000000" font-family="sans-serif" font-size="13" lengthAdjust="spacing" textLength="109" x="87.5" y="879.6426">User Clicks Email</text><polygon fill="#181818" points="1194.5,909.6953,1204.5,913.6953,1194.5,917.6953,1198.5,913.6953" style="stroke:#181818;stroke-width:1.0;"/><line style="stroke:#181818;stroke-width:1.0;" x1="793.5" x2="1200.5" y1="913.6953" y2="913.6953"/><text fill="#000000" font-family="sans-serif" font-size="13" font-weight="bold" lengthAdjust="spacing" textLength="18" x="800.5" y="908.9531">20</text><text fill="#000000" font-family="sans-serif" font-size="13" lengthAdjust="spacing" textLength="314" x="822.5" y="908.9531">find Session by authenticationCode and sessionId</text><polygon fill="#181818" points="804.5,939.0059,794.5,943.0059,804.5,947.0059,800.5,943.0059" style="stroke:#181818;stroke-width:1.0;"/><line style="stroke:#181818;stroke-width:1.0;stroke-dasharray:2.0,2.0;" x1="798.5" x2="1205.5" y1="943.0059" y2="943.0059"/><text fill="#000000" font-family="sans-serif" font-size="13" font-weight="bold" lengthAdjust="spacing" textLength="18" x="810.5" y="938.2637">21</text><text fill="#000000" font-family="sans-serif" font-size="13" lengthAdjust="spacing" textLength="48" x="832.5" y="938.2637">Session</text><line style="stroke:#000000;stroke-width:1.0;stroke-dasharray:2.0,2.0;" x1="30" x2="1484" y1="952.0059" y2="952.0059"/><text fill="#000000" font-family="sans-serif" font-size="11" font-weight="bold" lengthAdjust="spacing" textLength="41" x="35" y="962.6406">[isSms]</text><polygon fill="#181818" points="1415.5,983.2715,1425.5,987.2715,1415.5,991.2715,1419.5,987.2715" style="stroke:#181818;stroke-width:1.0;"/><line style="stroke:#181818;stroke-width:1.0;" x1="793.5" x2="1421.5" y1="987.2715" y2="987.2715"/><text fill="#000000" font-family="sans-serif" font-size="13" font-weight="bold" lengthAdjust="spacing" textLength="18" x="800.5" y="982.5293">22</text><text fill="#000000" font-family="sans-serif" font-size="13" lengthAdjust="spacing" textLength="59" x="822.5" y="982.5293">Send SMS</text><polygon fill="#181818" points="281.5,1012.582,271.5,1016.582,281.5,1020.582,277.5,1016.582" style="stroke:#181818;stroke-width:1.0;"/><line style="stroke:#181818;stroke-width:1.0;" x1="275.5" x2="792.5" y1="1016.582" y2="1016.582"/><text fill="#000000" font-family="sans-serif" font-size="13" font-weight="bold" lengthAdjust="spacing" textLength="18" x="287.5" y="1011.8398">23</text><text fill="#000000" font-family="sans-serif" font-size="13" lengthAdjust="spacing" textLength="112" x="309.5" y="1011.8398">Display SMS Form</text><polygon fill="#181818" points="69.5,1041.8926,59.5,1045.8926,69.5,1049.8926,65.5,1045.8926" style="stroke:#181818;stroke-width:1.0;"/><line style="stroke:#181818;stroke-width:1.0;" x1="63.5" x2="1426.5" y1="1045.8926" y2="1045.8926"/><text fill="#000000" font-family="sans-serif" font-size="13" font-weight="bold" lengthAdjust="spacing" textLength="18" x="75.5" y="1041.1504">24</text><text fill="#000000" font-family="sans-serif" font-size="13" lengthAdjust="spacing" textLength="140" x="97.5" y="1041.1504">Sms Message received</text><polygon fill="#181818" points="258.5,1071.2031,268.5,1075.2031,258.5,1079.2031,262.5,1075.2031" style="stroke:#181818;stroke-width:1.0;"/><line style="stroke:#181818;stroke-width:1.0;" x1="58.5" x2="264.5" y1="1075.2031" y2="1075.2031"/><text fill="#000000" font-family="sans-serif" font-size="13" font-weight="bold" lengthAdjust="spacing" textLength="18" x="65.5" y="1070.4609">25</text><text fill="#000000" font-family="sans-serif" font-size="13" lengthAdjust="spacing" textLength="166" x="87.5" y="1070.4609">Enters authenticationCode</text><polygon fill="#181818" points="781.5,1100.5137,791.5,1104.5137,781.5,1108.5137,785.5,1104.5137" style="stroke:#181818;stroke-width:1.0;"/><line style="stroke:#181818;stroke-width:1.0;" x1="270.5" x2="787.5" y1="1104.5137" y2="1104.5137"/><text fill="#000000" font-family="sans-serif" font-size="13" font-weight="bold" lengthAdjust="spacing" textLength="18" x="277.5" y="1099.7715">26</text><text fill="#000000" font-family="sans-serif" font-size="13" lengthAdjust="spacing" textLength="178" x="299.5" y="1099.7715">Submits authenticationCode</text><polygon fill="#181818" points="1194.5,1129.8242,1204.5,1133.8242,1194.5,1137.8242,1198.5,1133.8242" style="stroke:#181818;stroke-width:1.0;"/><line style="stroke:#181818;stroke-width:1.0;" x1="793.5" x2="1200.5" y1="1133.8242" y2="1133.8242"/><text fill="#000000" font-family="sans-serif" font-size="13" font-weight="bold" lengthAdjust="spacing" textLength="18" x="800.5" y="1129.082">27</text><text fill="#000000" font-family="sans-serif" font-size="13" lengthAdjust="spacing" textLength="314" x="822.5" y="1129.082">find Session by authenticationCode and sessionId</text><polygon fill="#181818" points="804.5,1159.1348,794.5,1163.1348,804.5,1167.1348,800.5,1163.1348" style="stroke:#181818;stroke-width:1.0;"/><line style="stroke:#181818;stroke-width:1.0;stroke-dasharray:2.0,2.0;" x1="798.5" x2="1205.5" y1="1163.1348" y2="1163.1348"/><text fill="#000000" font-family="sans-serif" font-size="13" font-weight="bold" lengthAdjust="spacing" textLength="18" x="810.5" y="1158.3926">28</text><text fill="#000000" font-family="sans-serif" font-size="13" lengthAdjust="spacing" textLength="48" x="832.5" y="1158.3926">Session</text><polygon fill="#181818" points="1194.5,1195.4453,1204.5,1199.4453,1194.5,1203.4453,1198.5,1199.4453" style="stroke:#181818;stroke-width:1.0;"/><line style="stroke:#181818;stroke-width:1.0;" x1="793.5" x2="1200.5" y1="1199.4453" y2="1199.4453"/><text fill="#000000" font-family="sans-serif" font-size="13" font-weight="bold" lengthAdjust="spacing" textLength="18" x="800.5" y="1194.7031">29</text><text fill="#000000" font-family="sans-serif" font-size="13" lengthAdjust="spacing" textLength="367" x="822.5" y="1194.7031">Update Session by Id (This sucks, because we violate DRY)</text><path d="M28,1219.4453 L28,1244.4453 L1457,1244.4453 L1457,1229.4453 L1447,1219.4453 L28,1219.4453 " fill="#FEFFDD" style="stroke:#181818;stroke-width:0.5;"/><path d="M1447,1219.4453 L1447,1229.4453 L1457,1229.4453 L1447,1219.4453 " fill="#FEFFDD" style="stroke:#181818;stroke-width:0.5;"/><text fill="#000000" font-family="sans-serif" font-size="13" lengthAdjust="spacing" textLength="134" x="671" y="1237.0137">See: Add Permissions</text><polygon fill="#181818" points="281.5,1274.0664,271.5,1278.0664,281.5,1282.0664,277.5,1278.0664" style="stroke:#181818;stroke-width:1.0;"/><line style="stroke:#181818;stroke-width:1.0;" x1="275.5" x2="792.5" y1="1278.0664" y2="1278.0664"/><text fill="#000000" font-family="sans-serif" font-size="13" font-weight="bold" lengthAdjust="spacing" textLength="18" x="287.5" y="1273.3242">30</text><text fill="#000000" font-family="sans-serif" font-size="13" lengthAdjust="spacing" textLength="364" x="309.5" y="1273.3242">Redirect to callback url with authorizationCode, sessionId</text><polygon fill="#181818" points="404.5,1303.377,414.5,1307.377,404.5,1311.377,408.5,1307.377" style="stroke:#181818;stroke-width:1.0;"/><line style="stroke:#181818;stroke-width:1.0;" x1="270.5" x2="410.5" y1="1307.377" y2="1307.377"/><text fill="#000000" font-family="sans-serif" font-size="13" font-weight="bold" lengthAdjust="spacing" textLength="18" x="277.5" y="1302.6348">31</text><text fill="#000000" font-family="sans-serif" font-size="13" lengthAdjust="spacing" textLength="100" x="299.5" y="1302.6348">Resolve redirect</text><polygon fill="#181818" points="781.5,1332.6875,791.5,1336.6875,781.5,1340.6875,785.5,1336.6875" style="stroke:#181818;stroke-width:1.0;"/><line style="stroke:#181818;stroke-width:1.0;" x1="416.5" x2="787.5" y1="1336.6875" y2="1336.6875"/><text fill="#000000" font-family="sans-serif" font-size="13" font-weight="bold" lengthAdjust="spacing" textLength="18" x="423.5" y="1331.9453">32</text><text fill="#000000" font-family="sans-serif" font-size="13" lengthAdjust="spacing" textLength="331" x="445.5" y="1331.9453">Resolve payload by authorizationCode and sessionId</text><polygon fill="#181818" points="427.5,1361.998,417.5,1365.998,427.5,1369.998,423.5,1365.998" style="stroke:#181818;stroke-width:1.0;"/><line style="stroke:#181818;stroke-width:1.0;" x1="421.5" x2="792.5" y1="1365.998" y2="1365.998"/><text fill="#000000" font-family="sans-serif" font-size="13" font-weight="bold" lengthAdjust="spacing" textLength="18" x="433.5" y="1361.2559">33</text><text fill="#000000" font-family="sans-serif" font-size="13" lengthAdjust="spacing" textLength="94" x="455.5" y="1361.2559">Signed Payload</text><!--SRC=[jLLDRzim3BtxLn0vjK3t1uAXGD0aGu5r2-9rmu1TP8bsrDgI9qe9iby_IdPIssctNUPJmez7yl59yjhN2BFy_ji27dJbXDVMW7MmK0esw1fDn1Q2TMqFiqn8pxxP8w6RWI08MIkSrrAtmlZElgZG-CufnjwDitkj-insx5ix_1dGoECFiv0IYL9GAJ8bl2W4SOyRIxvos7bKCV1iKUdExDv0JSv2ZhtvAazsGXexFbclIoqJ5pzCZcwl9QPGGrbch4SGqbcYEIo8GeC4Hnj0E0Hf6sqgA9rjmEyGFjfAcqHU9eAt9ZG5kgmKxsxRETo9kYw4V8QIIMLcJ2oBxegkCuS-E0EV6SF1_Tb5t0HPgOL75RUqQbf_p4Jjkr_Hz1J8fz8a6XoWPi1VvMnefxjDdlZ5jWevXmezj8FTn_O2h_Q1nBswWRRVuxqwP_RjRYP9fusFAWGnXoqQDe_YS-aGJKfZMY1jZkAOqqxQAMXWq991et1QFnx7pM6jZO8S4m8KHwPasdRl72L6GEv8n5rpFkdAW51gqF5676ih5CYT9Mxy6OyN097ervEy7LLbEZAiMSjBhBruEOdP46s9FW8P19RxazKirHpz-tZe1WgvpOP4B-WP3ZijTs3Bf8fXQknYZqwNNUSd7iU00zsy6E5hJEkFoCNO7z2WIym5BiafNToTLJXT3bD3clnmFvT9tGQwY0lHdV_6Kw1frGXTdssdIfmyvneCa_nmTKPBs9SbhqSG7CrqpljathOVkSCBRt1NQ_bCy7eRF70vKUC_J_i7lIRbQCeRkgXeJdFd3_c5CmfagQcjnJ7wOMrTCmeotTWC30zSKrJ8BKZKUrHJ0YBMolXqHRszzQ7Cyb0qslyr_7_oPjHKZu-jYi8T56A9N7tPQNuc0Y_s1WgKWYz3E23ijQrZz7Bx_JeR0ewUY1nnVd7bniYNor1ffZKTHtbw4eAhuQ3zBWrgdVvrdlDcC6Je7f8jagttSJaTKjPs59_iRN_hzBoDu2QqzKzJplSTtxtzTVKR]--></g></svg>