<?xml version="1.0" encoding="us-ascii" standalone="no"?><svg xmlns="http://www.w3.org/2000/svg" xmlns:xlink="http://www.w3.org/1999/xlink" contentStyleType="text/css" height="3086px" preserveAspectRatio="none" style="width:2435px;height:3086px;background:#FFFFFF;" version="1.1" viewBox="0 0 2435 3086" width="2435px" zoomAndPan="magnify"><defs/><g><text fill="#000000" font-family="sans-serif" font-size="14" font-weight="bold" lengthAdjust="spacing" textLength="191" x="1123" y="28.5352">Passkey Registration Flow</text><line style="stroke:#181818;stroke-width:0.5;stroke-dasharray:5.0,5.0;" x1="23" x2="23" y1="118.9766" y2="3005.1738"/><line style="stroke:#181818;stroke-width:0.5;stroke-dasharray:5.0,5.0;" x1="368" x2="368" y1="118.9766" y2="3005.1738"/><line style="stroke:#181818;stroke-width:0.5;stroke-dasharray:5.0,5.0;" x1="1118" x2="1118" y1="118.9766" y2="3005.1738"/><line style="stroke:#181818;stroke-width:0.5;stroke-dasharray:5.0,5.0;" x1="1580.5" x2="1580.5" y1="118.9766" y2="3005.1738"/><line style="stroke:#181818;stroke-width:0.5;stroke-dasharray:5.0,5.0;" x1="1702.5" x2="1702.5" y1="118.9766" y2="3005.1738"/><line style="stroke:#181818;stroke-width:0.5;stroke-dasharray:5.0,5.0;" x1="2400" x2="2400" y1="118.9766" y2="3005.1738"/><text fill="#000000" font-family="sans-serif" font-size="14" lengthAdjust="spacing" textLength="31" x="5" y="116.0234">User</text><ellipse cx="23.5" cy="50.9883" fill="#E2E2F0" rx="8" ry="8" style="stroke:#181818;stroke-width:0.5;"/><path d="M23.5,58.9883 L23.5,85.9883 M10.5,66.9883 L36.5,66.9883 M23.5,85.9883 L10.5,100.9883 M23.5,85.9883 L36.5,100.9883 " fill="none" style="stroke:#181818;stroke-width:0.5;"/><text fill="#000000" font-family="sans-serif" font-size="14" lengthAdjust="spacing" textLength="31" x="5" y="3017.709">User</text><ellipse cx="23.5" cy="3029.1621" fill="#E2E2F0" rx="8" ry="8" style="stroke:#181818;stroke-width:0.5;"/><path d="M23.5,3037.1621 L23.5,3064.1621 M10.5,3045.1621 L36.5,3045.1621 M23.5,3064.1621 L10.5,3079.1621 M23.5,3064.1621 L36.5,3079.1621 " fill="none" style="stroke:#181818;stroke-width:0.5;"/><rect fill="#E2E2F0" height="30.4883" rx="2.5" ry="2.5" style="stroke:#181818;stroke-width:0.5;" width="161" x="288" y="87.4883"/><text fill="#000000" font-family="sans-serif" font-size="14" lengthAdjust="spacing" textLength="147" x="295" y="108.0234">Wallet Client/Browser</text><rect fill="#E2E2F0" height="30.4883" rx="2.5" ry="2.5" style="stroke:#181818;stroke-width:0.5;" width="161" x="288" y="3004.1738"/><text fill="#000000" font-family="sans-serif" font-size="14" lengthAdjust="spacing" textLength="147" x="295" y="3024.709">Wallet Client/Browser</text><rect fill="#E2E2F0" height="30.4883" rx="2.5" ry="2.5" style="stroke:#181818;stroke-width:0.5;" width="111" x="1063" y="87.4883"/><text fill="#000000" font-family="sans-serif" font-size="14" lengthAdjust="spacing" textLength="97" x="1070" y="108.0234">Secure IFrame</text><rect fill="#E2E2F0" height="30.4883" rx="2.5" ry="2.5" style="stroke:#181818;stroke-width:0.5;" width="111" x="1063" y="3004.1738"/><text fill="#000000" font-family="sans-serif" font-size="14" lengthAdjust="spacing" textLength="97" x="1070" y="3024.709">Secure IFrame</text><rect fill="#E2E2F0" height="30.4883" rx="2.5" ry="2.5" style="stroke:#181818;stroke-width:0.5;" width="108" x="1526.5" y="87.4883"/><text fill="#000000" font-family="sans-serif" font-size="14" lengthAdjust="spacing" textLength="94" x="1533.5" y="108.0234">Authenticator</text><rect fill="#E2E2F0" height="30.4883" rx="2.5" ry="2.5" style="stroke:#181818;stroke-width:0.5;" width="108" x="1526.5" y="3004.1738"/><text fill="#000000" font-family="sans-serif" font-size="14" lengthAdjust="spacing" textLength="94" x="1533.5" y="3024.709">Authenticator</text><rect fill="#E2E2F0" height="30.4883" rx="2.5" ry="2.5" style="stroke:#181818;stroke-width:0.5;" width="116" x="1644.5" y="87.4883"/><text fill="#000000" font-family="sans-serif" font-size="14" lengthAdjust="spacing" textLength="102" x="1651.5" y="108.0234">Wallet Backend</text><rect fill="#E2E2F0" height="30.4883" rx="2.5" ry="2.5" style="stroke:#181818;stroke-width:0.5;" width="116" x="1644.5" y="3004.1738"/><text fill="#000000" font-family="sans-serif" font-size="14" lengthAdjust="spacing" textLength="102" x="1651.5" y="3024.709">Wallet Backend</text><text fill="#000000" font-family="sans-serif" font-size="14" lengthAdjust="spacing" textLength="59" x="2368" y="116.0234">Postgres</text><path d="M2382.5,66.4883 C2382.5,56.4883 2400.5,56.4883 2400.5,56.4883 C2400.5,56.4883 2418.5,56.4883 2418.5,66.4883 L2418.5,92.4883 C2418.5,102.4883 2400.5,102.4883 2400.5,102.4883 C2400.5,102.4883 2382.5,102.4883 2382.5,92.4883 L2382.5,66.4883 " fill="#E2E2F0" style="stroke:#181818;stroke-width:1.5;"/><path d="M2382.5,66.4883 C2382.5,76.4883 2400.5,76.4883 2400.5,76.4883 C2400.5,76.4883 2418.5,76.4883 2418.5,66.4883 " fill="none" style="stroke:#181818;stroke-width:1.5;"/><text fill="#000000" font-family="sans-serif" font-size="14" lengthAdjust="spacing" textLength="59" x="2368" y="3017.709">Postgres</text><path d="M2382.5,3030.6621 C2382.5,3020.6621 2400.5,3020.6621 2400.5,3020.6621 C2400.5,3020.6621 2418.5,3020.6621 2418.5,3030.6621 L2418.5,3056.6621 C2418.5,3066.6621 2400.5,3066.6621 2400.5,3066.6621 C2400.5,3066.6621 2382.5,3066.6621 2382.5,3056.6621 L2382.5,3030.6621 " fill="#E2E2F0" style="stroke:#181818;stroke-width:1.5;"/><path d="M2382.5,3030.6621 C2382.5,3040.6621 2400.5,3040.6621 2400.5,3040.6621 C2400.5,3040.6621 2418.5,3040.6621 2418.5,3030.6621 " fill="none" style="stroke:#181818;stroke-width:1.5;"/><polygon fill="#181818" points="356.5,146.2871,366.5,150.2871,356.5,154.2871,360.5,150.2871" style="stroke:#181818;stroke-width:1.0;"/><line style="stroke:#181818;stroke-width:1.0;" x1="23.5" x2="362.5" y1="150.2871" y2="150.2871"/><text fill="#000000" font-family="sans-serif" font-size="13" font-weight="bold" lengthAdjust="spacing" textLength="9" x="30.5" y="145.5449">1</text><text fill="#000000" font-family="sans-serif" font-size="13" lengthAdjust="spacing" textLength="250" x="43.5" y="145.5449">User would like to register new passkey</text><line style="stroke:#181818;stroke-width:1.0;" x1="368.5" x2="410.5" y1="179.5977" y2="179.5977"/><line style="stroke:#181818;stroke-width:1.0;" x1="410.5" x2="410.5" y1="179.5977" y2="192.5977"/><line style="stroke:#181818;stroke-width:1.0;" x1="369.5" x2="410.5" y1="192.5977" y2="192.5977"/><polygon fill="#181818" points="379.5,188.5977,369.5,192.5977,379.5,196.5977,375.5,192.5977" style="stroke:#181818;stroke-width:1.0;"/><text fill="#000000" font-family="sans-serif" font-size="13" font-weight="bold" lengthAdjust="spacing" textLength="9" x="375.5" y="174.8555">2</text><text fill="#000000" font-family="sans-serif" font-size="13" lengthAdjust="spacing" textLength="339" x="388.5" y="174.8555">User enters passkey registration flow from SIWA/SIWF</text><polygon fill="#181818" points="1106.5,217.9082,1116.5,221.9082,1106.5,225.9082,1110.5,221.9082" style="stroke:#181818;stroke-width:1.0;"/><line style="stroke:#181818;stroke-width:1.0;" x1="368.5" x2="1112.5" y1="221.9082" y2="221.9082"/><text fill="#000000" font-family="sans-serif" font-size="13" font-weight="bold" lengthAdjust="spacing" textLength="9" x="375.5" y="217.166">3</text><text fill="#000000" font-family="sans-serif" font-size="13" lengthAdjust="spacing" textLength="286" x="388.5" y="217.166">Load in iFrame in background (iframe hidden)</text><line style="stroke:#181818;stroke-width:1.0;" x1="1118.5" x2="1160.5" y1="251.2188" y2="251.2188"/><line style="stroke:#181818;stroke-width:1.0;" x1="1160.5" x2="1160.5" y1="251.2188" y2="264.2188"/><line style="stroke:#181818;stroke-width:1.0;" x1="1119.5" x2="1160.5" y1="264.2188" y2="264.2188"/><polygon fill="#181818" points="1129.5,260.2188,1119.5,264.2188,1129.5,268.2188,1125.5,264.2188" style="stroke:#181818;stroke-width:1.0;"/><text fill="#000000" font-family="sans-serif" font-size="13" font-weight="bold" lengthAdjust="spacing" textLength="9" x="1125.5" y="246.4766">4</text><text fill="#000000" font-family="sans-serif" font-size="13" lengthAdjust="spacing" textLength="306" x="1138.5" y="246.4766">Generate mnemonic/seed phrase (iframe hidden)</text><line style="stroke:#181818;stroke-width:1.0;" x1="1118.5" x2="1160.5" y1="293.5293" y2="293.5293"/><line style="stroke:#181818;stroke-width:1.0;" x1="1160.5" x2="1160.5" y1="293.5293" y2="306.5293"/><line style="stroke:#181818;stroke-width:1.0;" x1="1119.5" x2="1160.5" y1="306.5293" y2="306.5293"/><polygon fill="#181818" points="1129.5,302.5293,1119.5,306.5293,1129.5,310.5293,1125.5,306.5293" style="stroke:#181818;stroke-width:1.0;"/><text fill="#000000" font-family="sans-serif" font-size="13" font-weight="bold" lengthAdjust="spacing" textLength="9" x="1125.5" y="288.7871">5</text><text fill="#000000" font-family="sans-serif" font-size="13" lengthAdjust="spacing" textLength="435" x="1138.5" y="288.7871">Create SR25519 Keyring from mnemonic/seed phrase (iframe hidden)</text><line style="stroke:#181818;stroke-width:1.0;" x1="368.5" x2="410.5" y1="335.8398" y2="335.8398"/><line style="stroke:#181818;stroke-width:1.0;" x1="410.5" x2="410.5" y1="335.8398" y2="348.8398"/><line style="stroke:#181818;stroke-width:1.0;" x1="369.5" x2="410.5" y1="348.8398" y2="348.8398"/><polygon fill="#181818" points="379.5,344.8398,369.5,348.8398,379.5,352.8398,375.5,348.8398" style="stroke:#181818;stroke-width:1.0;"/><text fill="#000000" font-family="sans-serif" font-size="13" font-weight="bold" lengthAdjust="spacing" textLength="9" x="375.5" y="331.0977">6</text><text fill="#000000" font-family="sans-serif" font-size="13" lengthAdjust="spacing" textLength="210" x="388.5" y="331.0977">User clicks on "view seed phrase"</text><polygon fill="#181818" points="1106.5,374.1504,1116.5,378.1504,1106.5,382.1504,1110.5,378.1504" style="stroke:#181818;stroke-width:1.0;"/><line style="stroke:#181818;stroke-width:1.0;" x1="368.5" x2="1112.5" y1="378.1504" y2="378.1504"/><text fill="#000000" font-family="sans-serif" font-size="13" font-weight="bold" lengthAdjust="spacing" textLength="9" x="375.5" y="373.4082">7</text><text fill="#000000" font-family="sans-serif" font-size="13" lengthAdjust="spacing" textLength="275" x="388.5" y="373.4082">IFrame now shown to user with seed phrase</text><polygon fill="#181818" points="379.5,403.4609,369.5,407.4609,379.5,411.4609,375.5,407.4609" style="stroke:#181818;stroke-width:1.0;"/><line style="stroke:#181818;stroke-width:1.0;" x1="373.5" x2="1117.5" y1="407.4609" y2="407.4609"/><text fill="#000000" font-family="sans-serif" font-size="13" font-weight="bold" lengthAdjust="spacing" textLength="9" x="385.5" y="402.7188">8</text><text fill="#000000" font-family="sans-serif" font-size="13" lengthAdjust="spacing" textLength="336" x="398.5" y="402.7188">User prompted to make sure they viewed seed phrase</text><line style="stroke:#181818;stroke-width:1.0;" x1="368.5" x2="410.5" y1="436.7715" y2="436.7715"/><line style="stroke:#181818;stroke-width:1.0;" x1="410.5" x2="410.5" y1="436.7715" y2="449.7715"/><line style="stroke:#181818;stroke-width:1.0;" x1="369.5" x2="410.5" y1="449.7715" y2="449.7715"/><polygon fill="#181818" points="379.5,445.7715,369.5,449.7715,379.5,453.7715,375.5,449.7715" style="stroke:#181818;stroke-width:1.0;"/><text fill="#000000" font-family="sans-serif" font-size="13" font-weight="bold" lengthAdjust="spacing" textLength="9" x="375.5" y="432.0293">9</text><text fill="#000000" font-family="sans-serif" font-size="13" lengthAdjust="spacing" textLength="283" x="388.5" y="432.0293">User closes iframe (iframe now hidden again)</text><line style="stroke:#181818;stroke-width:1.0;" x1="368.5" x2="410.5" y1="479.082" y2="479.082"/><line style="stroke:#181818;stroke-width:1.0;" x1="410.5" x2="410.5" y1="479.082" y2="492.082"/><line style="stroke:#181818;stroke-width:1.0;" x1="369.5" x2="410.5" y1="492.082" y2="492.082"/><polygon fill="#181818" points="379.5,488.082,369.5,492.082,379.5,496.082,375.5,492.082" style="stroke:#181818;stroke-width:1.0;"/><text fill="#000000" font-family="sans-serif" font-size="13" font-weight="bold" lengthAdjust="spacing" textLength="18" x="375.5" y="474.3398">10</text><text fill="#000000" font-family="sans-serif" font-size="13" lengthAdjust="spacing" textLength="308" x="397.5" y="474.3398">User clicks next and views "create passkey" page</text><line style="stroke:#181818;stroke-width:1.0;" x1="368.5" x2="410.5" y1="521.3926" y2="521.3926"/><line style="stroke:#181818;stroke-width:1.0;" x1="410.5" x2="410.5" y1="521.3926" y2="534.3926"/><line style="stroke:#181818;stroke-width:1.0;" x1="369.5" x2="410.5" y1="534.3926" y2="534.3926"/><polygon fill="#181818" points="379.5,530.3926,369.5,534.3926,379.5,538.3926,375.5,534.3926" style="stroke:#181818;stroke-width:1.0;"/><text fill="#000000" font-family="sans-serif" font-size="13" font-weight="bold" lengthAdjust="spacing" textLength="18" x="375.5" y="516.6504">11</text><text fill="#000000" font-family="sans-serif" font-size="13" lengthAdjust="spacing" textLength="229" x="397.5" y="516.6504">User clicks button to create passkey</text><line style="stroke:#181818;stroke-width:1.0;" x1="368.5" x2="410.5" y1="563.7031" y2="563.7031"/><line style="stroke:#181818;stroke-width:1.0;" x1="410.5" x2="410.5" y1="563.7031" y2="576.7031"/><line style="stroke:#181818;stroke-width:1.0;" x1="369.5" x2="410.5" y1="576.7031" y2="576.7031"/><polygon fill="#181818" points="379.5,572.7031,369.5,576.7031,379.5,580.7031,375.5,576.7031" style="stroke:#181818;stroke-width:1.0;"/><text fill="#000000" font-family="sans-serif" font-size="13" font-weight="bold" lengthAdjust="spacing" textLength="18" x="375.5" y="558.9609">12</text><text fill="#000000" font-family="sans-serif" font-size="13" lengthAdjust="spacing" textLength="421" x="397.5" y="558.9609">Client sends post message to iframe to start passkey creation flow</text><polygon fill="#181818" points="379.5,602.0137,369.5,606.0137,379.5,610.0137,375.5,606.0137" style="stroke:#181818;stroke-width:1.0;"/><line style="stroke:#181818;stroke-width:1.0;" x1="373.5" x2="1117.5" y1="606.0137" y2="606.0137"/><text fill="#000000" font-family="sans-serif" font-size="13" font-weight="bold" lengthAdjust="spacing" textLength="18" x="385.5" y="601.2715">13</text><text fill="#000000" font-family="sans-serif" font-size="13" lengthAdjust="spacing" textLength="702" x="407.5" y="601.2715">Iframe sends post message back to client with Account Public Key created from seed phrase (SR/Eth Public Key)</text><line style="stroke:#181818;stroke-width:1.0;" x1="368.5" x2="410.5" y1="635.3242" y2="635.3242"/><line style="stroke:#181818;stroke-width:1.0;" x1="410.5" x2="410.5" y1="635.3242" y2="648.3242"/><line style="stroke:#181818;stroke-width:1.0;" x1="369.5" x2="410.5" y1="648.3242" y2="648.3242"/><polygon fill="#181818" points="379.5,644.3242,369.5,648.3242,379.5,652.3242,375.5,648.3242" style="stroke:#181818;stroke-width:1.0;"/><text fill="#000000" font-family="sans-serif" font-size="13" font-weight="bold" lengthAdjust="spacing" textLength="18" x="375.5" y="630.582">14</text><text fill="#000000" font-family="sans-serif" font-size="13" lengthAdjust="spacing" textLength="637" x="397.5" y="630.582">Client takes public key and creates optionsJSON object for the webauthn publicCredentialsCreate call</text><path d="M204,661.3242 L204,885.3242 L533,885.3242 L533,671.3242 L523,661.3242 L204,661.3242 " fill="#FEFFDD" style="stroke:#181818;stroke-width:0.5;"/><path d="M523,661.3242 L523,671.3242 L533,671.3242 L523,661.3242 " fill="#FEFFDD" style="stroke:#181818;stroke-width:0.5;"/><text fill="#000000" font-family="sans-serif" font-size="13" lengthAdjust="spacing" textLength="94" x="210" y="678.8926">Create Options</text><text fill="#000000" font-family="sans-serif" font-size="13" lengthAdjust="spacing" textLength="4" x="210" y="694.2031">{</text><text fill="#000000" font-family="sans-serif" font-size="13" lengthAdjust="spacing" textLength="29" x="226" y="709.5137">rpId,</text><text fill="#000000" font-family="sans-serif" font-size="13" lengthAdjust="spacing" textLength="126" x="226" y="724.8242">rpName (app name),</text><text fill="#000000" font-family="sans-serif" font-size="13" lengthAdjust="spacing" textLength="210" x="226" y="740.1348">userName (UserIdentifier.value?)),</text><text fill="#000000" font-family="sans-serif" font-size="13" lengthAdjust="spacing" textLength="53" x="226" y="755.4453">timeout,</text><text fill="#000000" font-family="sans-serif" font-size="13" lengthAdjust="spacing" textLength="150" x="226" y="770.7559">attestationType (direct),</text><text fill="#000000" font-family="sans-serif" font-size="13" lengthAdjust="spacing" textLength="210" x="226" y="786.0664">excludeCredentials (empty array),</text><text fill="#000000" font-family="sans-serif" font-size="13" lengthAdjust="spacing" textLength="153" x="226" y="801.377">authenticatorSelection: {</text><text fill="#000000" font-family="sans-serif" font-size="13" lengthAdjust="spacing" textLength="142" x="242" y="816.6875">residentKey (preferred)</text><text fill="#000000" font-family="sans-serif" font-size="13" lengthAdjust="spacing" textLength="4" x="226" y="831.998">}</text><text fill="#000000" font-family="sans-serif" font-size="13" lengthAdjust="spacing" textLength="292" x="226" y="847.3086">supportedAlgorithms: ([-7] since that's ES256)</text><text fill="#000000" font-family="sans-serif" font-size="13" lengthAdjust="spacing" textLength="286" x="226" y="862.6191">challenge: accountPublicKey (as a UInt8Array)</text><text fill="#000000" font-family="sans-serif" font-size="13" lengthAdjust="spacing" textLength="4" x="210" y="877.9297">}</text><polygon fill="#181818" points="1568.5,907.9824,1578.5,911.9824,1568.5,915.9824,1572.5,911.9824" style="stroke:#181818;stroke-width:1.0;"/><line style="stroke:#181818;stroke-width:1.0;" x1="368.5" x2="1574.5" y1="911.9824" y2="911.9824"/><text fill="#000000" font-family="sans-serif" font-size="13" font-weight="bold" lengthAdjust="spacing" textLength="18" x="375.5" y="907.2402">15</text><text fill="#000000" font-family="sans-serif" font-size="13" lengthAdjust="spacing" textLength="157" x="397.5" y="907.2402">Call registration(options)</text><path d="M1391,924.9824 L1391,1102.9824 L1769,1102.9824 L1769,934.9824 L1759,924.9824 L1391,924.9824 " fill="#FEFFDD" style="stroke:#181818;stroke-width:0.5;"/><path d="M1759,924.9824 L1759,934.9824 L1769,934.9824 L1759,924.9824 " fill="#FEFFDD" style="stroke:#181818;stroke-width:0.5;"/><text fill="#000000" font-family="sans-serif" font-size="13" lengthAdjust="spacing" textLength="124" x="1397" y="942.5508">PublicKeyCredential</text><text fill="#000000" font-family="sans-serif" font-size="13" lengthAdjust="spacing" textLength="4" x="1397" y="957.8613">{</text><text fill="#000000" font-family="sans-serif" font-size="13" lengthAdjust="spacing" textLength="131" x="1413" y="973.1719">CredentialID (String),</text><text fill="#000000" font-family="sans-serif" font-size="13" lengthAdjust="spacing" textLength="149" x="1413" y="988.4824">rawCredentialID (Bytes),</text><text fill="#000000" font-family="sans-serif" font-size="13" lengthAdjust="spacing" textLength="72" x="1413" y="1003.793">Response: {</text><text fill="#000000" font-family="sans-serif" font-size="13" lengthAdjust="spacing" textLength="190" x="1429" y="1019.1035">ClientDataJSON (UTF-8 Array),</text><text fill="#000000" font-family="sans-serif" font-size="13" lengthAdjust="spacing" textLength="288" x="1429" y="1034.4141">AttestationObject (CBOR encoded binary data)</text><text fill="#000000" font-family="sans-serif" font-size="13" lengthAdjust="spacing" textLength="8" x="1413" y="1049.7246">},</text><text fill="#000000" font-family="sans-serif" font-size="13" lengthAdjust="spacing" textLength="147" x="1413" y="1065.0352">clientExtensionResults,</text><text fill="#000000" font-family="sans-serif" font-size="13" lengthAdjust="spacing" textLength="341" x="1413" y="1080.3457">authenticatorAttachment (platform vs cross-platform)</text><text fill="#000000" font-family="sans-serif" font-size="13" lengthAdjust="spacing" textLength="4" x="1397" y="1095.6563">}</text><polygon fill="#181818" points="379.5,1125.709,369.5,1129.709,379.5,1133.709,375.5,1129.709" style="stroke:#181818;stroke-width:1.0;"/><line style="stroke:#181818;stroke-width:1.0;stroke-dasharray:2.0,2.0;" x1="373.5" x2="1579.5" y1="1129.709" y2="1129.709"/><text fill="#000000" font-family="sans-serif" font-size="13" font-weight="bold" lengthAdjust="spacing" textLength="18" x="385.5" y="1124.9668">16</text><text fill="#000000" font-family="sans-serif" font-size="13" lengthAdjust="spacing" textLength="124" x="407.5" y="1124.9668">PublicKeyCredential</text><line style="stroke:#181818;stroke-width:1.0;" x1="368.5" x2="410.5" y1="1159.0195" y2="1159.0195"/><line style="stroke:#181818;stroke-width:1.0;" x1="410.5" x2="410.5" y1="1159.0195" y2="1172.0195"/><line style="stroke:#181818;stroke-width:1.0;" x1="369.5" x2="410.5" y1="1172.0195" y2="1172.0195"/><polygon fill="#181818" points="379.5,1168.0195,369.5,1172.0195,379.5,1176.0195,375.5,1172.0195" style="stroke:#181818;stroke-width:1.0;"/><text fill="#000000" font-family="sans-serif" font-size="13" font-weight="bold" lengthAdjust="spacing" textLength="18" x="375.5" y="1154.2773">17</text><text fill="#000000" font-family="sans-serif" font-size="13" lengthAdjust="spacing" textLength="316" x="397.5" y="1154.2773">Retrieve Public Key Object from Attestation Object</text><line style="stroke:#181818;stroke-width:1.0;" x1="368.5" x2="410.5" y1="1201.3301" y2="1201.3301"/><line style="stroke:#181818;stroke-width:1.0;" x1="410.5" x2="410.5" y1="1201.3301" y2="1214.3301"/><line style="stroke:#181818;stroke-width:1.0;" x1="369.5" x2="410.5" y1="1214.3301" y2="1214.3301"/><polygon fill="#181818" points="379.5,1210.3301,369.5,1214.3301,379.5,1218.3301,375.5,1214.3301" style="stroke:#181818;stroke-width:1.0;"/><text fill="#000000" font-family="sans-serif" font-size="13" font-weight="bold" lengthAdjust="spacing" textLength="18" x="375.5" y="1196.5879">18</text><text fill="#000000" font-family="sans-serif" font-size="13" lengthAdjust="spacing" textLength="187" x="397.5" y="1196.5879">Compress passkey public key</text><polygon fill="#181818" points="1106.5,1239.6406,1116.5,1243.6406,1106.5,1247.6406,1110.5,1243.6406" style="stroke:#181818;stroke-width:1.0;"/><line style="stroke:#181818;stroke-width:1.0;" x1="368.5" x2="1112.5" y1="1243.6406" y2="1243.6406"/><text fill="#000000" font-family="sans-serif" font-size="13" font-weight="bold" lengthAdjust="spacing" textLength="18" x="375.5" y="1238.8984">19</text><text fill="#000000" font-family="sans-serif" font-size="13" lengthAdjust="spacing" textLength="704" x="397.5" y="1238.8984">Client post message to iframe to pass Passkey PublicKey Object to have signed by Account (SR/ETH) Private Key</text><line style="stroke:#181818;stroke-width:1.0;" x1="1118.5" x2="1160.5" y1="1272.9512" y2="1272.9512"/><line style="stroke:#181818;stroke-width:1.0;" x1="1160.5" x2="1160.5" y1="1272.9512" y2="1285.9512"/><line style="stroke:#181818;stroke-width:1.0;" x1="1119.5" x2="1160.5" y1="1285.9512" y2="1285.9512"/><polygon fill="#181818" points="1129.5,1281.9512,1119.5,1285.9512,1129.5,1289.9512,1125.5,1285.9512" style="stroke:#181818;stroke-width:1.0;"/><text fill="#000000" font-family="sans-serif" font-size="13" font-weight="bold" lengthAdjust="spacing" textLength="18" x="1125.5" y="1268.209">20</text><text fill="#000000" font-family="sans-serif" font-size="13" lengthAdjust="spacing" textLength="245" x="1147.5" y="1268.209">Sign PublicKeyObject with Account Key</text><polygon fill="#181818" points="379.5,1311.2617,369.5,1315.2617,379.5,1319.2617,375.5,1315.2617" style="stroke:#181818;stroke-width:1.0;"/><line style="stroke:#181818;stroke-width:1.0;" x1="373.5" x2="1117.5" y1="1315.2617" y2="1315.2617"/><text fill="#000000" font-family="sans-serif" font-size="13" font-weight="bold" lengthAdjust="spacing" textLength="18" x="385.5" y="1310.5195">21</text><text fill="#000000" font-family="sans-serif" font-size="13" lengthAdjust="spacing" textLength="692" x="407.5" y="1310.5195">Send Account signing COMPRESSED passkey public key signature back to client via post message from iframe</text><line style="stroke:#181818;stroke-width:1.0;" x1="368.5" x2="410.5" y1="1344.5723" y2="1344.5723"/><line style="stroke:#181818;stroke-width:1.0;" x1="410.5" x2="410.5" y1="1344.5723" y2="1357.5723"/><line style="stroke:#181818;stroke-width:1.0;" x1="369.5" x2="410.5" y1="1357.5723" y2="1357.5723"/><polygon fill="#181818" points="379.5,1353.5723,369.5,1357.5723,379.5,1361.5723,375.5,1357.5723" style="stroke:#181818;stroke-width:1.0;"/><text fill="#000000" font-family="sans-serif" font-size="13" font-weight="bold" lengthAdjust="spacing" textLength="18" x="375.5" y="1339.8301">22</text><text fill="#000000" font-family="sans-serif" font-size="13" lengthAdjust="spacing" textLength="374" x="397.5" y="1339.8301">Encode ClientDataJSON and Attestation Object in Base64Url</text><line style="stroke:#181818;stroke-width:1.0;" x1="368.5" x2="410.5" y1="1386.8828" y2="1386.8828"/><line style="stroke:#181818;stroke-width:1.0;" x1="410.5" x2="410.5" y1="1386.8828" y2="1399.8828"/><line style="stroke:#181818;stroke-width:1.0;" x1="369.5" x2="410.5" y1="1399.8828" y2="1399.8828"/><polygon fill="#181818" points="379.5,1395.8828,369.5,1399.8828,379.5,1403.8828,375.5,1399.8828" style="stroke:#181818;stroke-width:1.0;"/><text fill="#000000" font-family="sans-serif" font-size="13" font-weight="bold" lengthAdjust="spacing" textLength="18" x="375.5" y="1382.1406">23</text><text fill="#000000" font-family="sans-serif" font-size="13" lengthAdjust="spacing" textLength="202" x="397.5" y="1382.1406">Stringify ClientExtensionResults</text><path d="M188,1412.8828 L188,1636.8828 L549,1636.8828 L549,1422.8828 L539,1412.8828 L188,1412.8828 " fill="#FEFFDD" style="stroke:#181818;stroke-width:0.5;"/><path d="M539,1412.8828 L539,1422.8828 L549,1422.8828 L539,1412.8828 " fill="#FEFFDD" style="stroke:#181818;stroke-width:0.5;"/><text fill="#000000" font-family="sans-serif" font-size="13" lengthAdjust="spacing" textLength="161" x="194" y="1430.4512">Add PasskeyData payload</text><text fill="#000000" font-family="sans-serif" font-size="13" lengthAdjust="spacing" textLength="4" x="194" y="1445.7617">{</text><text fill="#000000" font-family="sans-serif" font-size="13" lengthAdjust="spacing" textLength="120" x="210" y="1461.0723">userHandle: string;</text><text fill="#000000" font-family="sans-serif" font-size="13" lengthAdjust="spacing" textLength="193" x="210" y="1476.3828">clientDataJSON: EncodedBytes;</text><text fill="#000000" font-family="sans-serif" font-size="13" lengthAdjust="spacing" textLength="107" x="210" y="1491.6934">transports: any[];</text><text fill="#000000" font-family="sans-serif" font-size="13" lengthAdjust="spacing" textLength="261" x="210" y="1507.0039">passkeyCompressedPublicKey: PublicKey;</text><text fill="#000000" font-family="sans-serif" font-size="13" lengthAdjust="spacing" textLength="252" x="210" y="1522.3145">credentialPublicKeySignature: Signature;</text><text fill="#000000" font-family="sans-serif" font-size="13" lengthAdjust="spacing" textLength="158" x="210" y="1537.625">challenge: EncodedBytes;</text><text fill="#000000" font-family="sans-serif" font-size="13" lengthAdjust="spacing" textLength="123" x="210" y="1552.9355">credentialId: string;</text><text fill="#000000" font-family="sans-serif" font-size="13" lengthAdjust="spacing" textLength="182" x="210" y="1568.2461">accountPublicKey: PublicKey;</text><text fill="#000000" font-family="sans-serif" font-size="13" lengthAdjust="spacing" textLength="324" x="210" y="1583.5566">credentialSignatureOfAccountPublicKey?: Signature;</text><text fill="#000000" font-family="sans-serif" font-size="13" lengthAdjust="spacing" textLength="207" x="210" y="1598.8672">attestationObject: EncodedBytes;</text><text fill="#000000" font-family="sans-serif" font-size="13" lengthAdjust="spacing" textLength="153" x="210" y="1614.1777">clientExtensions: string;</text><text fill="#000000" font-family="sans-serif" font-size="13" lengthAdjust="spacing" textLength="4" x="194" y="1629.4883">}</text><polygon fill="#181818" points="1690.5,1659.541,1700.5,1663.541,1690.5,1667.541,1694.5,1663.541" style="stroke:#181818;stroke-width:1.0;"/><line style="stroke:#181818;stroke-width:1.0;" x1="368.5" x2="1696.5" y1="1663.541" y2="1663.541"/><text fill="#000000" font-family="sans-serif" font-size="13" font-weight="bold" lengthAdjust="spacing" textLength="18" x="375.5" y="1658.7988">24</text><text fill="#000000" font-family="sans-serif" font-size="13" lengthAdjust="spacing" textLength="579" x="397.5" y="1658.7988">POST acceptRegistration(passkeyData) (this endpoint validates passkey and saves to the db)</text><line style="stroke:#181818;stroke-width:1.0;" x1="1702.5" x2="1744.5" y1="1692.8516" y2="1692.8516"/><line style="stroke:#181818;stroke-width:1.0;" x1="1744.5" x2="1744.5" y1="1692.8516" y2="1705.8516"/><line style="stroke:#181818;stroke-width:1.0;" x1="1703.5" x2="1744.5" y1="1705.8516" y2="1705.8516"/><polygon fill="#181818" points="1713.5,1701.8516,1703.5,1705.8516,1713.5,1709.8516,1709.5,1705.8516" style="stroke:#181818;stroke-width:1.0;"/><text fill="#000000" font-family="sans-serif" font-size="13" font-weight="bold" lengthAdjust="spacing" textLength="18" x="1709.5" y="1688.1094">25</text><text fill="#000000" font-family="sans-serif" font-size="13" lengthAdjust="spacing" textLength="237" x="1731.5" y="1688.1094">Validate Account Public Key signature</text><path d="M1626,1718.8516 L1626,1835.8516 L1778,1835.8516 L1778,1728.8516 L1768,1718.8516 L1626,1718.8516 " fill="#FEFFDD" style="stroke:#181818;stroke-width:0.5;"/><path d="M1768,1718.8516 L1768,1728.8516 L1778,1728.8516 L1768,1718.8516 " fill="#FEFFDD" style="stroke:#181818;stroke-width:0.5;"/><text fill="#000000" font-family="sans-serif" font-size="13" lengthAdjust="spacing" textLength="130" x="1632" y="1736.4199">Registration Request</text><text fill="#000000" font-family="sans-serif" font-size="13" lengthAdjust="spacing" textLength="4" x="1632" y="1751.7305">{</text><text fill="#000000" font-family="sans-serif" font-size="13" lengthAdjust="spacing" textLength="101" x="1648" y="1767.041">ClientDataJSON,</text><text fill="#000000" font-family="sans-serif" font-size="13" lengthAdjust="spacing" textLength="115" x="1648" y="1782.3516">AttestationObject,</text><text fill="#000000" font-family="sans-serif" font-size="13" lengthAdjust="spacing" textLength="110" x="1648" y="1797.6621">ClientExtensions,</text><text fill="#000000" font-family="sans-serif" font-size="13" lengthAdjust="spacing" textLength="68" x="1648" y="1812.9727">Transports</text><text fill="#000000" font-family="sans-serif" font-size="13" lengthAdjust="spacing" textLength="4" x="1632" y="1828.2832">}</text><line style="stroke:#181818;stroke-width:1.0;" x1="1702.5" x2="1744.5" y1="1862.3359" y2="1862.3359"/><line style="stroke:#181818;stroke-width:1.0;" x1="1744.5" x2="1744.5" y1="1862.3359" y2="1875.3359"/><line style="stroke:#181818;stroke-width:1.0;" x1="1703.5" x2="1744.5" y1="1875.3359" y2="1875.3359"/><polygon fill="#181818" points="1713.5,1871.3359,1703.5,1875.3359,1713.5,1879.3359,1709.5,1875.3359" style="stroke:#181818;stroke-width:1.0;"/><text fill="#000000" font-family="sans-serif" font-size="13" font-weight="bold" lengthAdjust="spacing" textLength="18" x="1709.5" y="1857.5938">26</text><text fill="#000000" font-family="sans-serif" font-size="13" lengthAdjust="spacing" textLength="174" x="1731.5" y="1857.5938">Create Registration Request</text><line style="stroke:#181818;stroke-width:1.0;" x1="1702.5" x2="1744.5" y1="1919.957" y2="1919.957"/><line style="stroke:#181818;stroke-width:1.0;" x1="1744.5" x2="1744.5" y1="1919.957" y2="1932.957"/><line style="stroke:#181818;stroke-width:1.0;" x1="1703.5" x2="1744.5" y1="1932.957" y2="1932.957"/><polygon fill="#181818" points="1713.5,1928.957,1703.5,1932.957,1713.5,1936.957,1709.5,1932.957" style="stroke:#181818;stroke-width:1.0;"/><text fill="#000000" font-family="sans-serif" font-size="13" font-weight="bold" lengthAdjust="spacing" textLength="18" x="1709.5" y="1907.5596">27</text><text fill="#000000" font-family="sans-serif" font-size="13" lengthAdjust="spacing" textLength="658" x="1731.5" y="1899.9043">Parse Registration Request (webAuthnManager.parse(registrationRequest)) and set as Registration Data if</text><text fill="#000000" font-family="sans-serif" font-size="13" lengthAdjust="spacing" textLength="345" x="1731.5" y="1915.2148">successful (throw DataConversionException on failure)</text><path d="M1579,1945.957 L1579,2062.957 L1825,2062.957 L1825,1955.957 L1815,1945.957 L1579,1945.957 " fill="#FEFFDD" style="stroke:#181818;stroke-width:0.5;"/><path d="M1815,1945.957 L1815,1955.957 L1825,1955.957 L1815,1945.957 " fill="#FEFFDD" style="stroke:#181818;stroke-width:0.5;"/><text fill="#000000" font-family="sans-serif" font-size="13" lengthAdjust="spacing" textLength="94" x="1585" y="1963.5254">Server Property</text><text fill="#000000" font-family="sans-serif" font-size="13" lengthAdjust="spacing" textLength="4" x="1585" y="1978.8359">{</text><text fill="#000000" font-family="sans-serif" font-size="13" lengthAdjust="spacing" textLength="31" x="1601" y="1994.1465">RPId,</text><text fill="#000000" font-family="sans-serif" font-size="13" lengthAdjust="spacing" textLength="43" x="1601" y="2009.457">Origin,</text><text fill="#000000" font-family="sans-serif" font-size="13" lengthAdjust="spacing" textLength="201" x="1601" y="2024.7676">Challenge (SR25519 Public Key),</text><text fill="#000000" font-family="sans-serif" font-size="13" lengthAdjust="spacing" textLength="209" x="1601" y="2040.0781">TokenBindingID (this will be null)</text><text fill="#000000" font-family="sans-serif" font-size="13" lengthAdjust="spacing" textLength="4" x="1585" y="2055.3887">}</text><line style="stroke:#181818;stroke-width:1.0;" x1="1702.5" x2="1744.5" y1="2089.4414" y2="2089.4414"/><line style="stroke:#181818;stroke-width:1.0;" x1="1744.5" x2="1744.5" y1="2089.4414" y2="2102.4414"/><line style="stroke:#181818;stroke-width:1.0;" x1="1703.5" x2="1744.5" y1="2102.4414" y2="2102.4414"/><polygon fill="#181818" points="1713.5,2098.4414,1703.5,2102.4414,1713.5,2106.4414,1709.5,2102.4414" style="stroke:#181818;stroke-width:1.0;"/><text fill="#000000" font-family="sans-serif" font-size="13" font-weight="bold" lengthAdjust="spacing" textLength="18" x="1709.5" y="2084.6992">28</text><text fill="#000000" font-family="sans-serif" font-size="13" lengthAdjust="spacing" textLength="359" x="1731.5" y="2084.6992">Set ServerProperty object parameters to match client side</text><path d="M1616,2115.4414 L1616,2201.4414 L1788,2201.4414 L1788,2125.4414 L1778,2115.4414 L1616,2115.4414 " fill="#FEFFDD" style="stroke:#181818;stroke-width:0.5;"/><path d="M1778,2115.4414 L1778,2125.4414 L1788,2125.4414 L1778,2115.4414 " fill="#FEFFDD" style="stroke:#181818;stroke-width:0.5;"/><text fill="#000000" font-family="sans-serif" font-size="13" lengthAdjust="spacing" textLength="119" x="1622" y="2133.0098">PubKeyCredParams</text><text fill="#000000" font-family="sans-serif" font-size="13" lengthAdjust="spacing" textLength="4" x="1622" y="2148.3203">{</text><text fill="#000000" font-family="sans-serif" font-size="13" lengthAdjust="spacing" textLength="135" x="1638" y="2163.6309">type (ex: public-key),</text><text fill="#000000" font-family="sans-serif" font-size="13" lengthAdjust="spacing" textLength="96" x="1638" y="2178.9414">alg: (ex: ES256)</text><text fill="#000000" font-family="sans-serif" font-size="13" lengthAdjust="spacing" textLength="4" x="1622" y="2194.252">}</text><line style="stroke:#181818;stroke-width:1.0;" x1="1702.5" x2="1744.5" y1="2228.3047" y2="2228.3047"/><line style="stroke:#181818;stroke-width:1.0;" x1="1744.5" x2="1744.5" y1="2228.3047" y2="2241.3047"/><line style="stroke:#181818;stroke-width:1.0;" x1="1703.5" x2="1744.5" y1="2241.3047" y2="2241.3047"/><polygon fill="#181818" points="1713.5,2237.3047,1703.5,2241.3047,1713.5,2245.3047,1709.5,2241.3047" style="stroke:#181818;stroke-width:1.0;"/><text fill="#000000" font-family="sans-serif" font-size="13" font-weight="bold" lengthAdjust="spacing" textLength="18" x="1709.5" y="2223.5625">29</text><text fill="#000000" font-family="sans-serif" font-size="13" lengthAdjust="spacing" textLength="363" x="1731.5" y="2223.5625">Set PubKeyCredParams to match what is set on client side</text><path d="M1538,2254.3047 L1538,2371.3047 L1867,2371.3047 L1867,2264.3047 L1857,2254.3047 L1538,2254.3047 " fill="#FEFFDD" style="stroke:#181818;stroke-width:0.5;"/><path d="M1857,2254.3047 L1857,2264.3047 L1867,2264.3047 L1857,2254.3047 " fill="#FEFFDD" style="stroke:#181818;stroke-width:0.5;"/><text fill="#000000" font-family="sans-serif" font-size="13" lengthAdjust="spacing" textLength="149" x="1544" y="2271.873">Registration Parameters</text><text fill="#000000" font-family="sans-serif" font-size="13" lengthAdjust="spacing" textLength="4" x="1544" y="2287.1836">{</text><text fill="#000000" font-family="sans-serif" font-size="13" lengthAdjust="spacing" textLength="98" x="1560" y="2302.4941">Server Property,</text><text fill="#000000" font-family="sans-serif" font-size="13" lengthAdjust="spacing" textLength="123" x="1560" y="2317.8047">PubKeyCredParams,</text><text fill="#000000" font-family="sans-serif" font-size="13" lengthAdjust="spacing" textLength="104" x="1560" y="2333.1152">UserVerification,</text><text fill="#000000" font-family="sans-serif" font-size="13" lengthAdjust="spacing" textLength="292" x="1560" y="2348.4258">UserPresenceRequired (this can be set to true))</text><text fill="#000000" font-family="sans-serif" font-size="13" lengthAdjust="spacing" textLength="4" x="1544" y="2363.7363">}</text><line style="stroke:#181818;stroke-width:1.0;" x1="1702.5" x2="1744.5" y1="2397.7891" y2="2397.7891"/><line style="stroke:#181818;stroke-width:1.0;" x1="1744.5" x2="1744.5" y1="2397.7891" y2="2410.7891"/><line style="stroke:#181818;stroke-width:1.0;" x1="1703.5" x2="1744.5" y1="2410.7891" y2="2410.7891"/><polygon fill="#181818" points="1713.5,2406.7891,1703.5,2410.7891,1713.5,2414.7891,1709.5,2410.7891" style="stroke:#181818;stroke-width:1.0;"/><text fill="#000000" font-family="sans-serif" font-size="13" font-weight="bold" lengthAdjust="spacing" textLength="18" x="1709.5" y="2393.0469">30</text><text fill="#000000" font-family="sans-serif" font-size="13" lengthAdjust="spacing" textLength="193" x="1731.5" y="2393.0469">Create Registration Parameters</text><line style="stroke:#181818;stroke-width:1.0;" x1="1702.5" x2="1744.5" y1="2440.0996" y2="2440.0996"/><line style="stroke:#181818;stroke-width:1.0;" x1="1744.5" x2="1744.5" y1="2440.0996" y2="2453.0996"/><line style="stroke:#181818;stroke-width:1.0;" x1="1703.5" x2="1744.5" y1="2453.0996" y2="2453.0996"/><polygon fill="#181818" points="1713.5,2449.0996,1703.5,2453.0996,1713.5,2457.0996,1709.5,2453.0996" style="stroke:#181818;stroke-width:1.0;"/><text fill="#000000" font-family="sans-serif" font-size="13" font-weight="bold" lengthAdjust="spacing" textLength="18" x="1709.5" y="2435.3574">31</text><text fill="#000000" font-family="sans-serif" font-size="13" lengthAdjust="spacing" textLength="588" x="1731.5" y="2435.3574">Validate Registration Data and Registration Parameters (throw Validation Exception on failure)</text><path d="M1609,2466.0996 L1609,2583.0996 L1795,2583.0996 L1795,2476.0996 L1785,2466.0996 L1609,2466.0996 " fill="#FEFFDD" style="stroke:#181818;stroke-width:0.5;"/><path d="M1785,2466.0996 L1785,2476.0996 L1795,2476.0996 L1785,2466.0996 " fill="#FEFFDD" style="stroke:#181818;stroke-width:0.5;"/><text fill="#000000" font-family="sans-serif" font-size="13" lengthAdjust="spacing" textLength="135" x="1615" y="2483.668">CredentialRecordImpl</text><text fill="#000000" font-family="sans-serif" font-size="13" lengthAdjust="spacing" textLength="4" x="1615" y="2498.9785">{</text><text fill="#000000" font-family="sans-serif" font-size="13" lengthAdjust="spacing" textLength="115" x="1631" y="2514.2891">AttestationObject,</text><text fill="#000000" font-family="sans-serif" font-size="13" lengthAdjust="spacing" textLength="129" x="1631" y="2529.5996">CollectedClientData,</text><text fill="#000000" font-family="sans-serif" font-size="13" lengthAdjust="spacing" textLength="149" x="1631" y="2544.9102">ClientExtensionResults,</text><text fill="#000000" font-family="sans-serif" font-size="13" lengthAdjust="spacing" textLength="68" x="1631" y="2560.2207">Transports</text><text fill="#000000" font-family="sans-serif" font-size="13" lengthAdjust="spacing" textLength="4" x="1615" y="2575.5313">}</text><line style="stroke:#181818;stroke-width:1.0;" x1="1702.5" x2="1744.5" y1="2609.584" y2="2609.584"/><line style="stroke:#181818;stroke-width:1.0;" x1="1744.5" x2="1744.5" y1="2609.584" y2="2622.584"/><line style="stroke:#181818;stroke-width:1.0;" x1="1703.5" x2="1744.5" y1="2622.584" y2="2622.584"/><polygon fill="#181818" points="1713.5,2618.584,1703.5,2622.584,1713.5,2626.584,1709.5,2622.584" style="stroke:#181818;stroke-width:1.0;"/><text fill="#000000" font-family="sans-serif" font-size="13" font-weight="bold" lengthAdjust="spacing" textLength="18" x="1709.5" y="2604.8418">32</text><text fill="#000000" font-family="sans-serif" font-size="13" lengthAdjust="spacing" textLength="416" x="1731.5" y="2604.8418">If validated, create CredentialRecord Object (needed for webauthn)</text><line style="stroke:#181818;stroke-width:1.0;" x1="1702.5" x2="1744.5" y1="2651.8945" y2="2651.8945"/><line style="stroke:#181818;stroke-width:1.0;" x1="1744.5" x2="1744.5" y1="2651.8945" y2="2664.8945"/><line style="stroke:#181818;stroke-width:1.0;" x1="1703.5" x2="1744.5" y1="2664.8945" y2="2664.8945"/><polygon fill="#181818" points="1713.5,2660.8945,1703.5,2664.8945,1713.5,2668.8945,1709.5,2664.8945" style="stroke:#181818;stroke-width:1.0;"/><text fill="#000000" font-family="sans-serif" font-size="13" font-weight="bold" lengthAdjust="spacing" textLength="18" x="1709.5" y="2647.1523">33</text><text fill="#000000" font-family="sans-serif" font-size="13" lengthAdjust="spacing" textLength="523" x="1731.5" y="2647.1523">(Optional) Retrieve Passkey Signature of Account Public Key from AttestationObject</text><path d="M1684,2677.8945 L1684,2901.8945 L2395,2901.8945 L2395,2687.8945 L2385,2677.8945 L1684,2677.8945 " fill="#FEFFDD" style="stroke:#181818;stroke-width:0.5;"/><path d="M2385,2677.8945 L2385,2687.8945 L2395,2687.8945 L2385,2677.8945 " fill="#FEFFDD" style="stroke:#181818;stroke-width:0.5;"/><text fill="#000000" font-family="sans-serif" font-size="13" lengthAdjust="spacing" textLength="4" x="1690" y="2695.4629">[</text><text fill="#000000" font-family="sans-serif" font-size="13" lengthAdjust="spacing" textLength="111" x="1706" y="2710.7734">CredentialRecord,</text><text fill="#000000" font-family="sans-serif" font-size="13" lengthAdjust="spacing" textLength="66" x="1706" y="2726.084">Username,</text><text fill="#000000" font-family="sans-serif" font-size="13" lengthAdjust="spacing" textLength="44" x="1706" y="2741.3945">UserId,</text><text fill="#000000" font-family="sans-serif" font-size="13" lengthAdjust="spacing" textLength="80" x="1706" y="2756.7051">CredentialId,</text><text fill="#000000" font-family="sans-serif" font-size="13" lengthAdjust="spacing" textLength="210" x="1706" y="2772.0156">COMPRESSED Passkey public key,</text><text fill="#000000" font-family="sans-serif" font-size="13" lengthAdjust="spacing" textLength="240" x="1706" y="2787.3262">NONCOMPRESSED Passkey public key,</text><text fill="#000000" font-family="sans-serif" font-size="13" lengthAdjust="spacing" textLength="125" x="1706" y="2802.6367">Account public key,</text><text fill="#000000" font-family="sans-serif" font-size="13" lengthAdjust="spacing" textLength="346" x="1706" y="2817.9473">Account signature of COMPRESSED Passkey public key,</text><text fill="#000000" font-family="sans-serif" font-size="13" lengthAdjust="spacing" textLength="327" x="1706" y="2833.2578">(Optional: Passkey signature of account public key),</text><text fill="#000000" font-family="sans-serif" font-size="13" lengthAdjust="spacing" textLength="227" x="1706" y="2848.5684">counter (will we actually need this?),</text><text fill="#000000" font-family="sans-serif" font-size="13" lengthAdjust="spacing" textLength="674" x="1706" y="2863.8789">credentialDeviceType (authenticator attachment: platform = single device, cross-platform = multi-device),</text><text fill="#000000" font-family="sans-serif" font-size="13" lengthAdjust="spacing" textLength="613" x="1706" y="2879.1895">credentialBackedUp (How do we verify this? Is it just cross-platform = true and platform = false?)</text><text fill="#000000" font-family="sans-serif" font-size="13" lengthAdjust="spacing" textLength="4" x="1690" y="2894.5">]</text><polygon fill="#181818" points="2388.5,2924.5527,2398.5,2928.5527,2388.5,2932.5527,2392.5,2928.5527" style="stroke:#181818;stroke-width:1.0;"/><line style="stroke:#181818;stroke-width:1.0;" x1="1702.5" x2="2394.5" y1="2928.5527" y2="2928.5527"/><text fill="#000000" font-family="sans-serif" font-size="13" font-weight="bold" lengthAdjust="spacing" textLength="18" x="1709.5" y="2923.8105">34</text><text fill="#000000" font-family="sans-serif" font-size="13" lengthAdjust="spacing" textLength="168" x="1731.5" y="2923.8105">Save relevant passkey data</text><polygon fill="#181818" points="1713.5,2953.8633,1703.5,2957.8633,1713.5,2961.8633,1709.5,2957.8633" style="stroke:#181818;stroke-width:1.0;"/><line style="stroke:#181818;stroke-width:1.0;stroke-dasharray:2.0,2.0;" x1="1707.5" x2="2399.5" y1="2957.8633" y2="2957.8633"/><text fill="#000000" font-family="sans-serif" font-size="13" font-weight="bold" lengthAdjust="spacing" textLength="18" x="1719.5" y="2953.1211">35</text><text fill="#000000" font-family="sans-serif" font-size="13" lengthAdjust="spacing" textLength="4" x="1741.5" y="2953.1211">&#160;</text><polygon fill="#181818" points="34.5,2983.1738,24.5,2987.1738,34.5,2991.1738,30.5,2987.1738" style="stroke:#181818;stroke-width:1.0;"/><line style="stroke:#181818;stroke-width:1.0;" x1="28.5" x2="367.5" y1="2987.1738" y2="2987.1738"/><text fill="#000000" font-family="sans-serif" font-size="13" font-weight="bold" lengthAdjust="spacing" textLength="18" x="40.5" y="2982.4316">36</text><text fill="#000000" font-family="sans-serif" font-size="13" lengthAdjust="spacing" textLength="299" x="62.5" y="2982.4316">Let User know Registration has been completed</text><!--SRC=[ZLXDSnit4htFhq3fOhBAiYgkTTQXAt5Hihpc9Z5PfEGSl3w0CqqIqH0p0J2aMAdyzxm6C5yabPKEgX7G3RpkVlq1lTWuLzhHrLMPI-sgRVugBRPNblweIATqcIcvDdARlBWlC-ae4zzTlNvxzVhDYoIHbIjqjLsIIPnoEOcBcRJsWGvYJcjbdP5E5Lfyp8lzHI9JLnXnRya8QKMLbD8ubQeITugBtsIUanCtkIBjhgvDiOVS1GlkqxxaWjBAa9Xy12Ro4bQj-YBZocrmZ4ebRlGYyknjrp9z89s5QvO9h9DBQTcAmhgr8UjtoYIfnELF038AwFT5bMSYLmyaN26CjnJBclQY3EOd-xId0J1aRBqRLQ9pLd2EM9bYAnQJtyPN-FKngiEkaVYba9bGMYXlBtyjWNfjYafdOg1MVdMZiepqC856e_WVqeGhI6mrRGkjKaGKmIitXaty9yqRGwotcBz-y-Qx7yJFT31AhmF6PnrsP7sQg_J12jXwiLDmKaVrecjg2AdGy8VT57lDtgsymvNRTBLgjCqD9Q2LJ4reR2NYOfaY8C51y8tOw6gVm2iiMH5jg6rX5C4U8TTIFMcLfaSd96B15rbnaGRdnL1Vu6DDJwWkAuVqOSnzfOvuo0UWrnde0rQABLcB8rah8iMNTM1tGoz_MasjhgycGU7CQSmf3oJSvnq-JbEGp8bPjGHUfa74cGKgz1Ymc5_TGgUL7PvQuH0Pt1j462YxBHm9TfGCsVvtCVqiYkNlb3gnGhb03CMUbYWq6nrLGS-CirlcDZ8rHJedki1NiMEwf4dSc8P3apyJWHzJJhANyUkpZxKiIw7nDGpBJBQmmM6Q-5jMYiohdSmhUZ-COavjgQXS-4Cwe7VUttU74ggPCW0VHUanpQkCEf35W41Ls6wCF4GfsQrN2ygXZ-D68i3sWCagFe63C2WDhSZWoA7V_yl_jbLP5WR16UVhmY1-MpiIWw-N__w6v48PXoUbUs75xUBrc- -3OhhXCgZND18on3g4pr_2HLFSJxHxE_P8axyIq4QmbsDa9GAB0thLR133EEo4GoRDiQqVOaZQXSa7aCXneObECNBVtxq-mDDnSqwsn3NKzL5WsGSKSK-YmVtTnyktOjpnC_-CstXD0yq6DzVJEKfqMcGWz59fQGw2Uq5qRz0DcN7xw4XRw090bJjx9dwuGAQRBHD-W8RgmEAjs5aGlR3sibxf-TEGgumMvzpK9j6Su1tQKJSVemK-7Jk6nVLk1g8-WaDj2sgpi5k1Ow8-NMXONTGzlcLBn061ZGH2gzQQNNbeQeYl3tUVXc9cr8up4rgzdhE0IdjWFAzNXZeQRD62lLVlyONSecwclyxcjul5xOSpXdefwRWp79MxdP9zcxr3WzKT9zvwYXppZ8lOgU-vKL-ZCdx_htlJZMAWk5eTuZ77XEgNiN6MrTxc-s3K8SSy49E7ozKdN9yZ3Qm_zrs7gZN06dVcyoT885krvNA16Y7ruUkti1nzLfE5iYOWepOsyOw6eit6edPlYAR_V7TSQ4wnj2TDihuTnqNf7q0q5qvNuoEjzoTmv749E0kh7nxRGZifXFiba4qNTmoOIjSTVGTb6xsX6BYDigWqMLaefftCLUQRNqrMvf951bac9xU-R8a-kgml-H8LphNcXjnT1YsJtXm-vv7UkhhszcWIAjb9TNpP4MsT4LRl6XRrVDB0ZKtuB8HMQYQDFIya1kZyFClhNwL6MffN9SiEkWqdYWw7mNSOwj6uUeVvn47T-9-s5U9ZxQhAEH9uOlYzcqB3LspMxIE7ZtLuTf8gXpU7VNSkoF3Np1Gb6NU8dfpFwi5YQjHQwUYqclLS_S8etHcFeWiBF42kbSx0BEvndY1xXQwwn0XQvVdml6iNC3HWgQ7KGnDSXAhbdnj-67RffYvpF4BqpG6Us6vch5OFIiuFClGuYjNpyg41BFFrA6p5GU99UCTdjt3sc4G4xEHemTDFekk5STRO5K4UXIB0ExuqhF8qzuKCPhdK7zQkpb3d-97BDCBSbiK8f59p01WW9wAfQ3XyFiSxKC_axYavcRbF750JDMhpvZDOsiuFSqeBaqssPJrmFPNWHSvJ9sLjKJYR-Rsnv__b_sJLbBZiPVt6ESPMzyk1ndE2dnOO-kk1lrlx1c6Mb_cmCmd5ijdKTr6ipjN6u_aeZaVUPpcj7AkLoTUZYJJWQxd23uNshphZEpDglT8E8REJ8II8V9v-VePKRSbJwxPhzZFEQrmuQaHwHyYJ-sBI-sLGQ-0hqvuWwIeKjuFWe0bEcVUrQEEE3xHJAOKtKMz0vluR9sGKc7f2_f6VAUiSBS_hlJoQbx6_1VFKPTW-kSt_AoUxByNW4z8bAnZbZbF-4E292LxuJlnUeQsSdCm9xhEmixR2MmrFlkJRCRDBb3SUSWtUQJl-RrBTlFd944VvE1XK8_4BIeX_yp_mFnHwMRv1freIeG1YtigHxjdV]--></g></svg>