<?xml version="1.0" encoding="us-ascii" standalone="no"?><svg xmlns="http://www.w3.org/2000/svg" xmlns:xlink="http://www.w3.org/1999/xlink" contentStyleType="text/css" height="1543px" preserveAspectRatio="none" style="width:2792px;height:1543px;background:#FFFFFF;" version="1.1" viewBox="0 0 2792 1543" width="2792px" zoomAndPan="magnify"><defs/><g><text fill="#000000" font-family="sans-serif" font-size="14" font-weight="bold" lengthAdjust="spacing" textLength="187" x="1301.5" y="28.5352">Passkey Transaction Flow</text><line style="stroke:#181818;stroke-width:0.5;stroke-dasharray:5.0,5.0;" x1="278" x2="278" y1="118.9766" y2="1462.9883"/><line style="stroke:#181818;stroke-width:0.5;stroke-dasharray:5.0,5.0;" x1="694" x2="694" y1="118.9766" y2="1462.9883"/><line style="stroke:#181818;stroke-width:0.5;stroke-dasharray:5.0,5.0;" x1="1438.5" x2="1438.5" y1="118.9766" y2="1462.9883"/><line style="stroke:#181818;stroke-width:0.5;stroke-dasharray:5.0,5.0;" x1="1560.5" x2="1560.5" y1="118.9766" y2="1462.9883"/><line style="stroke:#181818;stroke-width:0.5;stroke-dasharray:5.0,5.0;" x1="2656" x2="2656" y1="118.9766" y2="1462.9883"/><line style="stroke:#181818;stroke-width:0.5;stroke-dasharray:5.0,5.0;" x1="2742" x2="2742" y1="118.9766" y2="1462.9883"/><text fill="#000000" font-family="sans-serif" font-size="14" lengthAdjust="spacing" textLength="31" x="260" y="116.0234">User</text><ellipse cx="278.5" cy="50.9883" fill="#E2E2F0" rx="8" ry="8" style="stroke:#181818;stroke-width:0.5;"/><path d="M278.5,58.9883 L278.5,85.9883 M265.5,66.9883 L291.5,66.9883 M278.5,85.9883 L265.5,100.9883 M278.5,85.9883 L291.5,100.9883 " fill="none" style="stroke:#181818;stroke-width:0.5;"/><text fill="#000000" font-family="sans-serif" font-size="14" lengthAdjust="spacing" textLength="31" x="260" y="1475.5234">User</text><ellipse cx="278.5" cy="1486.9766" fill="#E2E2F0" rx="8" ry="8" style="stroke:#181818;stroke-width:0.5;"/><path d="M278.5,1494.9766 L278.5,1521.9766 M265.5,1502.9766 L291.5,1502.9766 M278.5,1521.9766 L265.5,1536.9766 M278.5,1521.9766 L291.5,1536.9766 " fill="none" style="stroke:#181818;stroke-width:0.5;"/><rect fill="#E2E2F0" height="30.4883" rx="2.5" ry="2.5" style="stroke:#181818;stroke-width:0.5;" width="161" x="614" y="87.4883"/><text fill="#000000" font-family="sans-serif" font-size="14" lengthAdjust="spacing" textLength="147" x="621" y="108.0234">Wallet Client/Browser</text><rect fill="#E2E2F0" height="30.4883" rx="2.5" ry="2.5" style="stroke:#181818;stroke-width:0.5;" width="161" x="614" y="1461.9883"/><text fill="#000000" font-family="sans-serif" font-size="14" lengthAdjust="spacing" textLength="147" x="621" y="1482.5234">Wallet Client/Browser</text><rect fill="#E2E2F0" height="30.4883" rx="2.5" ry="2.5" style="stroke:#181818;stroke-width:0.5;" width="108" x="1384.5" y="87.4883"/><text fill="#000000" font-family="sans-serif" font-size="14" lengthAdjust="spacing" textLength="94" x="1391.5" y="108.0234">Authenticator</text><rect fill="#E2E2F0" height="30.4883" rx="2.5" ry="2.5" style="stroke:#181818;stroke-width:0.5;" width="108" x="1384.5" y="1461.9883"/><text fill="#000000" font-family="sans-serif" font-size="14" lengthAdjust="spacing" textLength="94" x="1391.5" y="1482.5234">Authenticator</text><rect fill="#E2E2F0" height="30.4883" rx="2.5" ry="2.5" style="stroke:#181818;stroke-width:0.5;" width="116" x="1502.5" y="87.4883"/><text fill="#000000" font-family="sans-serif" font-size="14" lengthAdjust="spacing" textLength="102" x="1509.5" y="108.0234">Wallet Backend</text><rect fill="#E2E2F0" height="30.4883" rx="2.5" ry="2.5" style="stroke:#181818;stroke-width:0.5;" width="116" x="1502.5" y="1461.9883"/><text fill="#000000" font-family="sans-serif" font-size="14" lengthAdjust="spacing" textLength="102" x="1509.5" y="1482.5234">Wallet Backend</text><text fill="#000000" font-family="sans-serif" font-size="14" lengthAdjust="spacing" textLength="59" x="2624" y="116.0234">Postgres</text><path d="M2638.5,66.4883 C2638.5,56.4883 2656.5,56.4883 2656.5,56.4883 C2656.5,56.4883 2674.5,56.4883 2674.5,66.4883 L2674.5,92.4883 C2674.5,102.4883 2656.5,102.4883 2656.5,102.4883 C2656.5,102.4883 2638.5,102.4883 2638.5,92.4883 L2638.5,66.4883 " fill="#E2E2F0" style="stroke:#181818;stroke-width:1.5;"/><path d="M2638.5,66.4883 C2638.5,76.4883 2656.5,76.4883 2656.5,76.4883 C2656.5,76.4883 2674.5,76.4883 2674.5,66.4883 " fill="none" style="stroke:#181818;stroke-width:1.5;"/><text fill="#000000" font-family="sans-serif" font-size="14" lengthAdjust="spacing" textLength="59" x="2624" y="1475.5234">Postgres</text><path d="M2638.5,1488.4766 C2638.5,1478.4766 2656.5,1478.4766 2656.5,1478.4766 C2656.5,1478.4766 2674.5,1478.4766 2674.5,1488.4766 L2674.5,1514.4766 C2674.5,1524.4766 2656.5,1524.4766 2656.5,1524.4766 C2656.5,1524.4766 2638.5,1524.4766 2638.5,1514.4766 L2638.5,1488.4766 " fill="#E2E2F0" style="stroke:#181818;stroke-width:1.5;"/><path d="M2638.5,1488.4766 C2638.5,1498.4766 2656.5,1498.4766 2656.5,1498.4766 C2656.5,1498.4766 2674.5,1498.4766 2674.5,1488.4766 " fill="none" style="stroke:#181818;stroke-width:1.5;"/><rect fill="#E2E2F0" height="30.4883" rx="2.5" ry="2.5" style="stroke:#181818;stroke-width:0.5;" width="87" x="2699" y="87.4883"/><text fill="#000000" font-family="sans-serif" font-size="14" lengthAdjust="spacing" textLength="73" x="2706" y="108.0234">Blockchain</text><rect fill="#E2E2F0" height="30.4883" rx="2.5" ry="2.5" style="stroke:#181818;stroke-width:0.5;" width="87" x="2699" y="1461.9883"/><text fill="#000000" font-family="sans-serif" font-size="14" lengthAdjust="spacing" textLength="73" x="2706" y="1482.5234">Blockchain</text><path d="M100,133.9766 L100,158.9766 L457,158.9766 L457,143.9766 L447,133.9766 L100,133.9766 " fill="#FEFFDD" style="stroke:#181818;stroke-width:0.5;"/><path d="M447,133.9766 L447,143.9766 L457,143.9766 L447,133.9766 " fill="#FEFFDD" style="stroke:#181818;stroke-width:0.5;"/><text fill="#000000" font-family="sans-serif" font-size="13" lengthAdjust="spacing" textLength="336" x="106" y="151.5449">Changes to be made based on what UI/UX will be like</text><path d="M5,169.2871 L5,194.2871 L552,194.2871 L552,179.2871 L542,169.2871 L5,169.2871 " fill="#FEFFDD" style="stroke:#181818;stroke-width:0.5;"/><path d="M542,169.2871 L542,179.2871 L552,179.2871 L542,169.2871 " fill="#FEFFDD" style="stroke:#181818;stroke-width:0.5;"/><text fill="#000000" font-family="sans-serif" font-size="13" lengthAdjust="spacing" textLength="526" x="11" y="186.8555">How will username/userIdentifier be known, will it be given on ingress to this flow?</text><polygon fill="#181818" points="682.5,216.9082,692.5,220.9082,682.5,224.9082,686.5,220.9082" style="stroke:#181818;stroke-width:1.0;"/><line style="stroke:#181818;stroke-width:1.0;" x1="278.5" x2="688.5" y1="220.9082" y2="220.9082"/><text fill="#000000" font-family="sans-serif" font-size="13" font-weight="bold" lengthAdjust="spacing" textLength="9" x="285.5" y="216.166">1</text><text fill="#000000" font-family="sans-serif" font-size="13" lengthAdjust="spacing" textLength="248" x="298.5" y="216.166">User would like to submit a transaction</text><polygon fill="#181818" points="682.5,246.2188,692.5,250.2188,682.5,254.2188,686.5,250.2188" style="stroke:#181818;stroke-width:1.0;"/><line style="stroke:#181818;stroke-width:1.0;" x1="278.5" x2="688.5" y1="250.2188" y2="250.2188"/><text fill="#000000" font-family="sans-serif" font-size="13" font-weight="bold" lengthAdjust="spacing" textLength="9" x="285.5" y="245.4766">2</text><text fill="#000000" font-family="sans-serif" font-size="13" lengthAdjust="spacing" textLength="293" x="298.5" y="245.4766">User clicks button to start transaction process</text><polygon fill="#181818" points="1548.5,275.5293,1558.5,279.5293,1548.5,283.5293,1552.5,279.5293" style="stroke:#181818;stroke-width:1.0;"/><line style="stroke:#181818;stroke-width:1.0;" x1="694.5" x2="1554.5" y1="279.5293" y2="279.5293"/><text fill="#000000" font-family="sans-serif" font-size="13" font-weight="bold" lengthAdjust="spacing" textLength="9" x="701.5" y="274.7871">3</text><text fill="#000000" font-family="sans-serif" font-size="13" lengthAdjust="spacing" textLength="629" x="714.5" y="274.7871">GET user passkey data to create passkey transaction payload (userIdentifier (or whatever username))</text><polygon fill="#181818" points="2644.5,304.8398,2654.5,308.8398,2644.5,312.8398,2648.5,308.8398" style="stroke:#181818;stroke-width:1.0;"/><line style="stroke:#181818;stroke-width:1.0;" x1="1560.5" x2="2650.5" y1="308.8398" y2="308.8398"/><text fill="#000000" font-family="sans-serif" font-size="13" font-weight="bold" lengthAdjust="spacing" textLength="9" x="1567.5" y="304.0977">4</text><text fill="#000000" font-family="sans-serif" font-size="13" lengthAdjust="spacing" textLength="1059" x="1580.5" y="304.0977">Retrieve credential record data, (compressed) passkey public key, account public key, passkey signature from db using username/(userIdentifier (or whatever username)</text><polygon fill="#181818" points="1571.5,334.1504,1561.5,338.1504,1571.5,342.1504,1567.5,338.1504" style="stroke:#181818;stroke-width:1.0;"/><line style="stroke:#181818;stroke-width:1.0;" x1="1565.5" x2="2655.5" y1="338.1504" y2="338.1504"/><text fill="#000000" font-family="sans-serif" font-size="13" font-weight="bold" lengthAdjust="spacing" textLength="9" x="1577.5" y="333.4082">5</text><text fill="#000000" font-family="sans-serif" font-size="13" lengthAdjust="spacing" textLength="508" x="1590.5" y="333.4082">Send user's data to "Wallet Backend" (credential record id, public keys, signature)</text><polygon fill="#181818" points="705.5,363.4609,695.5,367.4609,705.5,371.4609,701.5,367.4609" style="stroke:#181818;stroke-width:1.0;"/><line style="stroke:#181818;stroke-width:1.0;" x1="699.5" x2="1559.5" y1="367.4609" y2="367.4609"/><text fill="#000000" font-family="sans-serif" font-size="13" font-weight="bold" lengthAdjust="spacing" textLength="9" x="711.5" y="362.7188">6</text><text fill="#000000" font-family="sans-serif" font-size="13" lengthAdjust="spacing" textLength="287" x="724.5" y="362.7188">Send payload with user passkey data to client</text><path d="M1378,380.4609 L1378,481.4609 L1743,481.4609 L1743,390.4609 L1733,380.4609 L1378,380.4609 " fill="#FEFFDD" style="stroke:#181818;stroke-width:0.5;"/><path d="M1733,380.4609 L1733,390.4609 L1743,390.4609 L1733,380.4609 " fill="#FEFFDD" style="stroke:#181818;stroke-width:0.5;"/><text fill="#000000" font-family="sans-serif" font-size="13" lengthAdjust="spacing" textLength="102" x="1384" y="398.0293">User Keys Data {</text><text fill="#000000" font-family="sans-serif" font-size="13" lengthAdjust="spacing" textLength="245" x="1392" y="413.3398">Compressed Passkey Public Key Object</text><text fill="#000000" font-family="sans-serif" font-size="13" lengthAdjust="spacing" textLength="165" x="1392" y="428.6504">Account Public Key Object</text><text fill="#000000" font-family="sans-serif" font-size="13" lengthAdjust="spacing" textLength="336" x="1392" y="443.9609">Account Signature of Compressed Passkey Public Key</text><text fill="#000000" font-family="sans-serif" font-size="13" lengthAdjust="spacing" textLength="250" x="1392" y="459.2715">Credential IDs associated with this user</text><text fill="#000000" font-family="sans-serif" font-size="13" lengthAdjust="spacing" textLength="4" x="1384" y="474.582">}</text><polygon fill="#181818" points="682.5,504.6348,692.5,508.6348,682.5,512.6348,686.5,508.6348" style="stroke:#181818;stroke-width:1.0;"/><line style="stroke:#181818;stroke-width:1.0;" x1="278.5" x2="688.5" y1="508.6348" y2="508.6348"/><text fill="#000000" font-family="sans-serif" font-size="13" font-weight="bold" lengthAdjust="spacing" textLength="9" x="285.5" y="503.8926">7</text><text fill="#000000" font-family="sans-serif" font-size="13" lengthAdjust="spacing" textLength="379" x="298.5" y="503.8926">User fills out form (or whatever it is) to submit a transaction</text><line style="stroke:#181818;stroke-width:1.0;" x1="694.5" x2="736.5" y1="537.9453" y2="537.9453"/><line style="stroke:#181818;stroke-width:1.0;" x1="736.5" x2="736.5" y1="537.9453" y2="550.9453"/><line style="stroke:#181818;stroke-width:1.0;" x1="695.5" x2="736.5" y1="550.9453" y2="550.9453"/><polygon fill="#181818" points="705.5,546.9453,695.5,550.9453,705.5,554.9453,701.5,550.9453" style="stroke:#181818;stroke-width:1.0;"/><text fill="#000000" font-family="sans-serif" font-size="13" font-weight="bold" lengthAdjust="spacing" textLength="9" x="701.5" y="533.2031">8</text><text fill="#000000" font-family="sans-serif" font-size="13" lengthAdjust="spacing" textLength="363" x="714.5" y="533.2031">On submit, actual transaction call to Frequency is created</text><path d="M439,563.9453 L439,588.9453 L949,588.9453 L949,573.9453 L939,563.9453 L439,563.9453 " fill="#FEFFDD" style="stroke:#181818;stroke-width:0.5;"/><path d="M939,563.9453 L939,573.9453 L949,573.9453 L939,563.9453 " fill="#FEFFDD" style="stroke:#181818;stroke-width:0.5;"/><text fill="#000000" font-family="sans-serif" font-size="13" lengthAdjust="spacing" textLength="489" x="445" y="581.5137">Assuming this transaction call will be done client side and sent to blockchain</text><line style="stroke:#181818;stroke-width:1.0;" x1="694.5" x2="736.5" y1="615.5664" y2="615.5664"/><line style="stroke:#181818;stroke-width:1.0;" x1="736.5" x2="736.5" y1="615.5664" y2="628.5664"/><line style="stroke:#181818;stroke-width:1.0;" x1="695.5" x2="736.5" y1="628.5664" y2="628.5664"/><polygon fill="#181818" points="705.5,624.5664,695.5,628.5664,705.5,632.5664,701.5,628.5664" style="stroke:#181818;stroke-width:1.0;"/><text fill="#000000" font-family="sans-serif" font-size="13" font-weight="bold" lengthAdjust="spacing" textLength="9" x="701.5" y="610.8242">9</text><text fill="#000000" font-family="sans-serif" font-size="13" lengthAdjust="spacing" textLength="717" x="714.5" y="610.8242">Create passkey call data to submit to Frequency using transaction call, account signature, and account public key</text><path d="M464,641.5664 L464,742.5664 L925,742.5664 L925,651.5664 L915,641.5664 L464,641.5664 " fill="#FEFFDD" style="stroke:#181818;stroke-width:0.5;"/><path d="M915,641.5664 L915,651.5664 L925,651.5664 L915,641.5664 " fill="#FEFFDD" style="stroke:#181818;stroke-width:0.5;"/><text fill="#000000" font-family="sans-serif" font-size="13" lengthAdjust="spacing" textLength="111" x="470" y="659.1348">Passkey Call Data</text><text fill="#000000" font-family="sans-serif" font-size="13" lengthAdjust="spacing" textLength="4" x="470" y="674.4453">{</text><text fill="#000000" font-family="sans-serif" font-size="13" lengthAdjust="spacing" textLength="194" x="478" y="689.7559">accountId: Account Public Key,</text><text fill="#000000" font-family="sans-serif" font-size="13" lengthAdjust="spacing" textLength="432" x="478" y="705.0664">accountOwnershipProof: { Account Signature of Passkey Public Key },</text><text fill="#000000" font-family="sans-serif" font-size="13" lengthAdjust="spacing" textLength="325" x="478" y="720.377">call: PasskeyCall (the one created in the step above)</text><text fill="#000000" font-family="sans-serif" font-size="13" lengthAdjust="spacing" textLength="4" x="470" y="735.6875">}</text><polygon fill="#181818" points="1426.5,765.7402,1436.5,769.7402,1426.5,773.7402,1430.5,769.7402" style="stroke:#181818;stroke-width:1.0;"/><line style="stroke:#181818;stroke-width:1.0;" x1="694.5" x2="1432.5" y1="769.7402" y2="769.7402"/><text fill="#000000" font-family="sans-serif" font-size="13" font-weight="bold" lengthAdjust="spacing" textLength="18" x="701.5" y="764.998">10</text><text fill="#000000" font-family="sans-serif" font-size="13" lengthAdjust="spacing" textLength="480" x="723.5" y="764.998">Using @simplewebauthn/browser, do the handleAuthentication(options) call</text><path d="M393,782.7402 L393,899.7402 L995,899.7402 L995,792.7402 L985,782.7402 L393,782.7402 " fill="#FEFFDD" style="stroke:#181818;stroke-width:0.5;"/><path d="M985,782.7402 L985,792.7402 L995,792.7402 L985,782.7402 " fill="#FEFFDD" style="stroke:#181818;stroke-width:0.5;"/><text fill="#000000" font-family="sans-serif" font-size="13" lengthAdjust="spacing" textLength="58" x="399" y="800.3086">Options {</text><text fill="#000000" font-family="sans-serif" font-size="13" lengthAdjust="spacing" textLength="326" x="407" y="815.6191">challenge: Passkey Call Data (in UInt8 array format),</text><text fill="#000000" font-family="sans-serif" font-size="13" lengthAdjust="spacing" textLength="278" x="407" y="830.9297">timeout: Number in seconds (60000 is fine),</text><text fill="#000000" font-family="sans-serif" font-size="13" lengthAdjust="spacing" textLength="134" x="407" y="846.2402">rpId: Relying Party Id,</text><text fill="#000000" font-family="sans-serif" font-size="13" lengthAdjust="spacing" textLength="573" x="407" y="861.5508">allowCredentials: Array of authenticators credentialIds, this will need to be gotten from db,</text><text fill="#000000" font-family="sans-serif" font-size="13" lengthAdjust="spacing" textLength="169" x="407" y="876.8613">userVerification: "required"</text><text fill="#000000" font-family="sans-serif" font-size="13" lengthAdjust="spacing" textLength="4" x="399" y="892.1719">}</text><polygon fill="#181818" points="705.5,922.2246,695.5,926.2246,705.5,930.2246,701.5,926.2246" style="stroke:#181818;stroke-width:1.0;"/><line style="stroke:#181818;stroke-width:1.0;" x1="699.5" x2="1437.5" y1="926.2246" y2="926.2246"/><text fill="#000000" font-family="sans-serif" font-size="13" font-weight="bold" lengthAdjust="spacing" textLength="18" x="711.5" y="921.4824">11</text><text fill="#000000" font-family="sans-serif" font-size="13" lengthAdjust="spacing" textLength="367" x="733.5" y="921.4824">Signs and returns credential data if successful, error if not</text><path d="M1084,939.2246 L1084,1132.2246 L1792,1132.2246 L1792,949.2246 L1782,939.2246 L1084,939.2246 " fill="#FEFFDD" style="stroke:#181818;stroke-width:0.5;"/><path d="M1782,939.2246 L1782,949.2246 L1792,949.2246 L1782,939.2246 " fill="#FEFFDD" style="stroke:#181818;stroke-width:0.5;"/><text fill="#000000" font-family="sans-serif" font-size="13" lengthAdjust="spacing" textLength="105" x="1090" y="956.793">Credential Data {</text><text fill="#000000" font-family="sans-serif" font-size="13" lengthAdjust="spacing" textLength="110" x="1122" y="972.1035">- Id: credential id</text><text fill="#000000" font-family="sans-serif" font-size="13" lengthAdjust="spacing" textLength="191" x="1122" y="987.4141">- rawId: credential id in binary</text><text fill="#000000" font-family="sans-serif" font-size="13" lengthAdjust="spacing" textLength="73" x="1122" y="1002.7246">- response:</text><text fill="#000000" font-family="sans-serif" font-size="13" lengthAdjust="spacing" textLength="566" x="1138" y="1018.0352">- authenticatorData: Similar to authData in registration but doesn&#8217;t include the public key</text><text fill="#000000" font-family="sans-serif" font-size="13" lengthAdjust="spacing" textLength="275" x="1138" y="1033.3457">- clientDataJSON (parsed as a UTF-8 string)</text><text fill="#000000" font-family="sans-serif" font-size="13" lengthAdjust="spacing" textLength="193" x="1154" y="1048.6563">- Challenge: Passkey Call Data</text><text fill="#000000" font-family="sans-serif" font-size="13" lengthAdjust="spacing" textLength="522" x="1154" y="1063.9668">- origin: Server must validate that the origin string matches with application origin</text><text fill="#000000" font-family="sans-serif" font-size="13" lengthAdjust="spacing" textLength="373" x="1154" y="1079.2773">- type: Server validates that this is a &#8220;WebAuthn.get&#8221; object</text><text fill="#000000" font-family="sans-serif" font-size="13" lengthAdjust="spacing" textLength="639" x="1138" y="1094.5879">- Signature: This will effectively be the passkey call data signature since that was the challenge given</text><text fill="#000000" font-family="sans-serif" font-size="13" lengthAdjust="spacing" textLength="140" x="1138" y="1109.8984">- clientExtensionJSON</text><text fill="#000000" font-family="sans-serif" font-size="13" lengthAdjust="spacing" textLength="4" x="1090" y="1125.209">}</text><line style="stroke:#181818;stroke-width:1.0;" x1="694.5" x2="736.5" y1="1159.2617" y2="1159.2617"/><line style="stroke:#181818;stroke-width:1.0;" x1="736.5" x2="736.5" y1="1159.2617" y2="1172.2617"/><line style="stroke:#181818;stroke-width:1.0;" x1="695.5" x2="736.5" y1="1172.2617" y2="1172.2617"/><polygon fill="#181818" points="705.5,1168.2617,695.5,1172.2617,705.5,1176.2617,701.5,1172.2617" style="stroke:#181818;stroke-width:1.0;"/><text fill="#000000" font-family="sans-serif" font-size="13" font-weight="bold" lengthAdjust="spacing" textLength="18" x="701.5" y="1154.5195">12</text><text fill="#000000" font-family="sans-serif" font-size="13" lengthAdjust="spacing" textLength="612" x="723.5" y="1154.5195">Parse signature, authenticatorData, clientExtensionJSON and ClientDataJSON from credential data</text><line style="stroke:#181818;stroke-width:1.0;" x1="694.5" x2="736.5" y1="1201.5723" y2="1201.5723"/><line style="stroke:#181818;stroke-width:1.0;" x1="736.5" x2="736.5" y1="1201.5723" y2="1214.5723"/><line style="stroke:#181818;stroke-width:1.0;" x1="695.5" x2="736.5" y1="1214.5723" y2="1214.5723"/><polygon fill="#181818" points="705.5,1210.5723,695.5,1214.5723,705.5,1218.5723,701.5,1214.5723" style="stroke:#181818;stroke-width:1.0;"/><text fill="#000000" font-family="sans-serif" font-size="13" font-weight="bold" lengthAdjust="spacing" textLength="18" x="701.5" y="1196.8301">13</text><text fill="#000000" font-family="sans-serif" font-size="13" lengthAdjust="spacing" textLength="146" x="723.5" y="1196.8301">Create Passkey Payload</text><path d="M376,1227.5723 L376,1359.5723 L1012,1359.5723 L1012,1237.5723 L1002,1227.5723 L376,1227.5723 " fill="#FEFFDD" style="stroke:#181818;stroke-width:0.5;"/><path d="M1002,1227.5723 L1002,1237.5723 L1012,1237.5723 L1002,1227.5723 " fill="#FEFFDD" style="stroke:#181818;stroke-width:0.5;"/><text fill="#000000" font-family="sans-serif" font-size="13" lengthAdjust="spacing" textLength="102" x="382" y="1245.1406">Passkey Payload</text><text fill="#000000" font-family="sans-serif" font-size="13" lengthAdjust="spacing" textLength="4" x="382" y="1260.4512">{</text><text fill="#000000" font-family="sans-serif" font-size="13" lengthAdjust="spacing" textLength="316" x="398" y="1275.7617">passkeyPublicKey: Array.from(Passkey Public Key),</text><text fill="#000000" font-family="sans-serif" font-size="13" lengthAdjust="spacing" textLength="599" x="398" y="1291.0723">passkeySignature: Array.from(base64UrlToUint8Array(Passkey Signature from Credential Data)),</text><text fill="#000000" font-family="sans-serif" font-size="13" lengthAdjust="spacing" textLength="551" x="398" y="1306.3828">passkeyAuthenticator: Array.from(base64UrlToUint8Array(Passkey Authenticator Data)),</text><text fill="#000000" font-family="sans-serif" font-size="13" lengthAdjust="spacing" textLength="509" x="398" y="1321.6934">passkeyClientDataJson: Array.from(base64UrlToUint8Array(Passkey Client Data)),</text><text fill="#000000" font-family="sans-serif" font-size="13" lengthAdjust="spacing" textLength="325" x="398" y="1337.0039">passkeyCall: Passkey Call Data (like the challenge)),</text><text fill="#000000" font-family="sans-serif" font-size="13" lengthAdjust="spacing" textLength="4" x="382" y="1352.3145">}</text><polygon fill="#181818" points="2730.5,1382.3672,2740.5,1386.3672,2730.5,1390.3672,2734.5,1386.3672" style="stroke:#181818;stroke-width:1.0;"/><line style="stroke:#181818;stroke-width:1.0;" x1="694.5" x2="2736.5" y1="1386.3672" y2="1386.3672"/><text fill="#000000" font-family="sans-serif" font-size="13" font-weight="bold" lengthAdjust="spacing" textLength="18" x="701.5" y="1381.625">14</text><text fill="#000000" font-family="sans-serif" font-size="13" lengthAdjust="spacing" textLength="545" x="723.5" y="1381.625">Create transaction from Passkey Payload and send to blockchain as unsigned extrinsic</text><polygon fill="#181818" points="705.5,1411.6777,695.5,1415.6777,705.5,1419.6777,701.5,1415.6777" style="stroke:#181818;stroke-width:1.0;"/><line style="stroke:#181818;stroke-width:1.0;" x1="699.5" x2="2741.5" y1="1415.6777" y2="1415.6777"/><text fill="#000000" font-family="sans-serif" font-size="13" font-weight="bold" lengthAdjust="spacing" textLength="18" x="711.5" y="1410.9355">15</text><text fill="#000000" font-family="sans-serif" font-size="13" lengthAdjust="spacing" textLength="337" x="733.5" y="1410.9355">Get some verification that transaction was successful</text><polygon fill="#181818" points="289.5,1440.9883,279.5,1444.9883,289.5,1448.9883,285.5,1444.9883" style="stroke:#181818;stroke-width:1.0;"/><line style="stroke:#181818;stroke-width:1.0;" x1="283.5" x2="693.5" y1="1444.9883" y2="1444.9883"/><text fill="#000000" font-family="sans-serif" font-size="13" font-weight="bold" lengthAdjust="spacing" textLength="18" x="295.5" y="1440.2461">16</text><text fill="#000000" font-family="sans-serif" font-size="13" lengthAdjust="spacing" textLength="244" x="317.5" y="1440.2461">Notify user transaction was successful</text><!--SRC=[bLVRRXit47tVhnZu9H8WHtqeWa0FQMFbKhL0RCHMqrSkbv9OSSajoVL620BuDmgqF-SlwGov5wua1wbVOY-7SpbpvWppRETzvHRpUQMOzdMfddDJpftugnQQYyj2igrbPPQnsXjTbxcmcPTU2RYuOSxjnG7kBDEESI-DXdVAD1SP_c4ih9smm1pKMSMibrnM600kFZ6bX8UbaaBx-PKr3TfTa673nvQlQxz36yaPkWiMxAohAyRtGXVHHvuLpBESEShGEB-rmeMJQdptIXc-vpicTJZDUPPfumMOUyowpfOxfhV2WJUG2oXP8O1y5e15DZlcORsQh_-0HYf51ahkHOOv0FaOEVh5DD6gnZ8rAyMSVbaLLDX6eWdUtclJw5aqavw-REMzq1HBQYeWvE5tqi460VvfY5J3vIl4RH71RaojYf0BsRiwBz4R0pyqwEW2LvBliVZQOtF37OyOfHUWiePZ0bd3myry0U_VteLYe6e9G83JPMu5myAxpoClxA0CAs1oLFm4UK9mYW1MYz1qcZKvHQiMy55uA_6Kd8ThJ84LtDWYX9t11EbQ4KIYcFQXgph7oW1_dG7ZtDJOyVHRP-VaLZDVMm4RQqeeSim14HzwzNtvPbM7pIrrXhu_Spqi9pITdDOYYrcIe9iDcNLOKC-2zmxAHlhT4tq8evMm48SYjFitT0rloEfB1h3iWODkb6zY2cW7r_cVWdiqUztYzwspsnv7i_csNuexLBzwWpFjdE4I8MrB2ZIdkhAl0y-FUBl1IN5WQWyROyjnLv3oqasV782Mn-ZfMhSMn15VOpefOpasZPoyir4A3-YrPNYHGikpryxL9R4cP7xYevE8mcZHjWQxYth2i3X7Vv76z6eqr3nakXmFLd3RDRijSfHf9F5n9iCezEIQXIHE9sHSODV59SKb-cH4d_RMgbYSeSXiCBXkjB1k9wiRQync0L_Ei-OC1R-I5yfyqPs632Qu5I206Rk16WdqoNbH0SinwsbAdGWZ8-OGAZyxMLPAD2B7ZRRJypmke1ds9tX1tI-KI5OFmZSn5Vs3hA9ink1SnwCmKTX0d7JS6tt20sOmmJJNA-rV0hEM7G9pcPzIZLwM0icyW0zXmL913dL15mucBtx07-BUHceHh6r5c7yKwa3rtA1W7s1L1CGLReTXl1ns9eH2U5cwIrsYfgi2rIOmDn1L2mGqBhsjyHwNKAkCv9-cydTXKGeZBWku8Cv9T7QHGivwmS8Eky0nAx3HEWqS6Imto61E6sPJ8qE5jJZB-17z93YpB16DNi3YpoKG78bVMIHdbZKdnuHlBZMpXzHGk0hxA1Rzj_Xz11o5fgfAgPWbcEWqv8CkhTXAXqCN1WvNAZ9AEFtuy3SAakQgnf4dWYLJDeuKjO6y_Nfx_G4c-5mX3QLd3wpltbs-H8PRRFbqT2_UNNw3UMVCZPLRgMcXM8Ath9s7UwPaGJBZwNaJPYnOjL7n3UJvJhWeqgogL4k2rknC57-eH1-ZS-yw_yWuIQKzFlppIUGqSFhvLlZ7Xt_1TFibzTQhnGBkUhgApGOjyR6a3aJPWE-9IWvR7XM0jmKsp0NpVcRZc-jiJzv-na5mM2irvbHRYEatrAoHi1xpPdREMPYDvRZnOU2EvkHq6VHw6Py3vnMxEupJqY8J5HO5jfM7vnHmSgg_GMpwMmdyoIrw4x_uSMtLdLbBrBPmrFkw7J-lZcPuEWumUkt_Zo2ZU-SS9_0wqgplzXmlddMPBgLKu-FREwKLtJnXJ3xqCTtI0QMZtdNFX6ByJ0Z_iTB4DvG8yPb6r4cUvJrDtkEBqvbIm7qYsEti9I5f30O1RjEhSHCPVF4UulloQVl_0000]--></g></svg>